  0
SECTION
  2
HEADER
  9
$ACADVER
  1
AC1014
  9
$ACADMAINTVER
 70
     0
  9
$DWGCODEPAGE
  3
ANSI_1252
  9
$INSBASE
 10
0.0
 20
0.0
 30
0.0
  9
$EXTMIN
 10
-1241.326782
 20
-930.163391
 30
0.0
  9
$EXTMAX
 10
16.0
 20
30.326838
 30
2.0
  9
$LIMMIN
 10
0.0
 20
0.0
  9
$LIMMAX
 10
12.0
 20
9.0
  9
$ORTHOMODE
 70
     0
  9
$REGENMODE
 70
     1
  9
$FILLMODE
 70
     1
  9
$QTEXTMODE
 70
     0
  9
$MIRRTEXT
 70
     1
  9
$DRAGMODE
 70
     2
  9
$LTSCALE
 40
1.0
  9
$OSMODE
 70
     0
  9
$ATTMODE
 70
     1
  9
$TEXTSIZE
 40
0.2
  9
$TRACEWID
 40
0.05
  9
$TEXTSTYLE
  7
STANDARD
  9
$CLAYER
  8
0
  9
$CELTYPE
  6
BYLAYER
  9
$CECOLOR
 62
   256
  9
$CELTSCALE
 40
1.0
  9
$DELOBJ
 70
     1
  9
$DISPSILH
 70
     0
  9
$DIMSCALE
 40
1.0
  9
$DIMASZ
 40
0.18
  9
$DIMEXO
 40
0.0625
  9
$DIMDLI
 40
0.38
  9
$DIMRND
 40
0.0
  9
$DIMDLE
 40
0.0
  9
$DIMEXE
 40
0.18
  9
$DIMTP
 40
0.0
  9
$DIMTM
 40
0.0
  9
$DIMTXT
 40
0.18
  9
$DIMCEN
 40
0.09
  9
$DIMTSZ
 40
0.0
  9
$DIMTOL
 70
     0
  9
$DIMLIM
 70
     0
  9
$DIMTIH
 70
     1
  9
$DIMTOH
 70
     1
  9
$DIMSE1
 70
     0
  9
$DIMSE2
 70
     0
  9
$DIMTAD
 70
     0
  9
$DIMZIN
 70
     0
  9
$DIMBLK
  1

  9
$DIMASO
 70
     1
  9
$DIMSHO
 70
     1
  9
$DIMPOST
  1

  9
$DIMAPOST
  1

  9
$DIMALT
 70
     0
  9
$DIMALTD
 70
     2
  9
$DIMALTF
 40
25.4
  9
$DIMLFAC
 40
1.0
  9
$DIMTOFL
 70
     0
  9
$DIMTVP
 40
0.0
  9
$DIMTIX
 70
     0
  9
$DIMSOXD
 70
     0
  9
$DIMSAH
 70
     0
  9
$DIMBLK1
  1

  9
$DIMBLK2
  1

  9
$DIMSTYLE
  2

  9
$DIMCLRD
 70
     0
  9
$DIMCLRE
 70
     0
  9
$DIMCLRT
 70
     0
  9
$DIMTFAC
 40
1.0
  9
$DIMGAP
 40
0.09
  9
$DIMJUST
 70
     0
  9
$DIMSD1
 70
     0
  9
$DIMSD2
 70
     0
  9
$DIMTOLJ
 70
     1
  9
$DIMTZIN
 70
     0
  9
$DIMALTZ
 70
     0
  9
$DIMALTTZ
 70
     0
  9
$DIMFIT
 70
     3
  9
$DIMUPT
 70
     0
  9
$DIMUNIT
 70
     2
  9
$DIMDEC
 70
     4
  9
$DIMTDEC
 70
     4
  9
$DIMALTU
 70
     2
  9
$DIMALTTD
 70
     2
  9
$DIMTXSTY
  7
STANDARD
  9
$DIMAUNIT
 70
     0
  9
$LUNITS
 70
     2
  9
$LUPREC
 70
     4
  9
$SKETCHINC
 40
0.1
  9
$FILLETRAD
 40
0.5
  9
$AUNITS
 70
     0
  9
$AUPREC
 70
     0
  9
$MENU
  1
.
  9
$ELEVATION
 40
0.0
  9
$PELEVATION
 40
0.0
  9
$THICKNESS
 40
0.0
  9
$LIMCHECK
 70
     0
  9
$BLIPMODE
 70
     1
  9
$CHAMFERA
 40
0.0
  9
$CHAMFERB
 40
0.0
  9
$CHAMFERC
 40
0.0
  9
$CHAMFERD
 40
0.0
  9
$SKPOLY
 70
     0
  9
$TDCREATE
 40
0.000000000
  9
$TDUPDATE
 40
0.000000000
  9
$TDINDWG
 40
0.0000000000
  9
$TDUSRTIMER
 40
0.0000000000
  9
$USRTIMER
 70
     1
  9
$ANGBASE
 50
0.0
  9
$ANGDIR
 70
     0
  9
$PDMODE
 70
     0
  9
$PDSIZE
 40
0.0
  9
$PLINEWID
 40
0.0
  9
$COORDS
 70
     0
  9
$SPLFRAME
 70
     0
  9
$SPLINETYPE
 70
     6
  9
$SPLINESEGS
 70
     8
  9
$ATTDIA
 70
     0
  9
$ATTREQ
 70
     1
  9
$HANDLING
 70
     1
  9
$HANDSEED
  5
157
  9
$SURFTAB1
 70
     6
  9
$SURFTAB2
 70
     6
  9
$SURFTYPE
 70
     6
  9
$SURFU
 70
     6
  9
$SURFV
 70
     6
  9
$UCSNAME
  2

  9
$UCSORG
 10
0.0
 20
0.0
 30
0.0
  9
$UCSXDIR
 10
1.0
 20
0.0
 30
0.0
  9
$UCSYDIR
 10
0.0
 20
1.0
 30
0.0
  9
$PUCSNAME
  2

  9
$PUCSORG
 10
0.0
 20
0.0
 30
0.0
  9
$PUCSXDIR
 10
1.0
 20
0.0
 30
0.0
  9
$PUCSYDIR
 10
0.0
 20
1.0
 30
0.0
  9
$USERI1
 70
     0
  9
$USERI2
 70
     0
  9
$USERI3
 70
     0
  9
$USERI4
 70
     0
  9
$USERI5
 70
     0
  9
$USERR1
 40
0.0
  9
$USERR2
 40
0.0
  9
$USERR3
 40
0.0
  9
$USERR4
 40
0.0
  9
$USERR5
 40
0.0
  9
$WORLDVIEW
 70
     1
  9
$SHADEDGE
 70
     3
  9
$SHADEDIF
 70
    70
  9
$TILEMODE
 70
     1
  9
$MAXACTVP
 70
    48
  9
$PINSBASE
 10
0.0
 20
0.0
 30
0.0
  9
$PLIMCHECK
 70
     0
  9
$PEXTMIN
 10
-1241.326782
 20
-930.163391
 30
0.0
  9
$PEXTMAX
 10
16.0
 20
30.326838
 30
2.0
  9
$PLIMMIN
 10
0.0
 20
0.0
  9
$PLIMMAX
 10
12.0
 20
9.0
  9
$UNITMODE
 70
     0
  9
$VISRETAIN
 70
     0
  9
$PLINEGEN
 70
     0
  9
$PSLTSCALE
 70
     1
  9
$TREEDEPTH
 70
  3020
  9
$PICKSTYLE
 70
     1
  9
$CMLSTYLE
  2
STANDARD
  9
$CMLJUST
 70
     0
  9
$CMLSCALE
 40
1.0
  9
$PROXYGRAPHICS
 70
     1
  9
$MEASUREMENT
 70
     0
  0
ENDSEC
  0
SECTION
  2
CLASSES
  0
CLASS
  1
LWPOLYLINE
  2
AcDbPolyline
  3
"AutoCAD"
 90
        0
280
     0
281
     1
  0
CLASS
  1
IMAGE
  2
AcDbRasterImage
  3
ISM
 90
      127
280
     0
281
     1
  0
CLASS
  1
OLE2FRAME
  2
AcDbOle2Frame
  3
""
 90
        0
280
     0
281
     1
  0
CLASS
  1
HATCH
  2
AcDbHatch
  3
"ACAD_SEDONA"
 90
        0
280
     0
281
     1
  0
CLASS
  1
DICTIONARYVAR
  2
AcDbDictionaryVar
  3
"AutoCAD"
 90
        0
280
     0
281
     0
  0
CLASS
  1
RASTERVARIABLES
  2
AcDbRasterVariables
  3
ISM
 90
        0
280
     0
281
     0
  0
CLASS
  1
IMAGEDEF
  2
AcDbRasterImageDef
  3
ISM
 90
        0
280
     0
281
     0
  0
CLASS
  1
IMAGEDEF_REACTOR
  2
AcDbRasterImageDefReactor
  3
ISM
 90
        1
280
     0
281
     0
  0
CLASS
  1
IDBUFFER
  2
AcDbIdBuffer
  3
"Acad"
 90
        0
280
     0
281
     0
  0
CLASS
  1
SPATIAL_FILTER
  2
AcDbSpatialFilter
  3
"Acad"
 90
        0
280
     0
281
     0
  0
CLASS
  1
XRECORD
  2
AcDbXrecord
  3
"<Built In>"
 90
        0
280
     0
281
     0
  0
CLASS
  1
SORTENTSTABLE
  2
AcDbSortentsTable
  3
"AutoCAD"
 90
        0
280
     0
281
     0
  0
CLASS
  1
LAYER_INDEX
  2
AcDbLayerIndex
  3
"Acad"
 90
        0
280
     0
281
     0
  0
CLASS
  1
SPATIAL_INDEX
  2
AcDbSpatialIndex
  3
"Acad"
 90
        0
280
     0
281
     0
  0
CLASS
  1
OBJECT_PTR
  2
CAseDLPNTableRecord
  3
"ASE-LPNTableRecord"
 90
        1
280
     0
281
     0
  0
CLASS
  1
LAYOUT
  2
AcDbLayout
  3
"AutoCAD 2000"
 90
        0
280
     0
281
     0
  0
CLASS
  1
PLOTSETTINGS
  2
AcDbPlotSettings
  3
"AutoCAD 2000"
 90
        0
280
     0
281
     0
  0
CLASS
  1
ACDBDICTIONARYWDFLT
  2
AcDbDictionaryWithDefault
  3
"AutoCAD 2000"
 90
        0
280
     0
281
     0
  0
CLASS
  1
ACDBPLACEHOLDER
  2
AcDbPlaceHolder
  3
"AutoCAD 2000"
 90
        0
280
     0
281
     0
  0
CLASS
  1
VBA_PROJECT
  2
AcDbVbaProject
  3
"acadvba"
 90
        0
280
     0
281
     0
  0
CLASS
  1
WIPEOUT
  2
AcDbWipeout
  3
WipeOut|AutoCAD Express Tool|expresstools@autodesk.com
 90
      127
280
     0
281
     1
  0
CLASS
  1
WIPEOUTVARIABLES
  2
AcDbWipeoutVariables
  3
WipeOut|AutoCAD Express Tool|expresstools@autodesk.com
 90
        0
280
     0
281
     0
  0
CLASS
  1
RTEXT
  2
RText
  3
RText|AutoCAD Express Tool|expresstools@autodesk.com
 90
        0
280
     0
281
     1
  0
CLASS
  1
ARCALIGNEDTEXT
  2
AcDbArcAlignedText
  3
ATEXT|AutoCAD Express Tool|expresstools@autodesk.com
 90
        0
280
     0
281
     1
  0
ENDSEC
  0
SECTION
  2
TABLES
  0
TABLE
  2
VPORT
  5
7
100
AcDbSymbolTable
 70
     1
  0
VPORT
  5
15
100
AcDbSymbolTableRecord
100
AcDbViewportTableRecord
  2
*ACTIVE
 70
     0
 10
0.0
 20
0.0
 11
1.0
 21
1.0
 12
6.591288
 22
4.579184
 13
0.0
 23
0.0
 14
1.0
 24
1.0
 15
0.0
 25
0.0
 16
0.0
 26
0.0
 36
1.0
 17
0.0
 27
0.0
 37
0.0
 40
9.158369
 41
0.688564
 42
50.0
 43
0.0
 44
0.0
 50
0.0
 51
0.0
 71
     0
 72
   100
 73
     1
 74
     1
 75
     0
 76
     0
 77
     0
 78
     0
  0
ENDTAB
  0
TABLE
  2
LTYPE
  5
4
100
AcDbSymbolTable
 70
    10
  0
LTYPE
  5
11
100
AcDbSymbolTableRecord
100
AcDbLinetypeTableRecord
  2
BYBLOCK
 70
    64
  3

 72
    65
 73
     0
 40
0.0
  0
LTYPE
  5
12
100
AcDbSymbolTableRecord
100
AcDbLinetypeTableRecord
  2
BYLAYER
 70
    64
  3

 72
    65
 73
     0
 40
0.0
  0
LTYPE
  5
13
100
AcDbSymbolTableRecord
100
AcDbLinetypeTableRecord
  2
CONTINUOUS
 70
    64
  3
Solid line
 72
    65
 73
     0
 40
0.0
  0
LTYPE
  5
1D
100
AcDbSymbolTableRecord
100
AcDbLinetypeTableRecord
  2
DASHED
 70
     0
  3
__ __ __ __ __ __ __ __ __ __ __ __ __ __ __ __
 72
    65
 73
     2
 40
15.0
 49
12.0
 74
     0
 49
-3.0
 74
     0
  0
LTYPE
  5
1E
100
AcDbSymbolTableRecord
100
AcDbLinetypeTableRecord
  2
DASHDOT
 70
     0
  3
 __ . __ . __ . __ . __ . __ . __ . 
 72
    65
 73
     4
 40
18.5
 49
12.0
 74
     0
 49
-3.0
 74
     0
 49
0.5
 74
     0
 49
-3.0
 74
     0
  0
LTYPE
  5
1F
100
AcDbSymbolTableRecord
100
AcDbLinetypeTableRecord
  2
DOT
 70
     0
  3
 . . . . . . . . . . . . . . . .
 72
    65
 73
     2
 40
3.5
 49
0.5
 74
     0
 49
-3.0
 74
     0
  0
LTYPE
  5
20
100
AcDbSymbolTableRecord
100
AcDbLinetypeTableRecord
  2
DASHSPACE
 70
     0
  3
__    __    __    __    __   
 72
    65
 73
     2
 40
30.0
 49
12.0
 74
     0
 49
-18.0
 74
     0
  0
LTYPE
  5
21
100
AcDbSymbolTableRecord
100
AcDbLinetypeTableRecord
  2
DASHDOT2
 70
     0
  3
__ . . __ . . __ . . __ 
 72
    65
 73
     6
 40
22.0
 49
12.0
 74
     0
 49
-3.0
 74
     0
 49
0.5
 74
     0
 49
-3.0
 74
     0
 49
0.5
 74
     0
 49
-3.0
 74
     0
  0
LTYPE
  5
22
100
AcDbSymbolTableRecord
100
AcDbLinetypeTableRecord
  2
PHANTOM
 70
     0
  3
____________    ____    ____   _
 72
    65
 73
     6
 40
20.0
 49
10.0
 74
     0
 49
-2.0
 74
     0
 49
2.0
 74
     0
 49
-2.0
 74
     0
 49
2.0
 74
     0
 49
-2.0
 74
     0
  0
LTYPE
  5
23
100
AcDbSymbolTableRecord
100
AcDbLinetypeTableRecord
  2
AXES
 70
     0
  3
________  __  ________  __  _____
 72
    65
 73
     4
 40
24.0
 49
15.0
 74
     0
 49
-3.0
 74
     0
 49
3.0
 74
     0
 49
-3.0
 74
     0
  0
ENDTAB
  0
TABLE
  2
LAYER
  5
2
100
AcDbSymbolTable
 70
     1
  0
LAYER
  5
14
100
AcDbSymbolTableRecord
100
AcDbLayerTableRecord
  2
0
 70
     0
 62
     7
  6
CONTINUOUS
  0
ENDTAB
  0
TABLE
  2
STYLE
  5
3
100
AcDbSymbolTable
 70
     1
  0
STYLE
  5
17
100
AcDbSymbolTableRecord
100
AcDbTextStyleTableRecord
  2
STANDARD
 70
     0
 40
0.0
 41
1.0
 50
0.0
 71
     0
 42
0.0
  3
txt
  4

  0
ENDTAB
  0
TABLE
  2
VIEW
  5
5
100
AcDbSymbolTable
 70
     0
  0
ENDTAB
  0
TABLE
  2
UCS
  5
6
100
AcDbSymbolTable
 70
     0
  0
ENDTAB
  0
TABLE
  2
APPID
  5
8
100
AcDbSymbolTable
 70
     1
  0
APPID
  5
16
100
AcDbSymbolTableRecord
100
AcDbRegAppTableRecord
  2
ACAD
 70
     0
  0
ENDTAB
  0
TABLE
  2
DIMSTYLE
  5
9
100
AcDbSymbolTable
 70
     1
  0
DIMSTYLE
105
18
100
AcDbSymbolTableRecord
100
AcDbDimStyleTableRecord
  2
STANDARD
 70
     0
  3

  4

  5

  6

  7

 40
1.0
 41
0.18
 42
0.0625
 43
0.38
 44
0.18
 45
0.0
 46
0.0
 47
0.0
 48
0.0
 71
     0
 72
     0
 73
     1
 74
     1
 75
     0
 76
     0
 77
     0
 78
     0
140
0.18
141
0.09
142
0.0
143
25.4
144
1.0
145
0.0
146
1.0
147
0.09
170
     0
171
     2
172
     0
173
     0
174
     0
175
     0
176
     0
177
     0
178
     0
270
     2
271
     4
272
     4
273
     2
274
     2
275
     0
280
     0
281
     0
282
     0
283
     1
284
     0
285
     0
286
     0
287
     3
288
     0
340
17
  0
ENDTAB
  0
TABLE
  2
BLOCK_RECORD
  5
1
100
AcDbSymbolTable
 70
     0
  0
BLOCK_RECORD
  5
A
100
AcDbSymbolTableRecord
100
AcDbBlockTableRecord
  2
*MODEL_SPACE
  0
BLOCK_RECORD
  5
B
100
AcDbSymbolTableRecord
100
AcDbBlockTableRecord
  2
*PAPER_SPACE
  0
ENDTAB
  0
ENDSEC
  0
SECTION
  2
BLOCKS
  0
BLOCK
  5
D
100
AcDbEntity
  8
0
100
AcDbBlockBegin
  2
*MODEL_SPACE
 70
     0
 10
0.0
 20
0.0
 30
0.0
  3
*MODEL_SPACE
  1

  0
ENDBLK
  5
E
100
AcDbEntity
  8
0
100
AcDbBlockEnd
  0
BLOCK
  5
F
100
AcDbEntity
 67
     1
  8
0
100
AcDbBlockBegin
  2
*PAPER_SPACE
 70
     0
 10
0.0
 20
0.0
 30
0.0
  3
*PAPER_SPACE
  1

  0
ENDBLK
  5
10
100
AcDbEntity
 67
     1
  8
0
100
AcDbBlockEnd
  0
ENDSEC
  0
SECTION
  2
ENTITIES
  0
VIEWPORT
  5
156
100
AcDbEntity
 67
     1
  8
0
 62
     0
 48
0.0
100
AcDbViewport
 10
0.0
 20
0.0
 30
0.0
 40
1000.0
 41
1000.0
 68
     1
 69
     1
1001
ACAD
1000
MVIEW
1002
{
1070
    16
1010
0.0
1020
0.0
1030
0.0
1010
0.0
1020
0.0
1030
1.0
1040
0.0
1040
1000.0
1040
0.0
1040
0.0
1040
50.0
1040
0.0
1040
0.0
1070
     0
1070
   100
1070
     1
1070
     1
1070
     0
1070
     0
1070
     0
1070
     0
1040
0.0
1040
0.0
1040
0.0
1040
1.0
1040
1.0
1040
1.0
1040
1.0
1070
     0
1002
{
1002
}
1002
}
  0
LINE
  5
24
100
AcDbEntity
  8
0
 62
     7
100
AcDbLine
 10
-4.163419
 20
0.0
 30
0.0
 11
-4.163419
 21
30.326838
 31
0.0
210
0.0
220
0.0
230
1.0
  0
LINE
  5
25
100
AcDbEntity
  8
0
 62
     7
100
AcDbLine
 10
-1221.163419
 20
30.326838
 30
0.0
 11
-4.163419
 21
30.326838
 31
0.0
210
0.0
220
0.0
230
1.0
  0
LINE
  5
26
100
AcDbEntity
  8
0
 62
     7
100
AcDbLine
 10
-1221.163419
 20
30.326838
 30
0.0
 11
-1221.163419
 21
0.0
 31
0.0
210
0.0
220
0.0
230
1.0
  0
LINE
  5
27
100
AcDbEntity
  8
0
 62
     7
100
AcDbLine
 10
-1221.163419
 20
0.0
 30
0.0
 11
-1241.326838
 21
0.0
 31
0.0
210
0.0
220
0.0
230
1.0
  0
LINE
  5
28
100
AcDbEntity
  8
0
 62
     7
100
AcDbLine
 10
-1241.326838
 20
-910.0
 30
0.0
 11
-1241.326838
 21
0.0
 31
0.0
210
0.0
220
0.0
230
1.0
  0
LINE
  5
29
100
AcDbEntity
  8
0
 62
     7
100
AcDbLine
 10
-1241.326838
 20
-910.0
 30
0.0
 11
-1221.163419
 21
-910.0
 31
0.0
210
0.0
220
0.0
230
1.0
  0
LINE
  5
2A
100
AcDbEntity
  8
0
 62
     7
100
AcDbLine
 10
-1221.163419
 20
-910.0
 30
0.0
 11
-1221.163419
 21
-930.163419
 31
0.0
210
0.0
220
0.0
230
1.0
  0
LINE
  5
2B
100
AcDbEntity
  8
0
 62
     7
100
AcDbLine
 10
-4.163419
 20
-930.163419
 30
0.0
 11
-1221.163419
 21
-930.163419
 31
0.0
210
0.0
220
0.0
230
1.0
  0
LINE
  5
2C
100
AcDbEntity
  8
0
 62
     7
100
AcDbLine
 10
-4.163419
 20
-930.163419
 30
0.0
 11
-4.163419
 21
-910.0
 31
0.0
210
0.0
220
0.0
230
1.0
  0
LINE
  5
2D
100
AcDbEntity
  8
0
 62
     7
100
AcDbLine
 10
-4.163419
 20
-910.0
 30
0.0
 11
16.0
 21
-910.0
 31
0.0
210
0.0
220
0.0
230
1.0
  0
LINE
  5
2E
100
AcDbEntity
  8
0
 62
     7
100
AcDbLine
 10
16.0
 20
0.0
 30
0.0
 11
16.0
 21
-910.0
 31
0.0
210
0.0
220
0.0
230
1.0
  0
LINE
  5
2F
100
AcDbEntity
  8
0
 62
     7
100
AcDbLine
 10
16.0
 20
0.0
 30
0.0
 11
-4.163419
 21
0.0
 31
0.0
210
0.0
220
0.0
230
1.0
  0
CIRCLE
  5
30
100
AcDbEntity
  8
0
 62
     7
100
AcDbCircle
 10
-1067.962475
 20
-749.770069
 30
0.0
 40
3.25
210
0.0
220
0.0
230
1.0
  0
LINE
  5
31
100
AcDbEntity
  8
0
 62
     7
100
AcDbLine
 10
-927.746817
 20
-183.029572
 30
0.0
 11
-1004.153023
 21
-155.219993
 31
0.0
210
0.0
220
0.0
230
1.0
  0
ARC
  5
32
100
AcDbEntity
  8
0
 62
     7
100
AcDbCircle
 10
-932.434042
 20
-195.908686
 30
0.0
 40
13.705534
210
0.0
220
0.0
230
1.0
100
AcDbArc
 50
289.998478
 51
70.00153
  0
LINE
  5
33
100
AcDbEntity
  8
0
 62
     7
100
AcDbLine
 10
-1004.153017
 20
-236.597389
 30
0.0
 11
-927.746815
 21
-208.7878
 31
0.0
210
0.0
220
0.0
230
1.0
  0
LINE
  5
34
100
AcDbEntity
  8
0
 62
     7
 48
0.273474
100
AcDbLine
 10
-1004.153018
 20
-225.658439
 30
0.0
 11
-1004.153018
 21
-236.597389
 31
0.0
210
0.0
220
0.0
230
1.0
  0
LINE
  5
35
100
AcDbEntity
  8
0
 62
     7
100
AcDbLine
 10
-933.474093
 20
-199.933409
 30
0.0
 11
-1004.153018
 21
-225.658439
 31
0.0
210
0.0
220
0.0
230
1.0
  0
ARC
  5
36
100
AcDbEntity
  8
0
 62
     7
100
AcDbCircle
 10
-934.938852
 20
-195.908686
 30
0.0
 40
4.282979
210
0.0
220
0.0
230
1.0
100
AcDbArc
 50
289.998478
 51
70.00153
  0
LINE
  5
37
100
AcDbEntity
  8
0
 62
     7
100
AcDbLine
 10
-1004.153022
 20
-166.158943
 30
0.0
 11
-933.474094
 21
-191.883963
 31
0.0
210
0.0
220
0.0
230
1.0
  0
LINE
  5
38
100
AcDbEntity
  8
0
 62
     7
 48
0.273474
100
AcDbLine
 10
-1004.153023
 20
-155.219993
 30
0.0
 11
-1004.153023
 21
-166.158943
 31
0.0
210
0.0
220
0.0
230
1.0
  0
LINE
  5
39
100
AcDbEntity
  8
0
 62
     7
100
AcDbLine
 10
-918.728761
 20
-239.167196
 30
0.0
 11
-1004.153017
 21
-239.167196
 31
0.0
210
0.0
220
0.0
230
1.0
  0
LINE
  5
3A
100
AcDbEntity
  8
0
 62
     7
 48
0.256981
100
AcDbLine
 10
-918.72876
 20
-249.446445
 30
0.0
 11
-918.72876
 21
-239.167196
 31
0.0
210
0.0
220
0.0
230
1.0
  0
LINE
  5
3B
100
AcDbEntity
  8
0
 62
     7
100
AcDbLine
 10
-1004.153016
 20
-249.446451
 30
0.0
 11
-918.72876
 21
-249.446451
 31
0.0
210
0.0
220
0.0
230
1.0
  0
LINE
  5
3C
100
AcDbEntity
  8
0
 62
     7
 48
0.256981
100
AcDbLine
 10
-1004.153017
 20
-239.167201
 30
0.0
 11
-1004.153017
 21
-249.446451
 31
0.0
210
0.0
220
0.0
230
1.0
  0
LINE
  5
3D
100
AcDbEntity
  8
0
 62
     7
100
AcDbLine
 10
-918.72876
 20
-252.872862
 30
0.0
 11
-1004.153016
 21
-252.872862
 31
0.0
210
0.0
220
0.0
230
1.0
  0
LINE
  5
3E
100
AcDbEntity
  8
0
 62
     7
 48
0.256981
100
AcDbLine
 10
-918.728759
 20
-263.152112
 30
0.0
 11
-918.728759
 21
-252.872862
 31
0.0
210
0.0
220
0.0
230
1.0
  0
LINE
  5
3F
100
AcDbEntity
  8
0
 62
     7
100
AcDbLine
 10
-1004.153015
 20
-263.152118
 30
0.0
 11
-918.728759
 21
-263.152118
 31
0.0
210
0.0
220
0.0
230
1.0
  0
LINE
  5
40
100
AcDbEntity
  8
0
 62
     7
 48
0.256981
100
AcDbLine
 10
-1004.153016
 20
-252.872868
 30
0.0
 11
-1004.153016
 21
-263.152118
 31
0.0
210
0.0
220
0.0
230
1.0
  0
LINE
  5
41
100
AcDbEntity
  8
0
 62
     7
100
AcDbLine
 10
-918.728758
 20
-273.431362
 30
0.0
 11
-990.447348
 21
-273.431362
 31
0.0
210
0.0
220
0.0
230
1.0
  0
LINE
  5
42
100
AcDbEntity
  8
0
 62
     7
 48
0.278396
100
AcDbLine
 10
-918.728757
 20
-284.567216
 30
0.0
 11
-918.728757
 21
-273.431362
 31
0.0
210
0.0
220
0.0
230
1.0
  0
LINE
  5
43
100
AcDbEntity
  8
0
 62
     7
100
AcDbLine
 10
-977.834444
 20
-284.56722
 30
0.0
 11
-918.728757
 21
-284.56722
 31
0.0
210
0.0
220
0.0
230
1.0
  0
LINE
  5
44
100
AcDbEntity
  8
0
 62
     7
100
AcDbLine
 10
-977.834443
 20
-306.838928
 30
0.0
 11
-977.834443
 21
-284.56722
 31
0.0
210
0.0
220
0.0
230
1.0
  0
ARC
  5
45
100
AcDbEntity
  8
0
 62
     7
100
AcDbCircle
 10
-976.121235
 20
-306.838928
 30
0.0
 40
1.713208
210
0.0
220
0.0
230
1.0
100
AcDbArc
 50
180.000004
 51
0.000004
  0
LINE
  5
46
100
AcDbEntity
  8
0
 62
     7
 48
0.46484
100
AcDbLine
 10
-974.408028
 20
-288.245326
 30
0.0
 11
-974.408028
 21
-306.838928
 31
0.0
210
0.0
220
0.0
230
1.0
  0
LINE
  5
47
100
AcDbEntity
  8
0
 62
     7
100
AcDbLine
 10
-918.728757
 20
-288.245323
 30
0.0
 11
-974.408028
 21
-288.245323
 31
0.0
210
0.0
220
0.0
230
1.0
  0
LINE
  5
48
100
AcDbEntity
  8
0
 62
     7
 48
0.278396
100
AcDbLine
 10
-918.728756
 20
-299.381177
 30
0.0
 11
-918.728756
 21
-288.245323
 31
0.0
210
0.0
220
0.0
230
1.0
  0
LINE
  5
49
100
AcDbEntity
  8
0
 62
     7
100
AcDbLine
 10
-949.886077
 20
-299.381179
 30
0.0
 11
-918.728756
 21
-299.381179
 31
0.0
210
0.0
220
0.0
230
1.0
  0
LINE
  5
4A
100
AcDbEntity
  8
0
 62
     7
100
AcDbLine
 10
-918.728755
 20
-317.369864
 30
0.0
 11
-949.886077
 21
-299.381179
 31
0.0
210
0.0
220
0.0
230
1.0
  0
LINE
  5
4B
100
AcDbEntity
  8
0
 62
     7
 48
0.321227
100
AcDbLine
 10
-918.728754
 20
-330.218926
 30
0.0
 11
-918.728754
 21
-317.369864
 31
0.0
210
0.0
220
0.0
230
1.0
  0
LINE
  5
4C
100
AcDbEntity
  8
0
 62
     7
100
AcDbLine
 10
-962.415568
 20
-304.996337
 30
0.0
 11
-918.728754
 21
-330.218926
 31
0.0
210
0.0
220
0.0
230
1.0
  0
ARC
  5
4D
100
AcDbEntity
  8
0
 62
     7
100
AcDbCircle
 10
-976.301503
 20
-307.695532
 30
0.0
 40
14.145842
210
0.0
220
0.0
230
1.0
100
AcDbArc
 50
191.000171
 51
11.000171
  0
ARC
  5
4E
100
AcDbEntity
  8
0
 62
     7
100
AcDbCircle
 10
-976.292229
 20
-307.694639
 30
0.0
 40
14.155116
210
0.0
220
0.0
230
1.0
100
AcDbArc
 50
180.003619
 51
190.996556
  0
LINE
  5
4F
100
AcDbEntity
  8
0
 62
     7
100
AcDbLine
 10
-990.447348
 20
-273.431367
 30
0.0
 11
-990.447348
 21
-307.695533
 31
0.0
210
0.0
220
0.0
230
1.0
  0
LINE
  5
50
100
AcDbEntity
  8
0
 62
     7
 48
0.256981
100
AcDbLine
 10
-993.873765
 20
-273.431367
 30
0.0
 11
-1004.153014
 21
-273.431367
 31
0.0
210
0.0
220
0.0
230
1.0
  0
LINE
  5
51
100
AcDbEntity
  8
0
 62
     7
100
AcDbLine
 10
-993.873762
 20
-307.695533
 30
0.0
 11
-993.873762
 21
-273.431367
 31
0.0
210
0.0
220
0.0
230
1.0
  0
ARC
  5
52
100
AcDbEntity
  8
0
 62
     7
100
AcDbCircle
 10
-976.620649
 20
-307.692921
 30
0.0
 40
17.253114
210
0.0
220
0.0
230
1.0
100
AcDbArc
 50
180.008675
 51
350.391077
  0
LINE
  5
53
100
AcDbEntity
  8
0
 62
     7
100
AcDbLine
 10
-918.728754
 20
-334.175412
 30
0.0
 11
-959.609596
 21
-310.57285
 31
0.0
210
0.0
220
0.0
230
1.0
  0
LINE
  5
54
100
AcDbEntity
  8
0
 62
     7
 48
0.333866
100
AcDbLine
 10
-918.728753
 20
-347.53005
 30
0.0
 11
-918.728753
 21
-334.175412
 31
0.0
210
0.0
220
0.0
230
1.0
  0
LINE
  5
55
100
AcDbEntity
  8
0
 62
     7
100
AcDbLine
 10
-946.680582
 20
-357.703685
 30
0.0
 11
-918.728753
 21
-347.53005
 31
0.0
210
0.0
220
0.0
230
1.0
  0
LINE
  5
56
100
AcDbEntity
  8
0
 62
     7
 48
0.273474
100
AcDbLine
 10
-946.680582
 20
-357.703685
 30
0.0
 11
-946.680582
 21
-346.764736
 31
0.0
210
0.0
220
0.0
230
1.0
  0
LINE
  5
57
100
AcDbEntity
  8
0
 62
     7
 48
0.476452
100
AcDbLine
 10
-928.771844
 20
-340.246487
 30
0.0
 11
-946.680582
 21
-346.764736
 31
0.0
210
0.0
220
0.0
230
1.0
  0
LINE
  5
58
100
AcDbEntity
  8
0
 62
     7
100
AcDbLine
 10
-955.386276
 20
-324.88064
 30
0.0
 11
-928.771844
 21
-340.246487
 31
0.0
210
0.0
220
0.0
230
1.0
  0
ARC
  5
59
100
AcDbEntity
  8
0
 62
     7
100
AcDbCircle
 10
-976.741056
 20
-307.693765
 30
0.0
 40
27.411956
210
0.0
220
0.0
230
1.0
100
AcDbArc
 50
180.003698
 51
321.171997
  0
LINE
  5
5A
100
AcDbEntity
  8
0
 62
     7
100
AcDbLine
 10
-1004.153014
 20
-273.431367
 30
0.0
 11
-1004.153014
 21
-307.695534
 31
0.0
210
0.0
220
0.0
230
1.0
  0
LINE
  5
5B
100
AcDbEntity
  8
0
 62
     7
100
AcDbLine
 10
-995.134954
 20
-390.158917
 30
0.0
 11
-949.680582
 21
-406.702952
 31
0.0
210
0.0
220
0.0
230
1.0
  0
ARC
  5
5C
100
AcDbEntity
  8
0
 62
     7
100
AcDbCircle
 10
-990.447729
 20
-377.279803
 30
0.0
 40
13.705534
210
0.0
220
0.0
230
1.0
100
AcDbArc
 50
109.998478
 51
250.00153
  0
LINE
  5
5D
100
AcDbEntity
  8
0
 62
     7
100
AcDbLine
 10
-949.680582
 20
-347.856647
 30
0.0
 11
-995.134956
 21
-364.400689
 31
0.0
210
0.0
220
0.0
230
1.0
  0
LINE
  5
5E
100
AcDbEntity
  8
0
 62
     7
 48
0.273474
100
AcDbLine
 10
-949.680582
 20
-347.856647
 30
0.0
 11
-949.680582
 21
-358.795596
 31
0.0
210
0.0
220
0.0
230
1.0
  0
LINE
  5
5F
100
AcDbEntity
  8
0
 62
     7
100
AcDbLine
 10
-989.407677
 20
-373.25508
 30
0.0
 11
-949.680582
 21
-358.795596
 31
0.0
210
0.0
220
0.0
230
1.0
  0
ARC
  5
60
100
AcDbEntity
  8
0
 62
     7
100
AcDbCircle
 10
-987.942919
 20
-377.279803
 30
0.0
 40
4.282979
210
0.0
220
0.0
230
1.0
100
AcDbArc
 50
109.998478
 51
250.00153
  0
LINE
  5
61
100
AcDbEntity
  8
0
 62
     7
100
AcDbLine
 10
-949.680582
 20
-395.764003
 30
0.0
 11
-989.407677
 21
-381.304526
 31
0.0
210
0.0
220
0.0
230
1.0
  0
LINE
  5
62
100
AcDbEntity
  8
0
 62
     7
 48
0.273474
100
AcDbLine
 10
-949.680582
 20
-395.764003
 30
0.0
 11
-949.680582
 21
-406.702952
 31
0.0
210
0.0
220
0.0
230
1.0
  0
LINE
  5
63
100
AcDbEntity
  8
0
 62
     7
100
AcDbLine
 10
-918.728748
 20
-417.968495
 30
0.0
 11
-918.728748
 21
-367.42885
 31
0.0
210
0.0
220
0.0
230
1.0
  0
LINE
  5
64
100
AcDbEntity
  8
0
 62
     7
100
AcDbLine
 10
-946.680582
 20
-407.794862
 30
0.0
 11
-918.728748
 21
-417.968495
 31
0.0
210
0.0
220
0.0
230
1.0
  0
LINE
  5
65
100
AcDbEntity
  8
0
 62
     7
 48
0.273474
100
AcDbLine
 10
-946.680582
 20
-407.794862
 30
0.0
 11
-946.680582
 21
-396.855913
 31
0.0
210
0.0
220
0.0
230
1.0
  0
LINE
  5
66
100
AcDbEntity
  8
0
 62
     7
 48
0.470169
100
AcDbLine
 10
-929.007999
 20
-403.288206
 30
0.0
 11
-946.680582
 21
-396.855913
 31
0.0
210
0.0
220
0.0
230
1.0
  0
LINE
  5
67
100
AcDbEntity
  8
0
 62
     7
100
AcDbLine
 10
-929.008002
 20
-367.428851
 30
0.0
 11
-929.008002
 21
-403.288206
 31
0.0
210
0.0
220
0.0
230
1.0
  0
LINE
  5
68
100
AcDbEntity
  8
0
 62
     7
 48
0.256981
100
AcDbLine
 10
-918.728752
 20
-367.42885
 30
0.0
 11
-929.008002
 21
-367.42885
 31
0.0
210
0.0
220
0.0
230
1.0
  0
LINE
  5
69
100
AcDbEntity
  8
0
 62
     7
100
AcDbLine
 10
-946.680582
 20
-361.350002
 30
0.0
 11
-918.728753
 21
-351.176366
 31
0.0
210
0.0
220
0.0
230
1.0
  0
LINE
  5
6A
100
AcDbEntity
  8
0
 62
     7
 48
0.273474
100
AcDbLine
 10
-918.728753
 20
-351.176366
 30
0.0
 11
-918.728753
 21
-362.115315
 31
0.0
210
0.0
220
0.0
230
1.0
  0
LINE
  5
6B
100
AcDbEntity
  8
0
 62
     7
 48
0.364632
100
AcDbLine
 10
-918.728752
 20
-362.115315
 30
0.0
 11
-932.434418
 21
-367.103771
 31
0.0
210
0.0
220
0.0
230
1.0
  0
LINE
  5
6C
100
AcDbEntity
  8
0
 62
     7
100
AcDbLine
 10
-932.434418
 20
-367.103771
 30
0.0
 11
-932.434418
 21
-398.394776
 31
0.0
210
0.0
220
0.0
230
1.0
  0
LINE
  5
6D
100
AcDbEntity
  8
0
 62
     7
 48
0.379011
100
AcDbLine
 10
-932.434416
 20
-398.394776
 30
0.0
 11
-946.680582
 21
-393.209597
 31
0.0
210
0.0
220
0.0
230
1.0
  0
LINE
  5
6E
100
AcDbEntity
  8
0
 62
     7
 48
0.273474
100
AcDbLine
 10
-946.680582
 20
-393.209597
 30
0.0
 11
-946.680582
 21
-382.270648
 31
0.0
210
0.0
220
0.0
230
1.0
  0
LINE
  5
6F
100
AcDbEntity
  8
0
 62
     7
 48
0.105538
100
AcDbLine
 10
-942.713667
 20
-383.714486
 30
0.0
 11
-946.680582
 21
-382.270648
 31
0.0
210
0.0
220
0.0
230
1.0
  0
LINE
  5
70
100
AcDbEntity
  8
0
 62
     7
 48
0.321734
100
AcDbLine
 10
-942.713668
 20
-370.845113
 30
0.0
 11
-942.713668
 21
-383.714486
 31
0.0
210
0.0
220
0.0
230
1.0
  0
LINE
  5
71
100
AcDbEntity
  8
0
 62
     7
 48
0.105538
100
AcDbLine
 10
-942.713668
 20
-370.845113
 30
0.0
 11
-946.680582
 21
-372.288951
 31
0.0
210
0.0
220
0.0
230
1.0
  0
LINE
  5
72
100
AcDbEntity
  8
0
 62
     7
 48
0.273474
100
AcDbLine
 10
-946.680582
 20
-372.288951
 30
0.0
 11
-946.680582
 21
-361.350002
 31
0.0
210
0.0
220
0.0
230
1.0
  0
LINE
  5
73
100
AcDbEntity
  8
0
 62
     7
100
AcDbLine
 10
-949.680582
 20
-392.117686
 30
0.0
 11
-989.562714
 21
-377.601781
 31
0.0
210
0.0
220
0.0
230
1.0
  0
ARC
  5
74
100
AcDbEntity
  8
0
 62
     7
100
AcDbCircle
 10
-989.445524
 20
-377.279803
 30
0.0
 40
0.342642
210
0.0
220
0.0
230
1.0
100
AcDbArc
 50
110.000005
 51
250.000003
  0
LINE
  5
75
100
AcDbEntity
  8
0
 62
     7
100
AcDbLine
 10
-989.562714
 20
-376.957825
 30
0.0
 11
-949.680582
 21
-362.441913
 31
0.0
210
0.0
220
0.0
230
1.0
  0
LINE
  5
76
100
AcDbEntity
  8
0
 62
     7
 48
0.273474
100
AcDbLine
 10
-949.680582
 20
-362.441913
 30
0.0
 11
-949.680582
 21
-373.380862
 31
0.0
210
0.0
220
0.0
230
1.0
  0
LINE
  5
77
100
AcDbEntity
  8
0
 62
     7
 48
0.284993
100
AcDbLine
 10
-960.392825
 20
-377.279801
 30
0.0
 11
-949.680582
 21
-373.380862
 31
0.0
210
0.0
220
0.0
230
1.0
  0
LINE
  5
78
100
AcDbEntity
  8
0
 62
     7
 48
0.284993
100
AcDbLine
 10
-949.680582
 20
-381.178737
 30
0.0
 11
-960.392825
 21
-377.279801
 31
0.0
210
0.0
220
0.0
230
1.0
  0
LINE
  5
79
100
AcDbEntity
  8
0
 62
     7
 48
0.273474
100
AcDbLine
 10
-949.680582
 20
-381.178737
 30
0.0
 11
-949.680582
 21
-392.117686
 31
0.0
210
0.0
220
0.0
230
1.0
  0
LINE
  5
7A
100
AcDbEntity
  8
0
 62
     7
 48
0.460425
100
AcDbLine
 10
-1004.153002
 20
-461.227011
 30
0.0
 11
-1004.153002
 21
-479.644001
 31
0.0
210
0.0
220
0.0
230
1.0
  0
ARC
  5
7B
100
AcDbEntity
  8
0
 62
     7
100
AcDbCircle
 10
-976.741337
 20
-461.231224
 30
0.0
 40
27.411665
210
0.0
220
0.0
230
1.0
100
AcDbArc
 50
8.998112
 51
179.991195
  0
LINE
  5
7C
100
AcDbEntity
  8
0
 62
     7
 48
0.128491
100
AcDbLine
 10
-948.863948
 20
-462.020485
 30
0.0
 11
-949.667014
 21
-456.943987
 31
0.0
210
0.0
220
0.0
230
1.0
  0
ARC
  5
7D
100
AcDbEntity
  8
0
 62
     7
100
AcDbCircle
 10
-946.833353
 20
-461.699206
 30
0.0
 40
2.055854
210
0.0
220
0.0
230
1.0
100
AcDbArc
 50
188.99075
 51
359.998558
  0
LINE
  5
7E
100
AcDbEntity
  8
0
 62
     7
100
AcDbLine
 10
-944.7775
 20
-432.917358
 30
0.0
 11
-944.7775
 21
-461.699258
 31
0.0
210
0.0
220
0.0
230
1.0
  0
LINE
  5
7F
100
AcDbEntity
  8
0
 62
     7
 48
0.278396
100
AcDbLine
 10
-933.641646
 20
-432.917357
 30
0.0
 11
-944.7775
 21
-432.917357
 31
0.0
210
0.0
220
0.0
230
1.0
  0
LINE
  5
80
100
AcDbEntity
  8
0
 62
     7
100
AcDbLine
 10
-933.641644
 20
-463.755107
 30
0.0
 11
-933.641644
 21
-432.917357
 31
0.0
210
0.0
220
0.0
230
1.0
  0
ARC
  5
81
100
AcDbEntity
  8
0
 62
     7
100
AcDbCircle
 10
-946.148272
 20
-463.753422
 30
0.0
 40
12.506628
210
0.0
220
0.0
230
1.0
100
AcDbArc
 50
194.007725
 51
359.992283
  0
LINE
  5
82
100
AcDbEntity
  8
0
 62
     7
 48
0.240687
100
AcDbLine
 10
-960.612088
 20
-457.439191
 30
0.0
 11
-958.282991
 21
-466.780686
 31
0.0
210
0.0
220
0.0
230
1.0
  0
ARC
  5
83
100
AcDbEntity
  8
0
 62
     7
100
AcDbCircle
 10
-976.570075
 20
-461.420249
 30
0.0
 40
16.447072
210
0.0
220
0.0
230
1.0
100
AcDbArc
 50
14.007725
 51
179.992283
  0
LINE
  5
84
100
AcDbEntity
  8
0
 62
     7
100
AcDbLine
 10
-993.017146
 20
-490.351552
 30
0.0
 11
-993.017146
 21
-461.418034
 31
0.0
210
0.0
220
0.0
230
1.0
  0
LINE
  5
85
100
AcDbEntity
  8
0
 62
     7
 48
0.010708
100
AcDbLine
 10
-993.445448
 20
-490.351552
 30
0.0
 11
-993.017146
 21
-490.351552
 31
0.0
210
0.0
220
0.0
230
1.0
  0
ARC
  5
86
100
AcDbEntity
  8
0
 62
     7
100
AcDbCircle
 10
-993.445545
 20
-479.644097
 30
0.0
 40
10.707455
210
0.0
220
0.0
230
1.0
100
AcDbArc
 50
179.999485
 51
270.000523
  0
LINE
  5
87
100
AcDbEntity
  8
0
 62
     7
100
AcDbLine
 10
-989.590731
 20
-461.22701
 30
0.0
 11
-989.590731
 21
-492.237622
 31
0.0
210
0.0
220
0.0
230
1.0
  0
ARC
  5
88
100
AcDbEntity
  8
0
 62
     7
100
AcDbCircle
 10
-976.741456
 20
-461.228741
 30
0.0
 40
12.849275
210
0.0
220
0.0
230
1.0
100
AcDbArc
 50
14.007725
 51
179.992283
  0
LINE
  5
89
100
AcDbEntity
  8
0
 62
     7
 48
0.233511
100
AcDbLine
 10
-962.014621
 20
-467.181525
 30
0.0
 11
-964.274278
 21
-458.118539
 31
0.0
210
0.0
220
0.0
230
1.0
  0
ARC
  5
8A
100
AcDbEntity
  8
0
 62
     7
100
AcDbCircle
 10
-945.974332
 20
-463.179935
 30
0.0
 40
16.531897
210
0.0
220
0.0
230
1.0
100
AcDbArc
 50
194.007725
 51
359.992283
  0
LINE
  5
8B
100
AcDbEntity
  8
0
 62
     7
100
AcDbLine
 10
-929.442438
 20
-432.917357
 30
0.0
 11
-929.442438
 21
-463.182162
 31
0.0
210
0.0
220
0.0
230
1.0
  0
LINE
  5
8C
100
AcDbEntity
  8
0
 62
     7
 48
0.267842
100
AcDbLine
 10
-918.728747
 20
-432.917356
 30
0.0
 11
-929.442438
 21
-432.917356
 31
0.0
210
0.0
220
0.0
230
1.0
  0
LINE
  5
8D
100
AcDbEntity
  8
0
 62
     7
100
AcDbLine
 10
-918.728745
 20
-462.898502
 30
0.0
 11
-918.728745
 21
-432.917356
 31
0.0
210
0.0
220
0.0
230
1.0
  0
ARC
  5
8E
100
AcDbEntity
  8
0
 62
     7
100
AcDbCircle
 10
-946.140532
 20
-462.89481
 30
0.0
 40
27.411787
210
0.0
220
0.0
230
1.0
100
AcDbArc
 50
194.007725
 51
359.992283
  0
LINE
  5
8F
100
AcDbEntity
  8
0
 62
     7
 48
0.207155
100
AcDbLine
 10
-975.571228
 20
-461.743418
 30
0.0
 11
-972.737177
 21
-469.529907
 31
0.0
210
0.0
220
0.0
230
1.0
  0
ARC
  5
90
100
AcDbEntity
  8
0
 62
     7
100
AcDbCircle
 10
-977.342108
 20
-462.387966
 30
0.0
 40
1.884531
210
0.0
220
0.0
230
1.0
100
AcDbArc
 50
20.0
 51
185.999508
  0
LINE
  5
91
100
AcDbEntity
  8
0
 62
     7
100
AcDbLine
 10
-976.2471
 20
-490.83515
 30
0.0
 11
-979.216317
 21
-462.584937
 31
0.0
210
0.0
220
0.0
230
1.0
  0
LINE
  5
92
100
AcDbEntity
  8
0
 62
     7
 48
0.335428
100
AcDbLine
 10
-989.590729
 20
-492.237622
 30
0.0
 11
-976.2471
 21
-490.83515
 31
0.0
210
0.0
220
0.0
230
1.0
  0
LINE
  5
93
100
AcDbEntity
  8
0
 62
     7
 48
0.273474
100
AcDbLine
 10
-918.728743
 20
-500.862194
 30
0.0
 11
-918.728743
 21
-489.923245
 31
0.0
210
0.0
220
0.0
230
1.0
  0
LINE
  5
94
100
AcDbEntity
  8
0
 62
     7
100
AcDbLine
 10
-946.680582
 20
-511.035834
 30
0.0
 11
-918.728743
 21
-500.862194
 31
0.0
210
0.0
220
0.0
230
1.0
  0
LINE
  5
95
100
AcDbEntity
  8
0
 62
     7
 48
0.273474
100
AcDbLine
 10
-946.680582
 20
-511.035834
 30
0.0
 11
-946.680582
 21
-500.096884
 31
0.0
210
0.0
220
0.0
230
1.0
  0
LINE
  5
96
100
AcDbEntity
  8
0
 62
     7
100
AcDbLine
 10
-918.728743
 20
-489.923245
 30
0.0
 11
-946.680582
 21
-500.096884
 31
0.0
210
0.0
220
0.0
230
1.0
  0
LINE
  5
97
100
AcDbEntity
  8
0
 62
     7
100
AcDbLine
 10
-995.134943
 20
-543.491061
 30
0.0
 11
-949.680582
 21
-560.035093
 31
0.0
210
0.0
220
0.0
230
1.0
  0
ARC
  5
98
100
AcDbEntity
  8
0
 62
     7
100
AcDbCircle
 10
-990.447719
 20
-530.611947
 30
0.0
 40
13.705534
210
0.0
220
0.0
230
1.0
100
AcDbArc
 50
109.998478
 51
250.00153
  0
LINE
  5
99
100
AcDbEntity
  8
0
 62
     7
100
AcDbLine
 10
-949.680582
 20
-501.188795
 30
0.0
 11
-995.134945
 21
-517.732834
 31
0.0
210
0.0
220
0.0
230
1.0
  0
LINE
  5
9A
100
AcDbEntity
  8
0
 62
     7
 48
0.273474
100
AcDbLine
 10
-949.680582
 20
-501.188795
 30
0.0
 11
-949.680582
 21
-512.127745
 31
0.0
210
0.0
220
0.0
230
1.0
  0
LINE
  5
9B
100
AcDbEntity
  8
0
 62
     7
100
AcDbLine
 10
-990.734608
 20
-527.070191
 30
0.0
 11
-949.680582
 21
-512.127745
 31
0.0
210
0.0
220
0.0
230
1.0
  0
ARC
  5
9C
100
AcDbEntity
  8
0
 62
     7
100
AcDbCircle
 10
-989.44562
 20
-530.611947
 30
0.0
 40
3.769022
210
0.0
220
0.0
230
1.0
100
AcDbArc
 50
109.998489
 51
250.00153
  0
LINE
  5
9D
100
AcDbEntity
  8
0
 62
     7
100
AcDbLine
 10
-949.680582
 20
-549.096144
 30
0.0
 11
-990.734607
 21
-534.153704
 31
0.0
210
0.0
220
0.0
230
1.0
  0
LINE
  5
9E
100
AcDbEntity
  8
0
 62
     7
 48
0.273474
100
AcDbLine
 10
-949.680582
 20
-549.096144
 30
0.0
 11
-949.680582
 21
-560.035093
 31
0.0
210
0.0
220
0.0
230
1.0
  0
LINE
  5
9F
100
AcDbEntity
  8
0
 62
     7
100
AcDbLine
 10
-929.007988
 20
-567.5593
 30
0.0
 11
-974.921971
 21
-567.5593
 31
0.0
210
0.0
220
0.0
230
1.0
  0
LINE
  5
A0
100
AcDbEntity
  8
0
 62
     7
 48
0.47017
100
AcDbLine
 10
-946.680582
 20
-561.127003
 30
0.0
 11
-929.007988
 21
-567.5593
 31
0.0
210
0.0
220
0.0
230
1.0
  0
LINE
  5
A1
100
AcDbEntity
  8
0
 62
     7
 48
0.273474
100
AcDbLine
 10
-946.680582
 20
-561.127003
 30
0.0
 11
-946.680582
 21
-550.188054
 31
0.0
210
0.0
220
0.0
230
1.0
  0
LINE
  5
A2
100
AcDbEntity
  8
0
 62
     7
 48
0.47017
100
AcDbLine
 10
-929.007988
 20
-556.620351
 30
0.0
 11
-946.680582
 21
-550.188054
 31
0.0
210
0.0
220
0.0
230
1.0
  0
LINE
  5
A3
100
AcDbEntity
  8
0
 62
     7
100
AcDbLine
 10
-929.007991
 20
-520.564091
 30
0.0
 11
-929.007991
 21
-556.620351
 31
0.0
210
0.0
220
0.0
230
1.0
  0
LINE
  5
A4
100
AcDbEntity
  8
0
 62
     7
 48
0.256981
100
AcDbLine
 10
-918.728741
 20
-520.56409
 30
0.0
 11
-929.007991
 21
-520.56409
 31
0.0
210
0.0
220
0.0
230
1.0
  0
LINE
  5
A5
100
AcDbEntity
  8
0
 62
     7
100
AcDbLine
 10
-918.728737
 20
-578.695153
 30
0.0
 11
-918.728737
 21
-520.56409
 31
0.0
210
0.0
220
0.0
230
1.0
  0
LINE
  5
A6
100
AcDbEntity
  8
0
 62
     7
100
AcDbLine
 10
-974.92197
 20
-578.695157
 30
0.0
 11
-918.728737
 21
-578.695157
 31
0.0
210
0.0
220
0.0
230
1.0
  0
LINE
  5
A7
100
AcDbEntity
  8
0
 62
     7
 48
0.278396
100
AcDbLine
 10
-974.921971
 20
-567.559303
 30
0.0
 11
-974.921971
 21
-578.695157
 31
0.0
210
0.0
220
0.0
230
1.0
  0
LINE
  5
A8
100
AcDbEntity
  8
0
 62
     7
100
AcDbLine
 10
-946.680582
 20
-514.68215
 30
0.0
 11
-918.728742
 21
-504.508511
 31
0.0
210
0.0
220
0.0
230
1.0
  0
LINE
  5
A9
100
AcDbEntity
  8
0
 62
     7
 48
0.273474
100
AcDbLine
 10
-918.728742
 20
-504.508511
 30
0.0
 11
-918.728742
 21
-515.44746
 31
0.0
210
0.0
220
0.0
230
1.0
  0
LINE
  5
AA
100
AcDbEntity
  8
0
 62
     7
 48
0.364632
100
AcDbLine
 10
-918.728742
 20
-515.44746
 30
0.0
 11
-932.434409
 21
-520.435916
 31
0.0
210
0.0
220
0.0
230
1.0
  0
LINE
  5
AB
100
AcDbEntity
  8
0
 62
     7
100
AcDbLine
 10
-932.434409
 20
-520.435916
 30
0.0
 11
-932.434409
 21
-551.726921
 31
0.0
210
0.0
220
0.0
230
1.0
  0
LINE
  5
AC
100
AcDbEntity
  8
0
 62
     7
 48
0.379012
100
AcDbLine
 10
-932.434406
 20
-551.726921
 30
0.0
 11
-946.680582
 21
-546.541738
 31
0.0
210
0.0
220
0.0
230
1.0
  0
LINE
  5
AD
100
AcDbEntity
  8
0
 62
     7
 48
0.273474
100
AcDbLine
 10
-946.680582
 20
-546.541738
 30
0.0
 11
-946.680582
 21
-535.602789
 31
0.0
210
0.0
220
0.0
230
1.0
  0
LINE
  5
AE
100
AcDbEntity
  8
0
 62
     7
 48
0.105538
100
AcDbLine
 10
-942.713657
 20
-537.046631
 30
0.0
 11
-946.680582
 21
-535.602789
 31
0.0
210
0.0
220
0.0
230
1.0
  0
LINE
  5
AF
100
AcDbEntity
  8
0
 62
     7
 48
0.321734
100
AcDbLine
 10
-942.713658
 20
-524.177257
 30
0.0
 11
-942.713658
 21
-537.046631
 31
0.0
210
0.0
220
0.0
230
1.0
  0
LINE
  5
B0
100
AcDbEntity
  8
0
 62
     7
 48
0.105538
100
AcDbLine
 10
-942.713658
 20
-524.177257
 30
0.0
 11
-946.680582
 21
-525.6211
 31
0.0
210
0.0
220
0.0
230
1.0
  0
LINE
  5
B1
100
AcDbEntity
  8
0
 62
     7
 48
0.273474
100
AcDbLine
 10
-946.680582
 20
-525.6211
 30
0.0
 11
-946.680582
 21
-514.68215
 31
0.0
210
0.0
220
0.0
230
1.0
  0
LINE
  5
B2
100
AcDbEntity
  8
0
 62
     7
100
AcDbLine
 10
-949.680582
 20
-545.449827
 30
0.0
 11
-989.562703
 21
-530.933925
 31
0.0
210
0.0
220
0.0
230
1.0
  0
ARC
  5
B3
100
AcDbEntity
  8
0
 62
     7
100
AcDbCircle
 10
-989.445513
 20
-530.611947
 30
0.0
 40
0.342642
210
0.0
220
0.0
230
1.0
100
AcDbArc
 50
110.000005
 51
250.000133
  0
LINE
  5
B4
100
AcDbEntity
  8
0
 62
     7
100
AcDbLine
 10
-989.562703
 20
-530.289969
 30
0.0
 11
-949.680582
 21
-515.774061
 31
0.0
210
0.0
220
0.0
230
1.0
  0
LINE
  5
B5
100
AcDbEntity
  8
0
 62
     7
 48
0.273474
100
AcDbLine
 10
-949.680582
 20
-515.774061
 30
0.0
 11
-949.680582
 21
-526.713011
 31
0.0
210
0.0
220
0.0
230
1.0
  0
LINE
  5
B6
100
AcDbEntity
  8
0
 62
     7
 48
0.284993
100
AcDbLine
 10
-960.392814
 20
-530.611945
 30
0.0
 11
-949.680582
 21
-526.713011
 31
0.0
210
0.0
220
0.0
230
1.0
  0
LINE
  5
B7
100
AcDbEntity
  8
0
 62
     7
 48
0.284993
100
AcDbLine
 10
-949.680582
 20
-534.510878
 30
0.0
 11
-960.392814
 21
-530.611945
 31
0.0
210
0.0
220
0.0
230
1.0
  0
LINE
  5
B8
100
AcDbEntity
  8
0
 62
     7
 48
0.273474
100
AcDbLine
 10
-949.680582
 20
-534.510878
 30
0.0
 11
-949.680582
 21
-545.449827
 31
0.0
210
0.0
220
0.0
230
1.0
  0
LINE
  5
B9
100
AcDbEntity
  8
0
 62
     7
100
AcDbLine
 10
-993.017138
 20
-607.344943
 30
0.0
 11
-993.017138
 21
-567.559304
 31
0.0
210
0.0
220
0.0
230
1.0
  0
ARC
  5
BA
100
AcDbEntity
  8
0
 62
     7
100
AcDbCircle
 10
-983.119824
 20
-607.345032
 30
0.0
 40
9.897313
210
0.0
220
0.0
230
1.0
100
AcDbArc
 50
179.999485
 51
270.000523
  0
LINE
  5
BB
100
AcDbEntity
  8
0
 62
     7
100
AcDbLine
 10
-918.728735
 20
-617.24234
 30
0.0
 11
-983.119734
 21
-617.24234
 31
0.0
210
0.0
220
0.0
230
1.0
  0
LINE
  5
BC
100
AcDbEntity
  8
0
 62
     7
 48
0.278396
100
AcDbLine
 10
-918.728734
 20
-628.378194
 30
0.0
 11
-918.728734
 21
-617.24234
 31
0.0
210
0.0
220
0.0
230
1.0
  0
LINE
  5
BD
100
AcDbEntity
  8
0
 62
     7
100
AcDbLine
 10
-986.765724
 20
-628.378199
 30
0.0
 11
-918.728734
 21
-628.378199
 31
0.0
210
0.0
220
0.0
230
1.0
  0
ARC
  5
BE
100
AcDbEntity
  8
0
 62
     7
100
AcDbCircle
 10
-986.765883
 20
-610.991091
 30
0.0
 40
17.387108
210
0.0
220
0.0
230
1.0
100
AcDbArc
 50
179.999485
 51
270.000523
  0
LINE
  5
BF
100
AcDbEntity
  8
0
 62
     7
100
AcDbLine
 10
-1004.152994
 20
-567.559305
 30
0.0
 11
-1004.152994
 21
-610.990935
 31
0.0
210
0.0
220
0.0
230
1.0
  0
LINE
  5
C0
100
AcDbEntity
  8
0
 62
     7
 48
0.278396
100
AcDbLine
 10
-993.01714
 20
-567.559304
 30
0.0
 11
-1004.152994
 21
-567.559304
 31
0.0
210
0.0
220
0.0
230
1.0
  0
LINE
  5
C1
100
AcDbEntity
  8
0
 62
     7
100
AcDbLine
 10
-978.454867
 20
-600.346421
 30
0.0
 11
-978.454867
 21
-567.559303
 31
0.0
210
0.0
220
0.0
230
1.0
  0
ARC
  5
C2
100
AcDbEntity
  8
0
 62
     7
100
AcDbCircle
 10
-976.120248
 20
-600.345454
 30
0.0
 40
2.33462
210
0.0
220
0.0
230
1.0
100
AcDbArc
 50
180.023729
 51
269.976279
  0
LINE
  5
C3
100
AcDbEntity
  8
0
 62
     7
100
AcDbLine
 10
-918.728736
 20
-602.68007
 30
0.0
 11
-976.121214
 21
-602.68007
 31
0.0
210
0.0
220
0.0
230
1.0
  0
LINE
  5
C4
100
AcDbEntity
  8
0
 62
     7
 48
0.278396
100
AcDbLine
 10
-918.728735
 20
-613.815924
 30
0.0
 11
-918.728735
 21
-602.68007
 31
0.0
210
0.0
220
0.0
230
1.0
  0
LINE
  5
C5
100
AcDbEntity
  8
0
 62
     7
100
AcDbLine
 10
-982.256344
 20
-613.815928
 30
0.0
 11
-918.728735
 21
-613.815928
 31
0.0
210
0.0
220
0.0
230
1.0
  0
ARC
  5
C6
100
AcDbEntity
  8
0
 62
     7
100
AcDbCircle
 10
-982.253306
 20
-606.478513
 30
0.0
 40
7.337415
210
0.0
220
0.0
230
1.0
100
AcDbArc
 50
180.023729
 51
269.976279
  0
LINE
  5
C7
100
AcDbEntity
  8
0
 62
     7
100
AcDbLine
 10
-989.590724
 20
-567.559304
 30
0.0
 11
-989.590724
 21
-606.481552
 31
0.0
210
0.0
220
0.0
230
1.0
  0
LINE
  5
C8
100
AcDbEntity
  8
0
 62
     7
 48
0.278396
100
AcDbLine
 10
-978.45487
 20
-567.559303
 30
0.0
 11
-989.590724
 21
-567.559303
 31
0.0
210
0.0
220
0.0
230
1.0
  0
LINE
  5
C9
100
AcDbEntity
  8
0
 62
     7
100
AcDbLine
 10
-918.728737
 20
-582.978174
 30
0.0
 11
-974.92197
 21
-582.978174
 31
0.0
210
0.0
220
0.0
230
1.0
  0
LINE
  5
CA
100
AcDbEntity
  8
0
 62
     7
 48
0.299811
100
AcDbLine
 10
-918.728736
 20
-594.970632
 30
0.0
 11
-918.728736
 21
-582.978174
 31
0.0
210
0.0
220
0.0
230
1.0
  0
LINE
  5
CB
100
AcDbEntity
  8
0
 62
     7
100
AcDbLine
 10
-974.921969
 20
-594.970636
 30
0.0
 11
-918.728736
 21
-594.970636
 31
0.0
210
0.0
220
0.0
230
1.0
  0
LINE
  5
CC
100
AcDbEntity
  8
0
 62
     7
 48
0.299811
100
AcDbLine
 10
-974.92197
 20
-582.978178
 30
0.0
 11
-974.92197
 21
-594.970636
 31
0.0
210
0.0
220
0.0
230
1.0
  0
LINE
  5
CD
100
AcDbEntity
  8
0
 62
     7
 48
0.273474
100
AcDbLine
 10
-918.728733
 20
-640.173748
 30
0.0
 11
-918.728733
 21
-629.234799
 31
0.0
210
0.0
220
0.0
230
1.0
  0
LINE
  5
CE
100
AcDbEntity
  8
0
 62
     7
100
AcDbLine
 10
-946.680582
 20
-650.347391
 30
0.0
 11
-918.728733
 21
-640.173748
 31
0.0
210
0.0
220
0.0
230
1.0
  0
LINE
  5
CF
100
AcDbEntity
  8
0
 62
     7
 48
0.273474
100
AcDbLine
 10
-946.680582
 20
-650.347391
 30
0.0
 11
-946.680582
 21
-639.408441
 31
0.0
210
0.0
220
0.0
230
1.0
  0
LINE
  5
D0
100
AcDbEntity
  8
0
 62
     7
100
AcDbLine
 10
-918.728734
 20
-629.234799
 30
0.0
 11
-946.680582
 21
-639.408441
 31
0.0
210
0.0
220
0.0
230
1.0
  0
LINE
  5
D1
100
AcDbEntity
  8
0
 62
     7
100
AcDbLine
 10
-995.026566
 20
-682.763173
 30
0.0
 11
-949.680582
 21
-699.267758
 31
0.0
210
0.0
220
0.0
230
1.0
  0
ARC
  5
D2
100
AcDbEntity
  8
0
 62
     7
100
AcDbCircle
 10
-990.339342
 20
-669.884058
 30
0.0
 40
13.705534
210
0.0
220
0.0
230
1.0
100
AcDbArc
 50
109.998478
 51
250.00153
  0
LINE
  5
D3
100
AcDbEntity
  8
0
 62
     7
100
AcDbLine
 10
-949.680582
 20
-640.500352
 30
0.0
 11
-995.026568
 21
-657.004945
 31
0.0
210
0.0
220
0.0
230
1.0
  0
LINE
  5
D4
100
AcDbEntity
  8
0
 62
     7
 48
0.273474
100
AcDbLine
 10
-949.680582
 20
-640.500352
 30
0.0
 11
-949.680582
 21
-651.439302
 31
0.0
210
0.0
220
0.0
230
1.0
  0
LINE
  5
D5
100
AcDbEntity
  8
0
 62
     7
100
AcDbLine
 10
-989.590717
 20
-665.965406
 30
0.0
 11
-949.680582
 21
-651.439302
 31
0.0
210
0.0
220
0.0
230
1.0
  0
ARC
  5
D6
100
AcDbEntity
  8
0
 62
     7
100
AcDbCircle
 10
-988.164562
 20
-669.884058
 30
0.0
 40
4.170102
210
0.0
220
0.0
230
1.0
100
AcDbArc
 50
109.998478
 51
250.00153
  0
LINE
  5
D7
100
AcDbEntity
  8
0
 62
     7
100
AcDbLine
 10
-949.680582
 20
-688.328809
 30
0.0
 11
-989.590716
 21
-673.802711
 31
0.0
210
0.0
220
0.0
230
1.0
  0
LINE
  5
D8
100
AcDbEntity
  8
0
 62
     7
 48
0.273474
100
AcDbLine
 10
-949.680582
 20
-688.328809
 30
0.0
 11
-949.680582
 21
-699.267758
 31
0.0
210
0.0
220
0.0
230
1.0
  0
LINE
  5
D9
100
AcDbEntity
  8
0
 62
     7
100
AcDbLine
 10
-918.728728
 20
-710.533309
 30
0.0
 11
-918.728728
 21
-659.875644
 31
0.0
210
0.0
220
0.0
230
1.0
  0
LINE
  5
DA
100
AcDbEntity
  8
0
 62
     7
100
AcDbLine
 10
-946.680582
 20
-700.359668
 30
0.0
 11
-918.728728
 21
-710.533309
 31
0.0
210
0.0
220
0.0
230
1.0
  0
LINE
  5
DB
100
AcDbEntity
  8
0
 62
     7
 48
0.273474
100
AcDbLine
 10
-946.680582
 20
-700.359668
 30
0.0
 11
-946.680582
 21
-689.420719
 31
0.0
210
0.0
220
0.0
230
1.0
  0
LINE
  5
DC
100
AcDbEntity
  8
0
 62
     7
 48
0.47017
100
AcDbLine
 10
-929.007979
 20
-695.853019
 30
0.0
 11
-946.680582
 21
-689.420719
 31
0.0
210
0.0
220
0.0
230
1.0
  0
LINE
  5
DD
100
AcDbEntity
  8
0
 62
     7
100
AcDbLine
 10
-929.007982
 20
-659.875644
 30
0.0
 11
-929.007982
 21
-695.853019
 31
0.0
210
0.0
220
0.0
230
1.0
  0
LINE
  5
DE
100
AcDbEntity
  8
0
 62
     7
 48
0.256981
100
AcDbLine
 10
-918.728732
 20
-659.875644
 30
0.0
 11
-929.007982
 21
-659.875644
 31
0.0
210
0.0
220
0.0
230
1.0
  0
LINE
  5
DF
100
AcDbEntity
  8
0
 62
     7
100
AcDbLine
 10
-946.680582
 20
-653.993707
 30
0.0
 11
-918.728733
 21
-643.820064
 31
0.0
210
0.0
220
0.0
230
1.0
  0
LINE
  5
E0
100
AcDbEntity
  8
0
 62
     7
 48
0.273474
100
AcDbLine
 10
-918.728733
 20
-643.820064
 30
0.0
 11
-918.728733
 21
-654.759014
 31
0.0
210
0.0
220
0.0
230
1.0
  0
LINE
  5
E1
100
AcDbEntity
  8
0
 62
     7
 48
0.364611
100
AcDbLine
 10
-918.728732
 20
-654.759014
 30
0.0
 11
-932.433635
 21
-659.747191
 31
0.0
210
0.0
220
0.0
230
1.0
  0
LINE
  5
E2
100
AcDbEntity
  8
0
 62
     7
100
AcDbLine
 10
-932.433635
 20
-659.747191
 30
0.0
 11
-932.433635
 21
-690.959867
 31
0.0
210
0.0
220
0.0
230
1.0
  0
LINE
  5
E3
100
AcDbEntity
  8
0
 62
     7
 48
0.379032
100
AcDbLine
 10
-932.433633
 20
-690.959867
 30
0.0
 11
-946.680582
 21
-685.774403
 31
0.0
210
0.0
220
0.0
230
1.0
  0
LINE
  5
E4
100
AcDbEntity
  8
0
 62
     7
 48
0.273474
100
AcDbLine
 10
-946.680582
 20
-685.774403
 30
0.0
 11
-946.680582
 21
-674.835454
 31
0.0
210
0.0
220
0.0
230
1.0
  0
LINE
  5
E5
100
AcDbEntity
  8
0
 62
     7
 48
0.105558
100
AcDbLine
 10
-942.712884
 20
-676.279577
 30
0.0
 11
-946.680582
 21
-674.835454
 31
0.0
210
0.0
220
0.0
230
1.0
  0
LINE
  5
E6
100
AcDbEntity
  8
0
 62
     7
 48
0.319776
100
AcDbLine
 10
-942.712885
 20
-663.488533
 30
0.0
 11
-942.712885
 21
-676.279577
 31
0.0
210
0.0
220
0.0
230
1.0
  0
LINE
  5
E7
100
AcDbEntity
  8
0
 62
     7
 48
0.105558
100
AcDbLine
 10
-942.712885
 20
-663.488533
 30
0.0
 11
-946.680582
 21
-664.932657
 31
0.0
210
0.0
220
0.0
230
1.0
  0
LINE
  5
E8
100
AcDbEntity
  8
0
 62
     7
 48
0.273474
100
AcDbLine
 10
-946.680582
 20
-664.932657
 30
0.0
 11
-946.680582
 21
-653.993707
 31
0.0
210
0.0
220
0.0
230
1.0
  0
LINE
  5
E9
100
AcDbEntity
  8
0
 62
     7
100
AcDbLine
 10
-949.680582
 20
-684.682492
 30
0.0
 11
-988.127386
 21
-670.689003
 31
0.0
210
0.0
220
0.0
230
1.0
  0
ARC
  5
EA
100
AcDbEntity
  8
0
 62
     7
100
AcDbCircle
 10
-987.83441
 20
-669.884058
 30
0.0
 40
0.856604
210
0.0
220
0.0
230
1.0
100
AcDbArc
 50
110.000005
 51
250.000003
  0
LINE
  5
EB
100
AcDbEntity
  8
0
 62
     7
100
AcDbLine
 10
-988.127386
 20
-669.079114
 30
0.0
 11
-949.680582
 21
-655.085618
 31
0.0
210
0.0
220
0.0
230
1.0
  0
LINE
  5
EC
100
AcDbEntity
  8
0
 62
     7
 48
0.273474
100
AcDbLine
 10
-949.680582
 20
-655.085618
 30
0.0
 11
-949.680582
 21
-666.024568
 31
0.0
210
0.0
220
0.0
230
1.0
  0
LINE
  5
ED
100
AcDbEntity
  8
0
 62
     7
 48
0.28211
100
AcDbLine
 10
-960.284437
 20
-669.884056
 30
0.0
 11
-949.680582
 21
-666.024568
 31
0.0
210
0.0
220
0.0
230
1.0
  0
LINE
  5
EE
100
AcDbEntity
  8
0
 62
     7
 48
0.28211
100
AcDbLine
 10
-949.680582
 20
-673.743543
 30
0.0
 11
-960.284437
 21
-669.884056
 31
0.0
210
0.0
220
0.0
230
1.0
  0
LINE
  5
EF
100
AcDbEntity
  8
0
 62
     7
 48
0.273474
100
AcDbLine
 10
-949.680582
 20
-673.743543
 30
0.0
 11
-949.680582
 21
-684.682492
 31
0.0
210
0.0
220
0.0
230
1.0
  0
LINE
  5
F0
100
AcDbEntity
  8
0
 62
     7
 48
0.278396
100
AcDbLine
 10
-978.45486
 20
-701.578412
 30
0.0
 11
-989.590714
 21
-701.578412
 31
0.0
210
0.0
220
0.0
230
1.0
  0
LINE
  5
F1
100
AcDbEntity
  8
0
 62
     7
 48
0.420891
100
AcDbLine
 10
-978.454859
 20
-718.414071
 30
0.0
 11
-978.454859
 21
-701.578412
 31
0.0
210
0.0
220
0.0
230
1.0
  0
LINE
  5
F2
100
AcDbEntity
  8
0
 62
     7
100
AcDbLine
 10
-918.728728
 20
-718.414067
 30
0.0
 11
-978.454859
 21
-718.414067
 31
0.0
210
0.0
220
0.0
230
1.0
  0
LINE
  5
F3
100
AcDbEntity
  8
0
 62
     7
 48
0.278396
100
AcDbLine
 10
-918.728727
 20
-729.549921
 30
0.0
 11
-918.728727
 21
-718.414067
 31
0.0
210
0.0
220
0.0
230
1.0
  0
LINE
  5
F4
100
AcDbEntity
  8
0
 62
     7
100
AcDbLine
 10
-989.590713
 20
-729.549926
 30
0.0
 11
-918.728727
 21
-729.549926
 31
0.0
210
0.0
220
0.0
230
1.0
  0
LINE
  5
F5
100
AcDbEntity
  8
0
 62
     7
100
AcDbLine
 10
-989.590714
 20
-701.578412
 30
0.0
 11
-989.590714
 21
-729.549926
 31
0.0
210
0.0
220
0.0
230
1.0
  0
LINE
  5
F6
100
AcDbEntity
  8
0
 62
     7
100
AcDbLine
 10
-989.590712
 20
-732.976342
 30
0.0
 11
-989.590712
 21
-761.540704
 31
0.0
210
0.0
220
0.0
230
1.0
  0
LINE
  5
F7
100
AcDbEntity
  8
0
 62
     7
100
AcDbLine
 10
-918.728727
 20
-732.976338
 30
0.0
 11
-989.590712
 21
-732.976338
 31
0.0
210
0.0
220
0.0
230
1.0
  0
LINE
  5
F8
100
AcDbEntity
  8
0
 62
     7
 48
0.278396
100
AcDbLine
 10
-918.728726
 20
-744.112192
 30
0.0
 11
-918.728726
 21
-732.976338
 31
0.0
210
0.0
220
0.0
230
1.0
  0
LINE
  5
F9
100
AcDbEntity
  8
0
 62
     7
100
AcDbLine
 10
-978.454857
 20
-744.112196
 30
0.0
 11
-918.728726
 21
-744.112196
 31
0.0
210
0.0
220
0.0
230
1.0
  0
LINE
  5
FA
100
AcDbEntity
  8
0
 62
     7
 48
0.435713
100
AcDbLine
 10
-978.454856
 20
-761.540703
 30
0.0
 11
-978.454856
 21
-744.112196
 31
0.0
210
0.0
220
0.0
230
1.0
  0
LINE
  5
FB
100
AcDbEntity
  8
0
 62
     7
 48
0.278396
100
AcDbLine
 10
-989.59071
 20
-761.540704
 30
0.0
 11
-978.454856
 21
-761.540704
 31
0.0
210
0.0
220
0.0
230
1.0
  0
LINE
  5
FC
100
AcDbEntity
  8
0
 62
     7
 48
0.278396
100
AcDbLine
 10
-993.017131
 20
-701.578413
 30
0.0
 11
-1004.152985
 21
-701.578413
 31
0.0
210
0.0
220
0.0
230
1.0
  0
LINE
  5
FD
100
AcDbEntity
  8
0
 62
     7
100
AcDbLine
 10
-993.017127
 20
-761.540704
 30
0.0
 11
-993.017127
 21
-701.578413
 31
0.0
210
0.0
220
0.0
230
1.0
  0
LINE
  5
FE
100
AcDbEntity
  8
0
 62
     7
 48
0.278396
100
AcDbLine
 10
-1004.152981
 20
-761.540705
 30
0.0
 11
-993.017127
 21
-761.540705
 31
0.0
210
0.0
220
0.0
230
1.0
  0
LINE
  5
FF
100
AcDbEntity
  8
0
 62
     7
100
AcDbLine
 10
-1004.152985
 20
-701.578413
 30
0.0
 11
-1004.152985
 21
-761.540705
 31
0.0
210
0.0
220
0.0
230
1.0
  0
LINE
  5
100
100
AcDbEntity
  8
0
 62
     7
100
AcDbLine
 10
-934.645997
 20
-195.103742
 30
0.0
 11
-1004.153022
 21
-169.805259
 31
0.0
210
0.0
220
0.0
230
1.0
  0
ARC
  5
101
100
AcDbEntity
  8
0
 62
     7
100
AcDbCircle
 10
-934.941905
 20
-195.908686
 30
0.0
 40
0.857611
210
0.0
220
0.0
230
1.0
100
AcDbArc
 50
290.184089
 51
69.815918
  0
LINE
  5
102
100
AcDbEntity
  8
0
 62
     7
100
AcDbLine
 10
-1004.153018
 20
-222.012123
 30
0.0
 11
-934.645997
 21
-196.713631
 31
0.0
210
0.0
220
0.0
230
1.0
  0
LINE
  5
103
100
AcDbEntity
  8
0
 62
     7
 48
0.273474
100
AcDbLine
 10
-1004.153019
 20
-211.073174
 30
0.0
 11
-1004.153019
 21
-222.012123
 31
0.0
210
0.0
220
0.0
230
1.0
  0
LINE
  5
104
100
AcDbEntity
  8
0
 62
     7
100
AcDbLine
 10
-963.452469
 20
-196.259382
 30
0.0
 11
-1004.153019
 21
-211.073174
 31
0.0
210
0.0
220
0.0
230
1.0
  0
ARC
  5
105
100
AcDbEntity
  8
0
 62
     7
100
AcDbCircle
 10
-963.581388
 20
-195.908688
 30
0.0
 40
0.373639
210
0.0
220
0.0
230
1.0
100
AcDbArc
 50
290.18409
 51
69.815917
  0
LINE
  5
106
100
AcDbEntity
  8
0
 62
     7
100
AcDbLine
 10
-1004.153021
 20
-180.744208
 30
0.0
 11
-963.452469
 21
-195.557995
 31
0.0
210
0.0
220
0.0
230
1.0
  0
LINE
  5
107
100
AcDbEntity
  8
0
 62
     7
 48
0.273474
100
AcDbLine
 10
-1004.153022
 20
-169.805259
 30
0.0
 11
-1004.153022
 21
-180.744208
 31
0.0
210
0.0
220
0.0
230
1.0
  0
LINE
  5
108
100
AcDbEntity
  8
0
 62
     7
100
AcDbLine
 10
-881.962475
 20
-194.063758
 30
0.0
 11
-881.962475
 21
-229.712798
 31
0.0
210
0.0
220
0.0
230
1.0
  0
ARC
  5
109
100
AcDbEntity
  8
0
 62
     7
100
AcDbCircle
 10
-901.962475
 20
-194.063758
 30
0.0
 40
20.0
210
0.0
220
0.0
230
1.0
100
AcDbArc
 50
0.0
 51
70.0
  0
LINE
  5
10A
100
AcDbEntity
  8
0
 62
     7
100
AcDbLine
 10
-1005.122072
 20
-135.23318
 30
0.0
 11
-895.122072
 21
-175.269906
 31
0.0
210
0.0
220
0.0
230
1.0
  0
ARC
  5
10B
100
AcDbEntity
  8
0
 62
     7
100
AcDbCircle
 10
-1011.962475
 20
-154.027032
 30
0.0
 40
20.0
210
0.0
220
0.0
230
1.0
100
AcDbArc
 50
70.0
 51
180.0
  0
LINE
  5
10C
100
AcDbEntity
  8
0
 62
     7
100
AcDbLine
 10
-1031.962475
 20
-226.052135
 30
0.0
 11
-1031.962475
 21
-154.027032
 31
0.0
210
0.0
220
0.0
230
1.0
  0
LINE
  5
10D
100
AcDbEntity
  8
0
 62
     7
 48
0.125
100
AcDbLine
 10
-1036.962475
 20
-226.052135
 30
0.0
 11
-1031.962475
 21
-226.052135
 31
0.0
210
0.0
220
0.0
230
1.0
  0
LINE
  5
10E
100
AcDbEntity
  8
0
 62
     7
100
AcDbLine
 10
-1036.962475
 20
-226.052135
 30
0.0
 11
-1036.962475
 21
-154.027032
 31
0.0
210
0.0
220
0.0
230
1.0
  0
ARC
  5
10F
100
AcDbEntity
  8
0
 62
     7
100
AcDbCircle
 10
-1011.962475
 20
-154.027032
 30
0.0
 40
25.0
210
0.0
220
0.0
230
1.0
100
AcDbArc
 50
70.0
 51
180.0
  0
LINE
  5
110
100
AcDbEntity
  8
0
 62
     7
100
AcDbLine
 10
-1003.411971
 20
-130.534717
 30
0.0
 11
-893.411971
 21
-170.571443
 31
0.0
210
0.0
220
0.0
230
1.0
  0
ARC
  5
111
100
AcDbEntity
  8
0
 62
     7
100
AcDbCircle
 10
-901.962475
 20
-194.063758
 30
0.0
 40
25.0
210
0.0
220
0.0
230
1.0
100
AcDbArc
 50
0.0
 51
70.0
  0
LINE
  5
112
100
AcDbEntity
  8
0
 62
     7
100
AcDbLine
 10
-876.962475
 20
-194.063758
 30
0.0
 11
-876.962475
 21
-229.712798
 31
0.0
210
0.0
220
0.0
230
1.0
  0
LINE
  5
113
100
AcDbEntity
  8
0
 62
     7
 48
0.125
100
AcDbLine
 10
-881.962475
 20
-229.712798
 30
0.0
 11
-876.962475
 21
-229.712798
 31
0.0
210
0.0
220
0.0
230
1.0
  0
LINE
  5
114
100
AcDbEntity
  8
0
 62
     7
100
AcDbLine
 10
-895.122072
 20
-752.527196
 30
0.0
 11
-1005.122072
 21
-792.563922
 31
0.0
210
0.0
220
0.0
230
1.0
  0
ARC
  5
115
100
AcDbEntity
  8
0
 62
     7
100
AcDbCircle
 10
-901.962475
 20
-733.733344
 30
0.0
 40
20.0
210
0.0
220
0.0
230
1.0
100
AcDbArc
 50
290.0
 51
360.0
  0
LINE
  5
116
100
AcDbEntity
  8
0
 62
     7
100
AcDbLine
 10
-881.962475
 20
-707.260333
 30
0.0
 11
-881.962475
 21
-733.733344
 31
0.0
210
0.0
220
0.0
230
1.0
  0
LINE
  5
117
100
AcDbEntity
  8
0
 62
     7
 48
0.125
100
AcDbLine
 10
-876.962475
 20
-707.260333
 30
0.0
 11
-881.962475
 21
-707.260333
 31
0.0
210
0.0
220
0.0
230
1.0
  0
LINE
  5
118
100
AcDbEntity
  8
0
 62
     7
100
AcDbLine
 10
-876.962475
 20
-707.260333
 30
0.0
 11
-876.962475
 21
-733.733344
 31
0.0
210
0.0
220
0.0
230
1.0
  0
ARC
  5
119
100
AcDbEntity
  8
0
 62
     7
100
AcDbCircle
 10
-901.962475
 20
-733.733344
 30
0.0
 40
25.0
210
0.0
220
0.0
230
1.0
100
AcDbArc
 50
290.0
 51
0.0
  0
LINE
  5
11A
100
AcDbEntity
  8
0
 62
     7
100
AcDbLine
 10
-893.411971
 20
-757.225659
 30
0.0
 11
-1003.411971
 21
-797.262385
 31
0.0
210
0.0
220
0.0
230
1.0
  0
ARC
  5
11B
100
AcDbEntity
  8
0
 62
     7
100
AcDbCircle
 10
-1011.962475
 20
-773.770069
 30
0.0
 40
25.0
210
0.0
220
0.0
230
1.0
100
AcDbArc
 50
180.0
 51
290.0
  0
LINE
  5
11C
100
AcDbEntity
  8
0
 62
     7
100
AcDbLine
 10
-1036.962475
 20
-773.770069
 30
0.0
 11
-1036.962475
 21
-718.242323
 31
0.0
210
0.0
220
0.0
230
1.0
  0
LINE
  5
11D
100
AcDbEntity
  8
0
 62
     7
 48
0.125
100
AcDbLine
 10
-1031.962475
 20
-718.242323
 30
0.0
 11
-1036.962475
 21
-718.242323
 31
0.0
210
0.0
220
0.0
230
1.0
  0
LINE
  5
11E
100
AcDbEntity
  8
0
 62
     7
100
AcDbLine
 10
-1031.962475
 20
-773.770069
 30
0.0
 11
-1031.962475
 21
-718.242323
 31
0.0
210
0.0
220
0.0
230
1.0
  0
ARC
  5
11F
100
AcDbEntity
  8
0
 62
     7
100
AcDbCircle
 10
-1011.962475
 20
-773.770069
 30
0.0
 40
20.0
210
0.0
220
0.0
230
1.0
100
AcDbArc
 50
180.0
 51
290.0
  0
LINE
  5
120
100
AcDbEntity
  8
0
 62
     7
100
AcDbLine
 10
-1036.962475
 20
-345.349682
 30
0.0
 11
-1036.962475
 21
-241.052135
 31
0.0
210
0.0
220
0.0
230
1.0
  0
LINE
  5
121
100
AcDbEntity
  8
0
 62
     7
 48
0.125
100
AcDbLine
 10
-1031.962475
 20
-241.052135
 30
0.0
 11
-1036.962475
 21
-241.052135
 31
0.0
210
0.0
220
0.0
230
1.0
  0
LINE
  5
122
100
AcDbEntity
  8
0
 62
     7
100
AcDbLine
 10
-1031.962475
 20
-345.349682
 30
0.0
 11
-1031.962475
 21
-241.052135
 31
0.0
210
0.0
220
0.0
230
1.0
  0
LINE
  5
123
100
AcDbEntity
  8
0
 62
     7
 48
0.125
100
AcDbLine
 10
-1036.962475
 20
-345.349682
 30
0.0
 11
-1031.962475
 21
-345.349682
 31
0.0
210
0.0
220
0.0
230
1.0
  0
LINE
  5
124
100
AcDbEntity
  8
0
 62
     7
100
AcDbLine
 10
-1036.962475
 20
-464.647229
 30
0.0
 11
-1036.962475
 21
-360.349682
 31
0.0
210
0.0
220
0.0
230
1.0
  0
LINE
  5
125
100
AcDbEntity
  8
0
 62
     7
 48
0.125
100
AcDbLine
 10
-1031.962475
 20
-360.349682
 30
0.0
 11
-1036.962475
 21
-360.349682
 31
0.0
210
0.0
220
0.0
230
1.0
  0
LINE
  5
126
100
AcDbEntity
  8
0
 62
     7
100
AcDbLine
 10
-1031.962475
 20
-464.647229
 30
0.0
 11
-1031.962475
 21
-360.349682
 31
0.0
210
0.0
220
0.0
230
1.0
  0
LINE
  5
127
100
AcDbEntity
  8
0
 62
     7
 48
0.125
100
AcDbLine
 10
-1036.962475
 20
-464.647229
 30
0.0
 11
-1031.962475
 21
-464.647229
 31
0.0
210
0.0
220
0.0
230
1.0
  0
LINE
  5
128
100
AcDbEntity
  8
0
 62
     7
100
AcDbLine
 10
-1036.962475
 20
-583.944776
 30
0.0
 11
-1036.962475
 21
-479.647229
 31
0.0
210
0.0
220
0.0
230
1.0
  0
LINE
  5
129
100
AcDbEntity
  8
0
 62
     7
 48
0.125
100
AcDbLine
 10
-1031.962475
 20
-479.647229
 30
0.0
 11
-1036.962475
 21
-479.647229
 31
0.0
210
0.0
220
0.0
230
1.0
  0
LINE
  5
12A
100
AcDbEntity
  8
0
 62
     7
100
AcDbLine
 10
-1031.962475
 20
-583.944776
 30
0.0
 11
-1031.962475
 21
-479.647229
 31
0.0
210
0.0
220
0.0
230
1.0
  0
LINE
  5
12B
100
AcDbEntity
  8
0
 62
     7
 48
0.125
100
AcDbLine
 10
-1036.962475
 20
-583.944776
 30
0.0
 11
-1031.962475
 21
-583.944776
 31
0.0
210
0.0
220
0.0
230
1.0
  0
LINE
  5
12C
100
AcDbEntity
  8
0
 62
     7
100
AcDbLine
 10
-1036.962475
 20
-703.242323
 30
0.0
 11
-1036.962475
 21
-598.944776
 31
0.0
210
0.0
220
0.0
230
1.0
  0
LINE
  5
12D
100
AcDbEntity
  8
0
 62
     7
 48
0.125
100
AcDbLine
 10
-1031.962475
 20
-598.944776
 30
0.0
 11
-1036.962475
 21
-598.944776
 31
0.0
210
0.0
220
0.0
230
1.0
  0
LINE
  5
12E
100
AcDbEntity
  8
0
 62
     7
100
AcDbLine
 10
-1031.962475
 20
-703.242323
 30
0.0
 11
-1031.962475
 21
-598.944776
 31
0.0
210
0.0
220
0.0
230
1.0
  0
LINE
  5
12F
100
AcDbEntity
  8
0
 62
     7
 48
0.125
100
AcDbLine
 10
-1036.962475
 20
-703.242323
 30
0.0
 11
-1031.962475
 21
-703.242323
 31
0.0
210
0.0
220
0.0
230
1.0
  0
LINE
  5
130
100
AcDbEntity
  8
0
 62
     7
100
AcDbLine
 10
-881.962475
 20
-244.712798
 30
0.0
 11
-881.962475
 21
-345.349682
 31
0.0
210
0.0
220
0.0
230
1.0
  0
LINE
  5
131
100
AcDbEntity
  8
0
 62
     7
 48
0.125
100
AcDbLine
 10
-876.962475
 20
-244.712798
 30
0.0
 11
-881.962475
 21
-244.712798
 31
0.0
210
0.0
220
0.0
230
1.0
  0
LINE
  5
132
100
AcDbEntity
  8
0
 62
     7
100
AcDbLine
 10
-876.962475
 20
-244.712798
 30
0.0
 11
-876.962475
 21
-345.349682
 31
0.0
210
0.0
220
0.0
230
1.0
  0
LINE
  5
133
100
AcDbEntity
  8
0
 62
     7
 48
0.125
100
AcDbLine
 10
-881.962475
 20
-345.349682
 30
0.0
 11
-876.962475
 21
-345.349682
 31
0.0
210
0.0
220
0.0
230
1.0
  0
LINE
  5
134
100
AcDbEntity
  8
0
 62
     7
100
AcDbLine
 10
-881.962475
 20
-360.349682
 30
0.0
 11
-881.962475
 21
-460.986566
 31
0.0
210
0.0
220
0.0
230
1.0
  0
LINE
  5
135
100
AcDbEntity
  8
0
 62
     7
 48
0.125
100
AcDbLine
 10
-876.962475
 20
-360.349682
 30
0.0
 11
-881.962475
 21
-360.349682
 31
0.0
210
0.0
220
0.0
230
1.0
  0
LINE
  5
136
100
AcDbEntity
  8
0
 62
     7
100
AcDbLine
 10
-876.962475
 20
-360.349682
 30
0.0
 11
-876.962475
 21
-460.986566
 31
0.0
210
0.0
220
0.0
230
1.0
  0
LINE
  5
137
100
AcDbEntity
  8
0
 62
     7
 48
0.125
100
AcDbLine
 10
-881.962475
 20
-460.986566
 30
0.0
 11
-876.962475
 21
-460.986566
 31
0.0
210
0.0
220
0.0
230
1.0
  0
LINE
  5
138
100
AcDbEntity
  8
0
 62
     7
100
AcDbLine
 10
-881.962475
 20
-475.986566
 30
0.0
 11
-881.962475
 21
-576.62345
 31
0.0
210
0.0
220
0.0
230
1.0
  0
LINE
  5
139
100
AcDbEntity
  8
0
 62
     7
 48
0.125
100
AcDbLine
 10
-876.962475
 20
-475.986566
 30
0.0
 11
-881.962475
 21
-475.986566
 31
0.0
210
0.0
220
0.0
230
1.0
  0
LINE
  5
13A
100
AcDbEntity
  8
0
 62
     7
100
AcDbLine
 10
-876.962475
 20
-475.986566
 30
0.0
 11
-876.962475
 21
-576.62345
 31
0.0
210
0.0
220
0.0
230
1.0
  0
LINE
  5
13B
100
AcDbEntity
  8
0
 62
     7
 48
0.125
100
AcDbLine
 10
-881.962475
 20
-576.62345
 30
0.0
 11
-876.962475
 21
-576.62345
 31
0.0
210
0.0
220
0.0
230
1.0
  0
LINE
  5
13C
100
AcDbEntity
  8
0
 62
     7
100
AcDbLine
 10
-881.962475
 20
-591.62345
 30
0.0
 11
-881.962475
 21
-692.260333
 31
0.0
210
0.0
220
0.0
230
1.0
  0
LINE
  5
13D
100
AcDbEntity
  8
0
 62
     7
 48
0.125
100
AcDbLine
 10
-876.962475
 20
-591.62345
 30
0.0
 11
-881.962475
 21
-591.62345
 31
0.0
210
0.0
220
0.0
230
1.0
  0
LINE
  5
13E
100
AcDbEntity
  8
0
 62
     7
100
AcDbLine
 10
-876.962475
 20
-591.62345
 30
0.0
 11
-876.962475
 21
-692.260333
 31
0.0
210
0.0
220
0.0
230
1.0
  0
LINE
  5
13F
100
AcDbEntity
  8
0
 62
     7
 48
0.125
100
AcDbLine
 10
-881.962475
 20
-692.260333
 30
0.0
 11
-876.962475
 21
-692.260333
 31
0.0
210
0.0
220
0.0
230
1.0
  0
LINE
  5
140
100
AcDbEntity
  8
0
 62
     7
100
AcDbLine
 10
-1021.163419
 20
-85.0
 30
0.0
 11
-971.163419
 21
-85.0
 31
0.0
210
0.0
220
0.0
230
1.0
  0
LINE
  5
141
100
AcDbEntity
  8
0
 62
     7
100
AcDbLine
 10
-1021.163419
 20
-60.0
 30
0.0
 11
-1021.163419
 21
-85.0
 31
0.0
210
0.0
220
0.0
230
1.0
  0
LINE
  5
142
100
AcDbEntity
  8
0
 62
     7
100
AcDbLine
 10
-971.163419
 20
-60.0
 30
0.0
 11
-1021.163419
 21
-60.0
 31
0.0
210
0.0
220
0.0
230
1.0
  0
LINE
  5
143
100
AcDbEntity
  8
0
 62
     7
100
AcDbLine
 10
-971.163419
 20
-85.0
 30
0.0
 11
-971.163419
 21
-60.0
 31
0.0
210
0.0
220
0.0
230
1.0
  0
LINE
  5
144
100
AcDbEntity
  8
0
 62
     7
100
AcDbLine
 10
-921.163419
 20
-85.0
 30
0.0
 11
-871.163419
 21
-85.0
 31
0.0
210
0.0
220
0.0
230
1.0
  0
LINE
  5
145
100
AcDbEntity
  8
0
 62
     7
100
AcDbLine
 10
-921.163419
 20
-60.0
 30
0.0
 11
-921.163419
 21
-85.0
 31
0.0
210
0.0
220
0.0
230
1.0
  0
LINE
  5
146
100
AcDbEntity
  8
0
 62
     7
100
AcDbLine
 10
-871.163419
 20
-60.0
 30
0.0
 11
-921.163419
 21
-60.0
 31
0.0
210
0.0
220
0.0
230
1.0
  0
LINE
  5
147
100
AcDbEntity
  8
0
 62
     7
100
AcDbLine
 10
-871.163419
 20
-85.0
 30
0.0
 11
-871.163419
 21
-60.0
 31
0.0
210
0.0
220
0.0
230
1.0
  0
CIRCLE
  5
148
100
AcDbEntity
  8
0
 62
     7
100
AcDbCircle
 10
-1100.163419
 20
-893.5
 30
0.0
 40
3.25
210
0.0
220
0.0
230
1.0
  0
CIRCLE
  5
149
100
AcDbEntity
  8
0
 62
     7
100
AcDbCircle
 10
-1070.163419
 20
-893.5
 30
0.0
 40
3.25
210
0.0
220
0.0
230
1.0
  0
CIRCLE
  5
14A
100
AcDbEntity
  8
0
 62
     7
100
AcDbCircle
 10
-125.163419
 20
-893.5
 30
0.0
 40
3.25
210
0.0
220
0.0
230
1.0
  0
CIRCLE
  5
14B
100
AcDbEntity
  8
0
 62
     7
100
AcDbCircle
 10
-155.163419
 20
-893.5
 30
0.0
 40
3.25
210
0.0
220
0.0
230
1.0
  0
CIRCLE
  5
14C
100
AcDbEntity
  8
0
 62
     7
100
AcDbCircle
 10
-845.962475
 20
-749.770069
 30
0.0
 40
3.25
210
0.0
220
0.0
230
1.0
  0
CIRCLE
  5
14D
100
AcDbEntity
  8
0
 62
     7
100
AcDbCircle
 10
-845.962475
 20
-463.898551
 30
0.0
 40
3.25
210
0.0
220
0.0
230
1.0
  0
CIRCLE
  5
14E
100
AcDbEntity
  8
0
 62
     7
100
AcDbCircle
 10
-845.962475
 20
-178.027032
 30
0.0
 40
3.25
210
0.0
220
0.0
230
1.0
  0
CIRCLE
  5
14F
100
AcDbEntity
  8
0
 62
     7
100
AcDbCircle
 10
-1067.962475
 20
-463.898551
 30
0.0
 40
3.25
210
0.0
220
0.0
230
1.0
  0
CIRCLE
  5
150
100
AcDbEntity
  8
0
 62
     7
100
AcDbCircle
 10
-1067.962475
 20
-178.027032
 30
0.0
 40
3.25
210
0.0
220
0.0
230
1.0
  0
LINE
  5
151
100
AcDbEntity
  8
0
  6
AXES
 62
     1
100
AcDbLine
 10
-2.08171
 20
0.0
 30
0.0
 11
-2.08171
 21
-910.0
 31
0.0
210
0.0
220
0.0
230
1.0
  0
LINE
  5
152
100
AcDbEntity
  8
0
  6
AXES
 62
     1
100
AcDbLine
 10
-1221.163419
 20
2.08171
 30
0.0
 11
-4.163419
 21
2.08171
 31
0.0
210
0.0
220
0.0
230
1.0
  0
LINE
  5
153
100
AcDbEntity
  8
0
  6
AXES
 62
     1
100
AcDbLine
 10
-1223.245129
 20
-910.0
 30
0.0
 11
-1223.245129
 21
0.0
 31
0.0
210
0.0
220
0.0
230
1.0
  0
LINE
  5
154
100
AcDbEntity
  8
0
  6
AXES
 62
     1
100
AcDbLine
 10
-4.163419
 20
-912.08171
 30
0.0
 11
-1221.163419
 21
-912.08171
 31
0.0
210
0.0
220
0.0
230
1.0
  0
LINE
  5
155
100
AcDbEntity
  8
0
  6
AXES
 62
     1
100
AcDbLine
 10
-1221.163419
 20
22.245129
 30
0.0
 11
-4.163419
 21
22.245129
 31
0.0
210
0.0
220
0.0
230
1.0
  0
ENDSEC
  0
SECTION
  2
OBJECTS
  0
DICTIONARY
  5
19
100
AcDbDictionary
  3
ACAD_GROUP
350
1A
  3
ACAD_MLINESTYLE
350
1B
  0
DICTIONARY
  5
1A
102
{ACAD_REACTORS
330
19
102
}
100
AcDbDictionary
  0
DICTIONARY
  5
1B
102
{ACAD_REACTORS
330
19
102
}
100
AcDbDictionary
  3
STANDARD
350
1C
  0
MLINESTYLE
  5
1C
102
{ACAD_REACTORS
330
1B
102
}
100
AcDbMlineStyle
  2
STANDARD
 70
     0
  3

 62
     0
 51
90.0
 52
90.0
 71
     2
 49
0.5
 62
   256
  6
BYLAYER
 49
-0.5
 62
   256
  6
BYLAYER
  0
ENDSEC
  0
EOF
