  0
SECTION
  2
HEADER
  9
$ACADVER
  1
AC1015
  9
$ACADMAINTVER
 70
     6
  9
$DWGCODEPAGE
  3
ANSI_1252
  9
$INSBASE
 10
0.0
 20
0.0
 30
0.0
  9
$EXTMIN
 10
0.0
 20
0.0
 30
0.0
  9
$EXTMAX
 10
552.865601
 20
323.710419
 30
2.0
  9
$LIMMIN
 10
0.0
 20
0.0
  9
$LIMMAX
 10
420.0
 20
297.0
  9
$ORTHOMODE
 70
     0
  9
$REGENMODE
 70
     1
  9
$FILLMODE
 70
     1
  9
$QTEXTMODE
 70
     0
  9
$MIRRTEXT
 70
     1
  9
$LTSCALE
 40
1.0
  9
$ATTMODE
 70
     1
  9
$TEXTSIZE
 40
2.5
  9
$TRACEWID
 40
1.0
  9
$TEXTSTYLE
  7
Standard
  9
$CLAYER
  8
0
  9
$CELTYPE
  6
ByLayer
  9
$CECOLOR
 62
   256
  9
$CELTSCALE
 40
1.0
  9
$DISPSILH
 70
     0
  9
$DIMSCALE
 40
1.0
  9
$DIMASZ
 40
2.5
  9
$DIMEXO
 40
0.625
  9
$DIMDLI
 40
3.75
  9
$DIMRND
 40
0.0
  9
$DIMDLE
 40
0.0
  9
$DIMEXE
 40
1.25
  9
$DIMTP
 40
0.0
  9
$DIMTM
 40
0.0
  9
$DIMTXT
 40
2.5
  9
$DIMCEN
 40
2.5
  9
$DIMTSZ
 40
0.0
  9
$DIMTOL
 70
     0
  9
$DIMLIM
 70
     0
  9
$DIMTIH
 70
     0
  9
$DIMTOH
 70
     0
  9
$DIMSE1
 70
     0
  9
$DIMSE2
 70
     0
  9
$DIMTAD
 70
     1
  9
$DIMZIN
 70
     8
  9
$DIMBLK
  1

  9
$DIMASO
 70
     1
  9
$DIMSHO
 70
     1
  9
$DIMPOST
  1

  9
$DIMAPOST
  1

  9
$DIMALT
 70
     0
  9
$DIMALTD
 70
     3
  9
$DIMALTF
 40
0.03937
  9
$DIMLFAC
 40
1.0
  9
$DIMTOFL
 70
     1
  9
$DIMTVP
 40
0.0
  9
$DIMTIX
 70
     0
  9
$DIMSOXD
 70
     0
  9
$DIMSAH
 70
     0
  9
$DIMBLK1
  1

  9
$DIMBLK2
  1

  9
$DIMSTYLE
  2

  9
$DIMCLRD
 70
     0
  9
$DIMCLRE
 70
     0
  9
$DIMCLRT
 70
     0
  9
$DIMTFAC
 40
1.0
  9
$DIMGAP
 40
0.625
  9
$DIMJUST
 70
     0
  9
$DIMSD1
 70
     0
  9
$DIMSD2
 70
     0
  9
$DIMTOLJ
 70
     0
  9
$DIMTZIN
 70
     8
  9
$DIMALTZ
 70
     0
  9
$DIMALTTZ
 70
     0
  9
$DIMUPT
 70
     0
  9
$DIMDEC
 70
     2
  9
$DIMTDEC
 70
     2
  9
$DIMALTU
 70
     2
  9
$DIMALTTD
 70
     3
  9
$DIMTXSTY
  7
Standard
  9
$DIMAUNIT
 70
     0
  9
$DIMADEC
 70
     0
  9
$DIMALTRND
 40
0.0
  9
$DIMAZIN
 70
     0
  9
$DIMDSEP
 70
    44
  9
$DIMATFIT
 70
     0
  9
$DIMFRAC
 70
     0
  9
$DIMLDRBLK
  1

  9
$DIMLUNIT
 70
     2
  9
$DIMLWD
 70
    -2
  9
$DIMLWE
 70
    -2
  9
$DIMTMOVE
 70
     0
  9
$LUNITS
 70
     2
  9
$LUPREC
 70
     4
  9
$SKETCHINC
 40
1.0
  9
$FILLETRAD
 40
2.5
  9
$AUNITS
 70
     0
  9
$AUPREC
 70
     0
  9
$MENU
  1
.
  9
$ELEVATION
 40
0.0
  9
$PELEVATION
 40
0.0
  9
$THICKNESS
 40
0.0
  9
$LIMCHECK
 70
     0
  9
$CHAMFERA
 40
2.5
  9
$CHAMFERB
 40
2.5
  9
$CHAMFERC
 40
0.0
  9
$CHAMFERD
 40
0.0
  9
$SKPOLY
 70
     0
  9
$TDCREATE
 40
0.000000000
  9
$TDUCREATE
 40
0.000000000
  9
$TDUPDATE
 40
0.000000000
  9
$TDUUPDATE
 40
0.000000000
  9
$TDINDWG
 40
0.0000000000
  9
$TDUSRTIMER
 40
0.0000000000
  9
$USRTIMER
 70
     1
  9
$ANGBASE
 50
0.0
  9
$ANGDIR
 70
     0
  9
$PDMODE
 70
     0
  9
$PDSIZE
 40
0.0
  9
$PLINEWID
 40
0.0
  9
$SPLFRAME
 70
     0
  9
$SPLINETYPE
 70
     6
  9
$SPLINESEGS
 70
     8
  9
$HANDSEED
  5
5C8
  9
$SURFTAB1
 70
     6
  9
$SURFTAB2
 70
     6
  9
$SURFTYPE
 70
     6
  9
$SURFU
 70
     6
  9
$SURFV
 70
     6
  9
$UCSBASE
  2

  9
$UCSNAME
  2

  9
$UCSORG
 10
0.0
 20
0.0
 30
0.0
  9
$UCSXDIR
 10
1.0
 20
0.0
 30
0.0
  9
$UCSYDIR
 10
0.0
 20
1.0
 30
0.0
  9
$UCSORTHOREF
  2

  9
$UCSORTHOVIEW
 70
     1
  9
$UCSORGTOP
 10
0.0
 20
0.0
 30
0.0
  9
$UCSORGBOTTOM
 10
0.0
 20
0.0
 30
0.0
  9
$UCSORGLEFT
 10
0.0
 20
0.0
 30
0.0
  9
$UCSORGRIGHT
 10
0.0
 20
0.0
 30
0.0
  9
$UCSORGFRONT
 10
0.0
 20
0.0
 30
0.0
  9
$UCSORGBACK
 10
0.0
 20
0.0
 30
0.0
  9
$PUCSBASE
  2

  9
$PUCSNAME
  2

  9
$PUCSORG
 10
0.0
 20
0.0
 30
0.0
  9
$PUCSXDIR
 10
1.0
 20
0.0
 30
0.0
  9
$PUCSYDIR
 10
0.0
 20
1.0
 30
0.0
  9
$PUCSORTHOREF
  2

  9
$PUCSORTHOVIEW
 70
     0
  9
$PUCSORGTOP
 10
0.0
 20
0.0
 30
0.0
  9
$PUCSORGBOTTOM
 10
0.0
 20
0.0
 30
0.0
  9
$PUCSORGLEFT
 10
0.0
 20
0.0
 30
0.0
  9
$PUCSORGRIGHT
 10
0.0
 20
0.0
 30
0.0
  9
$PUCSORGFRONT
 10
0.0
 20
0.0
 30
0.0
  9
$PUCSORGBACK
 10
0.0
 20
0.0
 30
0.0
  9
$USERI1
 70
     0
  9
$USERI2
 70
     0
  9
$USERI3
 70
     0
  9
$USERI4
 70
     0
  9
$USERI5
 70
     0
  9
$USERR1
 40
0.0
  9
$USERR2
 40
0.0
  9
$USERR3
 40
0.0
  9
$USERR4
 40
0.0
  9
$USERR5
 40
0.0
  9
$WORLDVIEW
 70
     1
  9
$SHADEDGE
 70
     3
  9
$SHADEDIF
 70
    70
  9
$TILEMODE
 70
     1
  9
$MAXACTVP
 70
    48
  9
$PINSBASE
 10
0.0
 20
0.0
 30
0.0
  9
$PLIMCHECK
 70
     0
  9
$PEXTMIN
 10
0.0
 20
0.0
 30
0.0
  9
$PEXTMAX
 10
552.865601
 20
323.710419
 30
2.0
  9
$PLIMMIN
 10
0.0
 20
0.0
  9
$PLIMMAX
 10
420.0
 20
297.0
  9
$UNITMODE
 70
     0
  9
$VISRETAIN
 70
     0
  9
$PLINEGEN
 70
     0
  9
$PSLTSCALE
 70
     1
  9
$TREEDEPTH
 70
  3020
  9
$CMLSTYLE
  2
Standard
  9
$CMLJUST
 70
     0
  9
$CMLSCALE
 40
20.0
  9
$PROXYGRAPHICS
 70
     1
  9
$MEASUREMENT
 70
     1
  9
$CELWEIGHT
370
    -1
  9
$ENDCAPS
280
     0
  9
$JOINSTYLE
280
     0
  9
$LWDISPLAY
290
     0
  9
$INSUNITS
 70
     0
  9
$HYPERLINKBASE
  1

  9
$STYLESHEET
  1

  9
$XEDIT
290
     1
  9
$CEPSNTYPE
380
     0
  9
$PSTYLEMODE
290
     0
  9
$FINGERPRINTGUID
  2

  9
$VERSIONGUID
  2

  9
$EXTNAMES
290
     0
  9
$PSVPSCALE
 40
0.0
  0
ENDSEC
  0
SECTION
  2
CLASSES
  0
CLASS
  1
LWPOLYLINE
  2
AcDbPolyline
  3
AutoCAD 2000
 90
        0
280
     0
281
     1
  0
CLASS
  1
IMAGE
  2
AcDbRasterImage
  3
ISM
 90
      127
280
     0
281
     1
  0
CLASS
  1
OLE2FRAME
  2
AcDbOle2Frame
  3
AutoCAD 2000
 90
        0
280
     0
281
     1
  0
CLASS
  1
HATCH
  2
AcDbHatch
  3
AutoCAD 2000
 90
        0
280
     0
281
     1
  0
CLASS
  1
DICTIONARYVAR
  2
AcDbDictionaryVar
  3
AutoCAD 2000
 90
        0
280
     0
281
     0
  0
CLASS
  1
RASTERVARIABLES
  2
AcDbRasterVariables
  3
ISM
 90
        0
280
     0
281
     0
  0
CLASS
  1
IMAGEDEF
  2
AcDbRasterImageDef
  3
ISM
 90
        0
280
     0
281
     0
  0
CLASS
  1
IMAGEDEF_REACTOR
  2
AcDbRasterImageDefReactor
  3
ISM
 90
        1
280
     0
281
     0
  0
CLASS
  1
IDBUFFER
  2
AcDbIdBuffer
  3
AutoCAD 2000
 90
        0
280
     0
281
     0
  0
CLASS
  1
SPATIAL_FILTER
  2
AcDbSpatialFilter
  3
AutoCAD 2000
 90
        0
280
     0
281
     0
  0
CLASS
  1
XRECORD
  2
AcDbXrecord
  3
AutoCAD 2000
 90
        0
280
     0
281
     0
  0
CLASS
  1
SORTENTSTABLE
  2
AcDbSortentsTable
  3
AutoCAD 2000
 90
        0
280
     0
281
     0
  0
CLASS
  1
LAYER_INDEX
  2
AcDbLayerIndex
  3
AutoCAD 2000
 90
        0
280
     0
281
     0
  0
CLASS
  1
SPATIAL_INDEX
  2
AcDbSpatialIndex
  3
AutoCAD 2000
 90
        0
280
     0
281
     0
  0
CLASS
  1
OBJECT_PTR
  2
CAseDLPNTableRecord
  3
"ASE-LPNTableRecord"
 90
        1
280
     0
281
     0
  0
CLASS
  1
LAYOUT
  2
AcDbLayout
  3
AutoCAD 2000
 90
        0
280
     0
281
     0
  0
CLASS
  1
PLOTSETTINGS
  2
AcDbPlotSettings
  3
AutoCAD 2000
 90
        0
280
     0
281
     0
  0
CLASS
  1
ACDBDICTIONARYWDFLT
  2
AcDbDictionaryWithDefault
  3
AutoCAD 2000
 90
        0
280
     0
281
     0
  0
CLASS
  1
ACDBPLACEHOLDER
  2
AcDbPlaceHolder
  3
AutoCAD 2000
 90
        0
280
     0
281
     0
  0
CLASS
  1
VBA_PROJECT
  2
AcDbVbaProject
  3
acadvba
 90
        0
280
     0
281
     0
  0
CLASS
  1
WIPEOUT
  2
AcDbWipeout
  3
WipeOut|AutoCAD Express Tool|expresstools@autodesk.com
 90
      127
280
     0
281
     1
  0
CLASS
  1
WIPEOUTVARIABLES
  2
AcDbWipeoutVariables
  3
WipeOut|AutoCAD Express Tool|expresstools@autodesk.com
 90
        0
280
     0
281
     0
  0
CLASS
  1
RTEXT
  2
RText
  3
RText|AutoCAD Express Tool|expresstools@autodesk.com
 90
        0
280
     0
281
     1
  0
CLASS
  1
ARCALIGNEDTEXT
  2
AcDbArcAlignedText
  3
ATEXT|AutoCAD Express Tool|expresstools@autodesk.com
 90
        0
280
     0
281
     1
  0
ENDSEC
  0
SECTION
  2
TABLES
  0
TABLE
  2
VPORT
  5
7
100
AcDbSymbolTable
 70
     1
  0
VPORT
  5
15
100
AcDbSymbolTableRecord
100
AcDbViewportTableRecord
  2
*ACTIVE
 70
     0
 10
0.0
 20
0.0
 11
1.0
 21
1.0
 12
6.591288
 22
4.579184
 13
0.0
 23
0.0
 14
1.0
 24
1.0
 15
0.0
 25
0.0
 16
0.0
 26
0.0
 36
1.0
 17
0.0
 27
0.0
 37
0.0
 40
9.158369
 41
0.688564
 42
50.0
 43
0.0
 44
0.0
 50
0.0
 51
0.0
 71
     0
 72
   100
 73
     1
 74
     1
 75
     0
 76
     0
 77
     0
 78
     0
281
     0
 65
     0
110
0.0
120
0.0
130
0.0
111
1.0
121
0.0
131
0.0
112
0.0
122
1.0
132
0.0
345
0
346
0
 79
     0
146
0.0
  0
ENDTAB
  0
TABLE
  2
LTYPE
  5
4
100
AcDbSymbolTable
 70
     3
  0
LTYPE
  5
11
100
AcDbSymbolTableRecord
100
AcDbLinetypeTableRecord
  2
ByBlock
 70
    64
  3

 72
    65
 73
     0
 40
0.0
  0
LTYPE
  5
12
100
AcDbSymbolTableRecord
100
AcDbLinetypeTableRecord
  2
ByLayer
 70
    64
  3

 72
    65
 73
     0
 40
0.0
  0
LTYPE
  5
13
100
AcDbSymbolTableRecord
100
AcDbLinetypeTableRecord
  2
Continuous
 70
    64
  3
Solid line
 72
    65
 73
     0
 40
0.0
  0
ENDTAB
  0
TABLE
  2
LAYER
  5
2
100
AcDbSymbolTable
 70
     1
  0
LAYER
  5
14
100
AcDbSymbolTableRecord
100
AcDbLayerTableRecord
  2
0
 70
     0
 62
     7
  6
Continuous
290
     1
370
    -3
390
1D
  0
ENDTAB
  0
TABLE
  2
STYLE
  5
3
100
AcDbSymbolTable
 70
     1
  0
STYLE
  5
17
100
AcDbSymbolTableRecord
100
AcDbTextStyleTableRecord
  2
Standard
 70
     0
 40
0.0
 41
1.0
 50
0.0
 71
     0
 42
0.0
  3
txt
  4

  0
ENDTAB
  0
TABLE
  2
VIEW
  5
5
100
AcDbSymbolTable
 70
     0
  0
ENDTAB
  0
TABLE
  2
UCS
  5
6
100
AcDbSymbolTable
 70
     0
  0
ENDTAB
  0
TABLE
  2
APPID
  5
8
100
AcDbSymbolTable
 70
     1
  0
APPID
  5
16
100
AcDbSymbolTableRecord
100
AcDbRegAppTableRecord
  2
ACAD
 70
     0
  0
ENDTAB
  0
TABLE
  2
DIMSTYLE
  5
9
100
AcDbSymbolTable
 70
     1
100
AcDbDimStyleTable
 71
     0
  0
DIMSTYLE
105
18
100
AcDbSymbolTableRecord
100
AcDbDimStyleTableRecord
  2
Standard
 70
     0
  3

  4

 40
1.0
 41
0.18
 42
0.0625
 43
0.38
 44
0.18
 45
0.0
 46
0.0
 47
0.0
 48
0.0
 71
     0
 72
     0
 73
     1
 74
     1
 75
     0
 76
     0
 77
     0
 78
     0
 79
     0
140
0.18
141
0.09
142
0.0
143
25.4
144
1.0
145
0.0
146
1.0
147
0.09
148
0.0
170
     0
171
     2
172
     0
173
     0
174
     0
175
     0
176
     0
177
     0
178
     0
179
     0
271
     4
272
     4
273
     2
274
     2
275
     0
276
     0
277
     2
278
    46
279
     0
280
     0
281
     0
282
     0
283
     1
284
     0
285
     0
286
     0
288
     0
289
     3
340
17
341
0
342
0
343
0
344
0
371
    -2
372
    -2
  0
ENDTAB
  0
TABLE
  2
BLOCK_RECORD
  5
1
100
AcDbSymbolTable
 70
     0
  0
BLOCK_RECORD
  5
A
100
AcDbSymbolTableRecord
100
AcDbBlockTableRecord
  2
*MODEL_SPACE
340
20
  0
BLOCK_RECORD
  5
B
100
AcDbSymbolTableRecord
100
AcDbBlockTableRecord
  2
*PAPER_SPACE
340
21
  0
ENDTAB
  0
ENDSEC
  0
SECTION
  2
BLOCKS
  0
BLOCK
  5
D
100
AcDbEntity
  8
0
390
0
100
AcDbBlockBegin
  2
*MODEL_SPACE
 70
     0
 10
0.0
 20
0.0
 30
0.0
  3
*MODEL_SPACE
  1

  0
ENDBLK
  5
E
100
AcDbEntity
  8
0
390
0
100
AcDbBlockEnd
  0
BLOCK
  5
F
100
AcDbEntity
 67
     1
  8
0
390
0
100
AcDbBlockBegin
  2
*PAPER_SPACE
 70
     0
 10
0.0
 20
0.0
 30
0.0
  3
*PAPER_SPACE
  1

  0
ENDBLK
  5
10
100
AcDbEntity
 67
     1
  8
0
390
0
100
AcDbBlockEnd
  0
ENDSEC
  0
SECTION
  2
ENTITIES
  0
VIEWPORT
  5
5C7
100
AcDbEntity
 67
     1
  8
0
370
     0
390
0
 62
     0
 48
0.0
100
AcDbViewport
 10
0.0
 20
0.0
 30
0.0
 40
1000.0
 41
1000.0
 68
     1
 69
     1
 12
0.0
 22
0.0
 13
0.0
 23
0.0
 14
1.0
 24
1.0
 15
1.0
 25
1.0
 16
0.0
 26
0.0
 36
1.0
 17
0.0
 27
0.0
 37
0.0
 42
50.0
 43
0.0
 44
0.0
 45
1000.0
 50
0.0
 51
0.0
 72
   100
 90
        0
340
0
  1

281
     0
 71
     0
 74
     1
110
0.0
120
0.0
130
0.0
111
1.0
121
0.0
131
0.0
112
0.0
122
1.0
132
0.0
345
0
346
0
 79
     0
146
0.0
  0
POLYLINE
  5
24
100
AcDbEntity
  8
0
370
    13
390
0
 62
     7
100
AcDb2dPolyline
 66
     1
 10
0.0
 20
0.0
 30
0.0
 70
     1
 71
     7
  0
VERTEX
  5
25
100
AcDbEntity
  8
0
370
     0
390
0
100
AcDbVertex
100
AcDb2dVertex
 10
-180.439621
 20
-283.760529
 30
0.0
  0
VERTEX
  5
26
100
AcDbEntity
  8
0
370
     0
390
0
100
AcDbVertex
100
AcDb2dVertex
 10
-185.454041
 20
-300.792206
 30
0.0
  0
VERTEX
  5
27
100
AcDbEntity
  8
0
370
     0
390
0
100
AcDbVertex
100
AcDb2dVertex
 10
-190.612534
 20
-283.760529
 30
0.0
  0
VERTEX
  5
28
100
AcDbEntity
  8
0
370
     0
390
0
100
AcDbVertex
100
AcDb2dVertex
 10
-193.350296
 20
-283.760529
 30
0.0
  0
VERTEX
  5
29
100
AcDbEntity
  8
0
370
     0
390
0
100
AcDbVertex
100
AcDb2dVertex
 10
-186.894958
 20
-303.789337
 30
0.0
  0
VERTEX
  5
2A
100
AcDbEntity
  8
0
370
     0
390
0
100
AcDbVertex
100
AcDb2dVertex
 10
-184.013107
 20
-303.789337
 30
0.0
  0
VERTEX
  5
2B
100
AcDbEntity
  8
0
370
     0
390
0
100
AcDbVertex
100
AcDb2dVertex
 10
-177.701874
 20
-283.760529
 30
0.0
  0
SEQEND
  5
2C
100
AcDbEntity
  8
0
370
     0
390
0
  0
POLYLINE
  5
2D
100
AcDbEntity
  8
0
370
    13
390
0
 62
     7
100
AcDb2dPolyline
 66
     1
 10
0.0
 20
0.0
 30
0.0
 70
     1
 71
    10
  0
VERTEX
  5
2E
100
AcDbEntity
  8
0
370
     0
390
0
100
AcDbVertex
100
AcDb2dVertex
 10
-166.318588
 20
-301.656769
 30
0.0
  0
VERTEX
  5
2F
100
AcDbEntity
  8
0
370
     0
390
0
100
AcDbVertex
100
AcDb2dVertex
 10
-166.318588
 20
-288.832581
 30
0.0
  0
VERTEX
  5
30
100
AcDbEntity
  8
0
370
     0
390
0
100
AcDbVertex
100
AcDb2dVertex
 10
-172.831558
 20
-288.832581
 30
0.0
  0
VERTEX
  5
31
100
AcDbEntity
  8
0
370
     0
390
0
100
AcDbVertex
100
AcDb2dVertex
 10
-172.831558
 20
-290.993958
 30
0.0
  0
VERTEX
  5
32
100
AcDbEntity
  8
0
370
     0
390
0
100
AcDbVertex
100
AcDb2dVertex
 10
-168.854614
 20
-290.993958
 30
0.0
  0
VERTEX
  5
33
100
AcDbEntity
  8
0
370
     0
390
0
100
AcDbVertex
100
AcDb2dVertex
 10
-168.854614
 20
-301.656769
 30
0.0
  0
VERTEX
  5
34
100
AcDbEntity
  8
0
370
     0
390
0
100
AcDbVertex
100
AcDb2dVertex
 10
-174.041931
 20
-301.656769
 30
0.0
  0
VERTEX
  5
35
100
AcDbEntity
  8
0
370
     0
390
0
100
AcDbVertex
100
AcDb2dVertex
 10
-174.041931
 20
-303.789337
 30
0.0
  0
VERTEX
  5
36
100
AcDbEntity
  8
0
370
     0
390
0
100
AcDbVertex
100
AcDb2dVertex
 10
-161.073639
 20
-303.789337
 30
0.0
  0
VERTEX
  5
37
100
AcDbEntity
  8
0
370
     0
390
0
100
AcDbVertex
100
AcDb2dVertex
 10
-161.073639
 20
-301.656769
 30
0.0
  0
SEQEND
  5
38
100
AcDbEntity
  8
0
370
     0
390
0
  0
POLYLINE
  5
39
100
AcDbEntity
  8
0
370
    13
390
0
 62
     7
100
AcDb2dPolyline
 66
     1
 10
0.0
 20
0.0
 30
0.0
 70
     1
 71
     4
  0
VERTEX
  5
3A
100
AcDbEntity
  8
0
370
     0
390
0
100
AcDbVertex
100
AcDb2dVertex
 10
-166.232132
 20
-283.097687
 30
0.0
  0
VERTEX
  5
3B
100
AcDbEntity
  8
0
370
     0
390
0
100
AcDbVertex
100
AcDb2dVertex
 10
-168.912247
 20
-283.097687
 30
0.0
  0
VERTEX
  5
3C
100
AcDbEntity
  8
0
370
     0
390
0
100
AcDbVertex
100
AcDb2dVertex
 10
-168.912247
 20
-285.979553
 30
0.0
  0
VERTEX
  5
3D
100
AcDbEntity
  8
0
370
     0
390
0
100
AcDbVertex
100
AcDb2dVertex
 10
-166.232132
 20
-285.979553
 30
0.0
  0
SEQEND
  5
3E
100
AcDbEntity
  8
0
370
     0
390
0
  0
POLYLINE
  5
3F
100
AcDbEntity
  8
0
370
    13
390
0
 62
     7
100
AcDb2dPolyline
 66
     1
 10
0.0
 20
0.0
 30
0.0
 70
     1
 71
    22
  0
VERTEX
  5
40
100
AcDbEntity
  8
0
370
     0
390
0
100
AcDbVertex
100
AcDb2dVertex
 10
-155.771042
 20
-303.789337
 30
0.0
  0
VERTEX
  5
41
100
AcDbEntity
  8
0
370
     0
390
0
100
AcDbVertex
100
AcDb2dVertex
 10
-153.235016
 20
-303.789337
 30
0.0
  0
VERTEX
  5
42
100
AcDbEntity
  8
0
370
     0
390
0
100
AcDbVertex
100
AcDb2dVertex
 10
-153.235016
 20
-294.942078
 30
0.0
  0
VERTEX
  5
43
100
AcDbEntity
  8
0
370
     0
390
0
100
AcDbVertex
100
AcDb2dVertex
 10
-152.975647
 20
-292.809509
 30
0.0
  0
VERTEX
  5
44
100
AcDbEntity
  8
0
370
     0
390
0
100
AcDbVertex
100
AcDb2dVertex
 10
-152.197556
 20
-291.282135
 30
0.0
  0
VERTEX
  5
45
100
AcDbEntity
  8
0
370
     0
390
0
100
AcDbVertex
100
AcDb2dVertex
 10
-150.929535
 20
-290.359955
 30
0.0
  0
VERTEX
  5
46
100
AcDbEntity
  8
0
370
     0
390
0
100
AcDbVertex
100
AcDb2dVertex
 10
-149.229248
 20
-290.042938
 30
0.0
  0
VERTEX
  5
47
100
AcDbEntity
  8
0
370
     0
390
0
100
AcDbVertex
100
AcDb2dVertex
 10
-147.961243
 20
-290.244659
 30
0.0
  0
VERTEX
  5
48
100
AcDbEntity
  8
0
370
     0
390
0
100
AcDbVertex
100
AcDb2dVertex
 10
-147.010223
 20
-290.821045
 30
0.0
  0
VERTEX
  5
49
100
AcDbEntity
  8
0
370
     0
390
0
100
AcDbVertex
100
AcDb2dVertex
 10
-146.433868
 20
-291.800873
 30
0.0
  0
VERTEX
  5
4A
100
AcDbEntity
  8
0
370
     0
390
0
100
AcDbVertex
100
AcDb2dVertex
 10
-146.232132
 20
-293.126526
 30
0.0
  0
VERTEX
  5
4B
100
AcDbEntity
  8
0
370
     0
390
0
100
AcDbVertex
100
AcDb2dVertex
 10
-143.667297
 20
-293.126526
 30
0.0
  0
VERTEX
  5
4C
100
AcDbEntity
  8
0
370
     0
390
0
100
AcDbVertex
100
AcDb2dVertex
 10
-144.013123
 20
-290.792206
 30
0.0
  0
VERTEX
  5
4D
100
AcDbEntity
  8
0
370
     0
390
0
100
AcDbVertex
100
AcDb2dVertex
 10
-144.964127
 20
-289.120758
 30
0.0
  0
VERTEX
  5
4E
100
AcDbEntity
  8
0
370
     0
390
0
100
AcDbVertex
100
AcDb2dVertex
 10
-146.549133
 20
-288.112091
 30
0.0
  0
VERTEX
  5
4F
100
AcDbEntity
  8
0
370
     0
390
0
100
AcDbVertex
100
AcDb2dVertex
 10
-148.71051
 20
-287.766296
 30
0.0
  0
VERTEX
  5
50
100
AcDbEntity
  8
0
370
     0
390
0
100
AcDbVertex
100
AcDb2dVertex
 10
-150.180267
 20
-287.996826
 30
0.0
  0
VERTEX
  5
51
100
AcDbEntity
  8
0
370
     0
390
0
100
AcDbVertex
100
AcDb2dVertex
 10
-151.448273
 20
-288.573212
 30
0.0
  0
VERTEX
  5
52
100
AcDbEntity
  8
0
370
     0
390
0
100
AcDbVertex
100
AcDb2dVertex
 10
-152.572189
 20
-289.55304
 30
0.0
  0
VERTEX
  5
53
100
AcDbEntity
  8
0
370
     0
390
0
100
AcDbVertex
100
AcDb2dVertex
 10
-153.465561
 20
-290.878662
 30
0.0
  0
VERTEX
  5
54
100
AcDbEntity
  8
0
370
     0
390
0
100
AcDbVertex
100
AcDb2dVertex
 10
-153.465561
 20
-288.313843
 30
0.0
  0
VERTEX
  5
55
100
AcDbEntity
  8
0
370
     0
390
0
100
AcDbVertex
100
AcDb2dVertex
 10
-155.771042
 20
-288.313843
 30
0.0
  0
SEQEND
  5
56
100
AcDbEntity
  8
0
370
     0
390
0
  0
POLYLINE
  5
57
100
AcDbEntity
  8
0
370
    13
390
0
 62
     7
100
AcDb2dPolyline
 66
     1
 10
0.0
 20
0.0
 30
0.0
 70
     1
 71
    42
  0
VERTEX
  5
58
100
AcDbEntity
  8
0
370
     0
390
0
100
AcDbVertex
100
AcDb2dVertex
 10
-130.180267
 20
-301.772034
 30
0.0
  0
VERTEX
  5
59
100
AcDbEntity
  8
0
370
     0
390
0
100
AcDbVertex
100
AcDb2dVertex
 10
-130.180267
 20
-301.85849
 30
0.0
  0
VERTEX
  5
5A
100
AcDbEntity
  8
0
370
     0
390
0
100
AcDbVertex
100
AcDb2dVertex
 10
-130.036163
 20
-302.838318
 30
0.0
  0
VERTEX
  5
5B
100
AcDbEntity
  8
0
370
     0
390
0
100
AcDbVertex
100
AcDb2dVertex
 10
-129.603882
 20
-303.529968
 30
0.0
  0
VERTEX
  5
5C
100
AcDbEntity
  8
0
370
     0
390
0
100
AcDbVertex
100
AcDb2dVertex
 10
-127.78833
 20
-304.077515
 30
0.0
  0
VERTEX
  5
5D
100
AcDbEntity
  8
0
370
     0
390
0
100
AcDbVertex
100
AcDb2dVertex
 10
-126.376221
 20
-303.846985
 30
0.0
  0
VERTEX
  5
5E
100
AcDbEntity
  8
0
370
     0
390
0
100
AcDbVertex
100
AcDb2dVertex
 10
-126.376221
 20
-301.887329
 30
0.0
  0
VERTEX
  5
5F
100
AcDbEntity
  8
0
370
     0
390
0
100
AcDbVertex
100
AcDb2dVertex
 10
-126.981415
 20
-301.973785
 30
0.0
  0
VERTEX
  5
60
100
AcDbEntity
  8
0
370
     0
390
0
100
AcDbVertex
100
AcDb2dVertex
 10
-127.78833
 20
-301.599121
 30
0.0
  0
VERTEX
  5
61
100
AcDbEntity
  8
0
370
     0
390
0
100
AcDbVertex
100
AcDb2dVertex
 10
-127.932419
 20
-300.446411
 30
0.0
  0
VERTEX
  5
62
100
AcDbEntity
  8
0
370
     0
390
0
100
AcDbVertex
100
AcDb2dVertex
 10
-127.932419
 20
-292.434875
 30
0.0
  0
VERTEX
  5
63
100
AcDbEntity
  8
0
370
     0
390
0
100
AcDbVertex
100
AcDb2dVertex
 10
-128.278244
 20
-290.388763
 30
0.0
  0
VERTEX
  5
64
100
AcDbEntity
  8
0
370
     0
390
0
100
AcDbVertex
100
AcDb2dVertex
 10
-129.286896
 20
-288.947845
 30
0.0
  0
VERTEX
  5
65
100
AcDbEntity
  8
0
370
     0
390
0
100
AcDbVertex
100
AcDb2dVertex
 10
-131.044815
 20
-288.083282
 30
0.0
  0
VERTEX
  5
66
100
AcDbEntity
  8
0
370
     0
390
0
100
AcDbVertex
100
AcDb2dVertex
 10
-133.523193
 20
-287.766296
 30
0.0
  0
VERTEX
  5
67
100
AcDbEntity
  8
0
370
     0
390
0
100
AcDbVertex
100
AcDb2dVertex
 10
-135.943939
 20
-288.112091
 30
0.0
  0
VERTEX
  5
68
100
AcDbEntity
  8
0
370
     0
390
0
100
AcDbVertex
100
AcDb2dVertex
 10
-137.730682
 20
-289.091919
 30
0.0
  0
VERTEX
  5
69
100
AcDbEntity
  8
0
370
     0
390
0
100
AcDbVertex
100
AcDb2dVertex
 10
-138.854614
 20
-290.619324
 30
0.0
  0
VERTEX
  5
6A
100
AcDbEntity
  8
0
370
     0
390
0
100
AcDbVertex
100
AcDb2dVertex
 10
-139.229248
 20
-292.636597
 30
0.0
  0
VERTEX
  5
6B
100
AcDbEntity
  8
0
370
     0
390
0
100
AcDbVertex
100
AcDb2dVertex
 10
-139.229248
 20
-292.809509
 30
0.0
  0
VERTEX
  5
6C
100
AcDbEntity
  8
0
370
     0
390
0
100
AcDbVertex
100
AcDb2dVertex
 10
-136.952591
 20
-292.809509
 30
0.0
  0
VERTEX
  5
6D
100
AcDbEntity
  8
0
370
     0
390
0
100
AcDbVertex
100
AcDb2dVertex
 10
-136.750854
 20
-291.599121
 30
0.0
  0
VERTEX
  5
6E
100
AcDbEntity
  8
0
370
     0
390
0
100
AcDbVertex
100
AcDb2dVertex
 10
-136.116852
 20
-290.734589
 30
0.0
  0
VERTEX
  5
6F
100
AcDbEntity
  8
0
370
     0
390
0
100
AcDbVertex
100
AcDb2dVertex
 10
-135.079391
 20
-290.215851
 30
0.0
  0
VERTEX
  5
70
100
AcDbEntity
  8
0
370
     0
390
0
100
AcDbVertex
100
AcDb2dVertex
 10
-133.60965
 20
-290.01413
 30
0.0
  0
VERTEX
  5
71
100
AcDbEntity
  8
0
370
     0
390
0
100
AcDbVertex
100
AcDb2dVertex
 10
-132.19754
 20
-290.158203
 30
0.0
  0
VERTEX
  5
72
100
AcDbEntity
  8
0
370
     0
390
0
100
AcDbVertex
100
AcDb2dVertex
 10
-131.188904
 20
-290.590485
 30
0.0
  0
VERTEX
  5
73
100
AcDbEntity
  8
0
370
     0
390
0
100
AcDbVertex
100
AcDb2dVertex
 10
-130.58371
 20
-291.339783
 30
0.0
  0
VERTEX
  5
74
100
AcDbEntity
  8
0
370
     0
390
0
100
AcDbVertex
100
AcDb2dVertex
 10
-130.381989
 20
-292.377228
 30
0.0
  0
VERTEX
  5
75
100
AcDbEntity
  8
0
370
     0
390
0
100
AcDbVertex
100
AcDb2dVertex
 10
-130.497253
 20
-293.587616
 30
0.0
  0
VERTEX
  5
76
100
AcDbEntity
  8
0
370
     0
390
0
100
AcDbVertex
100
AcDb2dVertex
 10
-130.958359
 20
-294.19281
 30
0.0
  0
VERTEX
  5
77
100
AcDbEntity
  8
0
370
     0
390
0
100
AcDbVertex
100
AcDb2dVertex
 10
-132.111099
 20
-294.480988
 30
0.0
  0
VERTEX
  5
78
100
AcDbEntity
  8
0
370
     0
390
0
100
AcDbVertex
100
AcDb2dVertex
 10
-134.272476
 20
-294.711517
 30
0.0
  0
VERTEX
  5
79
100
AcDbEntity
  8
0
370
     0
390
0
100
AcDbVertex
100
AcDb2dVertex
 10
-136.750854
 20
-295.230255
 30
0.0
  0
VERTEX
  5
7A
100
AcDbEntity
  8
0
370
     0
390
0
100
AcDbVertex
100
AcDb2dVertex
 10
-138.508789
 20
-296.152435
 30
0.0
  0
VERTEX
  5
7B
100
AcDbEntity
  8
0
370
     0
390
0
100
AcDbVertex
100
AcDb2dVertex
 10
-139.546249
 20
-297.593384
 30
0.0
  0
VERTEX
  5
7C
100
AcDbEntity
  8
0
370
     0
390
0
100
AcDbVertex
100
AcDb2dVertex
 10
-139.863251
 20
-299.725922
 30
0.0
  0
VERTEX
  5
7D
100
AcDbEntity
  8
0
370
     0
390
0
100
AcDbVertex
100
AcDb2dVertex
 10
-139.575073
 20
-301.62796
 30
0.0
  0
VERTEX
  5
7E
100
AcDbEntity
  8
0
370
     0
390
0
100
AcDbVertex
100
AcDb2dVertex
 10
-138.681702
 20
-303.04007
 30
0.0
  0
VERTEX
  5
7F
100
AcDbEntity
  8
0
370
     0
390
0
100
AcDbVertex
100
AcDb2dVertex
 10
-137.240784
 20
-303.933441
 30
0.0
  0
VERTEX
  5
80
100
AcDbEntity
  8
0
370
     0
390
0
100
AcDbVertex
100
AcDb2dVertex
 10
-135.252304
 20
-304.250427
 30
0.0
  0
VERTEX
  5
81
100
AcDbEntity
  8
0
370
     0
390
0
100
AcDbVertex
100
AcDb2dVertex
 10
-132.572189
 20
-303.645233
 30
0.0
  0
SEQEND
  5
82
100
AcDbEntity
  8
0
370
     0
390
0
  0
POLYLINE
  5
83
100
AcDbEntity
  8
0
370
    13
390
0
 62
     7
100
AcDb2dPolyline
 66
     1
 10
0.0
 20
0.0
 30
0.0
 70
     1
 71
    14
  0
VERTEX
  5
84
100
AcDbEntity
  8
0
370
     0
390
0
100
AcDbVertex
100
AcDb2dVertex
 10
-130.468445
 20
-298.37146
 30
0.0
  0
VERTEX
  5
85
100
AcDbEntity
  8
0
370
     0
390
0
100
AcDbVertex
100
AcDb2dVertex
 10
-130.81427
 20
-299.870026
 30
0.0
  0
VERTEX
  5
86
100
AcDbEntity
  8
0
370
     0
390
0
100
AcDbVertex
100
AcDb2dVertex
 10
-131.73645
 20
-301.022766
 30
0.0
  0
VERTEX
  5
87
100
AcDbEntity
  8
0
370
     0
390
0
100
AcDbVertex
100
AcDb2dVertex
 10
-133.119736
 20
-301.772034
 30
0.0
  0
VERTEX
  5
88
100
AcDbEntity
  8
0
370
     0
390
0
100
AcDbVertex
100
AcDb2dVertex
 10
-134.820023
 20
-302.031403
 30
0.0
  0
VERTEX
  5
89
100
AcDbEntity
  8
0
370
     0
390
0
100
AcDbVertex
100
AcDb2dVertex
 10
-135.915131
 20
-301.887329
 30
0.0
  0
VERTEX
  5
8A
100
AcDbEntity
  8
0
370
     0
390
0
100
AcDbVertex
100
AcDb2dVertex
 10
-136.693222
 20
-301.426239
 30
0.0
  0
VERTEX
  5
8B
100
AcDbEntity
  8
0
370
     0
390
0
100
AcDbVertex
100
AcDb2dVertex
 10
-137.183136
 20
-300.619324
 30
0.0
  0
VERTEX
  5
8C
100
AcDbEntity
  8
0
370
     0
390
0
100
AcDbVertex
100
AcDb2dVertex
 10
-137.32724
 20
-299.495392
 30
0.0
  0
VERTEX
  5
8D
100
AcDbEntity
  8
0
370
     0
390
0
100
AcDbVertex
100
AcDb2dVertex
 10
-137.21196
 20
-298.486755
 30
0.0
  0
VERTEX
  5
8E
100
AcDbEntity
  8
0
370
     0
390
0
100
AcDbVertex
100
AcDb2dVertex
 10
-136.750854
 20
-297.766296
 30
0.0
  0
VERTEX
  5
8F
100
AcDbEntity
  8
0
370
     0
390
0
100
AcDbVertex
100
AcDb2dVertex
 10
-134.906479
 20
-296.959351
 30
0.0
  0
VERTEX
  5
90
100
AcDbEntity
  8
0
370
     0
390
0
100
AcDbVertex
100
AcDb2dVertex
 10
-132.572189
 20
-296.613556
 30
0.0
  0
VERTEX
  5
91
100
AcDbEntity
  8
0
370
     0
390
0
100
AcDbVertex
100
AcDb2dVertex
 10
-130.468445
 20
-295.921906
 30
0.0
  0
SEQEND
  5
92
100
AcDbEntity
  8
0
370
     0
390
0
  0
POLYLINE
  5
93
100
AcDbEntity
  8
0
370
    13
390
0
 62
     7
100
AcDb2dPolyline
 66
     1
 10
0.0
 20
0.0
 30
0.0
 70
     1
 71
    51
  0
VERTEX
  5
94
100
AcDbEntity
  8
0
370
     0
390
0
100
AcDbVertex
100
AcDb2dVertex
 10
-103.263832
 20
-297.189911
 30
0.0
  0
VERTEX
  5
95
100
AcDbEntity
  8
0
370
     0
390
0
100
AcDbVertex
100
AcDb2dVertex
 10
-105.886314
 20
-297.189911
 30
0.0
  0
VERTEX
  5
96
100
AcDbEntity
  8
0
370
     0
390
0
100
AcDbVertex
100
AcDb2dVertex
 10
-105.309944
 20
-300.244659
 30
0.0
  0
VERTEX
  5
97
100
AcDbEntity
  8
0
370
     0
390
0
100
AcDbVertex
100
AcDb2dVertex
 10
-103.869019
 20
-302.492493
 30
0.0
  0
VERTEX
  5
98
100
AcDbEntity
  8
0
370
     0
390
0
100
AcDbVertex
100
AcDb2dVertex
 10
-101.650002
 20
-303.846985
 30
0.0
  0
VERTEX
  5
99
100
AcDbEntity
  8
0
370
     0
390
0
100
AcDbVertex
100
AcDb2dVertex
 10
-98.652885
 20
-304.336884
 30
0.0
  0
VERTEX
  5
9A
100
AcDbEntity
  8
0
370
     0
390
0
100
AcDbVertex
100
AcDb2dVertex
 10
-95.684586
 20
-303.875793
 30
0.0
  0
VERTEX
  5
9B
100
AcDbEntity
  8
0
370
     0
390
0
100
AcDbVertex
100
AcDb2dVertex
 10
-93.465561
 20
-302.607788
 30
0.0
  0
VERTEX
  5
9C
100
AcDbEntity
  8
0
370
     0
390
0
100
AcDbVertex
100
AcDb2dVertex
 10
-92.053459
 20
-300.619324
 30
0.0
  0
VERTEX
  5
9D
100
AcDbEntity
  8
0
370
     0
390
0
100
AcDbVertex
100
AcDb2dVertex
 10
-91.534729
 20
-297.996826
 30
0.0
  0
VERTEX
  5
9E
100
AcDbEntity
  8
0
370
     0
390
0
100
AcDbVertex
100
AcDb2dVertex
 10
-91.967003
 20
-295.633728
 30
0.0
  0
VERTEX
  5
9F
100
AcDbEntity
  8
0
370
     0
390
0
100
AcDbVertex
100
AcDb2dVertex
 10
-93.177383
 20
-294.106354
 30
0.0
  0
VERTEX
  5
A0
100
AcDbEntity
  8
0
370
     0
390
0
100
AcDbVertex
100
AcDb2dVertex
 10
-95.137032
 20
-293.097687
 30
0.0
  0
VERTEX
  5
A1
100
AcDbEntity
  8
0
370
     0
390
0
100
AcDbVertex
100
AcDb2dVertex
 10
-97.759514
 20
-292.348419
 30
0.0
  0
VERTEX
  5
A2
100
AcDbEntity
  8
0
370
     0
390
0
100
AcDbVertex
100
AcDb2dVertex
 10
-100.007355
 20
-291.800873
 30
0.0
  0
VERTEX
  5
A3
100
AcDbEntity
  8
0
370
     0
390
0
100
AcDbVertex
100
AcDb2dVertex
 10
-101.477089
 20
-291.16687
 30
0.0
  0
VERTEX
  5
A4
100
AcDbEntity
  8
0
370
     0
390
0
100
AcDbVertex
100
AcDb2dVertex
 10
-102.312828
 20
-290.244659
 30
0.0
  0
VERTEX
  5
A5
100
AcDbEntity
  8
0
370
     0
390
0
100
AcDbVertex
100
AcDb2dVertex
 10
-102.572189
 20
-288.803741
 30
0.0
  0
VERTEX
  5
A6
100
AcDbEntity
  8
0
370
     0
390
0
100
AcDbVertex
100
AcDb2dVertex
 10
-102.312828
 20
-287.506927
 30
0.0
  0
VERTEX
  5
A7
100
AcDbEntity
  8
0
370
     0
390
0
100
AcDbVertex
100
AcDb2dVertex
 10
-101.563545
 20
-286.5271
 30
0.0
  0
VERTEX
  5
A8
100
AcDbEntity
  8
0
370
     0
390
0
100
AcDbVertex
100
AcDb2dVertex
 10
-100.410812
 20
-285.864258
 30
0.0
  0
VERTEX
  5
A9
100
AcDbEntity
  8
0
370
     0
390
0
100
AcDbVertex
100
AcDb2dVertex
 10
-98.825798
 20
-285.633728
 30
0.0
  0
VERTEX
  5
AA
100
AcDbEntity
  8
0
370
     0
390
0
100
AcDbVertex
100
AcDb2dVertex
 10
-97.21196
 20
-285.921906
 30
0.0
  0
VERTEX
  5
AB
100
AcDbEntity
  8
0
370
     0
390
0
100
AcDbVertex
100
AcDb2dVertex
 10
-95.943947
 20
-286.700012
 30
0.0
  0
VERTEX
  5
AC
100
AcDbEntity
  8
0
370
     0
390
0
100
AcDbVertex
100
AcDb2dVertex
 10
-95.108215
 20
-287.996826
 30
0.0
  0
VERTEX
  5
AD
100
AcDbEntity
  8
0
370
     0
390
0
100
AcDbVertex
100
AcDb2dVertex
 10
-94.704758
 20
-289.754761
 30
0.0
  0
VERTEX
  5
AE
100
AcDbEntity
  8
0
370
     0
390
0
100
AcDbVertex
100
AcDb2dVertex
 10
-92.082275
 20
-289.754761
 30
0.0
  0
VERTEX
  5
AF
100
AcDbEntity
  8
0
370
     0
390
0
100
AcDbVertex
100
AcDb2dVertex
 10
-92.082275
 20
-289.697113
 30
0.0
  0
VERTEX
  5
B0
100
AcDbEntity
  8
0
370
     0
390
0
100
AcDbVertex
100
AcDb2dVertex
 10
-92.543373
 20
-286.98819
 30
0.0
  0
VERTEX
  5
B1
100
AcDbEntity
  8
0
370
     0
390
0
100
AcDbVertex
100
AcDb2dVertex
 10
-93.897842
 20
-284.970886
 30
0.0
  0
VERTEX
  5
B2
100
AcDbEntity
  8
0
370
     0
390
0
100
AcDbVertex
100
AcDb2dVertex
 10
-96.030403
 20
-283.702881
 30
0.0
  0
VERTEX
  5
B3
100
AcDbEntity
  8
0
370
     0
390
0
100
AcDbVertex
100
AcDb2dVertex
 10
-98.912247
 20
-283.270599
 30
0.0
  0
VERTEX
  5
B4
100
AcDbEntity
  8
0
370
     0
390
0
100
AcDbVertex
100
AcDb2dVertex
 10
-101.505913
 20
-283.702881
 30
0.0
  0
VERTEX
  5
B5
100
AcDbEntity
  8
0
370
     0
390
0
100
AcDbVertex
100
AcDb2dVertex
 10
-103.523201
 20
-284.913269
 30
0.0
  0
VERTEX
  5
B6
100
AcDbEntity
  8
0
370
     0
390
0
100
AcDbVertex
100
AcDb2dVertex
 10
-104.82003
 20
-286.786469
 30
0.0
  0
VERTEX
  5
B7
100
AcDbEntity
  8
0
370
     0
390
0
100
AcDbVertex
100
AcDb2dVertex
 10
-105.281128
 20
-289.207214
 30
0.0
  0
VERTEX
  5
B8
100
AcDbEntity
  8
0
370
     0
390
0
100
AcDbVertex
100
AcDb2dVertex
 10
-104.906487
 20
-291.368591
 30
0.0
  0
VERTEX
  5
B9
100
AcDbEntity
  8
0
370
     0
390
0
100
AcDbVertex
100
AcDb2dVertex
 10
-103.811386
 20
-292.838318
 30
0.0
  0
VERTEX
  5
BA
100
AcDbEntity
  8
0
370
     0
390
0
100
AcDbVertex
100
AcDb2dVertex
 10
-102.082275
 20
-293.818146
 30
0.0
  0
VERTEX
  5
BB
100
AcDbEntity
  8
0
370
     0
390
0
100
AcDbVertex
100
AcDb2dVertex
 10
-99.71917
 20
-294.567444
 30
0.0
  0
VERTEX
  5
BC
100
AcDbEntity
  8
0
370
     0
390
0
100
AcDbVertex
100
AcDb2dVertex
 10
-97.384872
 20
-295.230255
 30
0.0
  0
VERTEX
  5
BD
100
AcDbEntity
  8
0
370
     0
390
0
100
AcDbVertex
100
AcDb2dVertex
 10
-95.626945
 20
-295.864258
 30
0.0
  0
VERTEX
  5
BE
100
AcDbEntity
  8
0
370
     0
390
0
100
AcDbVertex
100
AcDb2dVertex
 10
-94.560661
 20
-296.786469
 30
0.0
  0
VERTEX
  5
BF
100
AcDbEntity
  8
0
370
     0
390
0
100
AcDbVertex
100
AcDb2dVertex
 10
-94.186028
 20
-298.285004
 30
0.0
  0
VERTEX
  5
C0
100
AcDbEntity
  8
0
370
     0
390
0
100
AcDbVertex
100
AcDb2dVertex
 10
-94.531845
 20
-299.812378
 30
0.0
  0
VERTEX
  5
C1
100
AcDbEntity
  8
0
370
     0
390
0
100
AcDbVertex
100
AcDb2dVertex
 10
-95.425217
 20
-300.965118
 30
0.0
  0
VERTEX
  5
C2
100
AcDbEntity
  8
0
370
     0
390
0
100
AcDbVertex
100
AcDb2dVertex
 10
-96.779686
 20
-301.685577
 30
0.0
  0
VERTEX
  5
C3
100
AcDbEntity
  8
0
370
     0
390
0
100
AcDbVertex
100
AcDb2dVertex
 10
-98.537613
 20
-301.916138
 30
0.0
  0
VERTEX
  5
C4
100
AcDbEntity
  8
0
370
     0
390
0
100
AcDbVertex
100
AcDb2dVertex
 10
-100.497261
 20
-301.599121
 30
0.0
  0
VERTEX
  5
C5
100
AcDbEntity
  8
0
370
     0
390
0
100
AcDbVertex
100
AcDb2dVertex
 10
-101.995827
 20
-300.676941
 30
0.0
  0
VERTEX
  5
C6
100
AcDbEntity
  8
0
370
     0
390
0
100
AcDbVertex
100
AcDb2dVertex
 10
-102.946831
 20
-299.178375
 30
0.0
  0
SEQEND
  5
C7
100
AcDbEntity
  8
0
370
     0
390
0
  0
POLYLINE
  5
C8
100
AcDbEntity
  8
0
370
    13
390
0
 62
     7
100
AcDb2dPolyline
 66
     1
 10
0.0
 20
0.0
 30
0.0
 70
     1
 71
    42
  0
VERTEX
  5
C9
100
AcDbEntity
  8
0
370
     0
390
0
100
AcDbVertex
100
AcDb2dVertex
 10
-78.134155
 20
-301.772034
 30
0.0
  0
VERTEX
  5
CA
100
AcDbEntity
  8
0
370
     0
390
0
100
AcDbVertex
100
AcDb2dVertex
 10
-78.134155
 20
-301.85849
 30
0.0
  0
VERTEX
  5
CB
100
AcDbEntity
  8
0
370
     0
390
0
100
AcDbVertex
100
AcDb2dVertex
 10
-77.990059
 20
-302.838318
 30
0.0
  0
VERTEX
  5
CC
100
AcDbEntity
  8
0
370
     0
390
0
100
AcDbVertex
100
AcDb2dVertex
 10
-77.557785
 20
-303.529968
 30
0.0
  0
VERTEX
  5
CD
100
AcDbEntity
  8
0
370
     0
390
0
100
AcDbVertex
100
AcDb2dVertex
 10
-75.742226
 20
-304.077515
 30
0.0
  0
VERTEX
  5
CE
100
AcDbEntity
  8
0
370
     0
390
0
100
AcDbVertex
100
AcDb2dVertex
 10
-74.330116
 20
-303.846985
 30
0.0
  0
VERTEX
  5
CF
100
AcDbEntity
  8
0
370
     0
390
0
100
AcDbVertex
100
AcDb2dVertex
 10
-74.330116
 20
-301.887329
 30
0.0
  0
VERTEX
  5
D0
100
AcDbEntity
  8
0
370
     0
390
0
100
AcDbVertex
100
AcDb2dVertex
 10
-74.93531
 20
-301.973785
 30
0.0
  0
VERTEX
  5
D1
100
AcDbEntity
  8
0
370
     0
390
0
100
AcDbVertex
100
AcDb2dVertex
 10
-75.742226
 20
-301.599121
 30
0.0
  0
VERTEX
  5
D2
100
AcDbEntity
  8
0
370
     0
390
0
100
AcDbVertex
100
AcDb2dVertex
 10
-75.886314
 20
-300.446411
 30
0.0
  0
VERTEX
  5
D3
100
AcDbEntity
  8
0
370
     0
390
0
100
AcDbVertex
100
AcDb2dVertex
 10
-75.886314
 20
-292.434875
 30
0.0
  0
VERTEX
  5
D4
100
AcDbEntity
  8
0
370
     0
390
0
100
AcDbVertex
100
AcDb2dVertex
 10
-76.23214
 20
-290.388763
 30
0.0
  0
VERTEX
  5
D5
100
AcDbEntity
  8
0
370
     0
390
0
100
AcDbVertex
100
AcDb2dVertex
 10
-77.240784
 20
-288.947845
 30
0.0
  0
VERTEX
  5
D6
100
AcDbEntity
  8
0
370
     0
390
0
100
AcDbVertex
100
AcDb2dVertex
 10
-78.998711
 20
-288.083282
 30
0.0
  0
VERTEX
  5
D7
100
AcDbEntity
  8
0
370
     0
390
0
100
AcDbVertex
100
AcDb2dVertex
 10
-81.477097
 20
-287.766296
 30
0.0
  0
VERTEX
  5
D8
100
AcDbEntity
  8
0
370
     0
390
0
100
AcDbVertex
100
AcDb2dVertex
 10
-83.897842
 20
-288.112091
 30
0.0
  0
VERTEX
  5
D9
100
AcDbEntity
  8
0
370
     0
390
0
100
AcDbVertex
100
AcDb2dVertex
 10
-85.684586
 20
-289.091919
 30
0.0
  0
VERTEX
  5
DA
100
AcDbEntity
  8
0
370
     0
390
0
100
AcDbVertex
100
AcDb2dVertex
 10
-86.808502
 20
-290.619324
 30
0.0
  0
VERTEX
  5
DB
100
AcDbEntity
  8
0
370
     0
390
0
100
AcDbVertex
100
AcDb2dVertex
 10
-87.183144
 20
-292.636597
 30
0.0
  0
VERTEX
  5
DC
100
AcDbEntity
  8
0
370
     0
390
0
100
AcDbVertex
100
AcDb2dVertex
 10
-87.183144
 20
-292.809509
 30
0.0
  0
VERTEX
  5
DD
100
AcDbEntity
  8
0
370
     0
390
0
100
AcDbVertex
100
AcDb2dVertex
 10
-84.906487
 20
-292.809509
 30
0.0
  0
VERTEX
  5
DE
100
AcDbEntity
  8
0
370
     0
390
0
100
AcDbVertex
100
AcDb2dVertex
 10
-84.704758
 20
-291.599121
 30
0.0
  0
VERTEX
  5
DF
100
AcDbEntity
  8
0
370
     0
390
0
100
AcDbVertex
100
AcDb2dVertex
 10
-84.070755
 20
-290.734589
 30
0.0
  0
VERTEX
  5
E0
100
AcDbEntity
  8
0
370
     0
390
0
100
AcDbVertex
100
AcDb2dVertex
 10
-83.033287
 20
-290.215851
 30
0.0
  0
VERTEX
  5
E1
100
AcDbEntity
  8
0
370
     0
390
0
100
AcDbVertex
100
AcDb2dVertex
 10
-81.563545
 20
-290.01413
 30
0.0
  0
VERTEX
  5
E2
100
AcDbEntity
  8
0
370
     0
390
0
100
AcDbVertex
100
AcDb2dVertex
 10
-80.151443
 20
-290.158203
 30
0.0
  0
VERTEX
  5
E3
100
AcDbEntity
  8
0
370
     0
390
0
100
AcDbVertex
100
AcDb2dVertex
 10
-79.142799
 20
-290.590485
 30
0.0
  0
VERTEX
  5
E4
100
AcDbEntity
  8
0
370
     0
390
0
100
AcDbVertex
100
AcDb2dVertex
 10
-78.537613
 20
-291.339783
 30
0.0
  0
VERTEX
  5
E5
100
AcDbEntity
  8
0
370
     0
390
0
100
AcDbVertex
100
AcDb2dVertex
 10
-78.335884
 20
-292.377228
 30
0.0
  0
VERTEX
  5
E6
100
AcDbEntity
  8
0
370
     0
390
0
100
AcDbVertex
100
AcDb2dVertex
 10
-78.451157
 20
-293.587616
 30
0.0
  0
VERTEX
  5
E7
100
AcDbEntity
  8
0
370
     0
390
0
100
AcDbVertex
100
AcDb2dVertex
 10
-78.912254
 20
-294.19281
 30
0.0
  0
VERTEX
  5
E8
100
AcDbEntity
  8
0
370
     0
390
0
100
AcDbVertex
100
AcDb2dVertex
 10
-80.064987
 20
-294.480988
 30
0.0
  0
VERTEX
  5
E9
100
AcDbEntity
  8
0
370
     0
390
0
100
AcDbVertex
100
AcDb2dVertex
 10
-82.226372
 20
-294.711517
 30
0.0
  0
VERTEX
  5
EA
100
AcDbEntity
  8
0
370
     0
390
0
100
AcDbVertex
100
AcDb2dVertex
 10
-84.704758
 20
-295.230255
 30
0.0
  0
VERTEX
  5
EB
100
AcDbEntity
  8
0
370
     0
390
0
100
AcDbVertex
100
AcDb2dVertex
 10
-86.462685
 20
-296.152435
 30
0.0
  0
VERTEX
  5
EC
100
AcDbEntity
  8
0
370
     0
390
0
100
AcDbVertex
100
AcDb2dVertex
 10
-87.500145
 20
-297.593384
 30
0.0
  0
VERTEX
  5
ED
100
AcDbEntity
  8
0
370
     0
390
0
100
AcDbVertex
100
AcDb2dVertex
 10
-87.817154
 20
-299.725922
 30
0.0
  0
VERTEX
  5
EE
100
AcDbEntity
  8
0
370
     0
390
0
100
AcDbVertex
100
AcDb2dVertex
 10
-87.528969
 20
-301.62796
 30
0.0
  0
VERTEX
  5
EF
100
AcDbEntity
  8
0
370
     0
390
0
100
AcDbVertex
100
AcDb2dVertex
 10
-86.635597
 20
-303.04007
 30
0.0
  0
VERTEX
  5
F0
100
AcDbEntity
  8
0
370
     0
390
0
100
AcDbVertex
100
AcDb2dVertex
 10
-85.194672
 20
-303.933441
 30
0.0
  0
VERTEX
  5
F1
100
AcDbEntity
  8
0
370
     0
390
0
100
AcDbVertex
100
AcDb2dVertex
 10
-83.2062
 20
-304.250427
 30
0.0
  0
VERTEX
  5
F2
100
AcDbEntity
  8
0
370
     0
390
0
100
AcDbVertex
100
AcDb2dVertex
 10
-80.526085
 20
-303.645233
 30
0.0
  0
SEQEND
  5
F3
100
AcDbEntity
  8
0
370
     0
390
0
  0
POLYLINE
  5
F4
100
AcDbEntity
  8
0
370
    13
390
0
 62
     7
100
AcDb2dPolyline
 66
     1
 10
0.0
 20
0.0
 30
0.0
 70
     1
 71
    14
  0
VERTEX
  5
F5
100
AcDbEntity
  8
0
370
     0
390
0
100
AcDbVertex
100
AcDb2dVertex
 10
-78.42234
 20
-298.37146
 30
0.0
  0
VERTEX
  5
F6
100
AcDbEntity
  8
0
370
     0
390
0
100
AcDbVertex
100
AcDb2dVertex
 10
-78.768158
 20
-299.870026
 30
0.0
  0
VERTEX
  5
F7
100
AcDbEntity
  8
0
370
     0
390
0
100
AcDbVertex
100
AcDb2dVertex
 10
-79.690353
 20
-301.022766
 30
0.0
  0
VERTEX
  5
F8
100
AcDbEntity
  8
0
370
     0
390
0
100
AcDbVertex
100
AcDb2dVertex
 10
-81.073631
 20
-301.772034
 30
0.0
  0
VERTEX
  5
F9
100
AcDbEntity
  8
0
370
     0
390
0
100
AcDbVertex
100
AcDb2dVertex
 10
-82.773926
 20
-302.031403
 30
0.0
  0
VERTEX
  5
FA
100
AcDbEntity
  8
0
370
     0
390
0
100
AcDbVertex
100
AcDb2dVertex
 10
-83.869026
 20
-301.887329
 30
0.0
  0
VERTEX
  5
FB
100
AcDbEntity
  8
0
370
     0
390
0
100
AcDbVertex
100
AcDb2dVertex
 10
-84.647125
 20
-301.426239
 30
0.0
  0
VERTEX
  5
FC
100
AcDbEntity
  8
0
370
     0
390
0
100
AcDbVertex
100
AcDb2dVertex
 10
-85.137039
 20
-300.619324
 30
0.0
  0
VERTEX
  5
FD
100
AcDbEntity
  8
0
370
     0
390
0
100
AcDbVertex
100
AcDb2dVertex
 10
-85.281128
 20
-299.495392
 30
0.0
  0
VERTEX
  5
FE
100
AcDbEntity
  8
0
370
     0
390
0
100
AcDbVertex
100
AcDb2dVertex
 10
-85.165855
 20
-298.486755
 30
0.0
  0
VERTEX
  5
FF
100
AcDbEntity
  8
0
370
     0
390
0
100
AcDbVertex
100
AcDb2dVertex
 10
-84.704758
 20
-297.766296
 30
0.0
  0
VERTEX
  5
100
100
AcDbEntity
  8
0
370
     0
390
0
100
AcDbVertex
100
AcDb2dVertex
 10
-82.860382
 20
-296.959351
 30
0.0
  0
VERTEX
  5
101
100
AcDbEntity
  8
0
370
     0
390
0
100
AcDbVertex
100
AcDb2dVertex
 10
-80.526085
 20
-296.613556
 30
0.0
  0
VERTEX
  5
102
100
AcDbEntity
  8
0
370
     0
390
0
100
AcDbVertex
100
AcDb2dVertex
 10
-78.42234
 20
-295.921906
 30
0.0
  0
SEQEND
  5
103
100
AcDbEntity
  8
0
370
     0
390
0
  0
POLYLINE
  5
104
100
AcDbEntity
  8
0
370
    13
390
0
 62
     7
100
AcDb2dPolyline
 66
     1
 10
0.0
 20
0.0
 30
0.0
 70
     1
 71
    24
  0
VERTEX
  5
105
100
AcDbEntity
  8
0
370
     0
390
0
100
AcDbVertex
100
AcDb2dVertex
 10
-69.978539
 20
-303.789337
 30
0.0
  0
VERTEX
  5
106
100
AcDbEntity
  8
0
370
     0
390
0
100
AcDbVertex
100
AcDb2dVertex
 10
-67.442513
 20
-303.789337
 30
0.0
  0
VERTEX
  5
107
100
AcDbEntity
  8
0
370
     0
390
0
100
AcDbVertex
100
AcDb2dVertex
 10
-67.442513
 20
-294.855621
 30
0.0
  0
VERTEX
  5
108
100
AcDbEntity
  8
0
370
     0
390
0
100
AcDbVertex
100
AcDb2dVertex
 10
-67.183144
 20
-292.809509
 30
0.0
  0
VERTEX
  5
109
100
AcDbEntity
  8
0
370
     0
390
0
100
AcDbVertex
100
AcDb2dVertex
 10
-66.347412
 20
-291.310944
 30
0.0
  0
VERTEX
  5
10A
100
AcDbEntity
  8
0
370
     0
390
0
100
AcDbVertex
100
AcDb2dVertex
 10
-65.050583
 20
-290.388763
 30
0.0
  0
VERTEX
  5
10B
100
AcDbEntity
  8
0
370
     0
390
0
100
AcDbVertex
100
AcDb2dVertex
 10
-63.321472
 20
-290.042938
 30
0.0
  0
VERTEX
  5
10C
100
AcDbEntity
  8
0
370
     0
390
0
100
AcDbVertex
100
AcDb2dVertex
 10
-61.938187
 20
-290.331116
 30
0.0
  0
VERTEX
  5
10D
100
AcDbEntity
  8
0
370
     0
390
0
100
AcDbVertex
100
AcDb2dVertex
 10
-61.073639
 20
-291.109222
 30
0.0
  0
VERTEX
  5
10E
100
AcDbEntity
  8
0
370
     0
390
0
100
AcDbVertex
100
AcDb2dVertex
 10
-60.641357
 20
-292.406067
 30
0.0
  0
VERTEX
  5
10F
100
AcDbEntity
  8
0
370
     0
390
0
100
AcDbVertex
100
AcDb2dVertex
 10
-60.497269
 20
-294.135162
 30
0.0
  0
VERTEX
  5
110
100
AcDbEntity
  8
0
370
     0
390
0
100
AcDbVertex
100
AcDb2dVertex
 10
-60.497269
 20
-303.789337
 30
0.0
  0
VERTEX
  5
111
100
AcDbEntity
  8
0
370
     0
390
0
100
AcDbVertex
100
AcDb2dVertex
 10
-57.961243
 20
-303.789337
 30
0.0
  0
VERTEX
  5
112
100
AcDbEntity
  8
0
370
     0
390
0
100
AcDbVertex
100
AcDb2dVertex
 10
-57.961243
 20
-293.616425
 30
0.0
  0
VERTEX
  5
113
100
AcDbEntity
  8
0
370
     0
390
0
100
AcDbVertex
100
AcDb2dVertex
 10
-58.076523
 20
-291.570313
 30
0.0
  0
VERTEX
  5
114
100
AcDbEntity
  8
0
370
     0
390
0
100
AcDbVertex
100
AcDb2dVertex
 10
-58.595245
 20
-289.870026
 30
0.0
  0
VERTEX
  5
115
100
AcDbEntity
  8
0
370
     0
390
0
100
AcDbVertex
100
AcDb2dVertex
 10
-60.295532
 20
-288.313843
 30
0.0
  0
VERTEX
  5
116
100
AcDbEntity
  8
0
370
     0
390
0
100
AcDbVertex
100
AcDb2dVertex
 10
-62.946838
 20
-287.766296
 30
0.0
  0
VERTEX
  5
117
100
AcDbEntity
  8
0
370
     0
390
0
100
AcDbVertex
100
AcDb2dVertex
 10
-64.41658
 20
-287.968018
 30
0.0
  0
VERTEX
  5
118
100
AcDbEntity
  8
0
370
     0
390
0
100
AcDbVertex
100
AcDb2dVertex
 10
-65.655762
 20
-288.515564
 30
0.0
  0
VERTEX
  5
119
100
AcDbEntity
  8
0
370
     0
390
0
100
AcDbVertex
100
AcDb2dVertex
 10
-66.722054
 20
-289.437744
 30
0.0
  0
VERTEX
  5
11A
100
AcDbEntity
  8
0
370
     0
390
0
100
AcDbVertex
100
AcDb2dVertex
 10
-67.557785
 20
-290.676941
 30
0.0
  0
VERTEX
  5
11B
100
AcDbEntity
  8
0
370
     0
390
0
100
AcDbVertex
100
AcDb2dVertex
 10
-67.557785
 20
-288.313843
 30
0.0
  0
VERTEX
  5
11C
100
AcDbEntity
  8
0
370
     0
390
0
100
AcDbVertex
100
AcDb2dVertex
 10
-69.978539
 20
-288.313843
 30
0.0
  0
SEQEND
  5
11D
100
AcDbEntity
  8
0
370
     0
390
0
  0
POLYLINE
  5
11E
100
AcDbEntity
  8
0
370
    13
390
0
 62
     7
100
AcDb2dPolyline
 66
     1
 10
0.0
 20
0.0
 30
0.0
 70
     1
 71
    42
  0
VERTEX
  5
11F
100
AcDbEntity
  8
0
370
     0
390
0
100
AcDbVertex
100
AcDb2dVertex
 10
-43.436737
 20
-301.772034
 30
0.0
  0
VERTEX
  5
120
100
AcDbEntity
  8
0
370
     0
390
0
100
AcDbVertex
100
AcDb2dVertex
 10
-43.436737
 20
-301.85849
 30
0.0
  0
VERTEX
  5
121
100
AcDbEntity
  8
0
370
     0
390
0
100
AcDbVertex
100
AcDb2dVertex
 10
-43.292648
 20
-302.838318
 30
0.0
  0
VERTEX
  5
122
100
AcDbEntity
  8
0
370
     0
390
0
100
AcDbVertex
100
AcDb2dVertex
 10
-42.860367
 20
-303.529968
 30
0.0
  0
VERTEX
  5
123
100
AcDbEntity
  8
0
370
     0
390
0
100
AcDbVertex
100
AcDb2dVertex
 10
-41.044815
 20
-304.077515
 30
0.0
  0
VERTEX
  5
124
100
AcDbEntity
  8
0
370
     0
390
0
100
AcDbVertex
100
AcDb2dVertex
 10
-39.632706
 20
-303.846985
 30
0.0
  0
VERTEX
  5
125
100
AcDbEntity
  8
0
370
     0
390
0
100
AcDbVertex
100
AcDb2dVertex
 10
-39.632706
 20
-301.887329
 30
0.0
  0
VERTEX
  5
126
100
AcDbEntity
  8
0
370
     0
390
0
100
AcDbVertex
100
AcDb2dVertex
 10
-40.2379
 20
-301.973785
 30
0.0
  0
VERTEX
  5
127
100
AcDbEntity
  8
0
370
     0
390
0
100
AcDbVertex
100
AcDb2dVertex
 10
-41.044815
 20
-301.599121
 30
0.0
  0
VERTEX
  5
128
100
AcDbEntity
  8
0
370
     0
390
0
100
AcDbVertex
100
AcDb2dVertex
 10
-41.188904
 20
-300.446411
 30
0.0
  0
VERTEX
  5
129
100
AcDbEntity
  8
0
370
     0
390
0
100
AcDbVertex
100
AcDb2dVertex
 10
-41.188904
 20
-292.434875
 30
0.0
  0
VERTEX
  5
12A
100
AcDbEntity
  8
0
370
     0
390
0
100
AcDbVertex
100
AcDb2dVertex
 10
-41.534729
 20
-290.388763
 30
0.0
  0
VERTEX
  5
12B
100
AcDbEntity
  8
0
370
     0
390
0
100
AcDbVertex
100
AcDb2dVertex
 10
-42.543365
 20
-288.947845
 30
0.0
  0
VERTEX
  5
12C
100
AcDbEntity
  8
0
370
     0
390
0
100
AcDbVertex
100
AcDb2dVertex
 10
-44.3013
 20
-288.083282
 30
0.0
  0
VERTEX
  5
12D
100
AcDbEntity
  8
0
370
     0
390
0
100
AcDbVertex
100
AcDb2dVertex
 10
-46.779678
 20
-287.766296
 30
0.0
  0
VERTEX
  5
12E
100
AcDbEntity
  8
0
370
     0
390
0
100
AcDbVertex
100
AcDb2dVertex
 10
-49.200439
 20
-288.112091
 30
0.0
  0
VERTEX
  5
12F
100
AcDbEntity
  8
0
370
     0
390
0
100
AcDbVertex
100
AcDb2dVertex
 10
-50.987183
 20
-289.091919
 30
0.0
  0
VERTEX
  5
130
100
AcDbEntity
  8
0
370
     0
390
0
100
AcDbVertex
100
AcDb2dVertex
 10
-52.111099
 20
-290.619324
 30
0.0
  0
VERTEX
  5
131
100
AcDbEntity
  8
0
370
     0
390
0
100
AcDbVertex
100
AcDb2dVertex
 10
-52.485733
 20
-292.636597
 30
0.0
  0
VERTEX
  5
132
100
AcDbEntity
  8
0
370
     0
390
0
100
AcDbVertex
100
AcDb2dVertex
 10
-52.485733
 20
-292.809509
 30
0.0
  0
VERTEX
  5
133
100
AcDbEntity
  8
0
370
     0
390
0
100
AcDbVertex
100
AcDb2dVertex
 10
-50.209076
 20
-292.809509
 30
0.0
  0
VERTEX
  5
134
100
AcDbEntity
  8
0
370
     0
390
0
100
AcDbVertex
100
AcDb2dVertex
 10
-50.007355
 20
-291.599121
 30
0.0
  0
VERTEX
  5
135
100
AcDbEntity
  8
0
370
     0
390
0
100
AcDbVertex
100
AcDb2dVertex
 10
-49.373337
 20
-290.734589
 30
0.0
  0
VERTEX
  5
136
100
AcDbEntity
  8
0
370
     0
390
0
100
AcDbVertex
100
AcDb2dVertex
 10
-48.335876
 20
-290.215851
 30
0.0
  0
VERTEX
  5
137
100
AcDbEntity
  8
0
370
     0
390
0
100
AcDbVertex
100
AcDb2dVertex
 10
-46.866135
 20
-290.01413
 30
0.0
  0
VERTEX
  5
138
100
AcDbEntity
  8
0
370
     0
390
0
100
AcDbVertex
100
AcDb2dVertex
 10
-45.454041
 20
-290.158203
 30
0.0
  0
VERTEX
  5
139
100
AcDbEntity
  8
0
370
     0
390
0
100
AcDbVertex
100
AcDb2dVertex
 10
-44.445389
 20
-290.590485
 30
0.0
  0
VERTEX
  5
13A
100
AcDbEntity
  8
0
370
     0
390
0
100
AcDbVertex
100
AcDb2dVertex
 10
-43.840195
 20
-291.339783
 30
0.0
  0
VERTEX
  5
13B
100
AcDbEntity
  8
0
370
     0
390
0
100
AcDbVertex
100
AcDb2dVertex
 10
-43.638474
 20
-292.377228
 30
0.0
  0
VERTEX
  5
13C
100
AcDbEntity
  8
0
370
     0
390
0
100
AcDbVertex
100
AcDb2dVertex
 10
-43.753754
 20
-293.587616
 30
0.0
  0
VERTEX
  5
13D
100
AcDbEntity
  8
0
370
     0
390
0
100
AcDbVertex
100
AcDb2dVertex
 10
-44.214844
 20
-294.19281
 30
0.0
  0
VERTEX
  5
13E
100
AcDbEntity
  8
0
370
     0
390
0
100
AcDbVertex
100
AcDb2dVertex
 10
-45.367584
 20
-294.480988
 30
0.0
  0
VERTEX
  5
13F
100
AcDbEntity
  8
0
370
     0
390
0
100
AcDbVertex
100
AcDb2dVertex
 10
-47.528961
 20
-294.711517
 30
0.0
  0
VERTEX
  5
140
100
AcDbEntity
  8
0
370
     0
390
0
100
AcDbVertex
100
AcDb2dVertex
 10
-50.007355
 20
-295.230255
 30
0.0
  0
VERTEX
  5
141
100
AcDbEntity
  8
0
370
     0
390
0
100
AcDbVertex
100
AcDb2dVertex
 10
-51.765274
 20
-296.152435
 30
0.0
  0
VERTEX
  5
142
100
AcDbEntity
  8
0
370
     0
390
0
100
AcDbVertex
100
AcDb2dVertex
 10
-52.802734
 20
-297.593384
 30
0.0
  0
VERTEX
  5
143
100
AcDbEntity
  8
0
370
     0
390
0
100
AcDbVertex
100
AcDb2dVertex
 10
-53.119736
 20
-299.725922
 30
0.0
  0
VERTEX
  5
144
100
AcDbEntity
  8
0
370
     0
390
0
100
AcDbVertex
100
AcDb2dVertex
 10
-52.831558
 20
-301.62796
 30
0.0
  0
VERTEX
  5
145
100
AcDbEntity
  8
0
370
     0
390
0
100
AcDbVertex
100
AcDb2dVertex
 10
-51.938187
 20
-303.04007
 30
0.0
  0
VERTEX
  5
146
100
AcDbEntity
  8
0
370
     0
390
0
100
AcDbVertex
100
AcDb2dVertex
 10
-50.497269
 20
-303.933441
 30
0.0
  0
VERTEX
  5
147
100
AcDbEntity
  8
0
370
     0
390
0
100
AcDbVertex
100
AcDb2dVertex
 10
-48.508789
 20
-304.250427
 30
0.0
  0
VERTEX
  5
148
100
AcDbEntity
  8
0
370
     0
390
0
100
AcDbVertex
100
AcDb2dVertex
 10
-45.828674
 20
-303.645233
 30
0.0
  0
SEQEND
  5
149
100
AcDbEntity
  8
0
370
     0
390
0
  0
POLYLINE
  5
14A
100
AcDbEntity
  8
0
370
    13
390
0
 62
     7
100
AcDb2dPolyline
 66
     1
 10
0.0
 20
0.0
 30
0.0
 70
     1
 71
    14
  0
VERTEX
  5
14B
100
AcDbEntity
  8
0
370
     0
390
0
100
AcDbVertex
100
AcDb2dVertex
 10
-43.72493
 20
-298.37146
 30
0.0
  0
VERTEX
  5
14C
100
AcDbEntity
  8
0
370
     0
390
0
100
AcDbVertex
100
AcDb2dVertex
 10
-44.070755
 20
-299.870026
 30
0.0
  0
VERTEX
  5
14D
100
AcDbEntity
  8
0
370
     0
390
0
100
AcDbVertex
100
AcDb2dVertex
 10
-44.992935
 20
-301.022766
 30
0.0
  0
VERTEX
  5
14E
100
AcDbEntity
  8
0
370
     0
390
0
100
AcDbVertex
100
AcDb2dVertex
 10
-46.376221
 20
-301.772034
 30
0.0
  0
VERTEX
  5
14F
100
AcDbEntity
  8
0
370
     0
390
0
100
AcDbVertex
100
AcDb2dVertex
 10
-48.076508
 20
-302.031403
 30
0.0
  0
VERTEX
  5
150
100
AcDbEntity
  8
0
370
     0
390
0
100
AcDbVertex
100
AcDb2dVertex
 10
-49.171616
 20
-301.887329
 30
0.0
  0
VERTEX
  5
151
100
AcDbEntity
  8
0
370
     0
390
0
100
AcDbVertex
100
AcDb2dVertex
 10
-49.949707
 20
-301.426239
 30
0.0
  0
VERTEX
  5
152
100
AcDbEntity
  8
0
370
     0
390
0
100
AcDbVertex
100
AcDb2dVertex
 10
-50.439621
 20
-300.619324
 30
0.0
  0
VERTEX
  5
153
100
AcDbEntity
  8
0
370
     0
390
0
100
AcDbVertex
100
AcDb2dVertex
 10
-50.58371
 20
-299.495392
 30
0.0
  0
VERTEX
  5
154
100
AcDbEntity
  8
0
370
     0
390
0
100
AcDbVertex
100
AcDb2dVertex
 10
-50.468445
 20
-298.486755
 30
0.0
  0
VERTEX
  5
155
100
AcDbEntity
  8
0
370
     0
390
0
100
AcDbVertex
100
AcDb2dVertex
 10
-50.007355
 20
-297.766296
 30
0.0
  0
VERTEX
  5
156
100
AcDbEntity
  8
0
370
     0
390
0
100
AcDbVertex
100
AcDb2dVertex
 10
-48.162964
 20
-296.959351
 30
0.0
  0
VERTEX
  5
157
100
AcDbEntity
  8
0
370
     0
390
0
100
AcDbVertex
100
AcDb2dVertex
 10
-45.828674
 20
-296.613556
 30
0.0
  0
VERTEX
  5
158
100
AcDbEntity
  8
0
370
     0
390
0
100
AcDbVertex
100
AcDb2dVertex
 10
-43.72493
 20
-295.921906
 30
0.0
  0
SEQEND
  5
159
100
AcDbEntity
  8
0
370
     0
390
0
  0
POLYLINE
  5
15A
100
AcDbEntity
  8
0
370
    13
390
0
 62
     7
100
AcDb2dPolyline
 66
     1
 10
0.0
 20
0.0
 30
0.0
 70
     1
 71
    22
  0
VERTEX
  5
15B
100
AcDbEntity
  8
0
370
     0
390
0
100
AcDbVertex
100
AcDb2dVertex
 10
-31.880539
 20
-290.993958
 30
0.0
  0
VERTEX
  5
15C
100
AcDbEntity
  8
0
370
     0
390
0
100
AcDbVertex
100
AcDb2dVertex
 10
-31.880539
 20
-298.746124
 30
0.0
  0
VERTEX
  5
15D
100
AcDbEntity
  8
0
370
     0
390
0
100
AcDbVertex
100
AcDb2dVertex
 10
-31.707626
 20
-301.253326
 30
0.0
  0
VERTEX
  5
15E
100
AcDbEntity
  8
0
370
     0
390
0
100
AcDbVertex
100
AcDb2dVertex
 10
-30.900711
 20
-302.982422
 30
0.0
  0
VERTEX
  5
15F
100
AcDbEntity
  8
0
370
     0
390
0
100
AcDbVertex
100
AcDb2dVertex
 10
-29.28688
 20
-303.991058
 30
0.0
  0
VERTEX
  5
160
100
AcDbEntity
  8
0
370
     0
390
0
100
AcDbVertex
100
AcDb2dVertex
 10
-26.549133
 20
-304.336884
 30
0.0
  0
VERTEX
  5
161
100
AcDbEntity
  8
0
370
     0
390
0
100
AcDbVertex
100
AcDb2dVertex
 10
-23.552017
 20
-304.19281
 30
0.0
  0
VERTEX
  5
162
100
AcDbEntity
  8
0
370
     0
390
0
100
AcDbVertex
100
AcDb2dVertex
 10
-23.552017
 20
-302.002594
 30
0.0
  0
VERTEX
  5
163
100
AcDbEntity
  8
0
370
     0
390
0
100
AcDbVertex
100
AcDb2dVertex
 10
-25.742218
 20
-302.175507
 30
0.0
  0
VERTEX
  5
164
100
AcDbEntity
  8
0
370
     0
390
0
100
AcDbVertex
100
AcDb2dVertex
 10
-27.730682
 20
-301.944946
 30
0.0
  0
VERTEX
  5
165
100
AcDbEntity
  8
0
370
     0
390
0
100
AcDbVertex
100
AcDb2dVertex
 10
-28.796967
 20
-301.224487
 30
0.0
  0
VERTEX
  5
166
100
AcDbEntity
  8
0
370
     0
390
0
100
AcDbVertex
100
AcDb2dVertex
 10
-29.258057
 20
-300.01413
 30
0.0
  0
VERTEX
  5
167
100
AcDbEntity
  8
0
370
     0
390
0
100
AcDbVertex
100
AcDb2dVertex
 10
-29.344513
 20
-298.313843
 30
0.0
  0
VERTEX
  5
168
100
AcDbEntity
  8
0
370
     0
390
0
100
AcDbVertex
100
AcDb2dVertex
 10
-29.344513
 20
-290.993958
 30
0.0
  0
VERTEX
  5
169
100
AcDbEntity
  8
0
370
     0
390
0
100
AcDbVertex
100
AcDb2dVertex
 10
-23.552017
 20
-290.993958
 30
0.0
  0
VERTEX
  5
16A
100
AcDbEntity
  8
0
370
     0
390
0
100
AcDbVertex
100
AcDb2dVertex
 10
-23.552017
 20
-288.832581
 30
0.0
  0
VERTEX
  5
16B
100
AcDbEntity
  8
0
370
     0
390
0
100
AcDbVertex
100
AcDb2dVertex
 10
-29.344513
 20
-288.832581
 30
0.0
  0
VERTEX
  5
16C
100
AcDbEntity
  8
0
370
     0
390
0
100
AcDbVertex
100
AcDb2dVertex
 10
-29.344513
 20
-284.308075
 30
0.0
  0
VERTEX
  5
16D
100
AcDbEntity
  8
0
370
     0
390
0
100
AcDbVertex
100
AcDb2dVertex
 10
-31.880539
 20
-284.308075
 30
0.0
  0
VERTEX
  5
16E
100
AcDbEntity
  8
0
370
     0
390
0
100
AcDbVertex
100
AcDb2dVertex
 10
-31.880539
 20
-288.832581
 30
0.0
  0
VERTEX
  5
16F
100
AcDbEntity
  8
0
370
     0
390
0
100
AcDbVertex
100
AcDb2dVertex
 10
-36.260941
 20
-288.832581
 30
0.0
  0
VERTEX
  5
170
100
AcDbEntity
  8
0
370
     0
390
0
100
AcDbVertex
100
AcDb2dVertex
 10
-36.260941
 20
-290.993958
 30
0.0
  0
SEQEND
  5
171
100
AcDbEntity
  8
0
370
     0
390
0
  0
POLYLINE
  5
172
100
AcDbEntity
  8
0
370
    13
390
0
 62
     7
100
AcDb2dPolyline
 66
     1
 10
0.0
 20
0.0
 30
0.0
 70
     1
 71
    51
  0
VERTEX
  5
173
100
AcDbEntity
  8
0
370
     0
390
0
100
AcDbVertex
100
AcDb2dVertex
 10
0.8284
 20
-297.189911
 30
0.0
  0
VERTEX
  5
174
100
AcDbEntity
  8
0
370
     0
390
0
100
AcDbVertex
100
AcDb2dVertex
 10
-1.794067
 20
-297.189911
 30
0.0
  0
VERTEX
  5
175
100
AcDbEntity
  8
0
370
     0
390
0
100
AcDbVertex
100
AcDb2dVertex
 10
-1.217712
 20
-300.244659
 30
0.0
  0
VERTEX
  5
176
100
AcDbEntity
  8
0
370
     0
390
0
100
AcDbVertex
100
AcDb2dVertex
 10
0.223221
 20
-302.492493
 30
0.0
  0
VERTEX
  5
177
100
AcDbEntity
  8
0
370
     0
390
0
100
AcDbVertex
100
AcDb2dVertex
 10
2.44223
 20
-303.846985
 30
0.0
  0
VERTEX
  5
178
100
AcDbEntity
  8
0
370
     0
390
0
100
AcDbVertex
100
AcDb2dVertex
 10
5.439362
 20
-304.336884
 30
0.0
  0
VERTEX
  5
179
100
AcDbEntity
  8
0
370
     0
390
0
100
AcDbVertex
100
AcDb2dVertex
 10
8.407654
 20
-303.875793
 30
0.0
  0
VERTEX
  5
17A
100
AcDbEntity
  8
0
370
     0
390
0
100
AcDbVertex
100
AcDb2dVertex
 10
10.626678
 20
-302.607788
 30
0.0
  0
VERTEX
  5
17B
100
AcDbEntity
  8
0
370
     0
390
0
100
AcDbVertex
100
AcDb2dVertex
 10
12.038773
 20
-300.619324
 30
0.0
  0
VERTEX
  5
17C
100
AcDbEntity
  8
0
370
     0
390
0
100
AcDbVertex
100
AcDb2dVertex
 10
12.55751
 20
-297.996826
 30
0.0
  0
VERTEX
  5
17D
100
AcDbEntity
  8
0
370
     0
390
0
100
AcDbVertex
100
AcDb2dVertex
 10
12.125229
 20
-295.633728
 30
0.0
  0
VERTEX
  5
17E
100
AcDbEntity
  8
0
370
     0
390
0
100
AcDbVertex
100
AcDb2dVertex
 10
10.914856
 20
-294.106354
 30
0.0
  0
VERTEX
  5
17F
100
AcDbEntity
  8
0
370
     0
390
0
100
AcDbVertex
100
AcDb2dVertex
 10
8.9552
 20
-293.097687
 30
0.0
  0
VERTEX
  5
180
100
AcDbEntity
  8
0
370
     0
390
0
100
AcDbVertex
100
AcDb2dVertex
 10
6.332733
 20
-292.348419
 30
0.0
  0
VERTEX
  5
181
100
AcDbEntity
  8
0
370
     0
390
0
100
AcDbVertex
100
AcDb2dVertex
 10
4.084885
 20
-291.800873
 30
0.0
  0
VERTEX
  5
182
100
AcDbEntity
  8
0
370
     0
390
0
100
AcDbVertex
100
AcDb2dVertex
 10
2.615143
 20
-291.16687
 30
0.0
  0
VERTEX
  5
183
100
AcDbEntity
  8
0
370
     0
390
0
100
AcDbVertex
100
AcDb2dVertex
 10
1.779419
 20
-290.244659
 30
0.0
  0
VERTEX
  5
184
100
AcDbEntity
  8
0
370
     0
390
0
100
AcDbVertex
100
AcDb2dVertex
 10
1.52005
 20
-288.803741
 30
0.0
  0
VERTEX
  5
185
100
AcDbEntity
  8
0
370
     0
390
0
100
AcDbVertex
100
AcDb2dVertex
 10
1.779419
 20
-287.506927
 30
0.0
  0
VERTEX
  5
186
100
AcDbEntity
  8
0
370
     0
390
0
100
AcDbVertex
100
AcDb2dVertex
 10
2.528687
 20
-286.5271
 30
0.0
  0
VERTEX
  5
187
100
AcDbEntity
  8
0
370
     0
390
0
100
AcDbVertex
100
AcDb2dVertex
 10
3.681427
 20
-285.864258
 30
0.0
  0
VERTEX
  5
188
100
AcDbEntity
  8
0
370
     0
390
0
100
AcDbVertex
100
AcDb2dVertex
 10
5.266449
 20
-285.633728
 30
0.0
  0
VERTEX
  5
189
100
AcDbEntity
  8
0
370
     0
390
0
100
AcDbVertex
100
AcDb2dVertex
 10
6.88028
 20
-285.921906
 30
0.0
  0
VERTEX
  5
18A
100
AcDbEntity
  8
0
370
     0
390
0
100
AcDbVertex
100
AcDb2dVertex
 10
8.148285
 20
-286.700012
 30
0.0
  0
VERTEX
  5
18B
100
AcDbEntity
  8
0
370
     0
390
0
100
AcDbVertex
100
AcDb2dVertex
 10
8.984024
 20
-287.996826
 30
0.0
  0
VERTEX
  5
18C
100
AcDbEntity
  8
0
370
     0
390
0
100
AcDbVertex
100
AcDb2dVertex
 10
9.387482
 20
-289.754761
 30
0.0
  0
VERTEX
  5
18D
100
AcDbEntity
  8
0
370
     0
390
0
100
AcDbVertex
100
AcDb2dVertex
 10
12.009964
 20
-289.754761
 30
0.0
  0
VERTEX
  5
18E
100
AcDbEntity
  8
0
370
     0
390
0
100
AcDbVertex
100
AcDb2dVertex
 10
12.009964
 20
-289.697113
 30
0.0
  0
VERTEX
  5
18F
100
AcDbEntity
  8
0
370
     0
390
0
100
AcDbVertex
100
AcDb2dVertex
 10
11.548859
 20
-286.98819
 30
0.0
  0
VERTEX
  5
190
100
AcDbEntity
  8
0
370
     0
390
0
100
AcDbVertex
100
AcDb2dVertex
 10
10.194397
 20
-284.970886
 30
0.0
  0
VERTEX
  5
191
100
AcDbEntity
  8
0
370
     0
390
0
100
AcDbVertex
100
AcDb2dVertex
 10
8.061829
 20
-283.702881
 30
0.0
  0
VERTEX
  5
192
100
AcDbEntity
  8
0
370
     0
390
0
100
AcDbVertex
100
AcDb2dVertex
 10
5.179993
 20
-283.270599
 30
0.0
  0
VERTEX
  5
193
100
AcDbEntity
  8
0
370
     0
390
0
100
AcDbVertex
100
AcDb2dVertex
 10
2.586334
 20
-283.702881
 30
0.0
  0
VERTEX
  5
194
100
AcDbEntity
  8
0
370
     0
390
0
100
AcDbVertex
100
AcDb2dVertex
 10
0.569031
 20
-284.913269
 30
0.0
  0
VERTEX
  5
195
100
AcDbEntity
  8
0
370
     0
390
0
100
AcDbVertex
100
AcDb2dVertex
 10
-0.727798
 20
-286.786469
 30
0.0
  0
VERTEX
  5
196
100
AcDbEntity
  8
0
370
     0
390
0
100
AcDbVertex
100
AcDb2dVertex
 10
-1.188889
 20
-289.207214
 30
0.0
  0
VERTEX
  5
197
100
AcDbEntity
  8
0
370
     0
390
0
100
AcDbVertex
100
AcDb2dVertex
 10
-0.81424
 20
-291.368591
 30
0.0
  0
VERTEX
  5
198
100
AcDbEntity
  8
0
370
     0
390
0
100
AcDbVertex
100
AcDb2dVertex
 10
0.280853
 20
-292.838318
 30
0.0
  0
VERTEX
  5
199
100
AcDbEntity
  8
0
370
     0
390
0
100
AcDbVertex
100
AcDb2dVertex
 10
2.009964
 20
-293.818146
 30
0.0
  0
VERTEX
  5
19A
100
AcDbEntity
  8
0
370
     0
390
0
100
AcDbVertex
100
AcDb2dVertex
 10
4.373077
 20
-294.567444
 30
0.0
  0
VERTEX
  5
19B
100
AcDbEntity
  8
0
370
     0
390
0
100
AcDbVertex
100
AcDb2dVertex
 10
6.707367
 20
-295.230255
 30
0.0
  0
VERTEX
  5
19C
100
AcDbEntity
  8
0
370
     0
390
0
100
AcDbVertex
100
AcDb2dVertex
 10
8.465286
 20
-295.864258
 30
0.0
  0
VERTEX
  5
19D
100
AcDbEntity
  8
0
370
     0
390
0
100
AcDbVertex
100
AcDb2dVertex
 10
9.53157
 20
-296.786469
 30
0.0
  0
VERTEX
  5
19E
100
AcDbEntity
  8
0
370
     0
390
0
100
AcDbVertex
100
AcDb2dVertex
 10
9.906219
 20
-298.285004
 30
0.0
  0
VERTEX
  5
19F
100
AcDbEntity
  8
0
370
     0
390
0
100
AcDbVertex
100
AcDb2dVertex
 10
9.560394
 20
-299.812378
 30
0.0
  0
VERTEX
  5
1A0
100
AcDbEntity
  8
0
370
     0
390
0
100
AcDbVertex
100
AcDb2dVertex
 10
8.667023
 20
-300.965118
 30
0.0
  0
VERTEX
  5
1A1
100
AcDbEntity
  8
0
370
     0
390
0
100
AcDbVertex
100
AcDb2dVertex
 10
7.312561
 20
-301.685577
 30
0.0
  0
VERTEX
  5
1A2
100
AcDbEntity
  8
0
370
     0
390
0
100
AcDbVertex
100
AcDb2dVertex
 10
5.554626
 20
-301.916138
 30
0.0
  0
VERTEX
  5
1A3
100
AcDbEntity
  8
0
370
     0
390
0
100
AcDbVertex
100
AcDb2dVertex
 10
3.594971
 20
-301.599121
 30
0.0
  0
VERTEX
  5
1A4
100
AcDbEntity
  8
0
370
     0
390
0
100
AcDbVertex
100
AcDb2dVertex
 10
2.09642
 20
-300.676941
 30
0.0
  0
VERTEX
  5
1A5
100
AcDbEntity
  8
0
370
     0
390
0
100
AcDbVertex
100
AcDb2dVertex
 10
1.145401
 20
-299.178375
 30
0.0
  0
SEQEND
  5
1A6
100
AcDbEntity
  8
0
370
     0
390
0
  0
POLYLINE
  5
1A7
100
AcDbEntity
  8
0
370
    13
390
0
 62
     7
100
AcDb2dPolyline
 66
     1
 10
0.0
 20
0.0
 30
0.0
 70
     1
 71
    22
  0
VERTEX
  5
1A8
100
AcDbEntity
  8
0
370
     0
390
0
100
AcDbVertex
100
AcDb2dVertex
 10
20.165588
 20
-290.993958
 30
0.0
  0
VERTEX
  5
1A9
100
AcDbEntity
  8
0
370
     0
390
0
100
AcDbVertex
100
AcDb2dVertex
 10
20.165588
 20
-298.746124
 30
0.0
  0
VERTEX
  5
1AA
100
AcDbEntity
  8
0
370
     0
390
0
100
AcDbVertex
100
AcDb2dVertex
 10
20.338501
 20
-301.253326
 30
0.0
  0
VERTEX
  5
1AB
100
AcDbEntity
  8
0
370
     0
390
0
100
AcDbVertex
100
AcDb2dVertex
 10
21.145416
 20
-302.982422
 30
0.0
  0
VERTEX
  5
1AC
100
AcDbEntity
  8
0
370
     0
390
0
100
AcDbVertex
100
AcDb2dVertex
 10
22.759247
 20
-303.991058
 30
0.0
  0
VERTEX
  5
1AD
100
AcDbEntity
  8
0
370
     0
390
0
100
AcDbVertex
100
AcDb2dVertex
 10
25.496994
 20
-304.336884
 30
0.0
  0
VERTEX
  5
1AE
100
AcDbEntity
  8
0
370
     0
390
0
100
AcDbVertex
100
AcDb2dVertex
 10
28.49411
 20
-304.19281
 30
0.0
  0
VERTEX
  5
1AF
100
AcDbEntity
  8
0
370
     0
390
0
100
AcDbVertex
100
AcDb2dVertex
 10
28.49411
 20
-302.002594
 30
0.0
  0
VERTEX
  5
1B0
100
AcDbEntity
  8
0
370
     0
390
0
100
AcDbVertex
100
AcDb2dVertex
 10
26.303909
 20
-302.175507
 30
0.0
  0
VERTEX
  5
1B1
100
AcDbEntity
  8
0
370
     0
390
0
100
AcDbVertex
100
AcDb2dVertex
 10
24.315445
 20
-301.944946
 30
0.0
  0
VERTEX
  5
1B2
100
AcDbEntity
  8
0
370
     0
390
0
100
AcDbVertex
100
AcDb2dVertex
 10
23.249161
 20
-301.224487
 30
0.0
  0
VERTEX
  5
1B3
100
AcDbEntity
  8
0
370
     0
390
0
100
AcDbVertex
100
AcDb2dVertex
 10
22.788071
 20
-300.01413
 30
0.0
  0
VERTEX
  5
1B4
100
AcDbEntity
  8
0
370
     0
390
0
100
AcDbVertex
100
AcDb2dVertex
 10
22.701614
 20
-298.313843
 30
0.0
  0
VERTEX
  5
1B5
100
AcDbEntity
  8
0
370
     0
390
0
100
AcDbVertex
100
AcDb2dVertex
 10
22.701614
 20
-290.993958
 30
0.0
  0
VERTEX
  5
1B6
100
AcDbEntity
  8
0
370
     0
390
0
100
AcDbVertex
100
AcDb2dVertex
 10
28.49411
 20
-290.993958
 30
0.0
  0
VERTEX
  5
1B7
100
AcDbEntity
  8
0
370
     0
390
0
100
AcDbVertex
100
AcDb2dVertex
 10
28.49411
 20
-288.832581
 30
0.0
  0
VERTEX
  5
1B8
100
AcDbEntity
  8
0
370
     0
390
0
100
AcDbVertex
100
AcDb2dVertex
 10
22.701614
 20
-288.832581
 30
0.0
  0
VERTEX
  5
1B9
100
AcDbEntity
  8
0
370
     0
390
0
100
AcDbVertex
100
AcDb2dVertex
 10
22.701614
 20
-284.308075
 30
0.0
  0
VERTEX
  5
1BA
100
AcDbEntity
  8
0
370
     0
390
0
100
AcDbVertex
100
AcDb2dVertex
 10
20.165588
 20
-284.308075
 30
0.0
  0
VERTEX
  5
1BB
100
AcDbEntity
  8
0
370
     0
390
0
100
AcDbVertex
100
AcDb2dVertex
 10
20.165588
 20
-288.832581
 30
0.0
  0
VERTEX
  5
1BC
100
AcDbEntity
  8
0
370
     0
390
0
100
AcDbVertex
100
AcDb2dVertex
 10
15.785187
 20
-288.832581
 30
0.0
  0
VERTEX
  5
1BD
100
AcDbEntity
  8
0
370
     0
390
0
100
AcDbVertex
100
AcDb2dVertex
 10
15.785187
 20
-290.993958
 30
0.0
  0
SEQEND
  5
1BE
100
AcDbEntity
  8
0
370
     0
390
0
  0
POLYLINE
  5
1BF
100
AcDbEntity
  8
0
370
    13
390
0
 62
     7
100
AcDb2dPolyline
 66
     1
 10
0.0
 20
0.0
 30
0.0
 70
     1
 71
    42
  0
VERTEX
  5
1C0
100
AcDbEntity
  8
0
370
     0
390
0
100
AcDbVertex
100
AcDb2dVertex
 10
43.306808
 20
-301.772034
 30
0.0
  0
VERTEX
  5
1C1
100
AcDbEntity
  8
0
370
     0
390
0
100
AcDbVertex
100
AcDb2dVertex
 10
43.306808
 20
-301.85849
 30
0.0
  0
VERTEX
  5
1C2
100
AcDbEntity
  8
0
370
     0
390
0
100
AcDbVertex
100
AcDb2dVertex
 10
43.450897
 20
-302.838318
 30
0.0
  0
VERTEX
  5
1C3
100
AcDbEntity
  8
0
370
     0
390
0
100
AcDbVertex
100
AcDb2dVertex
 10
43.883179
 20
-303.529968
 30
0.0
  0
VERTEX
  5
1C4
100
AcDbEntity
  8
0
370
     0
390
0
100
AcDbVertex
100
AcDb2dVertex
 10
45.69873
 20
-304.077515
 30
0.0
  0
VERTEX
  5
1C5
100
AcDbEntity
  8
0
370
     0
390
0
100
AcDbVertex
100
AcDb2dVertex
 10
47.11084
 20
-303.846985
 30
0.0
  0
VERTEX
  5
1C6
100
AcDbEntity
  8
0
370
     0
390
0
100
AcDbVertex
100
AcDb2dVertex
 10
47.11084
 20
-301.887329
 30
0.0
  0
VERTEX
  5
1C7
100
AcDbEntity
  8
0
370
     0
390
0
100
AcDbVertex
100
AcDb2dVertex
 10
46.505646
 20
-301.973785
 30
0.0
  0
VERTEX
  5
1C8
100
AcDbEntity
  8
0
370
     0
390
0
100
AcDbVertex
100
AcDb2dVertex
 10
45.69873
 20
-301.599121
 30
0.0
  0
VERTEX
  5
1C9
100
AcDbEntity
  8
0
370
     0
390
0
100
AcDbVertex
100
AcDb2dVertex
 10
45.554642
 20
-300.446411
 30
0.0
  0
VERTEX
  5
1CA
100
AcDbEntity
  8
0
370
     0
390
0
100
AcDbVertex
100
AcDb2dVertex
 10
45.554642
 20
-292.434875
 30
0.0
  0
VERTEX
  5
1CB
100
AcDbEntity
  8
0
370
     0
390
0
100
AcDbVertex
100
AcDb2dVertex
 10
45.208817
 20
-290.388763
 30
0.0
  0
VERTEX
  5
1CC
100
AcDbEntity
  8
0
370
     0
390
0
100
AcDbVertex
100
AcDb2dVertex
 10
44.20018
 20
-288.947845
 30
0.0
  0
VERTEX
  5
1CD
100
AcDbEntity
  8
0
370
     0
390
0
100
AcDbVertex
100
AcDb2dVertex
 10
42.442245
 20
-288.083282
 30
0.0
  0
VERTEX
  5
1CE
100
AcDbEntity
  8
0
370
     0
390
0
100
AcDbVertex
100
AcDb2dVertex
 10
39.963867
 20
-287.766296
 30
0.0
  0
VERTEX
  5
1CF
100
AcDbEntity
  8
0
370
     0
390
0
100
AcDbVertex
100
AcDb2dVertex
 10
37.543106
 20
-288.112091
 30
0.0
  0
VERTEX
  5
1D0
100
AcDbEntity
  8
0
370
     0
390
0
100
AcDbVertex
100
AcDb2dVertex
 10
35.756363
 20
-289.091919
 30
0.0
  0
VERTEX
  5
1D1
100
AcDbEntity
  8
0
370
     0
390
0
100
AcDbVertex
100
AcDb2dVertex
 10
34.632446
 20
-290.619324
 30
0.0
  0
VERTEX
  5
1D2
100
AcDbEntity
  8
0
370
     0
390
0
100
AcDbVertex
100
AcDb2dVertex
 10
34.257813
 20
-292.636597
 30
0.0
  0
VERTEX
  5
1D3
100
AcDbEntity
  8
0
370
     0
390
0
100
AcDbVertex
100
AcDb2dVertex
 10
34.257813
 20
-292.809509
 30
0.0
  0
VERTEX
  5
1D4
100
AcDbEntity
  8
0
370
     0
390
0
100
AcDbVertex
100
AcDb2dVertex
 10
36.53447
 20
-292.809509
 30
0.0
  0
VERTEX
  5
1D5
100
AcDbEntity
  8
0
370
     0
390
0
100
AcDbVertex
100
AcDb2dVertex
 10
36.736191
 20
-291.599121
 30
0.0
  0
VERTEX
  5
1D6
100
AcDbEntity
  8
0
370
     0
390
0
100
AcDbVertex
100
AcDb2dVertex
 10
37.370209
 20
-290.734589
 30
0.0
  0
VERTEX
  5
1D7
100
AcDbEntity
  8
0
370
     0
390
0
100
AcDbVertex
100
AcDb2dVertex
 10
38.407669
 20
-290.215851
 30
0.0
  0
VERTEX
  5
1D8
100
AcDbEntity
  8
0
370
     0
390
0
100
AcDbVertex
100
AcDb2dVertex
 10
39.877411
 20
-290.01413
 30
0.0
  0
VERTEX
  5
1D9
100
AcDbEntity
  8
0
370
     0
390
0
100
AcDbVertex
100
AcDb2dVertex
 10
41.289505
 20
-290.158203
 30
0.0
  0
VERTEX
  5
1DA
100
AcDbEntity
  8
0
370
     0
390
0
100
AcDbVertex
100
AcDb2dVertex
 10
42.298157
 20
-290.590485
 30
0.0
  0
VERTEX
  5
1DB
100
AcDbEntity
  8
0
370
     0
390
0
100
AcDbVertex
100
AcDb2dVertex
 10
42.903351
 20
-291.339783
 30
0.0
  0
VERTEX
  5
1DC
100
AcDbEntity
  8
0
370
     0
390
0
100
AcDbVertex
100
AcDb2dVertex
 10
43.105072
 20
-292.377228
 30
0.0
  0
VERTEX
  5
1DD
100
AcDbEntity
  8
0
370
     0
390
0
100
AcDbVertex
100
AcDb2dVertex
 10
42.989792
 20
-293.587616
 30
0.0
  0
VERTEX
  5
1DE
100
AcDbEntity
  8
0
370
     0
390
0
100
AcDbVertex
100
AcDb2dVertex
 10
42.528702
 20
-294.19281
 30
0.0
  0
VERTEX
  5
1DF
100
AcDbEntity
  8
0
370
     0
390
0
100
AcDbVertex
100
AcDb2dVertex
 10
41.375961
 20
-294.480988
 30
0.0
  0
VERTEX
  5
1E0
100
AcDbEntity
  8
0
370
     0
390
0
100
AcDbVertex
100
AcDb2dVertex
 10
39.214584
 20
-294.711517
 30
0.0
  0
VERTEX
  5
1E1
100
AcDbEntity
  8
0
370
     0
390
0
100
AcDbVertex
100
AcDb2dVertex
 10
36.736191
 20
-295.230255
 30
0.0
  0
VERTEX
  5
1E2
100
AcDbEntity
  8
0
370
     0
390
0
100
AcDbVertex
100
AcDb2dVertex
 10
34.978271
 20
-296.152435
 30
0.0
  0
VERTEX
  5
1E3
100
AcDbEntity
  8
0
370
     0
390
0
100
AcDbVertex
100
AcDb2dVertex
 10
33.940811
 20
-297.593384
 30
0.0
  0
VERTEX
  5
1E4
100
AcDbEntity
  8
0
370
     0
390
0
100
AcDbVertex
100
AcDb2dVertex
 10
33.62381
 20
-299.725922
 30
0.0
  0
VERTEX
  5
1E5
100
AcDbEntity
  8
0
370
     0
390
0
100
AcDbVertex
100
AcDb2dVertex
 10
33.911987
 20
-301.62796
 30
0.0
  0
VERTEX
  5
1E6
100
AcDbEntity
  8
0
370
     0
390
0
100
AcDbVertex
100
AcDb2dVertex
 10
34.805359
 20
-303.04007
 30
0.0
  0
VERTEX
  5
1E7
100
AcDbEntity
  8
0
370
     0
390
0
100
AcDbVertex
100
AcDb2dVertex
 10
36.246277
 20
-303.933441
 30
0.0
  0
VERTEX
  5
1E8
100
AcDbEntity
  8
0
370
     0
390
0
100
AcDbVertex
100
AcDb2dVertex
 10
38.234756
 20
-304.250427
 30
0.0
  0
VERTEX
  5
1E9
100
AcDbEntity
  8
0
370
     0
390
0
100
AcDbVertex
100
AcDb2dVertex
 10
40.914871
 20
-303.645233
 30
0.0
  0
SEQEND
  5
1EA
100
AcDbEntity
  8
0
370
     0
390
0
  0
POLYLINE
  5
1EB
100
AcDbEntity
  8
0
370
    13
390
0
 62
     7
100
AcDb2dPolyline
 66
     1
 10
0.0
 20
0.0
 30
0.0
 70
     1
 71
    14
  0
VERTEX
  5
1EC
100
AcDbEntity
  8
0
370
     0
390
0
100
AcDbVertex
100
AcDb2dVertex
 10
43.018616
 20
-298.37146
 30
0.0
  0
VERTEX
  5
1ED
100
AcDbEntity
  8
0
370
     0
390
0
100
AcDbVertex
100
AcDb2dVertex
 10
42.672791
 20
-299.870026
 30
0.0
  0
VERTEX
  5
1EE
100
AcDbEntity
  8
0
370
     0
390
0
100
AcDbVertex
100
AcDb2dVertex
 10
41.75061
 20
-301.022766
 30
0.0
  0
VERTEX
  5
1EF
100
AcDbEntity
  8
0
370
     0
390
0
100
AcDbVertex
100
AcDb2dVertex
 10
40.367325
 20
-301.772034
 30
0.0
  0
VERTEX
  5
1F0
100
AcDbEntity
  8
0
370
     0
390
0
100
AcDbVertex
100
AcDb2dVertex
 10
38.667038
 20
-302.031403
 30
0.0
  0
VERTEX
  5
1F1
100
AcDbEntity
  8
0
370
     0
390
0
100
AcDbVertex
100
AcDb2dVertex
 10
37.57193
 20
-301.887329
 30
0.0
  0
VERTEX
  5
1F2
100
AcDbEntity
  8
0
370
     0
390
0
100
AcDbVertex
100
AcDb2dVertex
 10
36.793839
 20
-301.426239
 30
0.0
  0
VERTEX
  5
1F3
100
AcDbEntity
  8
0
370
     0
390
0
100
AcDbVertex
100
AcDb2dVertex
 10
36.303925
 20
-300.619324
 30
0.0
  0
VERTEX
  5
1F4
100
AcDbEntity
  8
0
370
     0
390
0
100
AcDbVertex
100
AcDb2dVertex
 10
36.159836
 20
-299.495392
 30
0.0
  0
VERTEX
  5
1F5
100
AcDbEntity
  8
0
370
     0
390
0
100
AcDbVertex
100
AcDb2dVertex
 10
36.275101
 20
-298.486755
 30
0.0
  0
VERTEX
  5
1F6
100
AcDbEntity
  8
0
370
     0
390
0
100
AcDbVertex
100
AcDb2dVertex
 10
36.736191
 20
-297.766296
 30
0.0
  0
VERTEX
  5
1F7
100
AcDbEntity
  8
0
370
     0
390
0
100
AcDbVertex
100
AcDb2dVertex
 10
38.580582
 20
-296.959351
 30
0.0
  0
VERTEX
  5
1F8
100
AcDbEntity
  8
0
370
     0
390
0
100
AcDbVertex
100
AcDb2dVertex
 10
40.914871
 20
-296.613556
 30
0.0
  0
VERTEX
  5
1F9
100
AcDbEntity
  8
0
370
     0
390
0
100
AcDbVertex
100
AcDb2dVertex
 10
43.018616
 20
-295.921906
 30
0.0
  0
SEQEND
  5
1FA
100
AcDbEntity
  8
0
370
     0
390
0
  0
POLYLINE
  5
1FB
100
AcDbEntity
  8
0
370
    13
390
0
 62
     7
100
AcDb2dPolyline
 66
     1
 10
0.0
 20
0.0
 30
0.0
 70
     1
 71
    34
  0
VERTEX
  5
1FC
100
AcDbEntity
  8
0
370
     0
390
0
100
AcDbVertex
100
AcDb2dVertex
 10
61.318329
 20
-293.443512
 30
0.0
  0
VERTEX
  5
1FD
100
AcDbEntity
  8
0
370
     0
390
0
100
AcDbVertex
100
AcDb2dVertex
 10
63.825531
 20
-293.443512
 30
0.0
  0
VERTEX
  5
1FE
100
AcDbEntity
  8
0
370
     0
390
0
100
AcDbVertex
100
AcDb2dVertex
 10
63.306793
 20
-291.138031
 30
0.0
  0
VERTEX
  5
1FF
100
AcDbEntity
  8
0
370
     0
390
0
100
AcDbVertex
100
AcDb2dVertex
 10
62.067627
 20
-289.322479
 30
0.0
  0
VERTEX
  5
200
100
AcDbEntity
  8
0
370
     0
390
0
100
AcDbVertex
100
AcDb2dVertex
 10
60.13678
 20
-288.198547
 30
0.0
  0
VERTEX
  5
201
100
AcDbEntity
  8
0
370
     0
390
0
100
AcDbVertex
100
AcDb2dVertex
 10
57.629578
 20
-287.766296
 30
0.0
  0
VERTEX
  5
202
100
AcDbEntity
  8
0
370
     0
390
0
100
AcDbVertex
100
AcDb2dVertex
 10
54.863007
 20
-288.342651
 30
0.0
  0
VERTEX
  5
203
100
AcDbEntity
  8
0
370
     0
390
0
100
AcDbVertex
100
AcDb2dVertex
 10
52.759262
 20
-289.956482
 30
0.0
  0
VERTEX
  5
204
100
AcDbEntity
  8
0
370
     0
390
0
100
AcDbVertex
100
AcDb2dVertex
 10
51.433609
 20
-292.578949
 30
0.0
  0
VERTEX
  5
205
100
AcDbEntity
  8
0
370
     0
390
0
100
AcDbVertex
100
AcDb2dVertex
 10
50.972519
 20
-296.094818
 30
0.0
  0
VERTEX
  5
206
100
AcDbEntity
  8
0
370
     0
390
0
100
AcDbVertex
100
AcDb2dVertex
 10
51.404785
 20
-299.581848
 30
0.0
  0
VERTEX
  5
207
100
AcDbEntity
  8
0
370
     0
390
0
100
AcDbVertex
100
AcDb2dVertex
 10
52.701614
 20
-302.175507
 30
0.0
  0
VERTEX
  5
208
100
AcDbEntity
  8
0
370
     0
390
0
100
AcDbVertex
100
AcDb2dVertex
 10
54.747726
 20
-303.789337
 30
0.0
  0
VERTEX
  5
209
100
AcDbEntity
  8
0
370
     0
390
0
100
AcDbVertex
100
AcDb2dVertex
 10
57.543121
 20
-304.336884
 30
0.0
  0
VERTEX
  5
20A
100
AcDbEntity
  8
0
370
     0
390
0
100
AcDbVertex
100
AcDb2dVertex
 10
60.0215
 20
-303.904602
 30
0.0
  0
VERTEX
  5
20B
100
AcDbEntity
  8
0
370
     0
390
0
100
AcDbVertex
100
AcDb2dVertex
 10
61.952332
 20
-302.694244
 30
0.0
  0
VERTEX
  5
20C
100
AcDbEntity
  8
0
370
     0
390
0
100
AcDbVertex
100
AcDb2dVertex
 10
63.277985
 20
-300.792206
 30
0.0
  0
VERTEX
  5
20D
100
AcDbEntity
  8
0
370
     0
390
0
100
AcDbVertex
100
AcDb2dVertex
 10
63.85437
 20
-298.256195
 30
0.0
  0
VERTEX
  5
20E
100
AcDbEntity
  8
0
370
     0
390
0
100
AcDbVertex
100
AcDb2dVertex
 10
61.433609
 20
-298.256195
 30
0.0
  0
VERTEX
  5
20F
100
AcDbEntity
  8
0
370
     0
390
0
100
AcDbVertex
100
AcDb2dVertex
 10
61.001328
 20
-299.870026
 30
0.0
  0
VERTEX
  5
210
100
AcDbEntity
  8
0
370
     0
390
0
100
AcDbVertex
100
AcDb2dVertex
 10
60.194412
 20
-301.080414
 30
0.0
  0
VERTEX
  5
211
100
AcDbEntity
  8
0
370
     0
390
0
100
AcDbVertex
100
AcDb2dVertex
 10
59.041672
 20
-301.829681
 30
0.0
  0
VERTEX
  5
212
100
AcDbEntity
  8
0
370
     0
390
0
100
AcDbVertex
100
AcDb2dVertex
 10
57.629578
 20
-302.060242
 30
0.0
  0
VERTEX
  5
213
100
AcDbEntity
  8
0
370
     0
390
0
100
AcDbVertex
100
AcDb2dVertex
 10
55.871643
 20
-301.685577
 30
0.0
  0
VERTEX
  5
214
100
AcDbEntity
  8
0
370
     0
390
0
100
AcDbVertex
100
AcDb2dVertex
 10
54.603638
 20
-300.532867
 30
0.0
  0
VERTEX
  5
215
100
AcDbEntity
  8
0
370
     0
390
0
100
AcDbVertex
100
AcDb2dVertex
 10
53.825546
 20
-298.659668
 30
0.0
  0
VERTEX
  5
216
100
AcDbEntity
  8
0
370
     0
390
0
100
AcDbVertex
100
AcDb2dVertex
 10
53.566177
 20
-296.008362
 30
0.0
  0
VERTEX
  5
217
100
AcDbEntity
  8
0
370
     0
390
0
100
AcDbVertex
100
AcDb2dVertex
 10
53.825546
 20
-293.414703
 30
0.0
  0
VERTEX
  5
218
100
AcDbEntity
  8
0
370
     0
390
0
100
AcDbVertex
100
AcDb2dVertex
 10
54.632462
 20
-291.541504
 30
0.0
  0
VERTEX
  5
219
100
AcDbEntity
  8
0
370
     0
390
0
100
AcDbVertex
100
AcDb2dVertex
 10
55.929291
 20
-290.388763
 30
0.0
  0
VERTEX
  5
21A
100
AcDbEntity
  8
0
370
     0
390
0
100
AcDbVertex
100
AcDb2dVertex
 10
57.629578
 20
-289.985291
 30
0.0
  0
VERTEX
  5
21B
100
AcDbEntity
  8
0
370
     0
390
0
100
AcDbVertex
100
AcDb2dVertex
 10
59.128128
 20
-290.244659
 30
0.0
  0
VERTEX
  5
21C
100
AcDbEntity
  8
0
370
     0
390
0
100
AcDbVertex
100
AcDb2dVertex
 10
60.25206
 20
-290.907501
 30
0.0
  0
VERTEX
  5
21D
100
AcDbEntity
  8
0
370
     0
390
0
100
AcDbVertex
100
AcDb2dVertex
 10
61.001328
 20
-292.002594
 30
0.0
  0
SEQEND
  5
21E
100
AcDbEntity
  8
0
370
     0
390
0
  0
POLYLINE
  5
21F
100
AcDbEntity
  8
0
370
    13
390
0
 62
     7
100
AcDb2dPolyline
 66
     1
 10
0.0
 20
0.0
 30
0.0
 70
     1
 71
    12
  0
VERTEX
  5
220
100
AcDbEntity
  8
0
370
     0
390
0
100
AcDbVertex
100
AcDb2dVertex
 10
69.156952
 20
-303.789337
 30
0.0
  0
VERTEX
  5
221
100
AcDbEntity
  8
0
370
     0
390
0
100
AcDbVertex
100
AcDb2dVertex
 10
71.692993
 20
-303.789337
 30
0.0
  0
VERTEX
  5
222
100
AcDbEntity
  8
0
370
     0
390
0
100
AcDbVertex
100
AcDb2dVertex
 10
71.692993
 20
-298.342651
 30
0.0
  0
VERTEX
  5
223
100
AcDbEntity
  8
0
370
     0
390
0
100
AcDbVertex
100
AcDb2dVertex
 10
74.344269
 20
-295.777802
 30
0.0
  0
VERTEX
  5
224
100
AcDbEntity
  8
0
370
     0
390
0
100
AcDbVertex
100
AcDb2dVertex
 10
78.897583
 20
-303.789337
 30
0.0
  0
VERTEX
  5
225
100
AcDbEntity
  8
0
370
     0
390
0
100
AcDbVertex
100
AcDb2dVertex
 10
81.75061
 20
-303.789337
 30
0.0
  0
VERTEX
  5
226
100
AcDbEntity
  8
0
370
     0
390
0
100
AcDbVertex
100
AcDb2dVertex
 10
76.073395
 20
-294.019897
 30
0.0
  0
VERTEX
  5
227
100
AcDbEntity
  8
0
370
     0
390
0
100
AcDbVertex
100
AcDb2dVertex
 10
81.894714
 20
-288.313843
 30
0.0
  0
VERTEX
  5
228
100
AcDbEntity
  8
0
370
     0
390
0
100
AcDbVertex
100
AcDb2dVertex
 10
78.695862
 20
-288.313843
 30
0.0
  0
VERTEX
  5
229
100
AcDbEntity
  8
0
370
     0
390
0
100
AcDbVertex
100
AcDb2dVertex
 10
71.692993
 20
-295.287903
 30
0.0
  0
VERTEX
  5
22A
100
AcDbEntity
  8
0
370
     0
390
0
100
AcDbVertex
100
AcDb2dVertex
 10
71.692993
 20
-283.097687
 30
0.0
  0
VERTEX
  5
22B
100
AcDbEntity
  8
0
370
     0
390
0
100
AcDbVertex
100
AcDb2dVertex
 10
69.156952
 20
-283.097687
 30
0.0
  0
SEQEND
  5
22C
100
AcDbEntity
  8
0
370
     0
390
0
  0
POLYLINE
  5
22D
100
AcDbEntity
  8
0
370
    13
390
0
 62
     7
100
AcDb2dPolyline
 66
     1
 10
0.0
 20
0.0
 30
0.0
 70
     1
 71
    13
  0
VERTEX
  5
22E
100
AcDbEntity
  8
0
370
     0
390
0
100
AcDbVertex
100
AcDb2dVertex
 10
102.269318
 20
-303.789337
 30
0.0
  0
VERTEX
  5
22F
100
AcDbEntity
  8
0
370
     0
390
0
100
AcDbVertex
100
AcDb2dVertex
 10
104.488342
 20
-303.789337
 30
0.0
  0
VERTEX
  5
230
100
AcDbEntity
  8
0
370
     0
390
0
100
AcDbVertex
100
AcDb2dVertex
 10
104.488342
 20
-285.633728
 30
0.0
  0
VERTEX
  5
231
100
AcDbEntity
  8
0
370
     0
390
0
100
AcDbVertex
100
AcDb2dVertex
 10
108.234741
 20
-303.789337
 30
0.0
  0
VERTEX
  5
232
100
AcDbEntity
  8
0
370
     0
390
0
100
AcDbVertex
100
AcDb2dVertex
 10
110.713135
 20
-303.789337
 30
0.0
  0
VERTEX
  5
233
100
AcDbEntity
  8
0
370
     0
390
0
100
AcDbVertex
100
AcDb2dVertex
 10
114.430725
 20
-285.633728
 30
0.0
  0
VERTEX
  5
234
100
AcDbEntity
  8
0
370
     0
390
0
100
AcDbVertex
100
AcDb2dVertex
 10
114.430725
 20
-303.789337
 30
0.0
  0
VERTEX
  5
235
100
AcDbEntity
  8
0
370
     0
390
0
100
AcDbVertex
100
AcDb2dVertex
 10
116.678558
 20
-303.789337
 30
0.0
  0
VERTEX
  5
236
100
AcDbEntity
  8
0
370
     0
390
0
100
AcDbVertex
100
AcDb2dVertex
 10
116.678558
 20
-283.789337
 30
0.0
  0
VERTEX
  5
237
100
AcDbEntity
  8
0
370
     0
390
0
100
AcDbVertex
100
AcDb2dVertex
 10
113.162689
 20
-283.789337
 30
0.0
  0
VERTEX
  5
238
100
AcDbEntity
  8
0
370
     0
390
0
100
AcDbVertex
100
AcDb2dVertex
 10
109.473938
 20
-301.426239
 30
0.0
  0
VERTEX
  5
239
100
AcDbEntity
  8
0
370
     0
390
0
100
AcDbVertex
100
AcDb2dVertex
 10
105.813995
 20
-283.789337
 30
0.0
  0
VERTEX
  5
23A
100
AcDbEntity
  8
0
370
     0
390
0
100
AcDbVertex
100
AcDb2dVertex
 10
102.269318
 20
-283.789337
 30
0.0
  0
SEQEND
  5
23B
100
AcDbEntity
  8
0
370
     0
390
0
  0
POLYLINE
  5
23C
100
AcDbEntity
  8
0
370
    13
390
0
 62
     7
100
AcDb2dPolyline
 66
     1
 10
0.0
 20
0.0
 30
0.0
 70
     1
 71
    16
  0
VERTEX
  5
23D
100
AcDbEntity
  8
0
370
     0
390
0
100
AcDbVertex
100
AcDb2dVertex
 10
120.107941
 20
-296.065979
 30
0.0
  0
VERTEX
  5
23E
100
AcDbEntity
  8
0
370
     0
390
0
100
AcDbVertex
100
AcDb2dVertex
 10
120.569031
 20
-299.581848
 30
0.0
  0
VERTEX
  5
23F
100
AcDbEntity
  8
0
370
     0
390
0
100
AcDbVertex
100
AcDb2dVertex
 10
121.894684
 20
-302.175507
 30
0.0
  0
VERTEX
  5
240
100
AcDbEntity
  8
0
370
     0
390
0
100
AcDbVertex
100
AcDb2dVertex
 10
123.998444
 20
-303.789337
 30
0.0
  0
VERTEX
  5
241
100
AcDbEntity
  8
0
370
     0
390
0
100
AcDbVertex
100
AcDb2dVertex
 10
126.822632
 20
-304.336884
 30
0.0
  0
VERTEX
  5
242
100
AcDbEntity
  8
0
370
     0
390
0
100
AcDbVertex
100
AcDb2dVertex
 10
129.618011
 20
-303.789337
 30
0.0
  0
VERTEX
  5
243
100
AcDbEntity
  8
0
370
     0
390
0
100
AcDbVertex
100
AcDb2dVertex
 10
131.721771
 20
-302.204315
 30
0.0
  0
VERTEX
  5
244
100
AcDbEntity
  8
0
370
     0
390
0
100
AcDbVertex
100
AcDb2dVertex
 10
133.047424
 20
-299.610657
 30
0.0
  0
VERTEX
  5
245
100
AcDbEntity
  8
0
370
     0
390
0
100
AcDbVertex
100
AcDb2dVertex
 10
133.537323
 20
-296.065979
 30
0.0
  0
VERTEX
  5
246
100
AcDbEntity
  8
0
370
     0
390
0
100
AcDbVertex
100
AcDb2dVertex
 10
133.047424
 20
-292.55014
 30
0.0
  0
VERTEX
  5
247
100
AcDbEntity
  8
0
370
     0
390
0
100
AcDbVertex
100
AcDb2dVertex
 10
131.721771
 20
-289.927673
 30
0.0
  0
VERTEX
  5
248
100
AcDbEntity
  8
0
370
     0
390
0
100
AcDbVertex
100
AcDb2dVertex
 10
129.618011
 20
-288.342651
 30
0.0
  0
VERTEX
  5
249
100
AcDbEntity
  8
0
370
     0
390
0
100
AcDbVertex
100
AcDb2dVertex
 10
126.822632
 20
-287.766296
 30
0.0
  0
VERTEX
  5
24A
100
AcDbEntity
  8
0
370
     0
390
0
100
AcDbVertex
100
AcDb2dVertex
 10
123.998444
 20
-288.342651
 30
0.0
  0
VERTEX
  5
24B
100
AcDbEntity
  8
0
370
     0
390
0
100
AcDbVertex
100
AcDb2dVertex
 10
121.894684
 20
-289.956482
 30
0.0
  0
VERTEX
  5
24C
100
AcDbEntity
  8
0
370
     0
390
0
100
AcDbVertex
100
AcDb2dVertex
 10
120.569031
 20
-292.55014
 30
0.0
  0
SEQEND
  5
24D
100
AcDbEntity
  8
0
370
     0
390
0
  0
POLYLINE
  5
24E
100
AcDbEntity
  8
0
370
    13
390
0
 62
     7
100
AcDb2dPolyline
 66
     1
 10
0.0
 20
0.0
 30
0.0
 70
     1
 71
    16
  0
VERTEX
  5
24F
100
AcDbEntity
  8
0
370
     0
390
0
100
AcDbVertex
100
AcDb2dVertex
 10
122.701599
 20
-296.03717
 30
0.0
  0
VERTEX
  5
250
100
AcDbEntity
  8
0
370
     0
390
0
100
AcDbVertex
100
AcDb2dVertex
 10
122.960968
 20
-293.443512
 30
0.0
  0
VERTEX
  5
251
100
AcDbEntity
  8
0
370
     0
390
0
100
AcDbVertex
100
AcDb2dVertex
 10
123.767883
 20
-291.570313
 30
0.0
  0
VERTEX
  5
252
100
AcDbEntity
  8
0
370
     0
390
0
100
AcDbVertex
100
AcDb2dVertex
 10
125.064697
 20
-290.417572
 30
0.0
  0
VERTEX
  5
253
100
AcDbEntity
  8
0
370
     0
390
0
100
AcDbVertex
100
AcDb2dVertex
 10
126.822632
 20
-290.01413
 30
0.0
  0
VERTEX
  5
254
100
AcDbEntity
  8
0
370
     0
390
0
100
AcDbVertex
100
AcDb2dVertex
 10
128.551758
 20
-290.417572
 30
0.0
  0
VERTEX
  5
255
100
AcDbEntity
  8
0
370
     0
390
0
100
AcDbVertex
100
AcDb2dVertex
 10
129.848572
 20
-291.541504
 30
0.0
  0
VERTEX
  5
256
100
AcDbEntity
  8
0
370
     0
390
0
100
AcDbVertex
100
AcDb2dVertex
 10
130.655487
 20
-293.443512
 30
0.0
  0
VERTEX
  5
257
100
AcDbEntity
  8
0
370
     0
390
0
100
AcDbVertex
100
AcDb2dVertex
 10
130.943665
 20
-296.03717
 30
0.0
  0
VERTEX
  5
258
100
AcDbEntity
  8
0
370
     0
390
0
100
AcDbVertex
100
AcDb2dVertex
 10
130.655487
 20
-298.659668
 30
0.0
  0
VERTEX
  5
259
100
AcDbEntity
  8
0
370
     0
390
0
100
AcDbVertex
100
AcDb2dVertex
 10
129.848572
 20
-300.561676
 30
0.0
  0
VERTEX
  5
25A
100
AcDbEntity
  8
0
370
     0
390
0
100
AcDbVertex
100
AcDb2dVertex
 10
128.551758
 20
-301.714417
 30
0.0
  0
VERTEX
  5
25B
100
AcDbEntity
  8
0
370
     0
390
0
100
AcDbVertex
100
AcDb2dVertex
 10
126.822632
 20
-302.08905
 30
0.0
  0
VERTEX
  5
25C
100
AcDbEntity
  8
0
370
     0
390
0
100
AcDbVertex
100
AcDb2dVertex
 10
125.064697
 20
-301.714417
 30
0.0
  0
VERTEX
  5
25D
100
AcDbEntity
  8
0
370
     0
390
0
100
AcDbVertex
100
AcDb2dVertex
 10
123.767883
 20
-300.561676
 30
0.0
  0
VERTEX
  5
25E
100
AcDbEntity
  8
0
370
     0
390
0
100
AcDbVertex
100
AcDb2dVertex
 10
122.960968
 20
-298.659668
 30
0.0
  0
SEQEND
  5
25F
100
AcDbEntity
  8
0
370
     0
390
0
  0
POLYLINE
  5
260
100
AcDbEntity
  8
0
370
    13
390
0
 62
     7
100
AcDb2dPolyline
 66
     1
 10
0.0
 20
0.0
 30
0.0
 70
     1
 71
    10
  0
VERTEX
  5
261
100
AcDbEntity
  8
0
370
     0
390
0
100
AcDbVertex
100
AcDb2dVertex
 10
143.249146
 20
-285.230255
 30
0.0
  0
VERTEX
  5
262
100
AcDbEntity
  8
0
370
     0
390
0
100
AcDbVertex
100
AcDb2dVertex
 10
143.249146
 20
-301.656769
 30
0.0
  0
VERTEX
  5
263
100
AcDbEntity
  8
0
370
     0
390
0
100
AcDbVertex
100
AcDb2dVertex
 10
138.03299
 20
-301.656769
 30
0.0
  0
VERTEX
  5
264
100
AcDbEntity
  8
0
370
     0
390
0
100
AcDbVertex
100
AcDb2dVertex
 10
138.03299
 20
-303.789337
 30
0.0
  0
VERTEX
  5
265
100
AcDbEntity
  8
0
370
     0
390
0
100
AcDbVertex
100
AcDb2dVertex
 10
150.972473
 20
-303.789337
 30
0.0
  0
VERTEX
  5
266
100
AcDbEntity
  8
0
370
     0
390
0
100
AcDbVertex
100
AcDb2dVertex
 10
150.972473
 20
-301.656769
 30
0.0
  0
VERTEX
  5
267
100
AcDbEntity
  8
0
370
     0
390
0
100
AcDbVertex
100
AcDb2dVertex
 10
145.785156
 20
-301.656769
 30
0.0
  0
VERTEX
  5
268
100
AcDbEntity
  8
0
370
     0
390
0
100
AcDbVertex
100
AcDb2dVertex
 10
145.785156
 20
-283.097687
 30
0.0
  0
VERTEX
  5
269
100
AcDbEntity
  8
0
370
     0
390
0
100
AcDbVertex
100
AcDb2dVertex
 10
139.272186
 20
-283.097687
 30
0.0
  0
VERTEX
  5
26A
100
AcDbEntity
  8
0
370
     0
390
0
100
AcDbVertex
100
AcDb2dVertex
 10
139.272186
 20
-285.230255
 30
0.0
  0
SEQEND
  5
26B
100
AcDbEntity
  8
0
370
     0
390
0
  0
POLYLINE
  5
26C
100
AcDbEntity
  8
0
370
    13
390
0
 62
     7
100
AcDb2dPolyline
 66
     1
 10
0.0
 20
0.0
 30
0.0
 70
     1
 71
    19
  0
VERTEX
  5
26D
100
AcDbEntity
  8
0
370
     0
390
0
100
AcDbVertex
100
AcDb2dVertex
 10
165.064697
 20
-301.3974
 30
0.0
  0
VERTEX
  5
26E
100
AcDbEntity
  8
0
370
     0
390
0
100
AcDbVertex
100
AcDb2dVertex
 10
165.064697
 20
-303.789337
 30
0.0
  0
VERTEX
  5
26F
100
AcDbEntity
  8
0
370
     0
390
0
100
AcDbVertex
100
AcDb2dVertex
 10
167.600708
 20
-303.789337
 30
0.0
  0
VERTEX
  5
270
100
AcDbEntity
  8
0
370
     0
390
0
100
AcDbVertex
100
AcDb2dVertex
 10
167.600708
 20
-283.097687
 30
0.0
  0
VERTEX
  5
271
100
AcDbEntity
  8
0
370
     0
390
0
100
AcDbVertex
100
AcDb2dVertex
 10
165.093506
 20
-283.097687
 30
0.0
  0
VERTEX
  5
272
100
AcDbEntity
  8
0
370
     0
390
0
100
AcDbVertex
100
AcDb2dVertex
 10
165.093506
 20
-290.676941
 30
0.0
  0
VERTEX
  5
273
100
AcDbEntity
  8
0
370
     0
390
0
100
AcDbVertex
100
AcDb2dVertex
 10
163.162689
 20
-288.486755
 30
0.0
  0
VERTEX
  5
274
100
AcDbEntity
  8
0
370
     0
390
0
100
AcDbVertex
100
AcDb2dVertex
 10
161.98111
 20
-287.968018
 30
0.0
  0
VERTEX
  5
275
100
AcDbEntity
  8
0
370
     0
390
0
100
AcDbVertex
100
AcDb2dVertex
 10
160.626648
 20
-287.766296
 30
0.0
  0
VERTEX
  5
276
100
AcDbEntity
  8
0
370
     0
390
0
100
AcDbVertex
100
AcDb2dVertex
 10
158.177094
 20
-288.342651
 30
0.0
  0
VERTEX
  5
277
100
AcDbEntity
  8
0
370
     0
390
0
100
AcDbVertex
100
AcDb2dVertex
 10
156.275055
 20
-289.956482
 30
0.0
  0
VERTEX
  5
278
100
AcDbEntity
  8
0
370
     0
390
0
100
AcDbVertex
100
AcDb2dVertex
 10
155.035889
 20
-292.55014
 30
0.0
  0
VERTEX
  5
279
100
AcDbEntity
  8
0
370
     0
390
0
100
AcDbVertex
100
AcDb2dVertex
 10
154.603607
 20
-296.03717
 30
0.0
  0
VERTEX
  5
27A
100
AcDbEntity
  8
0
370
     0
390
0
100
AcDbVertex
100
AcDb2dVertex
 10
155.035889
 20
-299.5242
 30
0.0
  0
VERTEX
  5
27B
100
AcDbEntity
  8
0
370
     0
390
0
100
AcDbVertex
100
AcDb2dVertex
 10
156.275055
 20
-302.146698
 30
0.0
  0
VERTEX
  5
27C
100
AcDbEntity
  8
0
370
     0
390
0
100
AcDbVertex
100
AcDb2dVertex
 10
158.177094
 20
-303.789337
 30
0.0
  0
VERTEX
  5
27D
100
AcDbEntity
  8
0
370
     0
390
0
100
AcDbVertex
100
AcDb2dVertex
 10
160.626648
 20
-304.336884
 30
0.0
  0
VERTEX
  5
27E
100
AcDbEntity
  8
0
370
     0
390
0
100
AcDbVertex
100
AcDb2dVertex
 10
161.98111
 20
-304.135162
 30
0.0
  0
VERTEX
  5
27F
100
AcDbEntity
  8
0
370
     0
390
0
100
AcDbVertex
100
AcDb2dVertex
 10
163.191498
 20
-303.616425
 30
0.0
  0
SEQEND
  5
280
100
AcDbEntity
  8
0
370
     0
390
0
  0
POLYLINE
  5
281
100
AcDbEntity
  8
0
370
    13
390
0
 62
     7
100
AcDb2dPolyline
 66
     1
 10
0.0
 20
0.0
 30
0.0
 70
     1
 71
    16
  0
VERTEX
  5
282
100
AcDbEntity
  8
0
370
     0
390
0
100
AcDbVertex
100
AcDb2dVertex
 10
161.058929
 20
-290.042938
 30
0.0
  0
VERTEX
  5
283
100
AcDbEntity
  8
0
370
     0
390
0
100
AcDbVertex
100
AcDb2dVertex
 10
162.730408
 20
-290.446411
 30
0.0
  0
VERTEX
  5
284
100
AcDbEntity
  8
0
370
     0
390
0
100
AcDbVertex
100
AcDb2dVertex
 10
163.998413
 20
-291.570313
 30
0.0
  0
VERTEX
  5
285
100
AcDbEntity
  8
0
370
     0
390
0
100
AcDbVertex
100
AcDb2dVertex
 10
164.747681
 20
-293.443512
 30
0.0
  0
VERTEX
  5
286
100
AcDbEntity
  8
0
370
     0
390
0
100
AcDbVertex
100
AcDb2dVertex
 10
165.035889
 20
-296.03717
 30
0.0
  0
VERTEX
  5
287
100
AcDbEntity
  8
0
370
     0
390
0
100
AcDbVertex
100
AcDb2dVertex
 10
164.747681
 20
-298.659668
 30
0.0
  0
VERTEX
  5
288
100
AcDbEntity
  8
0
370
     0
390
0
100
AcDbVertex
100
AcDb2dVertex
 10
163.998413
 20
-300.532867
 30
0.0
  0
VERTEX
  5
289
100
AcDbEntity
  8
0
370
     0
390
0
100
AcDbVertex
100
AcDb2dVertex
 10
162.730408
 20
-301.685577
 30
0.0
  0
VERTEX
  5
28A
100
AcDbEntity
  8
0
370
     0
390
0
100
AcDbVertex
100
AcDb2dVertex
 10
161.058929
 20
-302.060242
 30
0.0
  0
VERTEX
  5
28B
100
AcDbEntity
  8
0
370
     0
390
0
100
AcDbVertex
100
AcDb2dVertex
 10
159.473907
 20
-301.685577
 30
0.0
  0
VERTEX
  5
28C
100
AcDbEntity
  8
0
370
     0
390
0
100
AcDbVertex
100
AcDb2dVertex
 10
158.26355
 20
-300.532867
 30
0.0
  0
VERTEX
  5
28D
100
AcDbEntity
  8
0
370
     0
390
0
100
AcDbVertex
100
AcDb2dVertex
 10
157.456635
 20
-298.630829
 30
0.0
  0
VERTEX
  5
28E
100
AcDbEntity
  8
0
370
     0
390
0
100
AcDbVertex
100
AcDb2dVertex
 10
157.197266
 20
-296.03717
 30
0.0
  0
VERTEX
  5
28F
100
AcDbEntity
  8
0
370
     0
390
0
100
AcDbVertex
100
AcDb2dVertex
 10
157.456635
 20
-293.472321
 30
0.0
  0
VERTEX
  5
290
100
AcDbEntity
  8
0
370
     0
390
0
100
AcDbVertex
100
AcDb2dVertex
 10
158.26355
 20
-291.599121
 30
0.0
  0
VERTEX
  5
291
100
AcDbEntity
  8
0
370
     0
390
0
100
AcDbVertex
100
AcDb2dVertex
 10
159.473907
 20
-290.446411
 30
0.0
  0
SEQEND
  5
292
100
AcDbEntity
  8
0
370
     0
390
0
  0
POLYLINE
  5
293
100
AcDbEntity
  8
0
370
    13
390
0
 62
     7
100
AcDb2dPolyline
 66
     1
 10
0.0
 20
0.0
 30
0.0
 70
     1
 71
    35
  0
VERTEX
  5
294
100
AcDbEntity
  8
0
370
     0
390
0
100
AcDbVertex
100
AcDb2dVertex
 10
189.070435
 20
-298.573212
 30
0.0
  0
VERTEX
  5
295
100
AcDbEntity
  8
0
370
     0
390
0
100
AcDbVertex
100
AcDb2dVertex
 10
189.704437
 20
-300.93631
 30
0.0
  0
VERTEX
  5
296
100
AcDbEntity
  8
0
370
     0
390
0
100
AcDbVertex
100
AcDb2dVertex
 10
191.116547
 20
-302.780701
 30
0.0
  0
VERTEX
  5
297
100
AcDbEntity
  8
0
370
     0
390
0
100
AcDbVertex
100
AcDb2dVertex
 10
193.191467
 20
-303.933441
 30
0.0
  0
VERTEX
  5
298
100
AcDbEntity
  8
0
370
     0
390
0
100
AcDbVertex
100
AcDb2dVertex
 10
195.842773
 20
-304.365692
 30
0.0
  0
VERTEX
  5
299
100
AcDbEntity
  8
0
370
     0
390
0
100
AcDbVertex
100
AcDb2dVertex
 10
198.753448
 20
-303.846985
 30
0.0
  0
VERTEX
  5
29A
100
AcDbEntity
  8
0
370
     0
390
0
100
AcDbVertex
100
AcDb2dVertex
 10
201.03009
 20
-302.434875
 30
0.0
  0
VERTEX
  5
29B
100
AcDbEntity
  8
0
370
     0
390
0
100
AcDbVertex
100
AcDb2dVertex
 10
202.471008
 20
-300.187042
 30
0.0
  0
VERTEX
  5
29C
100
AcDbEntity
  8
0
370
     0
390
0
100
AcDbVertex
100
AcDb2dVertex
 10
203.018555
 20
-297.305176
 30
0.0
  0
VERTEX
  5
29D
100
AcDbEntity
  8
0
370
     0
390
0
100
AcDbVertex
100
AcDb2dVertex
 10
202.528656
 20
-294.625061
 30
0.0
  0
VERTEX
  5
29E
100
AcDbEntity
  8
0
370
     0
390
0
100
AcDbVertex
100
AcDb2dVertex
 10
201.145355
 20
-292.521332
 30
0.0
  0
VERTEX
  5
29F
100
AcDbEntity
  8
0
370
     0
390
0
100
AcDbVertex
100
AcDb2dVertex
 10
198.983978
 20
-291.16687
 30
0.0
  0
VERTEX
  5
2A0
100
AcDbEntity
  8
0
370
     0
390
0
100
AcDbVertex
100
AcDb2dVertex
 10
196.188599
 20
-290.676941
 30
0.0
  0
VERTEX
  5
2A1
100
AcDbEntity
  8
0
370
     0
390
0
100
AcDbVertex
100
AcDb2dVertex
 10
194.027222
 20
-291.022766
 30
0.0
  0
VERTEX
  5
2A2
100
AcDbEntity
  8
0
370
     0
390
0
100
AcDbVertex
100
AcDb2dVertex
 10
192.355743
 20
-291.973785
 30
0.0
  0
VERTEX
  5
2A3
100
AcDbEntity
  8
0
370
     0
390
0
100
AcDbVertex
100
AcDb2dVertex
 10
193.162659
 20
-286.584717
 30
0.0
  0
VERTEX
  5
2A4
100
AcDbEntity
  8
0
370
     0
390
0
100
AcDbVertex
100
AcDb2dVertex
 10
201.923462
 20
-286.584717
 30
0.0
  0
VERTEX
  5
2A5
100
AcDbEntity
  8
0
370
     0
390
0
100
AcDbVertex
100
AcDb2dVertex
 10
201.923462
 20
-284.221619
 30
0.0
  0
VERTEX
  5
2A6
100
AcDbEntity
  8
0
370
     0
390
0
100
AcDbVertex
100
AcDb2dVertex
 10
191.231812
 20
-284.221619
 30
0.0
  0
VERTEX
  5
2A7
100
AcDbEntity
  8
0
370
     0
390
0
100
AcDbVertex
100
AcDb2dVertex
 10
189.64682
 20
-294.826813
 30
0.0
  0
VERTEX
  5
2A8
100
AcDbEntity
  8
0
370
     0
390
0
100
AcDbVertex
100
AcDb2dVertex
 10
191.952271
 20
-294.826813
 30
0.0
  0
VERTEX
  5
2A9
100
AcDbEntity
  8
0
370
     0
390
0
100
AcDbVertex
100
AcDb2dVertex
 10
193.623749
 20
-293.472321
 30
0.0
  0
VERTEX
  5
2AA
100
AcDbEntity
  8
0
370
     0
390
0
100
AcDbVertex
100
AcDb2dVertex
 10
195.756317
 20
-292.982422
 30
0.0
  0
VERTEX
  5
2AB
100
AcDbEntity
  8
0
370
     0
390
0
100
AcDbVertex
100
AcDb2dVertex
 10
197.600708
 20
-293.299438
 30
0.0
  0
VERTEX
  5
2AC
100
AcDbEntity
  8
0
370
     0
390
0
100
AcDbVertex
100
AcDb2dVertex
 10
199.012787
 20
-294.221619
 30
0.0
  0
VERTEX
  5
2AD
100
AcDbEntity
  8
0
370
     0
390
0
100
AcDbVertex
100
AcDb2dVertex
 10
199.906158
 20
-295.633728
 30
0.0
  0
VERTEX
  5
2AE
100
AcDbEntity
  8
0
370
     0
390
0
100
AcDbVertex
100
AcDb2dVertex
 10
200.223175
 20
-297.44928
 30
0.0
  0
VERTEX
  5
2AF
100
AcDbEntity
  8
0
370
     0
390
0
100
AcDbVertex
100
AcDb2dVertex
 10
199.906158
 20
-299.264832
 30
0.0
  0
VERTEX
  5
2B0
100
AcDbEntity
  8
0
370
     0
390
0
100
AcDbVertex
100
AcDb2dVertex
 10
198.983978
 20
-300.676941
 30
0.0
  0
VERTEX
  5
2B1
100
AcDbEntity
  8
0
370
     0
390
0
100
AcDbVertex
100
AcDb2dVertex
 10
197.571869
 20
-301.570313
 30
0.0
  0
VERTEX
  5
2B2
100
AcDbEntity
  8
0
370
     0
390
0
100
AcDbVertex
100
AcDb2dVertex
 10
195.756317
 20
-301.887329
 30
0.0
  0
VERTEX
  5
2B3
100
AcDbEntity
  8
0
370
     0
390
0
100
AcDbVertex
100
AcDb2dVertex
 10
194.228943
 20
-301.685577
 30
0.0
  0
VERTEX
  5
2B4
100
AcDbEntity
  8
0
370
     0
390
0
100
AcDbVertex
100
AcDb2dVertex
 10
193.047394
 20
-301.022766
 30
0.0
  0
VERTEX
  5
2B5
100
AcDbEntity
  8
0
370
     0
390
0
100
AcDbVertex
100
AcDb2dVertex
 10
192.182831
 20
-299.985291
 30
0.0
  0
VERTEX
  5
2B6
100
AcDbEntity
  8
0
370
     0
390
0
100
AcDbVertex
100
AcDb2dVertex
 10
191.750549
 20
-298.573212
 30
0.0
  0
SEQEND
  5
2B7
100
AcDbEntity
  8
0
370
     0
390
0
  0
POLYLINE
  5
2B8
100
AcDbEntity
  8
0
370
    13
390
0
 62
     7
100
AcDb2dPolyline
 66
     1
 10
0.0
 20
0.0
 30
0.0
 70
     1
 71
     8
  0
VERTEX
  5
2B9
100
AcDbEntity
  8
0
370
     0
390
0
100
AcDbVertex
100
AcDb2dVertex
 10
204.805298
 20
-303.789337
 30
0.0
  0
VERTEX
  5
2BA
100
AcDbEntity
  8
0
370
     0
390
0
100
AcDbVertex
100
AcDb2dVertex
 10
207.456604
 20
-303.789337
 30
0.0
  0
VERTEX
  5
2BB
100
AcDbEntity
  8
0
370
     0
390
0
100
AcDbVertex
100
AcDb2dVertex
 10
209.560333
 20
-297.91037
 30
0.0
  0
VERTEX
  5
2BC
100
AcDbEntity
  8
0
370
     0
390
0
100
AcDbVertex
100
AcDb2dVertex
 10
217.54306
 20
-297.91037
 30
0.0
  0
VERTEX
  5
2BD
100
AcDbEntity
  8
0
370
     0
390
0
100
AcDbVertex
100
AcDb2dVertex
 10
219.64679
 20
-303.789337
 30
0.0
  0
VERTEX
  5
2BE
100
AcDbEntity
  8
0
370
     0
390
0
100
AcDbVertex
100
AcDb2dVertex
 10
222.355743
 20
-303.789337
 30
0.0
  0
VERTEX
  5
2BF
100
AcDbEntity
  8
0
370
     0
390
0
100
AcDbVertex
100
AcDb2dVertex
 10
215.035858
 20
-283.760529
 30
0.0
  0
VERTEX
  5
2C0
100
AcDbEntity
  8
0
370
     0
390
0
100
AcDbVertex
100
AcDb2dVertex
 10
212.096375
 20
-283.760529
 30
0.0
  0
SEQEND
  5
2C1
100
AcDbEntity
  8
0
370
     0
390
0
  0
POLYLINE
  5
2C2
100
AcDbEntity
  8
0
370
    13
390
0
 62
     7
100
AcDb2dPolyline
 66
     1
 10
0.0
 20
0.0
 30
0.0
 70
     1
 71
     3
  0
VERTEX
  5
2C3
100
AcDbEntity
  8
0
370
     0
390
0
100
AcDbVertex
100
AcDb2dVertex
 10
210.482544
 20
-295.460815
 30
0.0
  0
VERTEX
  5
2C4
100
AcDbEntity
  8
0
370
     0
390
0
100
AcDbVertex
100
AcDb2dVertex
 10
213.566101
 20
-286.642365
 30
0.0
  0
VERTEX
  5
2C5
100
AcDbEntity
  8
0
370
     0
390
0
100
AcDbVertex
100
AcDb2dVertex
 10
216.649689
 20
-295.460815
 30
0.0
  0
SEQEND
  5
2C6
100
AcDbEntity
  8
0
370
     0
390
0
  0
POLYLINE
  5
2C7
100
AcDbEntity
  8
0
370
    13
390
0
 62
     7
100
AcDb2dPolyline
 66
     1
 10
0.0
 20
0.0
 30
0.0
 70
     1
 71
    12
  0
VERTEX
  5
2C8
100
AcDbEntity
  8
0
370
     0
390
0
100
AcDbVertex
100
AcDb2dVertex
 10
226.793762
 20
-303.789337
 30
0.0
  0
VERTEX
  5
2C9
100
AcDbEntity
  8
0
370
     0
390
0
100
AcDbVertex
100
AcDb2dVertex
 10
230.770721
 20
-297.766296
 30
0.0
  0
VERTEX
  5
2CA
100
AcDbEntity
  8
0
370
     0
390
0
100
AcDbVertex
100
AcDb2dVertex
 10
234.862915
 20
-303.789337
 30
0.0
  0
VERTEX
  5
2CB
100
AcDbEntity
  8
0
370
     0
390
0
100
AcDbVertex
100
AcDb2dVertex
 10
237.917694
 20
-303.789337
 30
0.0
  0
VERTEX
  5
2CC
100
AcDbEntity
  8
0
370
     0
390
0
100
AcDbVertex
100
AcDb2dVertex
 10
232.384552
 20
-295.806641
 30
0.0
  0
VERTEX
  5
2CD
100
AcDbEntity
  8
0
370
     0
390
0
100
AcDbVertex
100
AcDb2dVertex
 10
237.600677
 20
-288.313843
 30
0.0
  0
VERTEX
  5
2CE
100
AcDbEntity
  8
0
370
     0
390
0
100
AcDbVertex
100
AcDb2dVertex
 10
234.661194
 20
-288.313843
 30
0.0
  0
VERTEX
  5
2CF
100
AcDbEntity
  8
0
370
     0
390
0
100
AcDbVertex
100
AcDb2dVertex
 10
230.885986
 20
-293.933441
 30
0.0
  0
VERTEX
  5
2D0
100
AcDbEntity
  8
0
370
     0
390
0
100
AcDbVertex
100
AcDb2dVertex
 10
227.110779
 20
-288.313843
 30
0.0
  0
VERTEX
  5
2D1
100
AcDbEntity
  8
0
370
     0
390
0
100
AcDbVertex
100
AcDb2dVertex
 10
224.113647
 20
-288.313843
 30
0.0
  0
VERTEX
  5
2D2
100
AcDbEntity
  8
0
370
     0
390
0
100
AcDbVertex
100
AcDb2dVertex
 10
229.243317
 20
-295.835449
 30
0.0
  0
VERTEX
  5
2D3
100
AcDbEntity
  8
0
370
     0
390
0
100
AcDbVertex
100
AcDb2dVertex
 10
223.82547
 20
-303.789337
 30
0.0
  0
SEQEND
  5
2D4
100
AcDbEntity
  8
0
370
     0
390
0
  0
POLYLINE
  5
2D5
100
AcDbEntity
  8
0
370
    13
390
0
 62
     7
100
AcDb2dPolyline
 66
     1
 10
0.0
 20
0.0
 30
0.0
 70
     1
 71
    10
  0
VERTEX
  5
2D6
100
AcDbEntity
  8
0
370
     0
390
0
100
AcDbVertex
100
AcDb2dVertex
 10
250.050232
 20
-301.656769
 30
0.0
  0
VERTEX
  5
2D7
100
AcDbEntity
  8
0
370
     0
390
0
100
AcDbVertex
100
AcDb2dVertex
 10
250.050232
 20
-288.832581
 30
0.0
  0
VERTEX
  5
2D8
100
AcDbEntity
  8
0
370
     0
390
0
100
AcDbVertex
100
AcDb2dVertex
 10
243.537262
 20
-288.832581
 30
0.0
  0
VERTEX
  5
2D9
100
AcDbEntity
  8
0
370
     0
390
0
100
AcDbVertex
100
AcDb2dVertex
 10
243.537262
 20
-290.993958
 30
0.0
  0
VERTEX
  5
2DA
100
AcDbEntity
  8
0
370
     0
390
0
100
AcDbVertex
100
AcDb2dVertex
 10
247.514221
 20
-290.993958
 30
0.0
  0
VERTEX
  5
2DB
100
AcDbEntity
  8
0
370
     0
390
0
100
AcDbVertex
100
AcDb2dVertex
 10
247.514221
 20
-301.656769
 30
0.0
  0
VERTEX
  5
2DC
100
AcDbEntity
  8
0
370
     0
390
0
100
AcDbVertex
100
AcDb2dVertex
 10
242.326904
 20
-301.656769
 30
0.0
  0
VERTEX
  5
2DD
100
AcDbEntity
  8
0
370
     0
390
0
100
AcDbVertex
100
AcDb2dVertex
 10
242.326904
 20
-303.789337
 30
0.0
  0
VERTEX
  5
2DE
100
AcDbEntity
  8
0
370
     0
390
0
100
AcDbVertex
100
AcDb2dVertex
 10
255.295197
 20
-303.789337
 30
0.0
  0
VERTEX
  5
2DF
100
AcDbEntity
  8
0
370
     0
390
0
100
AcDbVertex
100
AcDb2dVertex
 10
255.295197
 20
-301.656769
 30
0.0
  0
SEQEND
  5
2E0
100
AcDbEntity
  8
0
370
     0
390
0
  0
POLYLINE
  5
2E1
100
AcDbEntity
  8
0
370
    13
390
0
 62
     7
100
AcDb2dPolyline
 66
     1
 10
0.0
 20
0.0
 30
0.0
 70
     1
 71
     4
  0
VERTEX
  5
2E2
100
AcDbEntity
  8
0
370
     0
390
0
100
AcDbVertex
100
AcDb2dVertex
 10
250.136688
 20
-283.097687
 30
0.0
  0
VERTEX
  5
2E3
100
AcDbEntity
  8
0
370
     0
390
0
100
AcDbVertex
100
AcDb2dVertex
 10
247.456573
 20
-283.097687
 30
0.0
  0
VERTEX
  5
2E4
100
AcDbEntity
  8
0
370
     0
390
0
100
AcDbVertex
100
AcDb2dVertex
 10
247.456573
 20
-285.979553
 30
0.0
  0
VERTEX
  5
2E5
100
AcDbEntity
  8
0
370
     0
390
0
100
AcDbVertex
100
AcDb2dVertex
 10
250.136688
 20
-285.979553
 30
0.0
  0
SEQEND
  5
2E6
100
AcDbEntity
  8
0
370
     0
390
0
  0
POLYLINE
  5
2E7
100
AcDbEntity
  8
0
370
    13
390
0
 62
     7
100
AcDb2dPolyline
 66
     1
 10
0.0
 20
0.0
 30
0.0
 70
     1
 71
    50
  0
VERTEX
  5
2E8
100
AcDbEntity
  8
0
370
     0
390
0
100
AcDbVertex
100
AcDb2dVertex
 10
267.226013
 20
-294.769165
 30
0.0
  0
VERTEX
  5
2E9
100
AcDbEntity
  8
0
370
     0
390
0
100
AcDbVertex
100
AcDb2dVertex
 10
264.776459
 20
-294.19281
 30
0.0
  0
VERTEX
  5
2EA
100
AcDbEntity
  8
0
370
     0
390
0
100
AcDbVertex
100
AcDb2dVertex
 10
262.960876
 20
-293.529968
 30
0.0
  0
VERTEX
  5
2EB
100
AcDbEntity
  8
0
370
     0
390
0
100
AcDbVertex
100
AcDb2dVertex
 10
262.355713
 20
-292.175507
 30
0.0
  0
VERTEX
  5
2EC
100
AcDbEntity
  8
0
370
     0
390
0
100
AcDbVertex
100
AcDb2dVertex
 10
262.528625
 20
-291.224487
 30
0.0
  0
VERTEX
  5
2ED
100
AcDbEntity
  8
0
370
     0
390
0
100
AcDbVertex
100
AcDb2dVertex
 10
263.133789
 20
-290.532867
 30
0.0
  0
VERTEX
  5
2EE
100
AcDbEntity
  8
0
370
     0
390
0
100
AcDbVertex
100
AcDb2dVertex
 10
264.113617
 20
-290.100586
 30
0.0
  0
VERTEX
  5
2EF
100
AcDbEntity
  8
0
370
     0
390
0
100
AcDbVertex
100
AcDb2dVertex
 10
265.525726
 20
-289.927673
 30
0.0
  0
VERTEX
  5
2F0
100
AcDbEntity
  8
0
370
     0
390
0
100
AcDbVertex
100
AcDb2dVertex
 10
266.880188
 20
-290.100586
 30
0.0
  0
VERTEX
  5
2F1
100
AcDbEntity
  8
0
370
     0
390
0
100
AcDbVertex
100
AcDb2dVertex
 10
267.946472
 20
-290.619324
 30
0.0
  0
VERTEX
  5
2F2
100
AcDbEntity
  8
0
370
     0
390
0
100
AcDbVertex
100
AcDb2dVertex
 10
268.638123
 20
-291.3974
 30
0.0
  0
VERTEX
  5
2F3
100
AcDbEntity
  8
0
370
     0
390
0
100
AcDbVertex
100
AcDb2dVertex
 10
268.9263
 20
-292.434875
 30
0.0
  0
VERTEX
  5
2F4
100
AcDbEntity
  8
0
370
     0
390
0
100
AcDbVertex
100
AcDb2dVertex
 10
271.404694
 20
-292.434875
 30
0.0
  0
VERTEX
  5
2F5
100
AcDbEntity
  8
0
370
     0
390
0
100
AcDbVertex
100
AcDb2dVertex
 10
271.404694
 20
-292.377228
 30
0.0
  0
VERTEX
  5
2F6
100
AcDbEntity
  8
0
370
     0
390
0
100
AcDbVertex
100
AcDb2dVertex
 10
270.972412
 20
-290.504028
 30
0.0
  0
VERTEX
  5
2F7
100
AcDbEntity
  8
0
370
     0
390
0
100
AcDbVertex
100
AcDb2dVertex
 10
269.790863
 20
-289.034302
 30
0.0
  0
VERTEX
  5
2F8
100
AcDbEntity
  8
0
370
     0
390
0
100
AcDbVertex
100
AcDb2dVertex
 10
267.946472
 20
-288.112091
 30
0.0
  0
VERTEX
  5
2F9
100
AcDbEntity
  8
0
370
     0
390
0
100
AcDbVertex
100
AcDb2dVertex
 10
265.525726
 20
-287.766296
 30
0.0
  0
VERTEX
  5
2FA
100
AcDbEntity
  8
0
370
     0
390
0
100
AcDbVertex
100
AcDb2dVertex
 10
263.076172
 20
-288.112091
 30
0.0
  0
VERTEX
  5
2FB
100
AcDbEntity
  8
0
370
     0
390
0
100
AcDbVertex
100
AcDb2dVertex
 10
261.289429
 20
-289.06311
 30
0.0
  0
VERTEX
  5
2FC
100
AcDbEntity
  8
0
370
     0
390
0
100
AcDbVertex
100
AcDb2dVertex
 10
260.165497
 20
-290.47522
 30
0.0
  0
VERTEX
  5
2FD
100
AcDbEntity
  8
0
370
     0
390
0
100
AcDbVertex
100
AcDb2dVertex
 10
259.819672
 20
-292.261963
 30
0.0
  0
VERTEX
  5
2FE
100
AcDbEntity
  8
0
370
     0
390
0
100
AcDbVertex
100
AcDb2dVertex
 10
260.079041
 20
-293.991058
 30
0.0
  0
VERTEX
  5
2FF
100
AcDbEntity
  8
0
370
     0
390
0
100
AcDbVertex
100
AcDb2dVertex
 10
260.885956
 20
-295.201447
 30
0.0
  0
VERTEX
  5
300
100
AcDbEntity
  8
0
370
     0
390
0
100
AcDbVertex
100
AcDb2dVertex
 10
262.211609
 20
-296.065979
 30
0.0
  0
VERTEX
  5
301
100
AcDbEntity
  8
0
370
     0
390
0
100
AcDbVertex
100
AcDb2dVertex
 10
264.142456
 20
-296.671173
 30
0.0
  0
VERTEX
  5
302
100
AcDbEntity
  8
0
370
     0
390
0
100
AcDbVertex
100
AcDb2dVertex
 10
266.966644
 20
-297.362823
 30
0.0
  0
VERTEX
  5
303
100
AcDbEntity
  8
0
370
     0
390
0
100
AcDbVertex
100
AcDb2dVertex
 10
268.69577
 20
-298.083282
 30
0.0
  0
VERTEX
  5
304
100
AcDbEntity
  8
0
370
     0
390
0
100
AcDbVertex
100
AcDb2dVertex
 10
269.15686
 20
-298.659668
 30
0.0
  0
VERTEX
  5
305
100
AcDbEntity
  8
0
370
     0
390
0
100
AcDbVertex
100
AcDb2dVertex
 10
269.329773
 20
-299.5242
 30
0.0
  0
VERTEX
  5
306
100
AcDbEntity
  8
0
370
     0
390
0
100
AcDbVertex
100
AcDb2dVertex
 10
269.070404
 20
-300.590485
 30
0.0
  0
VERTEX
  5
307
100
AcDbEntity
  8
0
370
     0
390
0
100
AcDbVertex
100
AcDb2dVertex
 10
268.378754
 20
-301.3974
 30
0.0
  0
VERTEX
  5
308
100
AcDbEntity
  8
0
370
     0
390
0
100
AcDbVertex
100
AcDb2dVertex
 10
267.254852
 20
-301.916138
 30
0.0
  0
VERTEX
  5
309
100
AcDbEntity
  8
0
370
     0
390
0
100
AcDbVertex
100
AcDb2dVertex
 10
265.756287
 20
-302.08905
 30
0.0
  0
VERTEX
  5
30A
100
AcDbEntity
  8
0
370
     0
390
0
100
AcDbVertex
100
AcDb2dVertex
 10
264.171265
 20
-301.916138
 30
0.0
  0
VERTEX
  5
30B
100
AcDbEntity
  8
0
370
     0
390
0
100
AcDbVertex
100
AcDb2dVertex
 10
263.018524
 20
-301.310944
 30
0.0
  0
VERTEX
  5
30C
100
AcDbEntity
  8
0
370
     0
390
0
100
AcDbVertex
100
AcDb2dVertex
 10
262.240417
 20
-300.331116
 30
0.0
  0
VERTEX
  5
30D
100
AcDbEntity
  8
0
370
     0
390
0
100
AcDbVertex
100
AcDb2dVertex
 10
261.923431
 20
-298.976654
 30
0.0
  0
VERTEX
  5
30E
100
AcDbEntity
  8
0
370
     0
390
0
100
AcDbVertex
100
AcDb2dVertex
 10
259.473846
 20
-298.976654
 30
0.0
  0
VERTEX
  5
30F
100
AcDbEntity
  8
0
370
     0
390
0
100
AcDbVertex
100
AcDb2dVertex
 10
259.877319
 20
-301.282135
 30
0.0
  0
VERTEX
  5
310
100
AcDbEntity
  8
0
370
     0
390
0
100
AcDbVertex
100
AcDb2dVertex
 10
261.058868
 20
-302.953613
 30
0.0
  0
VERTEX
  5
311
100
AcDbEntity
  8
0
370
     0
390
0
100
AcDbVertex
100
AcDb2dVertex
 10
262.932068
 20
-303.96225
 30
0.0
  0
VERTEX
  5
312
100
AcDbEntity
  8
0
370
     0
390
0
100
AcDbVertex
100
AcDb2dVertex
 10
265.525726
 20
-304.336884
 30
0.0
  0
VERTEX
  5
313
100
AcDbEntity
  8
0
370
     0
390
0
100
AcDbVertex
100
AcDb2dVertex
 10
268.23468
 20
-303.96225
 30
0.0
  0
VERTEX
  5
314
100
AcDbEntity
  8
0
370
     0
390
0
100
AcDbVertex
100
AcDb2dVertex
 10
270.223145
 20
-302.953613
 30
0.0
  0
VERTEX
  5
315
100
AcDbEntity
  8
0
370
     0
390
0
100
AcDbVertex
100
AcDb2dVertex
 10
271.433502
 20
-301.339783
 30
0.0
  0
VERTEX
  5
316
100
AcDbEntity
  8
0
370
     0
390
0
100
AcDbVertex
100
AcDb2dVertex
 10
271.865784
 20
-299.236023
 30
0.0
  0
VERTEX
  5
317
100
AcDbEntity
  8
0
370
     0
390
0
100
AcDbVertex
100
AcDb2dVertex
 10
271.548798
 20
-297.420471
 30
0.0
  0
VERTEX
  5
318
100
AcDbEntity
  8
0
370
     0
390
0
100
AcDbVertex
100
AcDb2dVertex
 10
270.655426
 20
-296.181274
 30
0.0
  0
VERTEX
  5
319
100
AcDbEntity
  8
0
370
     0
390
0
100
AcDbVertex
100
AcDb2dVertex
 10
269.185669
 20
-295.374359
 30
0.0
  0
SEQEND
  5
31A
100
AcDbEntity
  8
0
370
     0
390
0
  0
POLYLINE
  5
31B
100
AcDbEntity
  8
0
370
    13
390
0
 62
     7
100
AcDb2dPolyline
 66
     1
 10
0.0
 20
0.0
 30
0.0
 70
     1
 71
     8
  0
VERTEX
  5
31C
100
AcDbEntity
  8
0
370
     0
390
0
100
AcDbVertex
100
AcDb2dVertex
 10
298.983917
 20
-303.789337
 30
0.0
  0
VERTEX
  5
31D
100
AcDbEntity
  8
0
370
     0
390
0
100
AcDbVertex
100
AcDb2dVertex
 10
301.635223
 20
-303.789337
 30
0.0
  0
VERTEX
  5
31E
100
AcDbEntity
  8
0
370
     0
390
0
100
AcDbVertex
100
AcDb2dVertex
 10
301.635223
 20
-286.210083
 30
0.0
  0
VERTEX
  5
31F
100
AcDbEntity
  8
0
370
     0
390
0
100
AcDbVertex
100
AcDb2dVertex
 10
307.687103
 20
-286.210083
 30
0.0
  0
VERTEX
  5
320
100
AcDbEntity
  8
0
370
     0
390
0
100
AcDbVertex
100
AcDb2dVertex
 10
307.687103
 20
-283.789337
 30
0.0
  0
VERTEX
  5
321
100
AcDbEntity
  8
0
370
     0
390
0
100
AcDbVertex
100
AcDb2dVertex
 10
292.903229
 20
-283.789337
 30
0.0
  0
VERTEX
  5
322
100
AcDbEntity
  8
0
370
     0
390
0
100
AcDbVertex
100
AcDb2dVertex
 10
292.903229
 20
-286.210083
 30
0.0
  0
VERTEX
  5
323
100
AcDbEntity
  8
0
370
     0
390
0
100
AcDbVertex
100
AcDb2dVertex
 10
298.983917
 20
-286.210083
 30
0.0
  0
SEQEND
  5
324
100
AcDbEntity
  8
0
370
     0
390
0
  0
POLYLINE
  5
325
100
AcDbEntity
  8
0
370
    13
390
0
 62
     7
100
AcDb2dPolyline
 66
     1
 10
0.0
 20
0.0
 30
0.0
 70
     1
 71
    16
  0
VERTEX
  5
326
100
AcDbEntity
  8
0
370
     0
390
0
100
AcDbVertex
100
AcDb2dVertex
 10
310.943573
 20
-296.065979
 30
0.0
  0
VERTEX
  5
327
100
AcDbEntity
  8
0
370
     0
390
0
100
AcDbVertex
100
AcDb2dVertex
 10
311.404663
 20
-299.581848
 30
0.0
  0
VERTEX
  5
328
100
AcDbEntity
  8
0
370
     0
390
0
100
AcDbVertex
100
AcDb2dVertex
 10
312.730316
 20
-302.175507
 30
0.0
  0
VERTEX
  5
329
100
AcDbEntity
  8
0
370
     0
390
0
100
AcDbVertex
100
AcDb2dVertex
 10
314.834076
 20
-303.789337
 30
0.0
  0
VERTEX
  5
32A
100
AcDbEntity
  8
0
370
     0
390
0
100
AcDbVertex
100
AcDb2dVertex
 10
317.658264
 20
-304.336884
 30
0.0
  0
VERTEX
  5
32B
100
AcDbEntity
  8
0
370
     0
390
0
100
AcDbVertex
100
AcDb2dVertex
 10
320.453644
 20
-303.789337
 30
0.0
  0
VERTEX
  5
32C
100
AcDbEntity
  8
0
370
     0
390
0
100
AcDbVertex
100
AcDb2dVertex
 10
322.557404
 20
-302.204315
 30
0.0
  0
VERTEX
  5
32D
100
AcDbEntity
  8
0
370
     0
390
0
100
AcDbVertex
100
AcDb2dVertex
 10
323.883026
 20
-299.610657
 30
0.0
  0
VERTEX
  5
32E
100
AcDbEntity
  8
0
370
     0
390
0
100
AcDbVertex
100
AcDb2dVertex
 10
324.372955
 20
-296.065979
 30
0.0
  0
VERTEX
  5
32F
100
AcDbEntity
  8
0
370
     0
390
0
100
AcDbVertex
100
AcDb2dVertex
 10
323.883026
 20
-292.55014
 30
0.0
  0
VERTEX
  5
330
100
AcDbEntity
  8
0
370
     0
390
0
100
AcDbVertex
100
AcDb2dVertex
 10
322.557404
 20
-289.927673
 30
0.0
  0
VERTEX
  5
331
100
AcDbEntity
  8
0
370
     0
390
0
100
AcDbVertex
100
AcDb2dVertex
 10
320.453644
 20
-288.342651
 30
0.0
  0
VERTEX
  5
332
100
AcDbEntity
  8
0
370
     0
390
0
100
AcDbVertex
100
AcDb2dVertex
 10
317.658264
 20
-287.766296
 30
0.0
  0
VERTEX
  5
333
100
AcDbEntity
  8
0
370
     0
390
0
100
AcDbVertex
100
AcDb2dVertex
 10
314.834076
 20
-288.342651
 30
0.0
  0
VERTEX
  5
334
100
AcDbEntity
  8
0
370
     0
390
0
100
AcDbVertex
100
AcDb2dVertex
 10
312.730316
 20
-289.956482
 30
0.0
  0
VERTEX
  5
335
100
AcDbEntity
  8
0
370
     0
390
0
100
AcDbVertex
100
AcDb2dVertex
 10
311.404663
 20
-292.55014
 30
0.0
  0
SEQEND
  5
336
100
AcDbEntity
  8
0
370
     0
390
0
  0
POLYLINE
  5
337
100
AcDbEntity
  8
0
370
    13
390
0
 62
     7
100
AcDb2dPolyline
 66
     1
 10
0.0
 20
0.0
 30
0.0
 70
     1
 71
    16
  0
VERTEX
  5
338
100
AcDbEntity
  8
0
370
     0
390
0
100
AcDbVertex
100
AcDb2dVertex
 10
313.537231
 20
-296.03717
 30
0.0
  0
VERTEX
  5
339
100
AcDbEntity
  8
0
370
     0
390
0
100
AcDbVertex
100
AcDb2dVertex
 10
313.7966
 20
-293.443512
 30
0.0
  0
VERTEX
  5
33A
100
AcDbEntity
  8
0
370
     0
390
0
100
AcDbVertex
100
AcDb2dVertex
 10
314.603516
 20
-291.570313
 30
0.0
  0
VERTEX
  5
33B
100
AcDbEntity
  8
0
370
     0
390
0
100
AcDbVertex
100
AcDb2dVertex
 10
315.90033
 20
-290.417572
 30
0.0
  0
VERTEX
  5
33C
100
AcDbEntity
  8
0
370
     0
390
0
100
AcDbVertex
100
AcDb2dVertex
 10
317.658264
 20
-290.01413
 30
0.0
  0
VERTEX
  5
33D
100
AcDbEntity
  8
0
370
     0
390
0
100
AcDbVertex
100
AcDb2dVertex
 10
319.38736
 20
-290.417572
 30
0.0
  0
VERTEX
  5
33E
100
AcDbEntity
  8
0
370
     0
390
0
100
AcDbVertex
100
AcDb2dVertex
 10
320.684235
 20
-291.541504
 30
0.0
  0
VERTEX
  5
33F
100
AcDbEntity
  8
0
370
     0
390
0
100
AcDbVertex
100
AcDb2dVertex
 10
321.491119
 20
-293.443512
 30
0.0
  0
VERTEX
  5
340
100
AcDbEntity
  8
0
370
     0
390
0
100
AcDbVertex
100
AcDb2dVertex
 10
321.779327
 20
-296.03717
 30
0.0
  0
VERTEX
  5
341
100
AcDbEntity
  8
0
370
     0
390
0
100
AcDbVertex
100
AcDb2dVertex
 10
321.491119
 20
-298.659668
 30
0.0
  0
VERTEX
  5
342
100
AcDbEntity
  8
0
370
     0
390
0
100
AcDbVertex
100
AcDb2dVertex
 10
320.684235
 20
-300.561676
 30
0.0
  0
VERTEX
  5
343
100
AcDbEntity
  8
0
370
     0
390
0
100
AcDbVertex
100
AcDb2dVertex
 10
319.38736
 20
-301.714417
 30
0.0
  0
VERTEX
  5
344
100
AcDbEntity
  8
0
370
     0
390
0
100
AcDbVertex
100
AcDb2dVertex
 10
317.658264
 20
-302.08905
 30
0.0
  0
VERTEX
  5
345
100
AcDbEntity
  8
0
370
     0
390
0
100
AcDbVertex
100
AcDb2dVertex
 10
315.90033
 20
-301.714417
 30
0.0
  0
VERTEX
  5
346
100
AcDbEntity
  8
0
370
     0
390
0
100
AcDbVertex
100
AcDb2dVertex
 10
314.603516
 20
-300.561676
 30
0.0
  0
VERTEX
  5
347
100
AcDbEntity
  8
0
370
     0
390
0
100
AcDbVertex
100
AcDb2dVertex
 10
313.7966
 20
-298.659668
 30
0.0
  0
SEQEND
  5
348
100
AcDbEntity
  8
0
370
     0
390
0
  0
POLYLINE
  5
349
100
AcDbEntity
  8
0
370
    13
390
0
 62
     7
100
AcDb2dPolyline
 66
     1
 10
0.0
 20
0.0
 30
0.0
 70
     1
 71
    20
  0
VERTEX
  5
34A
100
AcDbEntity
  8
0
370
     0
390
0
100
AcDbVertex
100
AcDb2dVertex
 10
331.433502
 20
-290.70575
 30
0.0
  0
VERTEX
  5
34B
100
AcDbEntity
  8
0
370
     0
390
0
100
AcDbVertex
100
AcDb2dVertex
 10
331.433502
 20
-288.313843
 30
0.0
  0
VERTEX
  5
34C
100
AcDbEntity
  8
0
370
     0
390
0
100
AcDbVertex
100
AcDb2dVertex
 10
328.89743
 20
-288.313843
 30
0.0
  0
VERTEX
  5
34D
100
AcDbEntity
  8
0
370
     0
390
0
100
AcDbVertex
100
AcDb2dVertex
 10
328.89743
 20
-309.783569
 30
0.0
  0
VERTEX
  5
34E
100
AcDbEntity
  8
0
370
     0
390
0
100
AcDbVertex
100
AcDb2dVertex
 10
331.433502
 20
-309.783569
 30
0.0
  0
VERTEX
  5
34F
100
AcDbEntity
  8
0
370
     0
390
0
100
AcDbVertex
100
AcDb2dVertex
 10
331.433502
 20
-301.426239
 30
0.0
  0
VERTEX
  5
350
100
AcDbEntity
  8
0
370
     0
390
0
100
AcDbVertex
100
AcDb2dVertex
 10
332.326874
 20
-302.780701
 30
0.0
  0
VERTEX
  5
351
100
AcDbEntity
  8
0
370
     0
390
0
100
AcDbVertex
100
AcDb2dVertex
 10
333.33548
 20
-303.674072
 30
0.0
  0
VERTEX
  5
352
100
AcDbEntity
  8
0
370
     0
390
0
100
AcDbVertex
100
AcDb2dVertex
 10
335.87149
 20
-304.336884
 30
0.0
  0
VERTEX
  5
353
100
AcDbEntity
  8
0
370
     0
390
0
100
AcDbVertex
100
AcDb2dVertex
 10
338.292267
 20
-303.789337
 30
0.0
  0
VERTEX
  5
354
100
AcDbEntity
  8
0
370
     0
390
0
100
AcDbVertex
100
AcDb2dVertex
 10
340.194305
 20
-302.146698
 30
0.0
  0
VERTEX
  5
355
100
AcDbEntity
  8
0
370
     0
390
0
100
AcDbVertex
100
AcDb2dVertex
 10
341.433502
 20
-299.55304
 30
0.0
  0
VERTEX
  5
356
100
AcDbEntity
  8
0
370
     0
390
0
100
AcDbVertex
100
AcDb2dVertex
 10
341.894562
 20
-296.03717
 30
0.0
  0
VERTEX
  5
357
100
AcDbEntity
  8
0
370
     0
390
0
100
AcDbVertex
100
AcDb2dVertex
 10
341.433502
 20
-292.55014
 30
0.0
  0
VERTEX
  5
358
100
AcDbEntity
  8
0
370
     0
390
0
100
AcDbVertex
100
AcDb2dVertex
 10
340.194305
 20
-289.956482
 30
0.0
  0
VERTEX
  5
359
100
AcDbEntity
  8
0
370
     0
390
0
100
AcDbVertex
100
AcDb2dVertex
 10
338.292267
 20
-288.342651
 30
0.0
  0
VERTEX
  5
35A
100
AcDbEntity
  8
0
370
     0
390
0
100
AcDbVertex
100
AcDb2dVertex
 10
335.87149
 20
-287.766296
 30
0.0
  0
VERTEX
  5
35B
100
AcDbEntity
  8
0
370
     0
390
0
100
AcDbVertex
100
AcDb2dVertex
 10
334.488251
 20
-287.939209
 30
0.0
  0
VERTEX
  5
35C
100
AcDbEntity
  8
0
370
     0
390
0
100
AcDbVertex
100
AcDb2dVertex
 10
333.306671
 20
-288.486755
 30
0.0
  0
VERTEX
  5
35D
100
AcDbEntity
  8
0
370
     0
390
0
100
AcDbVertex
100
AcDb2dVertex
 10
332.298004
 20
-289.408936
 30
0.0
  0
SEQEND
  5
35E
100
AcDbEntity
  8
0
370
     0
390
0
  0
POLYLINE
  5
35F
100
AcDbEntity
  8
0
370
    13
390
0
 62
     7
100
AcDb2dPolyline
 66
     1
 10
0.0
 20
0.0
 30
0.0
 70
     1
 71
    16
  0
VERTEX
  5
360
100
AcDbEntity
  8
0
370
     0
390
0
100
AcDbVertex
100
AcDb2dVertex
 10
335.43924
 20
-302.060242
 30
0.0
  0
VERTEX
  5
361
100
AcDbEntity
  8
0
370
     0
390
0
100
AcDbVertex
100
AcDb2dVertex
 10
333.738922
 20
-301.685577
 30
0.0
  0
VERTEX
  5
362
100
AcDbEntity
  8
0
370
     0
390
0
100
AcDbVertex
100
AcDb2dVertex
 10
332.499786
 20
-300.532867
 30
0.0
  0
VERTEX
  5
363
100
AcDbEntity
  8
0
370
     0
390
0
100
AcDbVertex
100
AcDb2dVertex
 10
331.721649
 20
-298.659668
 30
0.0
  0
VERTEX
  5
364
100
AcDbEntity
  8
0
370
     0
390
0
100
AcDbVertex
100
AcDb2dVertex
 10
331.462311
 20
-296.03717
 30
0.0
  0
VERTEX
  5
365
100
AcDbEntity
  8
0
370
     0
390
0
100
AcDbVertex
100
AcDb2dVertex
 10
331.721649
 20
-293.443512
 30
0.0
  0
VERTEX
  5
366
100
AcDbEntity
  8
0
370
     0
390
0
100
AcDbVertex
100
AcDb2dVertex
 10
332.499786
 20
-291.570313
 30
0.0
  0
VERTEX
  5
367
100
AcDbEntity
  8
0
370
     0
390
0
100
AcDbVertex
100
AcDb2dVertex
 10
333.738922
 20
-290.446411
 30
0.0
  0
VERTEX
  5
368
100
AcDbEntity
  8
0
370
     0
390
0
100
AcDbVertex
100
AcDb2dVertex
 10
335.43924
 20
-290.042938
 30
0.0
  0
VERTEX
  5
369
100
AcDbEntity
  8
0
370
     0
390
0
100
AcDbVertex
100
AcDb2dVertex
 10
336.995453
 20
-290.446411
 30
0.0
  0
VERTEX
  5
36A
100
AcDbEntity
  8
0
370
     0
390
0
100
AcDbVertex
100
AcDb2dVertex
 10
338.23465
 20
-291.599121
 30
0.0
  0
VERTEX
  5
36B
100
AcDbEntity
  8
0
370
     0
390
0
100
AcDbVertex
100
AcDb2dVertex
 10
339.012726
 20
-293.472321
 30
0.0
  0
VERTEX
  5
36C
100
AcDbEntity
  8
0
370
     0
390
0
100
AcDbVertex
100
AcDb2dVertex
 10
339.300934
 20
-296.03717
 30
0.0
  0
VERTEX
  5
36D
100
AcDbEntity
  8
0
370
     0
390
0
100
AcDbVertex
100
AcDb2dVertex
 10
339.012726
 20
-298.630829
 30
0.0
  0
VERTEX
  5
36E
100
AcDbEntity
  8
0
370
     0
390
0
100
AcDbVertex
100
AcDb2dVertex
 10
338.23465
 20
-300.532867
 30
0.0
  0
VERTEX
  5
36F
100
AcDbEntity
  8
0
370
     0
390
0
100
AcDbVertex
100
AcDb2dVertex
 10
336.995453
 20
-301.685577
 30
0.0
  0
SEQEND
  5
370
100
AcDbEntity
  8
0
370
     0
390
0
  0
POLYLINE
  5
371
100
AcDbEntity
  8
0
370
    13
390
0
 62
     7
100
AcDb2dPolyline
 66
     1
 10
0.0
 20
0.0
 30
0.0
 70
     1
 71
    28
  0
VERTEX
  5
372
100
AcDbEntity
  8
0
370
     0
390
0
100
AcDbVertex
100
AcDb2dVertex
 10
363.277863
 20
-303.789337
 30
0.0
  0
VERTEX
  5
373
100
AcDbEntity
  8
0
370
     0
390
0
100
AcDbVertex
100
AcDb2dVertex
 10
365.957977
 20
-303.789337
 30
0.0
  0
VERTEX
  5
374
100
AcDbEntity
  8
0
370
     0
390
0
100
AcDbVertex
100
AcDb2dVertex
 10
365.957977
 20
-295.34552
 30
0.0
  0
VERTEX
  5
375
100
AcDbEntity
  8
0
370
     0
390
0
100
AcDbVertex
100
AcDb2dVertex
 10
368.695709
 20
-295.34552
 30
0.0
  0
VERTEX
  5
376
100
AcDbEntity
  8
0
370
     0
390
0
100
AcDbVertex
100
AcDb2dVertex
 10
370.712982
 20
-295.431976
 30
0.0
  0
VERTEX
  5
377
100
AcDbEntity
  8
0
370
     0
390
0
100
AcDbVertex
100
AcDb2dVertex
 10
371.980988
 20
-295.835449
 30
0.0
  0
VERTEX
  5
378
100
AcDbEntity
  8
0
370
     0
390
0
100
AcDbVertex
100
AcDb2dVertex
 10
372.672638
 20
-296.786469
 30
0.0
  0
VERTEX
  5
379
100
AcDbEntity
  8
0
370
     0
390
0
100
AcDbVertex
100
AcDb2dVertex
 10
372.960846
 20
-298.486755
 30
0.0
  0
VERTEX
  5
37A
100
AcDbEntity
  8
0
370
     0
390
0
100
AcDbVertex
100
AcDb2dVertex
 10
373.10495
 20
-301.080414
 30
0.0
  0
VERTEX
  5
37B
100
AcDbEntity
  8
0
370
     0
390
0
100
AcDbVertex
100
AcDb2dVertex
 10
373.277863
 20
-302.780701
 30
0.0
  0
VERTEX
  5
37C
100
AcDbEntity
  8
0
370
     0
390
0
100
AcDbVertex
100
AcDb2dVertex
 10
373.623688
 20
-303.789337
 30
0.0
  0
VERTEX
  5
37D
100
AcDbEntity
  8
0
370
     0
390
0
100
AcDbVertex
100
AcDb2dVertex
 10
376.649567
 20
-303.789337
 30
0.0
  0
VERTEX
  5
37E
100
AcDbEntity
  8
0
370
     0
390
0
100
AcDbVertex
100
AcDb2dVertex
 10
376.649567
 20
-303.241791
 30
0.0
  0
VERTEX
  5
37F
100
AcDbEntity
  8
0
370
     0
390
0
100
AcDbVertex
100
AcDb2dVertex
 10
375.986786
 20
-302.434875
 30
0.0
  0
VERTEX
  5
380
100
AcDbEntity
  8
0
370
     0
390
0
100
AcDbVertex
100
AcDb2dVertex
 10
375.756195
 20
-300.93631
 30
0.0
  0
VERTEX
  5
381
100
AcDbEntity
  8
0
370
     0
390
0
100
AcDbVertex
100
AcDb2dVertex
 10
375.554474
 20
-297.708649
 30
0.0
  0
VERTEX
  5
382
100
AcDbEntity
  8
0
370
     0
390
0
100
AcDbVertex
100
AcDb2dVertex
 10
375.064606
 20
-295.316711
 30
0.0
  0
VERTEX
  5
383
100
AcDbEntity
  8
0
370
     0
390
0
100
AcDbVertex
100
AcDb2dVertex
 10
374.401764
 20
-294.567444
 30
0.0
  0
VERTEX
  5
384
100
AcDbEntity
  8
0
370
     0
390
0
100
AcDbVertex
100
AcDb2dVertex
 10
373.364288
 20
-294.019897
 30
0.0
  0
VERTEX
  5
385
100
AcDbEntity
  8
0
370
     0
390
0
100
AcDbVertex
100
AcDb2dVertex
 10
374.517059
 20
-293.299438
 30
0.0
  0
VERTEX
  5
386
100
AcDbEntity
  8
0
370
     0
390
0
100
AcDbVertex
100
AcDb2dVertex
 10
375.323944
 20
-292.290771
 30
0.0
  0
VERTEX
  5
387
100
AcDbEntity
  8
0
370
     0
390
0
100
AcDbVertex
100
AcDb2dVertex
 10
375.842682
 20
-291.022766
 30
0.0
  0
VERTEX
  5
388
100
AcDbEntity
  8
0
370
     0
390
0
100
AcDbVertex
100
AcDb2dVertex
 10
376.015594
 20
-289.495392
 30
0.0
  0
VERTEX
  5
389
100
AcDbEntity
  8
0
370
     0
390
0
100
AcDbVertex
100
AcDb2dVertex
 10
375.612152
 20
-287.074646
 30
0.0
  0
VERTEX
  5
38A
100
AcDbEntity
  8
0
370
     0
390
0
100
AcDbVertex
100
AcDb2dVertex
 10
374.459381
 20
-285.259094
 30
0.0
  0
VERTEX
  5
38B
100
AcDbEntity
  8
0
370
     0
390
0
100
AcDbVertex
100
AcDb2dVertex
 10
372.557404
 20
-284.163971
 30
0.0
  0
VERTEX
  5
38C
100
AcDbEntity
  8
0
370
     0
390
0
100
AcDbVertex
100
AcDb2dVertex
 10
369.963715
 20
-283.789337
 30
0.0
  0
VERTEX
  5
38D
100
AcDbEntity
  8
0
370
     0
390
0
100
AcDbVertex
100
AcDb2dVertex
 10
363.277863
 20
-283.789337
 30
0.0
  0
SEQEND
  5
38E
100
AcDbEntity
  8
0
370
     0
390
0
  0
POLYLINE
  5
38F
100
AcDbEntity
  8
0
370
    13
390
0
 62
     7
100
AcDb2dPolyline
 66
     1
 10
0.0
 20
0.0
 30
0.0
 70
     1
 71
    11
  0
VERTEX
  5
390
100
AcDbEntity
  8
0
370
     0
390
0
100
AcDbVertex
100
AcDb2dVertex
 10
369.214447
 20
-286.238892
 30
0.0
  0
VERTEX
  5
391
100
AcDbEntity
  8
0
370
     0
390
0
100
AcDbVertex
100
AcDb2dVertex
 10
370.972382
 20
-286.411804
 30
0.0
  0
VERTEX
  5
392
100
AcDbEntity
  8
0
370
     0
390
0
100
AcDbVertex
100
AcDb2dVertex
 10
372.211578
 20
-286.959351
 30
0.0
  0
VERTEX
  5
393
100
AcDbEntity
  8
0
370
     0
390
0
100
AcDbVertex
100
AcDb2dVertex
 10
372.989655
 20
-287.968018
 30
0.0
  0
VERTEX
  5
394
100
AcDbEntity
  8
0
370
     0
390
0
100
AcDbVertex
100
AcDb2dVertex
 10
373.248993
 20
-289.55304
 30
0.0
  0
VERTEX
  5
395
100
AcDbEntity
  8
0
370
     0
390
0
100
AcDbVertex
100
AcDb2dVertex
 10
372.960846
 20
-291.224487
 30
0.0
  0
VERTEX
  5
396
100
AcDbEntity
  8
0
370
     0
390
0
100
AcDbVertex
100
AcDb2dVertex
 10
372.182709
 20
-292.233154
 30
0.0
  0
VERTEX
  5
397
100
AcDbEntity
  8
0
370
     0
390
0
100
AcDbVertex
100
AcDb2dVertex
 10
370.857086
 20
-292.751862
 30
0.0
  0
VERTEX
  5
398
100
AcDbEntity
  8
0
370
     0
390
0
100
AcDbVertex
100
AcDb2dVertex
 10
369.041534
 20
-292.895966
 30
0.0
  0
VERTEX
  5
399
100
AcDbEntity
  8
0
370
     0
390
0
100
AcDbVertex
100
AcDb2dVertex
 10
365.957977
 20
-292.895966
 30
0.0
  0
VERTEX
  5
39A
100
AcDbEntity
  8
0
370
     0
390
0
100
AcDbVertex
100
AcDb2dVertex
 10
365.957977
 20
-286.238892
 30
0.0
  0
SEQEND
  5
39B
100
AcDbEntity
  8
0
370
     0
390
0
  0
POLYLINE
  5
39C
100
AcDbEntity
  8
0
370
    13
390
0
 62
     7
100
AcDb2dPolyline
 66
     1
 10
0.0
 20
0.0
 30
0.0
 70
     1
 71
    16
  0
VERTEX
  5
39D
100
AcDbEntity
  8
0
370
     0
390
0
100
AcDbVertex
100
AcDb2dVertex
 10
380.338348
 20
-296.065979
 30
0.0
  0
VERTEX
  5
39E
100
AcDbEntity
  8
0
370
     0
390
0
100
AcDbVertex
100
AcDb2dVertex
 10
380.799469
 20
-299.581848
 30
0.0
  0
VERTEX
  5
39F
100
AcDbEntity
  8
0
370
     0
390
0
100
AcDbVertex
100
AcDb2dVertex
 10
382.125092
 20
-302.175507
 30
0.0
  0
VERTEX
  5
3A0
100
AcDbEntity
  8
0
370
     0
390
0
100
AcDbVertex
100
AcDb2dVertex
 10
384.228851
 20
-303.789337
 30
0.0
  0
VERTEX
  5
3A1
100
AcDbEntity
  8
0
370
     0
390
0
100
AcDbVertex
100
AcDb2dVertex
 10
387.05307
 20
-304.336884
 30
0.0
  0
VERTEX
  5
3A2
100
AcDbEntity
  8
0
370
     0
390
0
100
AcDbVertex
100
AcDb2dVertex
 10
389.848419
 20
-303.789337
 30
0.0
  0
VERTEX
  5
3A3
100
AcDbEntity
  8
0
370
     0
390
0
100
AcDbVertex
100
AcDb2dVertex
 10
391.952179
 20
-302.204315
 30
0.0
  0
VERTEX
  5
3A4
100
AcDbEntity
  8
0
370
     0
390
0
100
AcDbVertex
100
AcDb2dVertex
 10
393.277802
 20
-299.610657
 30
0.0
  0
VERTEX
  5
3A5
100
AcDbEntity
  8
0
370
     0
390
0
100
AcDbVertex
100
AcDb2dVertex
 10
393.767731
 20
-296.065979
 30
0.0
  0
VERTEX
  5
3A6
100
AcDbEntity
  8
0
370
     0
390
0
100
AcDbVertex
100
AcDb2dVertex
 10
393.277802
 20
-292.55014
 30
0.0
  0
VERTEX
  5
3A7
100
AcDbEntity
  8
0
370
     0
390
0
100
AcDbVertex
100
AcDb2dVertex
 10
391.952179
 20
-289.927673
 30
0.0
  0
VERTEX
  5
3A8
100
AcDbEntity
  8
0
370
     0
390
0
100
AcDbVertex
100
AcDb2dVertex
 10
389.848419
 20
-288.342651
 30
0.0
  0
VERTEX
  5
3A9
100
AcDbEntity
  8
0
370
     0
390
0
100
AcDbVertex
100
AcDb2dVertex
 10
387.05307
 20
-287.766296
 30
0.0
  0
VERTEX
  5
3AA
100
AcDbEntity
  8
0
370
     0
390
0
100
AcDbVertex
100
AcDb2dVertex
 10
384.228851
 20
-288.342651
 30
0.0
  0
VERTEX
  5
3AB
100
AcDbEntity
  8
0
370
     0
390
0
100
AcDbVertex
100
AcDb2dVertex
 10
382.125092
 20
-289.956482
 30
0.0
  0
VERTEX
  5
3AC
100
AcDbEntity
  8
0
370
     0
390
0
100
AcDbVertex
100
AcDb2dVertex
 10
380.799469
 20
-292.55014
 30
0.0
  0
SEQEND
  5
3AD
100
AcDbEntity
  8
0
370
     0
390
0
  0
POLYLINE
  5
3AE
100
AcDbEntity
  8
0
370
    13
390
0
 62
     7
100
AcDb2dPolyline
 66
     1
 10
0.0
 20
0.0
 30
0.0
 70
     1
 71
    16
  0
VERTEX
  5
3AF
100
AcDbEntity
  8
0
370
     0
390
0
100
AcDbVertex
100
AcDb2dVertex
 10
382.931976
 20
-296.03717
 30
0.0
  0
VERTEX
  5
3B0
100
AcDbEntity
  8
0
370
     0
390
0
100
AcDbVertex
100
AcDb2dVertex
 10
383.191376
 20
-293.443512
 30
0.0
  0
VERTEX
  5
3B1
100
AcDbEntity
  8
0
370
     0
390
0
100
AcDbVertex
100
AcDb2dVertex
 10
383.99826
 20
-291.570313
 30
0.0
  0
VERTEX
  5
3B2
100
AcDbEntity
  8
0
370
     0
390
0
100
AcDbVertex
100
AcDb2dVertex
 10
385.295135
 20
-290.417572
 30
0.0
  0
VERTEX
  5
3B3
100
AcDbEntity
  8
0
370
     0
390
0
100
AcDbVertex
100
AcDb2dVertex
 10
387.05307
 20
-290.01413
 30
0.0
  0
VERTEX
  5
3B4
100
AcDbEntity
  8
0
370
     0
390
0
100
AcDbVertex
100
AcDb2dVertex
 10
388.782135
 20
-290.417572
 30
0.0
  0
VERTEX
  5
3B5
100
AcDbEntity
  8
0
370
     0
390
0
100
AcDbVertex
100
AcDb2dVertex
 10
390.07901
 20
-291.541504
 30
0.0
  0
VERTEX
  5
3B6
100
AcDbEntity
  8
0
370
     0
390
0
100
AcDbVertex
100
AcDb2dVertex
 10
390.885895
 20
-293.443512
 30
0.0
  0
VERTEX
  5
3B7
100
AcDbEntity
  8
0
370
     0
390
0
100
AcDbVertex
100
AcDb2dVertex
 10
391.174103
 20
-296.03717
 30
0.0
  0
VERTEX
  5
3B8
100
AcDbEntity
  8
0
370
     0
390
0
100
AcDbVertex
100
AcDb2dVertex
 10
390.885895
 20
-298.659668
 30
0.0
  0
VERTEX
  5
3B9
100
AcDbEntity
  8
0
370
     0
390
0
100
AcDbVertex
100
AcDb2dVertex
 10
390.07901
 20
-300.561676
 30
0.0
  0
VERTEX
  5
3BA
100
AcDbEntity
  8
0
370
     0
390
0
100
AcDbVertex
100
AcDb2dVertex
 10
388.782135
 20
-301.714417
 30
0.0
  0
VERTEX
  5
3BB
100
AcDbEntity
  8
0
370
     0
390
0
100
AcDbVertex
100
AcDb2dVertex
 10
387.05307
 20
-302.08905
 30
0.0
  0
VERTEX
  5
3BC
100
AcDbEntity
  8
0
370
     0
390
0
100
AcDbVertex
100
AcDb2dVertex
 10
385.295135
 20
-301.714417
 30
0.0
  0
VERTEX
  5
3BD
100
AcDbEntity
  8
0
370
     0
390
0
100
AcDbVertex
100
AcDb2dVertex
 10
383.99826
 20
-300.561676
 30
0.0
  0
VERTEX
  5
3BE
100
AcDbEntity
  8
0
370
     0
390
0
100
AcDbVertex
100
AcDb2dVertex
 10
383.191376
 20
-298.659668
 30
0.0
  0
SEQEND
  5
3BF
100
AcDbEntity
  8
0
370
     0
390
0
  0
POLYLINE
  5
3C0
100
AcDbEntity
  8
0
370
    13
390
0
 62
     7
100
AcDb2dPolyline
 66
     1
 10
0.0
 20
0.0
 30
0.0
 70
     1
 71
    18
  0
VERTEX
  5
3C1
100
AcDbEntity
  8
0
370
     0
390
0
100
AcDbVertex
100
AcDb2dVertex
 10
400.828278
 20
-301.3974
 30
0.0
  0
VERTEX
  5
3C2
100
AcDbEntity
  8
0
370
     0
390
0
100
AcDbVertex
100
AcDb2dVertex
 10
402.701447
 20
-303.616425
 30
0.0
  0
VERTEX
  5
3C3
100
AcDbEntity
  8
0
370
     0
390
0
100
AcDbVertex
100
AcDb2dVertex
 10
405.266266
 20
-304.336884
 30
0.0
  0
VERTEX
  5
3C4
100
AcDbEntity
  8
0
370
     0
390
0
100
AcDbVertex
100
AcDb2dVertex
 10
407.687042
 20
-303.789337
 30
0.0
  0
VERTEX
  5
3C5
100
AcDbEntity
  8
0
370
     0
390
0
100
AcDbVertex
100
AcDb2dVertex
 10
409.617889
 20
-302.146698
 30
0.0
  0
VERTEX
  5
3C6
100
AcDbEntity
  8
0
370
     0
390
0
100
AcDbVertex
100
AcDb2dVertex
 10
410.828278
 20
-299.5242
 30
0.0
  0
VERTEX
  5
3C7
100
AcDbEntity
  8
0
370
     0
390
0
100
AcDbVertex
100
AcDb2dVertex
 10
411.289337
 20
-296.03717
 30
0.0
  0
VERTEX
  5
3C8
100
AcDbEntity
  8
0
370
     0
390
0
100
AcDbVertex
100
AcDb2dVertex
 10
410.828278
 20
-292.55014
 30
0.0
  0
VERTEX
  5
3C9
100
AcDbEntity
  8
0
370
     0
390
0
100
AcDbVertex
100
AcDb2dVertex
 10
409.589081
 20
-289.956482
 30
0.0
  0
VERTEX
  5
3CA
100
AcDbEntity
  8
0
370
     0
390
0
100
AcDbVertex
100
AcDb2dVertex
 10
407.687042
 20
-288.342651
 30
0.0
  0
VERTEX
  5
3CB
100
AcDbEntity
  8
0
370
     0
390
0
100
AcDbVertex
100
AcDb2dVertex
 10
405.266266
 20
-287.766296
 30
0.0
  0
VERTEX
  5
3CC
100
AcDbEntity
  8
0
370
     0
390
0
100
AcDbVertex
100
AcDb2dVertex
 10
402.730255
 20
-288.515564
 30
0.0
  0
VERTEX
  5
3CD
100
AcDbEntity
  8
0
370
     0
390
0
100
AcDbVertex
100
AcDb2dVertex
 10
401.69278
 20
-289.437744
 30
0.0
  0
VERTEX
  5
3CE
100
AcDbEntity
  8
0
370
     0
390
0
100
AcDbVertex
100
AcDb2dVertex
 10
400.828278
 20
-290.676941
 30
0.0
  0
VERTEX
  5
3CF
100
AcDbEntity
  8
0
370
     0
390
0
100
AcDbVertex
100
AcDb2dVertex
 10
400.828278
 20
-283.097687
 30
0.0
  0
VERTEX
  5
3D0
100
AcDbEntity
  8
0
370
     0
390
0
100
AcDbVertex
100
AcDb2dVertex
 10
398.292206
 20
-283.097687
 30
0.0
  0
VERTEX
  5
3D1
100
AcDbEntity
  8
0
370
     0
390
0
100
AcDbVertex
100
AcDb2dVertex
 10
398.292206
 20
-303.789337
 30
0.0
  0
VERTEX
  5
3D2
100
AcDbEntity
  8
0
370
     0
390
0
100
AcDbVertex
100
AcDb2dVertex
 10
400.828278
 20
-303.789337
 30
0.0
  0
SEQEND
  5
3D3
100
AcDbEntity
  8
0
370
     0
390
0
  0
POLYLINE
  5
3D4
100
AcDbEntity
  8
0
370
    13
390
0
 62
     7
100
AcDb2dPolyline
 66
     1
 10
0.0
 20
0.0
 30
0.0
 70
     1
 71
    16
  0
VERTEX
  5
3D5
100
AcDbEntity
  8
0
370
     0
390
0
100
AcDbVertex
100
AcDb2dVertex
 10
408.695709
 20
-296.03717
 30
0.0
  0
VERTEX
  5
3D6
100
AcDbEntity
  8
0
370
     0
390
0
100
AcDbVertex
100
AcDb2dVertex
 10
408.407501
 20
-298.630829
 30
0.0
  0
VERTEX
  5
3D7
100
AcDbEntity
  8
0
370
     0
390
0
100
AcDbVertex
100
AcDb2dVertex
 10
407.629425
 20
-300.532867
 30
0.0
  0
VERTEX
  5
3D8
100
AcDbEntity
  8
0
370
     0
390
0
100
AcDbVertex
100
AcDb2dVertex
 10
406.390228
 20
-301.685577
 30
0.0
  0
VERTEX
  5
3D9
100
AcDbEntity
  8
0
370
     0
390
0
100
AcDbVertex
100
AcDb2dVertex
 10
404.834015
 20
-302.060242
 30
0.0
  0
VERTEX
  5
3DA
100
AcDbEntity
  8
0
370
     0
390
0
100
AcDbVertex
100
AcDb2dVertex
 10
403.133698
 20
-301.685577
 30
0.0
  0
VERTEX
  5
3DB
100
AcDbEntity
  8
0
370
     0
390
0
100
AcDbVertex
100
AcDb2dVertex
 10
401.894562
 20
-300.532867
 30
0.0
  0
VERTEX
  5
3DC
100
AcDbEntity
  8
0
370
     0
390
0
100
AcDbVertex
100
AcDb2dVertex
 10
401.116425
 20
-298.659668
 30
0.0
  0
VERTEX
  5
3DD
100
AcDbEntity
  8
0
370
     0
390
0
100
AcDbVertex
100
AcDb2dVertex
 10
400.857086
 20
-296.03717
 30
0.0
  0
VERTEX
  5
3DE
100
AcDbEntity
  8
0
370
     0
390
0
100
AcDbVertex
100
AcDb2dVertex
 10
401.116425
 20
-293.443512
 30
0.0
  0
VERTEX
  5
3DF
100
AcDbEntity
  8
0
370
     0
390
0
100
AcDbVertex
100
AcDb2dVertex
 10
401.894562
 20
-291.570313
 30
0.0
  0
VERTEX
  5
3E0
100
AcDbEntity
  8
0
370
     0
390
0
100
AcDbVertex
100
AcDb2dVertex
 10
403.133698
 20
-290.446411
 30
0.0
  0
VERTEX
  5
3E1
100
AcDbEntity
  8
0
370
     0
390
0
100
AcDbVertex
100
AcDb2dVertex
 10
404.834015
 20
-290.042938
 30
0.0
  0
VERTEX
  5
3E2
100
AcDbEntity
  8
0
370
     0
390
0
100
AcDbVertex
100
AcDb2dVertex
 10
406.390228
 20
-290.446411
 30
0.0
  0
VERTEX
  5
3E3
100
AcDbEntity
  8
0
370
     0
390
0
100
AcDbVertex
100
AcDb2dVertex
 10
407.629425
 20
-291.599121
 30
0.0
  0
VERTEX
  5
3E4
100
AcDbEntity
  8
0
370
     0
390
0
100
AcDbVertex
100
AcDb2dVertex
 10
408.407501
 20
-293.472321
 30
0.0
  0
SEQEND
  5
3E5
100
AcDbEntity
  8
0
370
     0
390
0
  0
POLYLINE
  5
3E6
100
AcDbEntity
  8
0
370
    13
390
0
 62
     7
100
AcDb2dPolyline
 66
     1
 10
0.0
 20
0.0
 30
0.0
 70
     1
 71
    16
  0
VERTEX
  5
3E7
100
AcDbEntity
  8
0
370
     0
390
0
100
AcDbVertex
100
AcDb2dVertex
 10
415.035736
 20
-296.065979
 30
0.0
  0
VERTEX
  5
3E8
100
AcDbEntity
  8
0
370
     0
390
0
100
AcDbVertex
100
AcDb2dVertex
 10
415.496857
 20
-299.581848
 30
0.0
  0
VERTEX
  5
3E9
100
AcDbEntity
  8
0
370
     0
390
0
100
AcDbVertex
100
AcDb2dVertex
 10
416.822479
 20
-302.175507
 30
0.0
  0
VERTEX
  5
3EA
100
AcDbEntity
  8
0
370
     0
390
0
100
AcDbVertex
100
AcDb2dVertex
 10
418.926239
 20
-303.789337
 30
0.0
  0
VERTEX
  5
3EB
100
AcDbEntity
  8
0
370
     0
390
0
100
AcDbVertex
100
AcDb2dVertex
 10
421.750458
 20
-304.336884
 30
0.0
  0
VERTEX
  5
3EC
100
AcDbEntity
  8
0
370
     0
390
0
100
AcDbVertex
100
AcDb2dVertex
 10
424.545807
 20
-303.789337
 30
0.0
  0
VERTEX
  5
3ED
100
AcDbEntity
  8
0
370
     0
390
0
100
AcDbVertex
100
AcDb2dVertex
 10
426.649567
 20
-302.204315
 30
0.0
  0
VERTEX
  5
3EE
100
AcDbEntity
  8
0
370
     0
390
0
100
AcDbVertex
100
AcDb2dVertex
 10
427.975189
 20
-299.610657
 30
0.0
  0
VERTEX
  5
3EF
100
AcDbEntity
  8
0
370
     0
390
0
100
AcDbVertex
100
AcDb2dVertex
 10
428.465118
 20
-296.065979
 30
0.0
  0
VERTEX
  5
3F0
100
AcDbEntity
  8
0
370
     0
390
0
100
AcDbVertex
100
AcDb2dVertex
 10
427.975189
 20
-292.55014
 30
0.0
  0
VERTEX
  5
3F1
100
AcDbEntity
  8
0
370
     0
390
0
100
AcDbVertex
100
AcDb2dVertex
 10
426.649567
 20
-289.927673
 30
0.0
  0
VERTEX
  5
3F2
100
AcDbEntity
  8
0
370
     0
390
0
100
AcDbVertex
100
AcDb2dVertex
 10
424.545807
 20
-288.342651
 30
0.0
  0
VERTEX
  5
3F3
100
AcDbEntity
  8
0
370
     0
390
0
100
AcDbVertex
100
AcDb2dVertex
 10
421.750458
 20
-287.766296
 30
0.0
  0
VERTEX
  5
3F4
100
AcDbEntity
  8
0
370
     0
390
0
100
AcDbVertex
100
AcDb2dVertex
 10
418.926239
 20
-288.342651
 30
0.0
  0
VERTEX
  5
3F5
100
AcDbEntity
  8
0
370
     0
390
0
100
AcDbVertex
100
AcDb2dVertex
 10
416.822479
 20
-289.956482
 30
0.0
  0
VERTEX
  5
3F6
100
AcDbEntity
  8
0
370
     0
390
0
100
AcDbVertex
100
AcDb2dVertex
 10
415.496857
 20
-292.55014
 30
0.0
  0
SEQEND
  5
3F7
100
AcDbEntity
  8
0
370
     0
390
0
  0
POLYLINE
  5
3F8
100
AcDbEntity
  8
0
370
    13
390
0
 62
     7
100
AcDb2dPolyline
 66
     1
 10
0.0
 20
0.0
 30
0.0
 70
     1
 71
    16
  0
VERTEX
  5
3F9
100
AcDbEntity
  8
0
370
     0
390
0
100
AcDbVertex
100
AcDb2dVertex
 10
417.629364
 20
-296.03717
 30
0.0
  0
VERTEX
  5
3FA
100
AcDbEntity
  8
0
370
     0
390
0
100
AcDbVertex
100
AcDb2dVertex
 10
417.888763
 20
-293.443512
 30
0.0
  0
VERTEX
  5
3FB
100
AcDbEntity
  8
0
370
     0
390
0
100
AcDbVertex
100
AcDb2dVertex
 10
418.695648
 20
-291.570313
 30
0.0
  0
VERTEX
  5
3FC
100
AcDbEntity
  8
0
370
     0
390
0
100
AcDbVertex
100
AcDb2dVertex
 10
419.992523
 20
-290.417572
 30
0.0
  0
VERTEX
  5
3FD
100
AcDbEntity
  8
0
370
     0
390
0
100
AcDbVertex
100
AcDb2dVertex
 10
421.750458
 20
-290.01413
 30
0.0
  0
VERTEX
  5
3FE
100
AcDbEntity
  8
0
370
     0
390
0
100
AcDbVertex
100
AcDb2dVertex
 10
423.479523
 20
-290.417572
 30
0.0
  0
VERTEX
  5
3FF
100
AcDbEntity
  8
0
370
     0
390
0
100
AcDbVertex
100
AcDb2dVertex
 10
424.776398
 20
-291.541504
 30
0.0
  0
VERTEX
  5
400
100
AcDbEntity
  8
0
370
     0
390
0
100
AcDbVertex
100
AcDb2dVertex
 10
425.583282
 20
-293.443512
 30
0.0
  0
VERTEX
  5
401
100
AcDbEntity
  8
0
370
     0
390
0
100
AcDbVertex
100
AcDb2dVertex
 10
425.87149
 20
-296.03717
 30
0.0
  0
VERTEX
  5
402
100
AcDbEntity
  8
0
370
     0
390
0
100
AcDbVertex
100
AcDb2dVertex
 10
425.583282
 20
-298.659668
 30
0.0
  0
VERTEX
  5
403
100
AcDbEntity
  8
0
370
     0
390
0
100
AcDbVertex
100
AcDb2dVertex
 10
424.776398
 20
-300.561676
 30
0.0
  0
VERTEX
  5
404
100
AcDbEntity
  8
0
370
     0
390
0
100
AcDbVertex
100
AcDb2dVertex
 10
423.479523
 20
-301.714417
 30
0.0
  0
VERTEX
  5
405
100
AcDbEntity
  8
0
370
     0
390
0
100
AcDbVertex
100
AcDb2dVertex
 10
421.750458
 20
-302.08905
 30
0.0
  0
VERTEX
  5
406
100
AcDbEntity
  8
0
370
     0
390
0
100
AcDbVertex
100
AcDb2dVertex
 10
419.992523
 20
-301.714417
 30
0.0
  0
VERTEX
  5
407
100
AcDbEntity
  8
0
370
     0
390
0
100
AcDbVertex
100
AcDb2dVertex
 10
418.695648
 20
-300.561676
 30
0.0
  0
VERTEX
  5
408
100
AcDbEntity
  8
0
370
     0
390
0
100
AcDbVertex
100
AcDb2dVertex
 10
417.888763
 20
-298.659668
 30
0.0
  0
SEQEND
  5
409
100
AcDbEntity
  8
0
370
     0
390
0
  0
POLYLINE
  5
40A
100
AcDbEntity
  8
0
370
    13
390
0
 62
     7
100
AcDb2dPolyline
 66
     1
 10
0.0
 20
0.0
 30
0.0
 70
     1
 71
     4
  0
VERTEX
  5
40B
100
AcDbEntity
  8
0
370
     0
390
0
100
AcDbVertex
100
AcDb2dVertex
 10
452.960785
 20
-297.189911
 30
0.0
  0
VERTEX
  5
40C
100
AcDbEntity
  8
0
370
     0
390
0
100
AcDbVertex
100
AcDb2dVertex
 10
459.934845
 20
-297.189911
 30
0.0
  0
VERTEX
  5
40D
100
AcDbEntity
  8
0
370
     0
390
0
100
AcDbVertex
100
AcDb2dVertex
 10
459.934845
 20
-294.913269
 30
0.0
  0
VERTEX
  5
40E
100
AcDbEntity
  8
0
370
     0
390
0
100
AcDbVertex
100
AcDb2dVertex
 10
452.960785
 20
-294.913269
 30
0.0
  0
SEQEND
  5
40F
100
AcDbEntity
  8
0
370
     0
390
0
  0
POLYLINE
  5
410
100
AcDbEntity
  8
0
370
    13
390
0
 62
     7
100
AcDb2dPolyline
 66
     1
 10
0.0
 20
0.0
 30
0.0
 70
     1
 71
    10
  0
VERTEX
  5
411
100
AcDbEntity
  8
0
370
     0
390
0
100
AcDbVertex
100
AcDb2dVertex
 10
485.237396
 20
-303.789337
 30
0.0
  0
VERTEX
  5
412
100
AcDbEntity
  8
0
370
     0
390
0
100
AcDbVertex
100
AcDb2dVertex
 10
487.917572
 20
-303.789337
 30
0.0
  0
VERTEX
  5
413
100
AcDbEntity
  8
0
370
     0
390
0
100
AcDbVertex
100
AcDb2dVertex
 10
487.917572
 20
-294.596252
 30
0.0
  0
VERTEX
  5
414
100
AcDbEntity
  8
0
370
     0
390
0
100
AcDbVertex
100
AcDb2dVertex
 10
496.33255
 20
-294.596252
 30
0.0
  0
VERTEX
  5
415
100
AcDbEntity
  8
0
370
     0
390
0
100
AcDbVertex
100
AcDb2dVertex
 10
496.33255
 20
-292.204315
 30
0.0
  0
VERTEX
  5
416
100
AcDbEntity
  8
0
370
     0
390
0
100
AcDbVertex
100
AcDb2dVertex
 10
487.917572
 20
-292.204315
 30
0.0
  0
VERTEX
  5
417
100
AcDbEntity
  8
0
370
     0
390
0
100
AcDbVertex
100
AcDb2dVertex
 10
487.917572
 20
-286.210083
 30
0.0
  0
VERTEX
  5
418
100
AcDbEntity
  8
0
370
     0
390
0
100
AcDbVertex
100
AcDb2dVertex
 10
498.263336
 20
-286.210083
 30
0.0
  0
VERTEX
  5
419
100
AcDbEntity
  8
0
370
     0
390
0
100
AcDbVertex
100
AcDb2dVertex
 10
498.263336
 20
-283.789337
 30
0.0
  0
VERTEX
  5
41A
100
AcDbEntity
  8
0
370
     0
390
0
100
AcDbVertex
100
AcDb2dVertex
 10
485.237396
 20
-283.789337
 30
0.0
  0
SEQEND
  5
41B
100
AcDbEntity
  8
0
370
     0
390
0
  0
POLYLINE
  5
41C
100
AcDbEntity
  8
0
370
    13
390
0
 62
     7
100
AcDb2dPolyline
 66
     1
 10
0.0
 20
0.0
 30
0.0
 70
     1
 71
    18
  0
VERTEX
  5
41D
100
AcDbEntity
  8
0
370
     0
390
0
100
AcDbVertex
100
AcDb2dVertex
 10
501.087555
 20
-293.789337
 30
0.0
  0
VERTEX
  5
41E
100
AcDbEntity
  8
0
370
     0
390
0
100
AcDbVertex
100
AcDb2dVertex
 10
501.606293
 20
-298.285004
 30
0.0
  0
VERTEX
  5
41F
100
AcDbEntity
  8
0
370
     0
390
0
100
AcDbVertex
100
AcDb2dVertex
 10
503.104828
 20
-301.599121
 30
0.0
  0
VERTEX
  5
420
100
AcDbEntity
  8
0
370
     0
390
0
100
AcDbVertex
100
AcDb2dVertex
 10
505.439117
 20
-303.645233
 30
0.0
  0
VERTEX
  5
421
100
AcDbEntity
  8
0
370
     0
390
0
100
AcDbVertex
100
AcDb2dVertex
 10
508.493927
 20
-304.336884
 30
0.0
  0
VERTEX
  5
422
100
AcDbEntity
  8
0
370
     0
390
0
100
AcDbVertex
100
AcDb2dVertex
 10
511.519867
 20
-303.645233
 30
0.0
  0
VERTEX
  5
423
100
AcDbEntity
  8
0
370
     0
390
0
100
AcDbVertex
100
AcDb2dVertex
 10
513.882935
 20
-301.599121
 30
0.0
  0
VERTEX
  5
424
100
AcDbEntity
  8
0
370
     0
390
0
100
AcDbVertex
100
AcDb2dVertex
 10
515.352661
 20
-298.285004
 30
0.0
  0
VERTEX
  5
425
100
AcDbEntity
  8
0
370
     0
390
0
100
AcDbVertex
100
AcDb2dVertex
 10
515.900269
 20
-293.789337
 30
0.0
  0
VERTEX
  5
426
100
AcDbEntity
  8
0
370
     0
390
0
100
AcDbVertex
100
AcDb2dVertex
 10
515.352661
 20
-289.322479
 30
0.0
  0
VERTEX
  5
427
100
AcDbEntity
  8
0
370
     0
390
0
100
AcDbVertex
100
AcDb2dVertex
 10
514.718628
 20
-287.506927
 30
0.0
  0
VERTEX
  5
428
100
AcDbEntity
  8
0
370
     0
390
0
100
AcDbVertex
100
AcDb2dVertex
 10
513.882935
 20
-286.008362
 30
0.0
  0
VERTEX
  5
429
100
AcDbEntity
  8
0
370
     0
390
0
100
AcDbVertex
100
AcDb2dVertex
 10
511.519867
 20
-283.96225
 30
0.0
  0
VERTEX
  5
42A
100
AcDbEntity
  8
0
370
     0
390
0
100
AcDbVertex
100
AcDb2dVertex
 10
510.078888
 20
-283.443512
 30
0.0
  0
VERTEX
  5
42B
100
AcDbEntity
  8
0
370
     0
390
0
100
AcDbVertex
100
AcDb2dVertex
 10
508.493927
 20
-283.241791
 30
0.0
  0
VERTEX
  5
42C
100
AcDbEntity
  8
0
370
     0
390
0
100
AcDbVertex
100
AcDb2dVertex
 10
505.410309
 20
-283.96225
 30
0.0
  0
VERTEX
  5
42D
100
AcDbEntity
  8
0
370
     0
390
0
100
AcDbVertex
100
AcDb2dVertex
 10
503.076019
 20
-285.979553
 30
0.0
  0
VERTEX
  5
42E
100
AcDbEntity
  8
0
370
     0
390
0
100
AcDbVertex
100
AcDb2dVertex
 10
501.606293
 20
-289.293671
 30
0.0
  0
SEQEND
  5
42F
100
AcDbEntity
  8
0
370
     0
390
0
  0
POLYLINE
  5
430
100
AcDbEntity
  8
0
370
    13
390
0
 62
     7
100
AcDb2dPolyline
 66
     1
 10
0.0
 20
0.0
 30
0.0
 70
     1
 71
    16
  0
VERTEX
  5
431
100
AcDbEntity
  8
0
370
     0
390
0
100
AcDbVertex
100
AcDb2dVertex
 10
503.854156
 20
-293.789337
 30
0.0
  0
VERTEX
  5
432
100
AcDbEntity
  8
0
370
     0
390
0
100
AcDbVertex
100
AcDb2dVertex
 10
504.171112
 20
-290.302307
 30
0.0
  0
VERTEX
  5
433
100
AcDbEntity
  8
0
370
     0
390
0
100
AcDbVertex
100
AcDb2dVertex
 10
505.122162
 20
-287.737457
 30
0.0
  0
VERTEX
  5
434
100
AcDbEntity
  8
0
370
     0
390
0
100
AcDbVertex
100
AcDb2dVertex
 10
506.591888
 20
-286.181274
 30
0.0
  0
VERTEX
  5
435
100
AcDbEntity
  8
0
370
     0
390
0
100
AcDbVertex
100
AcDb2dVertex
 10
508.493927
 20
-285.633728
 30
0.0
  0
VERTEX
  5
436
100
AcDbEntity
  8
0
370
     0
390
0
100
AcDbVertex
100
AcDb2dVertex
 10
510.367096
 20
-286.181274
 30
0.0
  0
VERTEX
  5
437
100
AcDbEntity
  8
0
370
     0
390
0
100
AcDbVertex
100
AcDb2dVertex
 10
511.836823
 20
-287.766296
 30
0.0
  0
VERTEX
  5
438
100
AcDbEntity
  8
0
370
     0
390
0
100
AcDbVertex
100
AcDb2dVertex
 10
512.787842
 20
-290.331116
 30
0.0
  0
VERTEX
  5
439
100
AcDbEntity
  8
0
370
     0
390
0
100
AcDbVertex
100
AcDb2dVertex
 10
513.133667
 20
-293.789337
 30
0.0
  0
VERTEX
  5
43A
100
AcDbEntity
  8
0
370
     0
390
0
100
AcDbVertex
100
AcDb2dVertex
 10
512.787842
 20
-297.276367
 30
0.0
  0
VERTEX
  5
43B
100
AcDbEntity
  8
0
370
     0
390
0
100
AcDbVertex
100
AcDb2dVertex
 10
511.836823
 20
-299.841217
 30
0.0
  0
VERTEX
  5
43C
100
AcDbEntity
  8
0
370
     0
390
0
100
AcDbVertex
100
AcDb2dVertex
 10
510.367096
 20
-301.3974
 30
0.0
  0
VERTEX
  5
43D
100
AcDbEntity
  8
0
370
     0
390
0
100
AcDbVertex
100
AcDb2dVertex
 10
508.493927
 20
-301.916138
 30
0.0
  0
VERTEX
  5
43E
100
AcDbEntity
  8
0
370
     0
390
0
100
AcDbVertex
100
AcDb2dVertex
 10
506.591888
 20
-301.3974
 30
0.0
  0
VERTEX
  5
43F
100
AcDbEntity
  8
0
370
     0
390
0
100
AcDbVertex
100
AcDb2dVertex
 10
505.122162
 20
-299.841217
 30
0.0
  0
VERTEX
  5
440
100
AcDbEntity
  8
0
370
     0
390
0
100
AcDbVertex
100
AcDb2dVertex
 10
504.171112
 20
-297.305176
 30
0.0
  0
SEQEND
  5
441
100
AcDbEntity
  8
0
370
     0
390
0
  0
POLYLINE
  5
442
100
AcDbEntity
  8
0
370
    13
390
0
 62
     7
100
AcDb2dPolyline
 66
     1
 10
0.0
 20
0.0
 30
0.0
 70
     1
 71
     8
  0
VERTEX
  5
443
100
AcDbEntity
  8
0
370
     0
390
0
100
AcDbVertex
100
AcDb2dVertex
 10
517.081787
 20
-303.789337
 30
0.0
  0
VERTEX
  5
444
100
AcDbEntity
  8
0
370
     0
390
0
100
AcDbVertex
100
AcDb2dVertex
 10
519.733032
 20
-303.789337
 30
0.0
  0
VERTEX
  5
445
100
AcDbEntity
  8
0
370
     0
390
0
100
AcDbVertex
100
AcDb2dVertex
 10
521.836792
 20
-297.91037
 30
0.0
  0
VERTEX
  5
446
100
AcDbEntity
  8
0
370
     0
390
0
100
AcDbVertex
100
AcDb2dVertex
 10
529.81958
 20
-297.91037
 30
0.0
  0
VERTEX
  5
447
100
AcDbEntity
  8
0
370
     0
390
0
100
AcDbVertex
100
AcDb2dVertex
 10
531.92334
 20
-303.789337
 30
0.0
  0
VERTEX
  5
448
100
AcDbEntity
  8
0
370
     0
390
0
100
AcDbVertex
100
AcDb2dVertex
 10
534.632202
 20
-303.789337
 30
0.0
  0
VERTEX
  5
449
100
AcDbEntity
  8
0
370
     0
390
0
100
AcDbVertex
100
AcDb2dVertex
 10
527.312378
 20
-283.760529
 30
0.0
  0
VERTEX
  5
44A
100
AcDbEntity
  8
0
370
     0
390
0
100
AcDbVertex
100
AcDb2dVertex
 10
524.372803
 20
-283.760529
 30
0.0
  0
SEQEND
  5
44B
100
AcDbEntity
  8
0
370
     0
390
0
  0
POLYLINE
  5
44C
100
AcDbEntity
  8
0
370
    13
390
0
 62
     7
100
AcDb2dPolyline
 66
     1
 10
0.0
 20
0.0
 30
0.0
 70
     1
 71
     3
  0
VERTEX
  5
44D
100
AcDbEntity
  8
0
370
     0
390
0
100
AcDbVertex
100
AcDb2dVertex
 10
522.759033
 20
-295.460815
 30
0.0
  0
VERTEX
  5
44E
100
AcDbEntity
  8
0
370
     0
390
0
100
AcDbVertex
100
AcDb2dVertex
 10
525.842651
 20
-286.642365
 30
0.0
  0
VERTEX
  5
44F
100
AcDbEntity
  8
0
370
     0
390
0
100
AcDbVertex
100
AcDb2dVertex
 10
528.926147
 20
-295.460815
 30
0.0
  0
SEQEND
  5
450
100
AcDbEntity
  8
0
370
     0
390
0
  0
POLYLINE
  5
451
100
AcDbEntity
  8
0
370
    13
390
0
 62
     7
100
AcDb2dPolyline
 66
     1
 10
0.0
 20
0.0
 30
0.0
 70
     1
 71
    13
  0
VERTEX
  5
452
100
AcDbEntity
  8
0
370
     0
390
0
100
AcDbVertex
100
AcDb2dVertex
 10
535.986694
 20
-303.789337
 30
0.0
  0
VERTEX
  5
453
100
AcDbEntity
  8
0
370
     0
390
0
100
AcDbVertex
100
AcDb2dVertex
 10
538.205688
 20
-303.789337
 30
0.0
  0
VERTEX
  5
454
100
AcDbEntity
  8
0
370
     0
390
0
100
AcDbVertex
100
AcDb2dVertex
 10
538.205688
 20
-285.633728
 30
0.0
  0
VERTEX
  5
455
100
AcDbEntity
  8
0
370
     0
390
0
100
AcDbVertex
100
AcDb2dVertex
 10
541.952148
 20
-303.789337
 30
0.0
  0
VERTEX
  5
456
100
AcDbEntity
  8
0
370
     0
390
0
100
AcDbVertex
100
AcDb2dVertex
 10
544.430542
 20
-303.789337
 30
0.0
  0
VERTEX
  5
457
100
AcDbEntity
  8
0
370
     0
390
0
100
AcDbVertex
100
AcDb2dVertex
 10
548.148071
 20
-285.633728
 30
0.0
  0
VERTEX
  5
458
100
AcDbEntity
  8
0
370
     0
390
0
100
AcDbVertex
100
AcDb2dVertex
 10
548.148071
 20
-303.789337
 30
0.0
  0
VERTEX
  5
459
100
AcDbEntity
  8
0
370
     0
390
0
100
AcDbVertex
100
AcDb2dVertex
 10
550.395874
 20
-303.789337
 30
0.0
  0
VERTEX
  5
45A
100
AcDbEntity
  8
0
370
     0
390
0
100
AcDbVertex
100
AcDb2dVertex
 10
550.395874
 20
-283.789337
 30
0.0
  0
VERTEX
  5
45B
100
AcDbEntity
  8
0
370
     0
390
0
100
AcDbVertex
100
AcDb2dVertex
 10
546.880005
 20
-283.789337
 30
0.0
  0
VERTEX
  5
45C
100
AcDbEntity
  8
0
370
     0
390
0
100
AcDbVertex
100
AcDb2dVertex
 10
543.191284
 20
-301.426239
 30
0.0
  0
VERTEX
  5
45D
100
AcDbEntity
  8
0
370
     0
390
0
100
AcDbVertex
100
AcDb2dVertex
 10
539.531372
 20
-283.789337
 30
0.0
  0
VERTEX
  5
45E
100
AcDbEntity
  8
0
370
     0
390
0
100
AcDbVertex
100
AcDb2dVertex
 10
535.986694
 20
-283.789337
 30
0.0
  0
SEQEND
  5
45F
100
AcDbEntity
  8
0
370
     0
390
0
  0
POLYLINE
  5
460
100
AcDbEntity
  8
0
370
    13
390
0
 62
     7
100
AcDb2dPolyline
 66
     1
 10
0.0
 20
0.0
 30
0.0
 70
     1
 71
    10
  0
VERTEX
  5
461
100
AcDbEntity
  8
0
370
     0
390
0
100
AcDbVertex
100
AcDb2dVertex
 10
-191.361816
 20
-338.342651
 30
0.0
  0
VERTEX
  5
462
100
AcDbEntity
  8
0
370
     0
390
0
100
AcDbVertex
100
AcDb2dVertex
 10
-188.681702
 20
-338.342651
 30
0.0
  0
VERTEX
  5
463
100
AcDbEntity
  8
0
370
     0
390
0
100
AcDbVertex
100
AcDb2dVertex
 10
-188.681702
 20
-329.149567
 30
0.0
  0
VERTEX
  5
464
100
AcDbEntity
  8
0
370
     0
390
0
100
AcDbVertex
100
AcDb2dVertex
 10
-180.266724
 20
-329.149567
 30
0.0
  0
VERTEX
  5
465
100
AcDbEntity
  8
0
370
     0
390
0
100
AcDbVertex
100
AcDb2dVertex
 10
-180.266724
 20
-326.757629
 30
0.0
  0
VERTEX
  5
466
100
AcDbEntity
  8
0
370
     0
390
0
100
AcDbVertex
100
AcDb2dVertex
 10
-188.681702
 20
-326.757629
 30
0.0
  0
VERTEX
  5
467
100
AcDbEntity
  8
0
370
     0
390
0
100
AcDbVertex
100
AcDb2dVertex
 10
-188.681702
 20
-320.763397
 30
0.0
  0
VERTEX
  5
468
100
AcDbEntity
  8
0
370
     0
390
0
100
AcDbVertex
100
AcDb2dVertex
 10
-178.335876
 20
-320.763397
 30
0.0
  0
VERTEX
  5
469
100
AcDbEntity
  8
0
370
     0
390
0
100
AcDbVertex
100
AcDb2dVertex
 10
-178.335876
 20
-318.342651
 30
0.0
  0
VERTEX
  5
46A
100
AcDbEntity
  8
0
370
     0
390
0
100
AcDbVertex
100
AcDb2dVertex
 10
-191.361816
 20
-318.342651
 30
0.0
  0
SEQEND
  5
46B
100
AcDbEntity
  8
0
370
     0
390
0
  0
POLYLINE
  5
46C
100
AcDbEntity
  8
0
370
    13
390
0
 62
     7
100
AcDb2dPolyline
 66
     1
 10
0.0
 20
0.0
 30
0.0
 70
     1
 71
    18
  0
VERTEX
  5
46D
100
AcDbEntity
  8
0
370
     0
390
0
100
AcDbVertex
100
AcDb2dVertex
 10
-175.511673
 20
-328.342651
 30
0.0
  0
VERTEX
  5
46E
100
AcDbEntity
  8
0
370
     0
390
0
100
AcDbVertex
100
AcDb2dVertex
 10
-174.992935
 20
-332.838318
 30
0.0
  0
VERTEX
  5
46F
100
AcDbEntity
  8
0
370
     0
390
0
100
AcDbVertex
100
AcDb2dVertex
 10
-173.494385
 20
-336.152435
 30
0.0
  0
VERTEX
  5
470
100
AcDbEntity
  8
0
370
     0
390
0
100
AcDbVertex
100
AcDb2dVertex
 10
-171.160095
 20
-338.198547
 30
0.0
  0
VERTEX
  5
471
100
AcDbEntity
  8
0
370
     0
390
0
100
AcDbVertex
100
AcDb2dVertex
 10
-168.105331
 20
-338.890198
 30
0.0
  0
VERTEX
  5
472
100
AcDbEntity
  8
0
370
     0
390
0
100
AcDbVertex
100
AcDb2dVertex
 10
-165.079391
 20
-338.198547
 30
0.0
  0
VERTEX
  5
473
100
AcDbEntity
  8
0
370
     0
390
0
100
AcDbVertex
100
AcDb2dVertex
 10
-162.716278
 20
-336.152435
 30
0.0
  0
VERTEX
  5
474
100
AcDbEntity
  8
0
370
     0
390
0
100
AcDbVertex
100
AcDb2dVertex
 10
-161.246552
 20
-332.838318
 30
0.0
  0
VERTEX
  5
475
100
AcDbEntity
  8
0
370
     0
390
0
100
AcDbVertex
100
AcDb2dVertex
 10
-160.69899
 20
-328.342651
 30
0.0
  0
VERTEX
  5
476
100
AcDbEntity
  8
0
370
     0
390
0
100
AcDbVertex
100
AcDb2dVertex
 10
-161.246552
 20
-323.875793
 30
0.0
  0
VERTEX
  5
477
100
AcDbEntity
  8
0
370
     0
390
0
100
AcDbVertex
100
AcDb2dVertex
 10
-161.880554
 20
-322.060242
 30
0.0
  0
VERTEX
  5
478
100
AcDbEntity
  8
0
370
     0
390
0
100
AcDbVertex
100
AcDb2dVertex
 10
-162.716278
 20
-320.561676
 30
0.0
  0
VERTEX
  5
479
100
AcDbEntity
  8
0
370
     0
390
0
100
AcDbVertex
100
AcDb2dVertex
 10
-165.079391
 20
-318.515564
 30
0.0
  0
VERTEX
  5
47A
100
AcDbEntity
  8
0
370
     0
390
0
100
AcDbVertex
100
AcDb2dVertex
 10
-166.520325
 20
-317.996826
 30
0.0
  0
VERTEX
  5
47B
100
AcDbEntity
  8
0
370
     0
390
0
100
AcDbVertex
100
AcDb2dVertex
 10
-168.105331
 20
-317.795105
 30
0.0
  0
VERTEX
  5
47C
100
AcDbEntity
  8
0
370
     0
390
0
100
AcDbVertex
100
AcDb2dVertex
 10
-171.188904
 20
-318.515564
 30
0.0
  0
VERTEX
  5
47D
100
AcDbEntity
  8
0
370
     0
390
0
100
AcDbVertex
100
AcDb2dVertex
 10
-173.523193
 20
-320.532867
 30
0.0
  0
VERTEX
  5
47E
100
AcDbEntity
  8
0
370
     0
390
0
100
AcDbVertex
100
AcDb2dVertex
 10
-174.992935
 20
-323.846985
 30
0.0
  0
SEQEND
  5
47F
100
AcDbEntity
  8
0
370
     0
390
0
  0
POLYLINE
  5
480
100
AcDbEntity
  8
0
370
    13
390
0
 62
     7
100
AcDb2dPolyline
 66
     1
 10
0.0
 20
0.0
 30
0.0
 70
     1
 71
    16
  0
VERTEX
  5
481
100
AcDbEntity
  8
0
370
     0
390
0
100
AcDbVertex
100
AcDb2dVertex
 10
-172.745102
 20
-328.342651
 30
0.0
  0
VERTEX
  5
482
100
AcDbEntity
  8
0
370
     0
390
0
100
AcDbVertex
100
AcDb2dVertex
 10
-172.428101
 20
-324.855621
 30
0.0
  0
VERTEX
  5
483
100
AcDbEntity
  8
0
370
     0
390
0
100
AcDbVertex
100
AcDb2dVertex
 10
-171.477097
 20
-322.290771
 30
0.0
  0
VERTEX
  5
484
100
AcDbEntity
  8
0
370
     0
390
0
100
AcDbVertex
100
AcDb2dVertex
 10
-170.007355
 20
-320.734589
 30
0.0
  0
VERTEX
  5
485
100
AcDbEntity
  8
0
370
     0
390
0
100
AcDbVertex
100
AcDb2dVertex
 10
-168.105331
 20
-320.187042
 30
0.0
  0
VERTEX
  5
486
100
AcDbEntity
  8
0
370
     0
390
0
100
AcDbVertex
100
AcDb2dVertex
 10
-166.232132
 20
-320.734589
 30
0.0
  0
VERTEX
  5
487
100
AcDbEntity
  8
0
370
     0
390
0
100
AcDbVertex
100
AcDb2dVertex
 10
-164.76239
 20
-322.319611
 30
0.0
  0
VERTEX
  5
488
100
AcDbEntity
  8
0
370
     0
390
0
100
AcDbVertex
100
AcDb2dVertex
 10
-163.811386
 20
-324.88443
 30
0.0
  0
VERTEX
  5
489
100
AcDbEntity
  8
0
370
     0
390
0
100
AcDbVertex
100
AcDb2dVertex
 10
-163.465561
 20
-328.342651
 30
0.0
  0
VERTEX
  5
48A
100
AcDbEntity
  8
0
370
     0
390
0
100
AcDbVertex
100
AcDb2dVertex
 10
-163.811386
 20
-331.829681
 30
0.0
  0
VERTEX
  5
48B
100
AcDbEntity
  8
0
370
     0
390
0
100
AcDbVertex
100
AcDb2dVertex
 10
-164.76239
 20
-334.394531
 30
0.0
  0
VERTEX
  5
48C
100
AcDbEntity
  8
0
370
     0
390
0
100
AcDbVertex
100
AcDb2dVertex
 10
-166.232132
 20
-335.950714
 30
0.0
  0
VERTEX
  5
48D
100
AcDbEntity
  8
0
370
     0
390
0
100
AcDbVertex
100
AcDb2dVertex
 10
-168.105331
 20
-336.469452
 30
0.0
  0
VERTEX
  5
48E
100
AcDbEntity
  8
0
370
     0
390
0
100
AcDbVertex
100
AcDb2dVertex
 10
-170.007355
 20
-335.950714
 30
0.0
  0
VERTEX
  5
48F
100
AcDbEntity
  8
0
370
     0
390
0
100
AcDbVertex
100
AcDb2dVertex
 10
-171.477097
 20
-334.394531
 30
0.0
  0
VERTEX
  5
490
100
AcDbEntity
  8
0
370
     0
390
0
100
AcDbVertex
100
AcDb2dVertex
 10
-172.428101
 20
-331.85849
 30
0.0
  0
SEQEND
  5
491
100
AcDbEntity
  8
0
370
     0
390
0
  0
POLYLINE
  5
492
100
AcDbEntity
  8
0
370
    13
390
0
 62
     7
100
AcDb2dPolyline
 66
     1
 10
0.0
 20
0.0
 30
0.0
 70
     1
 71
     8
  0
VERTEX
  5
493
100
AcDbEntity
  8
0
370
     0
390
0
100
AcDbVertex
100
AcDb2dVertex
 10
-159.517441
 20
-338.342651
 30
0.0
  0
VERTEX
  5
494
100
AcDbEntity
  8
0
370
     0
390
0
100
AcDbVertex
100
AcDb2dVertex
 10
-156.866135
 20
-338.342651
 30
0.0
  0
VERTEX
  5
495
100
AcDbEntity
  8
0
370
     0
390
0
100
AcDbVertex
100
AcDb2dVertex
 10
-154.76239
 20
-332.463684
 30
0.0
  0
VERTEX
  5
496
100
AcDbEntity
  8
0
370
     0
390
0
100
AcDbVertex
100
AcDb2dVertex
 10
-146.779678
 20
-332.463684
 30
0.0
  0
VERTEX
  5
497
100
AcDbEntity
  8
0
370
     0
390
0
100
AcDbVertex
100
AcDb2dVertex
 10
-144.675934
 20
-338.342651
 30
0.0
  0
VERTEX
  5
498
100
AcDbEntity
  8
0
370
     0
390
0
100
AcDbVertex
100
AcDb2dVertex
 10
-141.96701
 20
-338.342651
 30
0.0
  0
VERTEX
  5
499
100
AcDbEntity
  8
0
370
     0
390
0
100
AcDbVertex
100
AcDb2dVertex
 10
-149.286896
 20
-318.313843
 30
0.0
  0
VERTEX
  5
49A
100
AcDbEntity
  8
0
370
     0
390
0
100
AcDbVertex
100
AcDb2dVertex
 10
-152.226364
 20
-318.313843
 30
0.0
  0
SEQEND
  5
49B
100
AcDbEntity
  8
0
370
     0
390
0
  0
POLYLINE
  5
49C
100
AcDbEntity
  8
0
370
    13
390
0
 62
     7
100
AcDb2dPolyline
 66
     1
 10
0.0
 20
0.0
 30
0.0
 70
     1
 71
     3
  0
VERTEX
  5
49D
100
AcDbEntity
  8
0
370
     0
390
0
100
AcDbVertex
100
AcDb2dVertex
 10
-153.84021
 20
-330.01413
 30
0.0
  0
VERTEX
  5
49E
100
AcDbEntity
  8
0
370
     0
390
0
100
AcDbVertex
100
AcDb2dVertex
 10
-150.756622
 20
-321.195679
 30
0.0
  0
VERTEX
  5
49F
100
AcDbEntity
  8
0
370
     0
390
0
100
AcDbVertex
100
AcDb2dVertex
 10
-147.673065
 20
-330.01413
 30
0.0
  0
SEQEND
  5
4A0
100
AcDbEntity
  8
0
370
     0
390
0
  0
POLYLINE
  5
4A1
100
AcDbEntity
  8
0
370
    13
390
0
 62
     7
100
AcDb2dPolyline
 66
     1
 10
0.0
 20
0.0
 30
0.0
 70
     1
 71
    13
  0
VERTEX
  5
4A2
100
AcDbEntity
  8
0
370
     0
390
0
100
AcDbVertex
100
AcDb2dVertex
 10
-140.612534
 20
-338.342651
 30
0.0
  0
VERTEX
  5
4A3
100
AcDbEntity
  8
0
370
     0
390
0
100
AcDbVertex
100
AcDb2dVertex
 10
-138.393524
 20
-338.342651
 30
0.0
  0
VERTEX
  5
4A4
100
AcDbEntity
  8
0
370
     0
390
0
100
AcDbVertex
100
AcDb2dVertex
 10
-138.393524
 20
-320.187042
 30
0.0
  0
VERTEX
  5
4A5
100
AcDbEntity
  8
0
370
     0
390
0
100
AcDbVertex
100
AcDb2dVertex
 10
-134.647125
 20
-338.342651
 30
0.0
  0
VERTEX
  5
4A6
100
AcDbEntity
  8
0
370
     0
390
0
100
AcDbVertex
100
AcDb2dVertex
 10
-132.168732
 20
-338.342651
 30
0.0
  0
VERTEX
  5
4A7
100
AcDbEntity
  8
0
370
     0
390
0
100
AcDbVertex
100
AcDb2dVertex
 10
-128.451141
 20
-320.187042
 30
0.0
  0
VERTEX
  5
4A8
100
AcDbEntity
  8
0
370
     0
390
0
100
AcDbVertex
100
AcDb2dVertex
 10
-128.451141
 20
-338.342651
 30
0.0
  0
VERTEX
  5
4A9
100
AcDbEntity
  8
0
370
     0
390
0
100
AcDbVertex
100
AcDb2dVertex
 10
-126.203316
 20
-338.342651
 30
0.0
  0
VERTEX
  5
4AA
100
AcDbEntity
  8
0
370
     0
390
0
100
AcDbVertex
100
AcDb2dVertex
 10
-126.203316
 20
-318.342651
 30
0.0
  0
VERTEX
  5
4AB
100
AcDbEntity
  8
0
370
     0
390
0
100
AcDbVertex
100
AcDb2dVertex
 10
-129.719162
 20
-318.342651
 30
0.0
  0
VERTEX
  5
4AC
100
AcDbEntity
  8
0
370
     0
390
0
100
AcDbVertex
100
AcDb2dVertex
 10
-133.407928
 20
-335.979553
 30
0.0
  0
VERTEX
  5
4AD
100
AcDbEntity
  8
0
370
     0
390
0
100
AcDbVertex
100
AcDb2dVertex
 10
-137.067871
 20
-318.342651
 30
0.0
  0
VERTEX
  5
4AE
100
AcDbEntity
  8
0
370
     0
390
0
100
AcDbVertex
100
AcDb2dVertex
 10
-140.612534
 20
-318.342651
 30
0.0
  0
SEQEND
  5
4AF
100
AcDbEntity
  8
0
370
     0
390
0
  0
POLYLINE
  5
4B0
100
AcDbEntity
  8
0
370
    13
390
0
 62
     7
100
AcDb2dPolyline
 66
     1
 10
0.0
 20
0.0
 30
0.0
 70
     1
 71
     4
  0
VERTEX
  5
4B1
100
AcDbEntity
  8
0
370
     0
390
0
100
AcDbVertex
100
AcDb2dVertex
 10
-102.197556
 20
-331.743225
 30
0.0
  0
VERTEX
  5
4B2
100
AcDbEntity
  8
0
370
     0
390
0
100
AcDbVertex
100
AcDb2dVertex
 10
-95.223488
 20
-331.743225
 30
0.0
  0
VERTEX
  5
4B3
100
AcDbEntity
  8
0
370
     0
390
0
100
AcDbVertex
100
AcDb2dVertex
 10
-95.223488
 20
-329.466583
 30
0.0
  0
VERTEX
  5
4B4
100
AcDbEntity
  8
0
370
     0
390
0
100
AcDbVertex
100
AcDb2dVertex
 10
-102.197556
 20
-329.466583
 30
0.0
  0
SEQEND
  5
4B5
100
AcDbEntity
  8
0
370
     0
390
0
  0
POLYLINE
  5
4B6
100
AcDbEntity
  8
0
370
    13
390
0
 62
     7
100
AcDb2dPolyline
 66
     1
 10
0.0
 20
0.0
 30
0.0
 70
     1
 71
    10
  0
VERTEX
  5
4B7
100
AcDbEntity
  8
0
370
     0
390
0
100
AcDbVertex
100
AcDb2dVertex
 10
-64.531845
 20
-338.342651
 30
0.0
  0
VERTEX
  5
4B8
100
AcDbEntity
  8
0
370
     0
390
0
100
AcDbVertex
100
AcDb2dVertex
 10
-61.909378
 20
-338.342651
 30
0.0
  0
VERTEX
  5
4B9
100
AcDbEntity
  8
0
370
     0
390
0
100
AcDbVertex
100
AcDb2dVertex
 10
-61.909378
 20
-318.198547
 30
0.0
  0
VERTEX
  5
4BA
100
AcDbEntity
  8
0
370
     0
390
0
100
AcDbVertex
100
AcDb2dVertex
 10
-63.869019
 20
-318.198547
 30
0.0
  0
VERTEX
  5
4BB
100
AcDbEntity
  8
0
370
     0
390
0
100
AcDbVertex
100
AcDb2dVertex
 10
-64.387756
 20
-319.956482
 30
0.0
  0
VERTEX
  5
4BC
100
AcDbEntity
  8
0
370
     0
390
0
100
AcDbVertex
100
AcDb2dVertex
 10
-65.425217
 20
-321.138031
 30
0.0
  0
VERTEX
  5
4BD
100
AcDbEntity
  8
0
370
     0
390
0
100
AcDbVertex
100
AcDb2dVertex
 10
-67.010239
 20
-321.829681
 30
0.0
  0
VERTEX
  5
4BE
100
AcDbEntity
  8
0
370
     0
390
0
100
AcDbVertex
100
AcDb2dVertex
 10
-69.200439
 20
-322.060242
 30
0.0
  0
VERTEX
  5
4BF
100
AcDbEntity
  8
0
370
     0
390
0
100
AcDbVertex
100
AcDb2dVertex
 10
-69.200439
 20
-324.106354
 30
0.0
  0
VERTEX
  5
4C0
100
AcDbEntity
  8
0
370
     0
390
0
100
AcDbVertex
100
AcDb2dVertex
 10
-64.531845
 20
-324.106354
 30
0.0
  0
SEQEND
  5
4C1
100
AcDbEntity
  8
0
370
     0
390
0
  0
POLYLINE
  5
4C2
100
AcDbEntity
  8
0
370
    13
390
0
 62
     7
100
AcDb2dPolyline
 66
     1
 10
0.0
 20
0.0
 30
0.0
 70
     1
 71
    35
  0
VERTEX
  5
4C3
100
AcDbEntity
  8
0
370
     0
390
0
100
AcDbVertex
100
AcDb2dVertex
 10
-53.811386
 20
-333.126526
 30
0.0
  0
VERTEX
  5
4C4
100
AcDbEntity
  8
0
370
     0
390
0
100
AcDbVertex
100
AcDb2dVertex
 10
-53.177383
 20
-335.489624
 30
0.0
  0
VERTEX
  5
4C5
100
AcDbEntity
  8
0
370
     0
390
0
100
AcDbVertex
100
AcDb2dVertex
 10
-51.765274
 20
-337.334015
 30
0.0
  0
VERTEX
  5
4C6
100
AcDbEntity
  8
0
370
     0
390
0
100
AcDbVertex
100
AcDb2dVertex
 10
-49.690338
 20
-338.486755
 30
0.0
  0
VERTEX
  5
4C7
100
AcDbEntity
  8
0
370
     0
390
0
100
AcDbVertex
100
AcDb2dVertex
 10
-47.039047
 20
-338.919006
 30
0.0
  0
VERTEX
  5
4C8
100
AcDbEntity
  8
0
370
     0
390
0
100
AcDbVertex
100
AcDb2dVertex
 10
-44.128387
 20
-338.400299
 30
0.0
  0
VERTEX
  5
4C9
100
AcDbEntity
  8
0
370
     0
390
0
100
AcDbVertex
100
AcDb2dVertex
 10
-41.85173
 20
-336.98819
 30
0.0
  0
VERTEX
  5
4CA
100
AcDbEntity
  8
0
370
     0
390
0
100
AcDbVertex
100
AcDb2dVertex
 10
-40.410812
 20
-334.740356
 30
0.0
  0
VERTEX
  5
4CB
100
AcDbEntity
  8
0
370
     0
390
0
100
AcDbVertex
100
AcDb2dVertex
 10
-39.863251
 20
-331.85849
 30
0.0
  0
VERTEX
  5
4CC
100
AcDbEntity
  8
0
370
     0
390
0
100
AcDbVertex
100
AcDb2dVertex
 10
-40.353165
 20
-329.178375
 30
0.0
  0
VERTEX
  5
4CD
100
AcDbEntity
  8
0
370
     0
390
0
100
AcDbVertex
100
AcDb2dVertex
 10
-41.73645
 20
-327.074646
 30
0.0
  0
VERTEX
  5
4CE
100
AcDbEntity
  8
0
370
     0
390
0
100
AcDbVertex
100
AcDb2dVertex
 10
-43.897842
 20
-325.720184
 30
0.0
  0
VERTEX
  5
4CF
100
AcDbEntity
  8
0
370
     0
390
0
100
AcDbVertex
100
AcDb2dVertex
 10
-46.693222
 20
-325.230255
 30
0.0
  0
VERTEX
  5
4D0
100
AcDbEntity
  8
0
370
     0
390
0
100
AcDbVertex
100
AcDb2dVertex
 10
-48.854614
 20
-325.57608
 30
0.0
  0
VERTEX
  5
4D1
100
AcDbEntity
  8
0
370
     0
390
0
100
AcDbVertex
100
AcDb2dVertex
 10
-50.526077
 20
-326.5271
 30
0.0
  0
VERTEX
  5
4D2
100
AcDbEntity
  8
0
370
     0
390
0
100
AcDbVertex
100
AcDb2dVertex
 10
-49.719162
 20
-321.138031
 30
0.0
  0
VERTEX
  5
4D3
100
AcDbEntity
  8
0
370
     0
390
0
100
AcDbVertex
100
AcDb2dVertex
 10
-40.958359
 20
-321.138031
 30
0.0
  0
VERTEX
  5
4D4
100
AcDbEntity
  8
0
370
     0
390
0
100
AcDbVertex
100
AcDb2dVertex
 10
-40.958359
 20
-318.774933
 30
0.0
  0
VERTEX
  5
4D5
100
AcDbEntity
  8
0
370
     0
390
0
100
AcDbVertex
100
AcDb2dVertex
 10
-51.649994
 20
-318.774933
 30
0.0
  0
VERTEX
  5
4D6
100
AcDbEntity
  8
0
370
     0
390
0
100
AcDbVertex
100
AcDb2dVertex
 10
-53.235016
 20
-329.380127
 30
0.0
  0
VERTEX
  5
4D7
100
AcDbEntity
  8
0
370
     0
390
0
100
AcDbVertex
100
AcDb2dVertex
 10
-50.929535
 20
-329.380127
 30
0.0
  0
VERTEX
  5
4D8
100
AcDbEntity
  8
0
370
     0
390
0
100
AcDbVertex
100
AcDb2dVertex
 10
-49.258072
 20
-328.025635
 30
0.0
  0
VERTEX
  5
4D9
100
AcDbEntity
  8
0
370
     0
390
0
100
AcDbVertex
100
AcDb2dVertex
 10
-47.125504
 20
-327.535736
 30
0.0
  0
VERTEX
  5
4DA
100
AcDbEntity
  8
0
370
     0
390
0
100
AcDbVertex
100
AcDb2dVertex
 10
-45.281128
 20
-327.852753
 30
0.0
  0
VERTEX
  5
4DB
100
AcDbEntity
  8
0
370
     0
390
0
100
AcDbVertex
100
AcDb2dVertex
 10
-43.869019
 20
-328.774933
 30
0.0
  0
VERTEX
  5
4DC
100
AcDbEntity
  8
0
370
     0
390
0
100
AcDbVertex
100
AcDb2dVertex
 10
-42.975647
 20
-330.187042
 30
0.0
  0
VERTEX
  5
4DD
100
AcDbEntity
  8
0
370
     0
390
0
100
AcDbVertex
100
AcDb2dVertex
 10
-42.658646
 20
-332.002594
 30
0.0
  0
VERTEX
  5
4DE
100
AcDbEntity
  8
0
370
     0
390
0
100
AcDbVertex
100
AcDb2dVertex
 10
-42.975647
 20
-333.818146
 30
0.0
  0
VERTEX
  5
4DF
100
AcDbEntity
  8
0
370
     0
390
0
100
AcDbVertex
100
AcDb2dVertex
 10
-43.897842
 20
-335.230255
 30
0.0
  0
VERTEX
  5
4E0
100
AcDbEntity
  8
0
370
     0
390
0
100
AcDbVertex
100
AcDb2dVertex
 10
-45.309937
 20
-336.123627
 30
0.0
  0
VERTEX
  5
4E1
100
AcDbEntity
  8
0
370
     0
390
0
100
AcDbVertex
100
AcDb2dVertex
 10
-47.125504
 20
-336.440643
 30
0.0
  0
VERTEX
  5
4E2
100
AcDbEntity
  8
0
370
     0
390
0
100
AcDbVertex
100
AcDb2dVertex
 10
-48.652878
 20
-336.238892
 30
0.0
  0
VERTEX
  5
4E3
100
AcDbEntity
  8
0
370
     0
390
0
100
AcDbVertex
100
AcDb2dVertex
 10
-49.834442
 20
-335.57608
 30
0.0
  0
VERTEX
  5
4E4
100
AcDbEntity
  8
0
370
     0
390
0
100
AcDbVertex
100
AcDb2dVertex
 10
-50.69899
 20
-334.538605
 30
0.0
  0
VERTEX
  5
4E5
100
AcDbEntity
  8
0
370
     0
390
0
100
AcDbVertex
100
AcDb2dVertex
 10
-51.131271
 20
-333.126526
 30
0.0
  0
SEQEND
  5
4E6
100
AcDbEntity
  8
0
370
     0
390
0
  0
POLYLINE
  5
4E7
100
AcDbEntity
  8
0
370
    13
390
0
 62
     7
100
AcDb2dPolyline
 66
     1
 10
0.0
 20
0.0
 30
0.0
 70
     1
 71
    36
  0
VERTEX
  5
4E8
100
AcDbEntity
  8
0
370
     0
390
0
100
AcDbVertex
100
AcDb2dVertex
 10
-36.289764
 20
-338.342651
 30
0.0
  0
VERTEX
  5
4E9
100
AcDbEntity
  8
0
370
     0
390
0
100
AcDbVertex
100
AcDb2dVertex
 10
-33.955475
 20
-338.342651
 30
0.0
  0
VERTEX
  5
4EA
100
AcDbEntity
  8
0
370
     0
390
0
100
AcDbVertex
100
AcDb2dVertex
 10
-33.955475
 20
-327.996826
 30
0.0
  0
VERTEX
  5
4EB
100
AcDbEntity
  8
0
370
     0
390
0
100
AcDbVertex
100
AcDb2dVertex
 10
-33.811371
 20
-326.440643
 30
0.0
  0
VERTEX
  5
4EC
100
AcDbEntity
  8
0
370
     0
390
0
100
AcDbVertex
100
AcDb2dVertex
 10
-33.379105
 20
-325.316711
 30
0.0
  0
VERTEX
  5
4ED
100
AcDbEntity
  8
0
370
     0
390
0
100
AcDbVertex
100
AcDb2dVertex
 10
-32.716278
 20
-324.6539
 30
0.0
  0
VERTEX
  5
4EE
100
AcDbEntity
  8
0
370
     0
390
0
100
AcDbVertex
100
AcDb2dVertex
 10
-31.85173
 20
-324.394531
 30
0.0
  0
VERTEX
  5
4EF
100
AcDbEntity
  8
0
370
     0
390
0
100
AcDbVertex
100
AcDb2dVertex
 10
-31.16008
 20
-324.625061
 30
0.0
  0
VERTEX
  5
4F0
100
AcDbEntity
  8
0
370
     0
390
0
100
AcDbVertex
100
AcDb2dVertex
 10
-30.69899
 20
-325.201447
 30
0.0
  0
VERTEX
  5
4F1
100
AcDbEntity
  8
0
370
     0
390
0
100
AcDbVertex
100
AcDb2dVertex
 10
-30.468445
 20
-326.181274
 30
0.0
  0
VERTEX
  5
4F2
100
AcDbEntity
  8
0
370
     0
390
0
100
AcDbVertex
100
AcDb2dVertex
 10
-30.381989
 20
-327.478088
 30
0.0
  0
VERTEX
  5
4F3
100
AcDbEntity
  8
0
370
     0
390
0
100
AcDbVertex
100
AcDb2dVertex
 10
-30.381989
 20
-338.342651
 30
0.0
  0
VERTEX
  5
4F4
100
AcDbEntity
  8
0
370
     0
390
0
100
AcDbVertex
100
AcDb2dVertex
 10
-28.191788
 20
-338.342651
 30
0.0
  0
VERTEX
  5
4F5
100
AcDbEntity
  8
0
370
     0
390
0
100
AcDbVertex
100
AcDb2dVertex
 10
-28.191788
 20
-327.996826
 30
0.0
  0
VERTEX
  5
4F6
100
AcDbEntity
  8
0
370
     0
390
0
100
AcDbVertex
100
AcDb2dVertex
 10
-28.047684
 20
-326.469452
 30
0.0
  0
VERTEX
  5
4F7
100
AcDbEntity
  8
0
370
     0
390
0
100
AcDbVertex
100
AcDb2dVertex
 10
-27.615417
 20
-325.34552
 30
0.0
  0
VERTEX
  5
4F8
100
AcDbEntity
  8
0
370
     0
390
0
100
AcDbVertex
100
AcDb2dVertex
 10
-26.923767
 20
-324.6539
 30
0.0
  0
VERTEX
  5
4F9
100
AcDbEntity
  8
0
370
     0
390
0
100
AcDbVertex
100
AcDb2dVertex
 10
-26.059219
 20
-324.394531
 30
0.0
  0
VERTEX
  5
4FA
100
AcDbEntity
  8
0
370
     0
390
0
100
AcDbVertex
100
AcDb2dVertex
 10
-25.367569
 20
-324.625061
 30
0.0
  0
VERTEX
  5
4FB
100
AcDbEntity
  8
0
370
     0
390
0
100
AcDbVertex
100
AcDb2dVertex
 10
-24.906479
 20
-325.201447
 30
0.0
  0
VERTEX
  5
4FC
100
AcDbEntity
  8
0
370
     0
390
0
100
AcDbVertex
100
AcDb2dVertex
 10
-24.618286
 20
-327.478088
 30
0.0
  0
VERTEX
  5
4FD
100
AcDbEntity
  8
0
370
     0
390
0
100
AcDbVertex
100
AcDb2dVertex
 10
-24.618286
 20
-338.342651
 30
0.0
  0
VERTEX
  5
4FE
100
AcDbEntity
  8
0
370
     0
390
0
100
AcDbVertex
100
AcDb2dVertex
 10
-22.283997
 20
-338.342651
 30
0.0
  0
VERTEX
  5
4FF
100
AcDbEntity
  8
0
370
     0
390
0
100
AcDbVertex
100
AcDb2dVertex
 10
-22.283997
 20
-327.651001
 30
0.0
  0
VERTEX
  5
500
100
AcDbEntity
  8
0
370
     0
390
0
100
AcDbVertex
100
AcDb2dVertex
 10
-22.428085
 20
-325.431976
 30
0.0
  0
VERTEX
  5
501
100
AcDbEntity
  8
0
370
     0
390
0
100
AcDbVertex
100
AcDb2dVertex
 10
-22.889191
 20
-323.731689
 30
0.0
  0
VERTEX
  5
502
100
AcDbEntity
  8
0
370
     0
390
0
100
AcDbVertex
100
AcDb2dVertex
 10
-23.811371
 20
-322.694244
 30
0.0
  0
VERTEX
  5
503
100
AcDbEntity
  8
0
370
     0
390
0
100
AcDbVertex
100
AcDb2dVertex
 10
-25.309937
 20
-322.319611
 30
0.0
  0
VERTEX
  5
504
100
AcDbEntity
  8
0
370
     0
390
0
100
AcDbVertex
100
AcDb2dVertex
 10
-27.067856
 20
-322.895966
 30
0.0
  0
VERTEX
  5
505
100
AcDbEntity
  8
0
370
     0
390
0
100
AcDbVertex
100
AcDb2dVertex
 10
-28.422333
 20
-324.567444
 30
0.0
  0
VERTEX
  5
506
100
AcDbEntity
  8
0
370
     0
390
0
100
AcDbVertex
100
AcDb2dVertex
 10
-29.488617
 20
-322.924774
 30
0.0
  0
VERTEX
  5
507
100
AcDbEntity
  8
0
370
     0
390
0
100
AcDbVertex
100
AcDb2dVertex
 10
-31.27536
 20
-322.319611
 30
0.0
  0
VERTEX
  5
508
100
AcDbEntity
  8
0
370
     0
390
0
100
AcDbVertex
100
AcDb2dVertex
 10
-32.917999
 20
-322.895966
 30
0.0
  0
VERTEX
  5
509
100
AcDbEntity
  8
0
370
     0
390
0
100
AcDbVertex
100
AcDb2dVertex
 10
-34.041931
 20
-324.509796
 30
0.0
  0
VERTEX
  5
50A
100
AcDbEntity
  8
0
370
     0
390
0
100
AcDbVertex
100
AcDb2dVertex
 10
-34.041931
 20
-322.867157
 30
0.0
  0
VERTEX
  5
50B
100
AcDbEntity
  8
0
370
     0
390
0
100
AcDbVertex
100
AcDb2dVertex
 10
-36.289764
 20
-322.867157
 30
0.0
  0
SEQEND
  5
50C
100
AcDbEntity
  8
0
370
     0
390
0
  0
POLYLINE
  5
50D
100
AcDbEntity
  8
0
370
    13
390
0
 62
     7
100
AcDb2dPolyline
 66
     1
 10
0.0
 20
0.0
 30
0.0
 70
     1
 71
    36
  0
VERTEX
  5
50E
100
AcDbEntity
  8
0
370
     0
390
0
100
AcDbVertex
100
AcDb2dVertex
 10
-18.941055
 20
-338.342651
 30
0.0
  0
VERTEX
  5
50F
100
AcDbEntity
  8
0
370
     0
390
0
100
AcDbVertex
100
AcDb2dVertex
 10
-16.606766
 20
-338.342651
 30
0.0
  0
VERTEX
  5
510
100
AcDbEntity
  8
0
370
     0
390
0
100
AcDbVertex
100
AcDb2dVertex
 10
-16.606766
 20
-327.996826
 30
0.0
  0
VERTEX
  5
511
100
AcDbEntity
  8
0
370
     0
390
0
100
AcDbVertex
100
AcDb2dVertex
 10
-16.462662
 20
-326.440643
 30
0.0
  0
VERTEX
  5
512
100
AcDbEntity
  8
0
370
     0
390
0
100
AcDbVertex
100
AcDb2dVertex
 10
-16.030396
 20
-325.316711
 30
0.0
  0
VERTEX
  5
513
100
AcDbEntity
  8
0
370
     0
390
0
100
AcDbVertex
100
AcDb2dVertex
 10
-15.367569
 20
-324.6539
 30
0.0
  0
VERTEX
  5
514
100
AcDbEntity
  8
0
370
     0
390
0
100
AcDbVertex
100
AcDb2dVertex
 10
-14.503021
 20
-324.394531
 30
0.0
  0
VERTEX
  5
515
100
AcDbEntity
  8
0
370
     0
390
0
100
AcDbVertex
100
AcDb2dVertex
 10
-13.811371
 20
-324.625061
 30
0.0
  0
VERTEX
  5
516
100
AcDbEntity
  8
0
370
     0
390
0
100
AcDbVertex
100
AcDb2dVertex
 10
-13.350281
 20
-325.201447
 30
0.0
  0
VERTEX
  5
517
100
AcDbEntity
  8
0
370
     0
390
0
100
AcDbVertex
100
AcDb2dVertex
 10
-13.119736
 20
-326.181274
 30
0.0
  0
VERTEX
  5
518
100
AcDbEntity
  8
0
370
     0
390
0
100
AcDbVertex
100
AcDb2dVertex
 10
-13.033279
 20
-327.478088
 30
0.0
  0
VERTEX
  5
519
100
AcDbEntity
  8
0
370
     0
390
0
100
AcDbVertex
100
AcDb2dVertex
 10
-13.033279
 20
-338.342651
 30
0.0
  0
VERTEX
  5
51A
100
AcDbEntity
  8
0
370
     0
390
0
100
AcDbVertex
100
AcDb2dVertex
 10
-10.843079
 20
-338.342651
 30
0.0
  0
VERTEX
  5
51B
100
AcDbEntity
  8
0
370
     0
390
0
100
AcDbVertex
100
AcDb2dVertex
 10
-10.843079
 20
-327.996826
 30
0.0
  0
VERTEX
  5
51C
100
AcDbEntity
  8
0
370
     0
390
0
100
AcDbVertex
100
AcDb2dVertex
 10
-10.698975
 20
-326.469452
 30
0.0
  0
VERTEX
  5
51D
100
AcDbEntity
  8
0
370
     0
390
0
100
AcDbVertex
100
AcDb2dVertex
 10
-10.266708
 20
-325.34552
 30
0.0
  0
VERTEX
  5
51E
100
AcDbEntity
  8
0
370
     0
390
0
100
AcDbVertex
100
AcDb2dVertex
 10
-9.575058
 20
-324.6539
 30
0.0
  0
VERTEX
  5
51F
100
AcDbEntity
  8
0
370
     0
390
0
100
AcDbVertex
100
AcDb2dVertex
 10
-8.71051
 20
-324.394531
 30
0.0
  0
VERTEX
  5
520
100
AcDbEntity
  8
0
370
     0
390
0
100
AcDbVertex
100
AcDb2dVertex
 10
-8.01886
 20
-324.625061
 30
0.0
  0
VERTEX
  5
521
100
AcDbEntity
  8
0
370
     0
390
0
100
AcDbVertex
100
AcDb2dVertex
 10
-7.55777
 20
-325.201447
 30
0.0
  0
VERTEX
  5
522
100
AcDbEntity
  8
0
370
     0
390
0
100
AcDbVertex
100
AcDb2dVertex
 10
-7.269577
 20
-327.478088
 30
0.0
  0
VERTEX
  5
523
100
AcDbEntity
  8
0
370
     0
390
0
100
AcDbVertex
100
AcDb2dVertex
 10
-7.269577
 20
-338.342651
 30
0.0
  0
VERTEX
  5
524
100
AcDbEntity
  8
0
370
     0
390
0
100
AcDbVertex
100
AcDb2dVertex
 10
-4.935287
 20
-338.342651
 30
0.0
  0
VERTEX
  5
525
100
AcDbEntity
  8
0
370
     0
390
0
100
AcDbVertex
100
AcDb2dVertex
 10
-4.935287
 20
-327.651001
 30
0.0
  0
VERTEX
  5
526
100
AcDbEntity
  8
0
370
     0
390
0
100
AcDbVertex
100
AcDb2dVertex
 10
-5.079376
 20
-325.431976
 30
0.0
  0
VERTEX
  5
527
100
AcDbEntity
  8
0
370
     0
390
0
100
AcDbVertex
100
AcDb2dVertex
 10
-5.540482
 20
-323.731689
 30
0.0
  0
VERTEX
  5
528
100
AcDbEntity
  8
0
370
     0
390
0
100
AcDbVertex
100
AcDb2dVertex
 10
-6.462662
 20
-322.694244
 30
0.0
  0
VERTEX
  5
529
100
AcDbEntity
  8
0
370
     0
390
0
100
AcDbVertex
100
AcDb2dVertex
 10
-7.961227
 20
-322.319611
 30
0.0
  0
VERTEX
  5
52A
100
AcDbEntity
  8
0
370
     0
390
0
100
AcDbVertex
100
AcDb2dVertex
 10
-9.719147
 20
-322.895966
 30
0.0
  0
VERTEX
  5
52B
100
AcDbEntity
  8
0
370
     0
390
0
100
AcDbVertex
100
AcDb2dVertex
 10
-11.073624
 20
-324.567444
 30
0.0
  0
VERTEX
  5
52C
100
AcDbEntity
  8
0
370
     0
390
0
100
AcDbVertex
100
AcDb2dVertex
 10
-12.139908
 20
-322.924774
 30
0.0
  0
VERTEX
  5
52D
100
AcDbEntity
  8
0
370
     0
390
0
100
AcDbVertex
100
AcDb2dVertex
 10
-13.926651
 20
-322.319611
 30
0.0
  0
VERTEX
  5
52E
100
AcDbEntity
  8
0
370
     0
390
0
100
AcDbVertex
100
AcDb2dVertex
 10
-15.56929
 20
-322.895966
 30
0.0
  0
VERTEX
  5
52F
100
AcDbEntity
  8
0
370
     0
390
0
100
AcDbVertex
100
AcDb2dVertex
 10
-16.693222
 20
-324.509796
 30
0.0
  0
VERTEX
  5
530
100
AcDbEntity
  8
0
370
     0
390
0
100
AcDbVertex
100
AcDb2dVertex
 10
-16.693222
 20
-322.867157
 30
0.0
  0
VERTEX
  5
531
100
AcDbEntity
  8
0
370
     0
390
0
100
AcDbVertex
100
AcDb2dVertex
 10
-18.941055
 20
-322.867157
 30
0.0
  0
SEQEND
  5
532
100
AcDbEntity
  8
0
370
     0
390
0
  0
POLYLINE
  5
533
100
AcDbEntity
  8
0
370
    13
390
0
 62
     7
100
AcDb2dPolyline
 66
     1
 10
0.0
 20
0.0
 30
0.0
 70
     1
 71
    11
  0
VERTEX
  5
534
100
AcDbEntity
  8
0
370
     0
390
0
100
AcDbVertex
100
AcDb2dVertex
 10
-183.869019
 20
-372.895966
 30
0.0
  0
VERTEX
  5
535
100
AcDbEntity
  8
0
370
     0
390
0
100
AcDbVertex
100
AcDb2dVertex
 10
-181.27536
 20
-372.895966
 30
0.0
  0
VERTEX
  5
536
100
AcDbEntity
  8
0
370
     0
390
0
100
AcDbVertex
100
AcDb2dVertex
 10
-181.27536
 20
-367.939178
 30
0.0
  0
VERTEX
  5
537
100
AcDbEntity
  8
0
370
     0
390
0
100
AcDbVertex
100
AcDb2dVertex
 10
-178.422333
 20
-367.939178
 30
0.0
  0
VERTEX
  5
538
100
AcDbEntity
  8
0
370
     0
390
0
100
AcDbVertex
100
AcDb2dVertex
 10
-178.422333
 20
-365.633728
 30
0.0
  0
VERTEX
  5
539
100
AcDbEntity
  8
0
370
     0
390
0
100
AcDbVertex
100
AcDb2dVertex
 10
-181.27536
 20
-365.633728
 30
0.0
  0
VERTEX
  5
53A
100
AcDbEntity
  8
0
370
     0
390
0
100
AcDbVertex
100
AcDb2dVertex
 10
-181.27536
 20
-353.328247
 30
0.0
  0
VERTEX
  5
53B
100
AcDbEntity
  8
0
370
     0
390
0
100
AcDbVertex
100
AcDb2dVertex
 10
-183.897842
 20
-353.328247
 30
0.0
  0
VERTEX
  5
53C
100
AcDbEntity
  8
0
370
     0
390
0
100
AcDbVertex
100
AcDb2dVertex
 10
-192.658646
 20
-365.403168
 30
0.0
  0
VERTEX
  5
53D
100
AcDbEntity
  8
0
370
     0
390
0
100
AcDbVertex
100
AcDb2dVertex
 10
-192.658646
 20
-367.939178
 30
0.0
  0
VERTEX
  5
53E
100
AcDbEntity
  8
0
370
     0
390
0
100
AcDbVertex
100
AcDb2dVertex
 10
-183.869019
 20
-367.939178
 30
0.0
  0
SEQEND
  5
53F
100
AcDbEntity
  8
0
370
     0
390
0
  0
POLYLINE
  5
540
100
AcDbEntity
  8
0
370
    13
390
0
 62
     7
100
AcDb2dPolyline
 66
     1
 10
0.0
 20
0.0
 30
0.0
 70
     1
 71
     3
  0
VERTEX
  5
541
100
AcDbEntity
  8
0
370
     0
390
0
100
AcDbVertex
100
AcDb2dVertex
 10
-190.2379
 20
-365.633728
 30
0.0
  0
VERTEX
  5
542
100
AcDbEntity
  8
0
370
     0
390
0
100
AcDbVertex
100
AcDb2dVertex
 10
-183.869019
 20
-356.671173
 30
0.0
  0
VERTEX
  5
543
100
AcDbEntity
  8
0
370
     0
390
0
100
AcDbVertex
100
AcDb2dVertex
 10
-183.869019
 20
-365.633728
 30
0.0
  0
SEQEND
  5
544
100
AcDbEntity
  8
0
370
     0
390
0
  0
POLYLINE
  5
545
100
AcDbEntity
  8
0
370
    13
390
0
 62
     7
100
AcDb2dPolyline
 66
     1
 10
0.0
 20
0.0
 30
0.0
 70
     1
 71
    20
  0
VERTEX
  5
546
100
AcDbEntity
  8
0
370
     0
390
0
100
AcDbVertex
100
AcDb2dVertex
 10
-171.678818
 20
-359.812378
 30
0.0
  0
VERTEX
  5
547
100
AcDbEntity
  8
0
370
     0
390
0
100
AcDbVertex
100
AcDb2dVertex
 10
-171.678818
 20
-357.420471
 30
0.0
  0
VERTEX
  5
548
100
AcDbEntity
  8
0
370
     0
390
0
100
AcDbVertex
100
AcDb2dVertex
 10
-174.214844
 20
-357.420471
 30
0.0
  0
VERTEX
  5
549
100
AcDbEntity
  8
0
370
     0
390
0
100
AcDbVertex
100
AcDb2dVertex
 10
-174.214844
 20
-378.890198
 30
0.0
  0
VERTEX
  5
54A
100
AcDbEntity
  8
0
370
     0
390
0
100
AcDbVertex
100
AcDb2dVertex
 10
-171.678818
 20
-378.890198
 30
0.0
  0
VERTEX
  5
54B
100
AcDbEntity
  8
0
370
     0
390
0
100
AcDbVertex
100
AcDb2dVertex
 10
-171.678818
 20
-370.532867
 30
0.0
  0
VERTEX
  5
54C
100
AcDbEntity
  8
0
370
     0
390
0
100
AcDbVertex
100
AcDb2dVertex
 10
-170.785446
 20
-371.887329
 30
0.0
  0
VERTEX
  5
54D
100
AcDbEntity
  8
0
370
     0
390
0
100
AcDbVertex
100
AcDb2dVertex
 10
-169.776794
 20
-372.780701
 30
0.0
  0
VERTEX
  5
54E
100
AcDbEntity
  8
0
370
     0
390
0
100
AcDbVertex
100
AcDb2dVertex
 10
-167.240784
 20
-373.443512
 30
0.0
  0
VERTEX
  5
54F
100
AcDbEntity
  8
0
370
     0
390
0
100
AcDbVertex
100
AcDb2dVertex
 10
-164.820038
 20
-372.895966
 30
0.0
  0
VERTEX
  5
550
100
AcDbEntity
  8
0
370
     0
390
0
100
AcDbVertex
100
AcDb2dVertex
 10
-162.918015
 20
-371.253326
 30
0.0
  0
VERTEX
  5
551
100
AcDbEntity
  8
0
370
     0
390
0
100
AcDbVertex
100
AcDb2dVertex
 10
-161.678818
 20
-368.659668
 30
0.0
  0
VERTEX
  5
552
100
AcDbEntity
  8
0
370
     0
390
0
100
AcDbVertex
100
AcDb2dVertex
 10
-161.217728
 20
-365.143799
 30
0.0
  0
VERTEX
  5
553
100
AcDbEntity
  8
0
370
     0
390
0
100
AcDbVertex
100
AcDb2dVertex
 10
-161.678818
 20
-361.656769
 30
0.0
  0
VERTEX
  5
554
100
AcDbEntity
  8
0
370
     0
390
0
100
AcDbVertex
100
AcDb2dVertex
 10
-162.918015
 20
-359.06311
 30
0.0
  0
VERTEX
  5
555
100
AcDbEntity
  8
0
370
     0
390
0
100
AcDbVertex
100
AcDb2dVertex
 10
-164.820038
 20
-357.44928
 30
0.0
  0
VERTEX
  5
556
100
AcDbEntity
  8
0
370
     0
390
0
100
AcDbVertex
100
AcDb2dVertex
 10
-167.240784
 20
-356.872925
 30
0.0
  0
VERTEX
  5
557
100
AcDbEntity
  8
0
370
     0
390
0
100
AcDbVertex
100
AcDb2dVertex
 10
-168.624069
 20
-357.045837
 30
0.0
  0
VERTEX
  5
558
100
AcDbEntity
  8
0
370
     0
390
0
100
AcDbVertex
100
AcDb2dVertex
 10
-169.805618
 20
-357.593384
 30
0.0
  0
VERTEX
  5
559
100
AcDbEntity
  8
0
370
     0
390
0
100
AcDbVertex
100
AcDb2dVertex
 10
-170.81427
 20
-358.515564
 30
0.0
  0
SEQEND
  5
55A
100
AcDbEntity
  8
0
370
     0
390
0
  0
POLYLINE
  5
55B
100
AcDbEntity
  8
0
370
    13
390
0
 62
     7
100
AcDb2dPolyline
 66
     1
 10
0.0
 20
0.0
 30
0.0
 70
     1
 71
    16
  0
VERTEX
  5
55C
100
AcDbEntity
  8
0
370
     0
390
0
100
AcDbVertex
100
AcDb2dVertex
 10
-167.67305
 20
-371.16687
 30
0.0
  0
VERTEX
  5
55D
100
AcDbEntity
  8
0
370
     0
390
0
100
AcDbVertex
100
AcDb2dVertex
 10
-169.373352
 20
-370.792206
 30
0.0
  0
VERTEX
  5
55E
100
AcDbEntity
  8
0
370
     0
390
0
100
AcDbVertex
100
AcDb2dVertex
 10
-170.612534
 20
-369.639496
 30
0.0
  0
VERTEX
  5
55F
100
AcDbEntity
  8
0
370
     0
390
0
100
AcDbVertex
100
AcDb2dVertex
 10
-171.39064
 20
-367.766296
 30
0.0
  0
VERTEX
  5
560
100
AcDbEntity
  8
0
370
     0
390
0
100
AcDbVertex
100
AcDb2dVertex
 10
-171.649994
 20
-365.143799
 30
0.0
  0
VERTEX
  5
561
100
AcDbEntity
  8
0
370
     0
390
0
100
AcDbVertex
100
AcDb2dVertex
 10
-171.39064
 20
-362.55014
 30
0.0
  0
VERTEX
  5
562
100
AcDbEntity
  8
0
370
     0
390
0
100
AcDbVertex
100
AcDb2dVertex
 10
-170.612534
 20
-360.676941
 30
0.0
  0
VERTEX
  5
563
100
AcDbEntity
  8
0
370
     0
390
0
100
AcDbVertex
100
AcDb2dVertex
 10
-169.373352
 20
-359.55304
 30
0.0
  0
VERTEX
  5
564
100
AcDbEntity
  8
0
370
     0
390
0
100
AcDbVertex
100
AcDb2dVertex
 10
-167.67305
 20
-359.149567
 30
0.0
  0
VERTEX
  5
565
100
AcDbEntity
  8
0
370
     0
390
0
100
AcDbVertex
100
AcDb2dVertex
 10
-166.116852
 20
-359.55304
 30
0.0
  0
VERTEX
  5
566
100
AcDbEntity
  8
0
370
     0
390
0
100
AcDbVertex
100
AcDb2dVertex
 10
-164.87767
 20
-360.70575
 30
0.0
  0
VERTEX
  5
567
100
AcDbEntity
  8
0
370
     0
390
0
100
AcDbVertex
100
AcDb2dVertex
 10
-164.099564
 20
-362.578949
 30
0.0
  0
VERTEX
  5
568
100
AcDbEntity
  8
0
370
     0
390
0
100
AcDbVertex
100
AcDb2dVertex
 10
-163.811386
 20
-365.143799
 30
0.0
  0
VERTEX
  5
569
100
AcDbEntity
  8
0
370
     0
390
0
100
AcDbVertex
100
AcDb2dVertex
 10
-164.099564
 20
-367.737457
 30
0.0
  0
VERTEX
  5
56A
100
AcDbEntity
  8
0
370
     0
390
0
100
AcDbVertex
100
AcDb2dVertex
 10
-164.87767
 20
-369.639496
 30
0.0
  0
VERTEX
  5
56B
100
AcDbEntity
  8
0
370
     0
390
0
100
AcDbVertex
100
AcDb2dVertex
 10
-166.116852
 20
-370.792206
 30
0.0
  0
SEQEND
  5
56C
100
AcDbEntity
  8
0
370
     0
390
0
  0
POLYLINE
  5
56D
100
AcDbEntity
  8
0
370
    13
390
0
 62
     7
100
AcDb2dPolyline
 66
     1
 10
0.0
 20
0.0
 30
0.0
 70
     1
 71
    34
  0
VERTEX
  5
56E
100
AcDbEntity
  8
0
370
     0
390
0
100
AcDbVertex
100
AcDb2dVertex
 10
-146.866135
 20
-362.55014
 30
0.0
  0
VERTEX
  5
56F
100
AcDbEntity
  8
0
370
     0
390
0
100
AcDbVertex
100
AcDb2dVertex
 10
-144.358932
 20
-362.55014
 30
0.0
  0
VERTEX
  5
570
100
AcDbEntity
  8
0
370
     0
390
0
100
AcDbVertex
100
AcDb2dVertex
 10
-144.87767
 20
-360.244659
 30
0.0
  0
VERTEX
  5
571
100
AcDbEntity
  8
0
370
     0
390
0
100
AcDbVertex
100
AcDb2dVertex
 10
-146.116852
 20
-358.429108
 30
0.0
  0
VERTEX
  5
572
100
AcDbEntity
  8
0
370
     0
390
0
100
AcDbVertex
100
AcDb2dVertex
 10
-148.047699
 20
-357.305176
 30
0.0
  0
VERTEX
  5
573
100
AcDbEntity
  8
0
370
     0
390
0
100
AcDbVertex
100
AcDb2dVertex
 10
-150.554901
 20
-356.872925
 30
0.0
  0
VERTEX
  5
574
100
AcDbEntity
  8
0
370
     0
390
0
100
AcDbVertex
100
AcDb2dVertex
 10
-153.321472
 20
-357.44928
 30
0.0
  0
VERTEX
  5
575
100
AcDbEntity
  8
0
370
     0
390
0
100
AcDbVertex
100
AcDb2dVertex
 10
-155.425217
 20
-359.06311
 30
0.0
  0
VERTEX
  5
576
100
AcDbEntity
  8
0
370
     0
390
0
100
AcDbVertex
100
AcDb2dVertex
 10
-156.75087
 20
-361.685577
 30
0.0
  0
VERTEX
  5
577
100
AcDbEntity
  8
0
370
     0
390
0
100
AcDbVertex
100
AcDb2dVertex
 10
-157.21196
 20
-365.201447
 30
0.0
  0
VERTEX
  5
578
100
AcDbEntity
  8
0
370
     0
390
0
100
AcDbVertex
100
AcDb2dVertex
 10
-156.779678
 20
-368.688477
 30
0.0
  0
VERTEX
  5
579
100
AcDbEntity
  8
0
370
     0
390
0
100
AcDbVertex
100
AcDb2dVertex
 10
-155.482849
 20
-371.282135
 30
0.0
  0
VERTEX
  5
57A
100
AcDbEntity
  8
0
370
     0
390
0
100
AcDbVertex
100
AcDb2dVertex
 10
-153.436737
 20
-372.895966
 30
0.0
  0
VERTEX
  5
57B
100
AcDbEntity
  8
0
370
     0
390
0
100
AcDbVertex
100
AcDb2dVertex
 10
-150.641357
 20
-373.443512
 30
0.0
  0
VERTEX
  5
57C
100
AcDbEntity
  8
0
370
     0
390
0
100
AcDbVertex
100
AcDb2dVertex
 10
-148.162964
 20
-373.01123
 30
0.0
  0
VERTEX
  5
57D
100
AcDbEntity
  8
0
370
     0
390
0
100
AcDbVertex
100
AcDb2dVertex
 10
-146.232132
 20
-371.800873
 30
0.0
  0
VERTEX
  5
57E
100
AcDbEntity
  8
0
370
     0
390
0
100
AcDbVertex
100
AcDb2dVertex
 10
-144.906494
 20
-369.898834
 30
0.0
  0
VERTEX
  5
57F
100
AcDbEntity
  8
0
370
     0
390
0
100
AcDbVertex
100
AcDb2dVertex
 10
-144.330109
 20
-367.362823
 30
0.0
  0
VERTEX
  5
580
100
AcDbEntity
  8
0
370
     0
390
0
100
AcDbVertex
100
AcDb2dVertex
 10
-146.75087
 20
-367.362823
 30
0.0
  0
VERTEX
  5
581
100
AcDbEntity
  8
0
370
     0
390
0
100
AcDbVertex
100
AcDb2dVertex
 10
-147.183136
 20
-368.976654
 30
0.0
  0
VERTEX
  5
582
100
AcDbEntity
  8
0
370
     0
390
0
100
AcDbVertex
100
AcDb2dVertex
 10
-147.990051
 20
-370.187042
 30
0.0
  0
VERTEX
  5
583
100
AcDbEntity
  8
0
370
     0
390
0
100
AcDbVertex
100
AcDb2dVertex
 10
-149.142792
 20
-370.93631
 30
0.0
  0
VERTEX
  5
584
100
AcDbEntity
  8
0
370
     0
390
0
100
AcDbVertex
100
AcDb2dVertex
 10
-150.554901
 20
-371.16687
 30
0.0
  0
VERTEX
  5
585
100
AcDbEntity
  8
0
370
     0
390
0
100
AcDbVertex
100
AcDb2dVertex
 10
-152.31282
 20
-370.792206
 30
0.0
  0
VERTEX
  5
586
100
AcDbEntity
  8
0
370
     0
390
0
100
AcDbVertex
100
AcDb2dVertex
 10
-153.580841
 20
-369.639496
 30
0.0
  0
VERTEX
  5
587
100
AcDbEntity
  8
0
370
     0
390
0
100
AcDbVertex
100
AcDb2dVertex
 10
-154.358932
 20
-367.766296
 30
0.0
  0
VERTEX
  5
588
100
AcDbEntity
  8
0
370
     0
390
0
100
AcDbVertex
100
AcDb2dVertex
 10
-154.618301
 20
-365.11499
 30
0.0
  0
VERTEX
  5
589
100
AcDbEntity
  8
0
370
     0
390
0
100
AcDbVertex
100
AcDb2dVertex
 10
-154.358932
 20
-362.521332
 30
0.0
  0
VERTEX
  5
58A
100
AcDbEntity
  8
0
370
     0
390
0
100
AcDbVertex
100
AcDb2dVertex
 10
-153.552017
 20
-360.648132
 30
0.0
  0
VERTEX
  5
58B
100
AcDbEntity
  8
0
370
     0
390
0
100
AcDbVertex
100
AcDb2dVertex
 10
-152.255188
 20
-359.495392
 30
0.0
  0
VERTEX
  5
58C
100
AcDbEntity
  8
0
370
     0
390
0
100
AcDbVertex
100
AcDb2dVertex
 10
-150.554901
 20
-359.091919
 30
0.0
  0
VERTEX
  5
58D
100
AcDbEntity
  8
0
370
     0
390
0
100
AcDbVertex
100
AcDb2dVertex
 10
-149.056335
 20
-359.351288
 30
0.0
  0
VERTEX
  5
58E
100
AcDbEntity
  8
0
370
     0
390
0
100
AcDbVertex
100
AcDb2dVertex
 10
-147.932419
 20
-360.01413
 30
0.0
  0
VERTEX
  5
58F
100
AcDbEntity
  8
0
370
     0
390
0
100
AcDbVertex
100
AcDb2dVertex
 10
-147.183136
 20
-361.109222
 30
0.0
  0
SEQEND
  5
590
100
AcDbEntity
  8
0
370
     0
390
0
  0
POLYLINE
  5
591
100
AcDbEntity
  8
0
370
    13
390
0
 62
     7
100
AcDb2dPolyline
 66
     1
 10
0.0
 20
0.0
 30
0.0
 70
     1
 71
    50
  0
VERTEX
  5
592
100
AcDbEntity
  8
0
370
     0
390
0
100
AcDbVertex
100
AcDb2dVertex
 10
-131.794098
 20
-363.875793
 30
0.0
  0
VERTEX
  5
593
100
AcDbEntity
  8
0
370
     0
390
0
100
AcDbVertex
100
AcDb2dVertex
 10
-134.243652
 20
-363.299438
 30
0.0
  0
VERTEX
  5
594
100
AcDbEntity
  8
0
370
     0
390
0
100
AcDbVertex
100
AcDb2dVertex
 10
-136.059219
 20
-362.636597
 30
0.0
  0
VERTEX
  5
595
100
AcDbEntity
  8
0
370
     0
390
0
100
AcDbVertex
100
AcDb2dVertex
 10
-136.664413
 20
-361.282135
 30
0.0
  0
VERTEX
  5
596
100
AcDbEntity
  8
0
370
     0
390
0
100
AcDbVertex
100
AcDb2dVertex
 10
-136.491501
 20
-360.331116
 30
0.0
  0
VERTEX
  5
597
100
AcDbEntity
  8
0
370
     0
390
0
100
AcDbVertex
100
AcDb2dVertex
 10
-135.886307
 20
-359.639496
 30
0.0
  0
VERTEX
  5
598
100
AcDbEntity
  8
0
370
     0
390
0
100
AcDbVertex
100
AcDb2dVertex
 10
-134.906479
 20
-359.207214
 30
0.0
  0
VERTEX
  5
599
100
AcDbEntity
  8
0
370
     0
390
0
100
AcDbVertex
100
AcDb2dVertex
 10
-133.494385
 20
-359.034302
 30
0.0
  0
VERTEX
  5
59A
100
AcDbEntity
  8
0
370
     0
390
0
100
AcDbVertex
100
AcDb2dVertex
 10
-132.139908
 20
-359.207214
 30
0.0
  0
VERTEX
  5
59B
100
AcDbEntity
  8
0
370
     0
390
0
100
AcDbVertex
100
AcDb2dVertex
 10
-131.073639
 20
-359.725952
 30
0.0
  0
VERTEX
  5
59C
100
AcDbEntity
  8
0
370
     0
390
0
100
AcDbVertex
100
AcDb2dVertex
 10
-130.381989
 20
-360.504028
 30
0.0
  0
VERTEX
  5
59D
100
AcDbEntity
  8
0
370
     0
390
0
100
AcDbVertex
100
AcDb2dVertex
 10
-130.093811
 20
-361.541504
 30
0.0
  0
VERTEX
  5
59E
100
AcDbEntity
  8
0
370
     0
390
0
100
AcDbVertex
100
AcDb2dVertex
 10
-127.615417
 20
-361.541504
 30
0.0
  0
VERTEX
  5
59F
100
AcDbEntity
  8
0
370
     0
390
0
100
AcDbVertex
100
AcDb2dVertex
 10
-127.615417
 20
-361.483856
 30
0.0
  0
VERTEX
  5
5A0
100
AcDbEntity
  8
0
370
     0
390
0
100
AcDbVertex
100
AcDb2dVertex
 10
-128.047699
 20
-359.610657
 30
0.0
  0
VERTEX
  5
5A1
100
AcDbEntity
  8
0
370
     0
390
0
100
AcDbVertex
100
AcDb2dVertex
 10
-129.229248
 20
-358.14093
 30
0.0
  0
VERTEX
  5
5A2
100
AcDbEntity
  8
0
370
     0
390
0
100
AcDbVertex
100
AcDb2dVertex
 10
-131.073639
 20
-357.218719
 30
0.0
  0
VERTEX
  5
5A3
100
AcDbEntity
  8
0
370
     0
390
0
100
AcDbVertex
100
AcDb2dVertex
 10
-133.494385
 20
-356.872925
 30
0.0
  0
VERTEX
  5
5A4
100
AcDbEntity
  8
0
370
     0
390
0
100
AcDbVertex
100
AcDb2dVertex
 10
-135.943939
 20
-357.218719
 30
0.0
  0
VERTEX
  5
5A5
100
AcDbEntity
  8
0
370
     0
390
0
100
AcDbVertex
100
AcDb2dVertex
 10
-137.730682
 20
-358.169739
 30
0.0
  0
VERTEX
  5
5A6
100
AcDbEntity
  8
0
370
     0
390
0
100
AcDbVertex
100
AcDb2dVertex
 10
-138.854614
 20
-359.581848
 30
0.0
  0
VERTEX
  5
5A7
100
AcDbEntity
  8
0
370
     0
390
0
100
AcDbVertex
100
AcDb2dVertex
 10
-139.200439
 20
-361.368591
 30
0.0
  0
VERTEX
  5
5A8
100
AcDbEntity
  8
0
370
     0
390
0
100
AcDbVertex
100
AcDb2dVertex
 10
-138.941071
 20
-363.097687
 30
0.0
  0
VERTEX
  5
5A9
100
AcDbEntity
  8
0
370
     0
390
0
100
AcDbVertex
100
AcDb2dVertex
 10
-138.134155
 20
-364.308075
 30
0.0
  0
VERTEX
  5
5AA
100
AcDbEntity
  8
0
370
     0
390
0
100
AcDbVertex
100
AcDb2dVertex
 10
-136.808502
 20
-365.172607
 30
0.0
  0
VERTEX
  5
5AB
100
AcDbEntity
  8
0
370
     0
390
0
100
AcDbVertex
100
AcDb2dVertex
 10
-134.877655
 20
-365.777802
 30
0.0
  0
VERTEX
  5
5AC
100
AcDbEntity
  8
0
370
     0
390
0
100
AcDbVertex
100
AcDb2dVertex
 10
-132.053452
 20
-366.469452
 30
0.0
  0
VERTEX
  5
5AD
100
AcDbEntity
  8
0
370
     0
390
0
100
AcDbVertex
100
AcDb2dVertex
 10
-130.324356
 20
-367.189911
 30
0.0
  0
VERTEX
  5
5AE
100
AcDbEntity
  8
0
370
     0
390
0
100
AcDbVertex
100
AcDb2dVertex
 10
-129.863251
 20
-367.766296
 30
0.0
  0
VERTEX
  5
5AF
100
AcDbEntity
  8
0
370
     0
390
0
100
AcDbVertex
100
AcDb2dVertex
 10
-129.690338
 20
-368.630829
 30
0.0
  0
VERTEX
  5
5B0
100
AcDbEntity
  8
0
370
     0
390
0
100
AcDbVertex
100
AcDb2dVertex
 10
-129.949707
 20
-369.697113
 30
0.0
  0
VERTEX
  5
5B1
100
AcDbEntity
  8
0
370
     0
390
0
100
AcDbVertex
100
AcDb2dVertex
 10
-130.641357
 20
-370.504028
 30
0.0
  0
VERTEX
  5
5B2
100
AcDbEntity
  8
0
370
     0
390
0
100
AcDbVertex
100
AcDb2dVertex
 10
-131.765274
 20
-371.022766
 30
0.0
  0
VERTEX
  5
5B3
100
AcDbEntity
  8
0
370
     0
390
0
100
AcDbVertex
100
AcDb2dVertex
 10
-133.263824
 20
-371.195679
 30
0.0
  0
VERTEX
  5
5B4
100
AcDbEntity
  8
0
370
     0
390
0
100
AcDbVertex
100
AcDb2dVertex
 10
-134.848846
 20
-371.022766
 30
0.0
  0
VERTEX
  5
5B5
100
AcDbEntity
  8
0
370
     0
390
0
100
AcDbVertex
100
AcDb2dVertex
 10
-136.001587
 20
-370.417572
 30
0.0
  0
VERTEX
  5
5B6
100
AcDbEntity
  8
0
370
     0
390
0
100
AcDbVertex
100
AcDb2dVertex
 10
-136.779678
 20
-369.437744
 30
0.0
  0
VERTEX
  5
5B7
100
AcDbEntity
  8
0
370
     0
390
0
100
AcDbVertex
100
AcDb2dVertex
 10
-137.09668
 20
-368.083282
 30
0.0
  0
VERTEX
  5
5B8
100
AcDbEntity
  8
0
370
     0
390
0
100
AcDbVertex
100
AcDb2dVertex
 10
-139.546249
 20
-368.083282
 30
0.0
  0
VERTEX
  5
5B9
100
AcDbEntity
  8
0
370
     0
390
0
100
AcDbVertex
100
AcDb2dVertex
 10
-139.142792
 20
-370.388763
 30
0.0
  0
VERTEX
  5
5BA
100
AcDbEntity
  8
0
370
     0
390
0
100
AcDbVertex
100
AcDb2dVertex
 10
-137.961243
 20
-372.060242
 30
0.0
  0
VERTEX
  5
5BB
100
AcDbEntity
  8
0
370
     0
390
0
100
AcDbVertex
100
AcDb2dVertex
 10
-136.088043
 20
-373.068878
 30
0.0
  0
VERTEX
  5
5BC
100
AcDbEntity
  8
0
370
     0
390
0
100
AcDbVertex
100
AcDb2dVertex
 10
-133.494385
 20
-373.443512
 30
0.0
  0
VERTEX
  5
5BD
100
AcDbEntity
  8
0
370
     0
390
0
100
AcDbVertex
100
AcDb2dVertex
 10
-130.785446
 20
-373.068878
 30
0.0
  0
VERTEX
  5
5BE
100
AcDbEntity
  8
0
370
     0
390
0
100
AcDbVertex
100
AcDb2dVertex
 10
-128.796967
 20
-372.060242
 30
0.0
  0
VERTEX
  5
5BF
100
AcDbEntity
  8
0
370
     0
390
0
100
AcDbVertex
100
AcDb2dVertex
 10
-127.586601
 20
-370.446411
 30
0.0
  0
VERTEX
  5
5C0
100
AcDbEntity
  8
0
370
     0
390
0
100
AcDbVertex
100
AcDb2dVertex
 10
-127.15432
 20
-368.342651
 30
0.0
  0
VERTEX
  5
5C1
100
AcDbEntity
  8
0
370
     0
390
0
100
AcDbVertex
100
AcDb2dVertex
 10
-127.471321
 20
-366.5271
 30
0.0
  0
VERTEX
  5
5C2
100
AcDbEntity
  8
0
370
     0
390
0
100
AcDbVertex
100
AcDb2dVertex
 10
-128.364685
 20
-365.287903
 30
0.0
  0
VERTEX
  5
5C3
100
AcDbEntity
  8
0
370
     0
390
0
100
AcDbVertex
100
AcDb2dVertex
 10
-129.834442
 20
-364.480988
 30
0.0
  0
SEQEND
  5
5C4
100
AcDbEntity
  8
0
370
     0
390
0
  0
CIRCLE
  5
5C5
100
AcDbEntity
  8
0
370
    35
390
0
 62
     7
100
AcDbCircle
 10
148.5
 20
105.0
 30
0.0
 40
218.710416
210
0.0
220
0.0
230
1.0
  0
CIRCLE
  5
5C6
100
AcDbEntity
  8
0
370
    35
390
0
 62
     7
100
AcDbCircle
 10
148.5
 20
105.0
 30
0.0
 40
189.708673
210
0.0
220
0.0
230
1.0
  0
ENDSEC
  0
SECTION
  2
OBJECTS
  0
DICTIONARY
  5
19
100
AcDbDictionary
280
     0
281
     1
  3
ACAD_GROUP
350
1A
  3
ACAD_MLINESTYLE
350
1B
  3
ACAD_LAYOUT
350
1E
  3
ACAD_PLOTSETTINGS
350
22
  3
ACAD_PLOTSTYLENAME
350
1F
  3
ACAD_WIPEOUT_VARS
350
23
  0
DICTIONARY
  5
1A
102
{ACAD_REACTORS
330
19
102
}
100
AcDbDictionary
280
     0
281
     1
  0
DICTIONARY
  5
1B
102
{ACAD_REACTORS
330
19
102
}
100
AcDbDictionary
280
     0
281
     1
  3
Standard
350
1C
  0
MLINESTYLE
  5
1C
102
{ACAD_REACTORS
330
1B
102
}
100
AcDbMlineStyle
  2
Standard
 70
     0
  3

 62
     0
 51
90.0
 52
90.0
 71
     2
 49
0.5
 62
   256
  6
ByLayer
 49
-0.5
 62
   256
  6
ByLayer
  0
ACDBDICTIONARYWDFLT
  5
1F
102
{ACAD_REACTORS
330
19
102
}
100
AcDbDictionary
281
     1
  3
Normal
350
1D
100
AcDbDictionaryWithDefault
340
1D
  0
ACDBPLACEHOLDER
  5
1D
102
{ACAD_REACTORS
330
1F
102
}
  0
LAYOUT
  5
20
102
{ACAD_REACTORS
330
1E
102
}
100
AcDbPlotSettings
  1

  2

  4

  6

 40
0.0
 41
0.0
 42
0.0
 43
0.0
 44
0.0
 45
0.0
 46
0.0
 47
0.0
 48
0.0
 49
0.0
140
0.0
141
0.0
142
1.0
143
1.0
 70
  1024
 72
     0
 73
     0
 74
     0
  7

 75
     0
147
1.0
148
0.0
149
0.0
100
AcDbLayout
  1
Model
 70
     0
 71
     0
 10
0.0
 20
0.0
 11
0.0
 21
0.0
 12
0.0
 22
0.0
 32
0.0
 14
0.0
 24
0.0
 34
0.0
 15
0.0
 25
0.0
 35
0.0
146
0.0
 13
0.0
 23
0.0
 33
0.0
 16
0.0
 26
0.0
 36
0.0
 17
0.0
 27
0.0
 37
0.0
 76
     0
330
A
331
0
345
0
346
0
  0
LAYOUT
  5
21
102
{ACAD_REACTORS
330
1E
102
}
100
AcDbPlotSettings
  1

  2

  4

  6

 40
0.0
 41
0.0
 42
0.0
 43
0.0
 44
0.0
 45
0.0
 46
0.0
 47
0.0
 48
0.0
 49
0.0
140
0.0
141
0.0
142
1.0
143
1.0
 70
     0
 72
     0
 73
     0
 74
     0
  7

 75
     0
147
1.0
148
0.0
149
0.0
100
AcDbLayout
  1
Layout1
 70
     0
 71
     0
 10
0.0
 20
0.0
 11
0.0
 21
0.0
 12
0.0
 22
0.0
 32
0.0
 14
0.0
 24
0.0
 34
0.0
 15
0.0
 25
0.0
 35
0.0
146
0.0
 13
0.0
 23
0.0
 33
0.0
 16
0.0
 26
0.0
 36
0.0
 17
0.0
 27
0.0
 37
0.0
 76
     0
330
B
331
0
345
0
346
0
  0
DICTIONARY
  5
1E
102
{ACAD_REACTORS
330
19
102
}
100
AcDbDictionary
280
     0
281
     1
  3
Layout1
350
21
  3
Model
350
20
  0
DICTIONARY
  5
22
102
{ACAD_REACTORS
330
19
102
}
100
AcDbDictionary
280
     0
281
     1
  0
WIPEOUTVARIABLES
  5
23
100
AcDbWipeoutVariables
 70
     1
  0
ENDSEC
  0
EOF
