  0
SECTION
  2
HEADER
  9
$ACADVER
  1
AC1014
  9
$ACADMAINTVER
 70
     0
  9
$DWGCODEPAGE
  3
ANSI_1252
  9
$INSBASE
 10
0.0
 20
0.0
 30
0.0
  9
$EXTMIN
 10
0.0
 20
0.0
 30
0.0
  9
$EXTMAX
 10
124.000496
 20
174.430527
 30
2.0
  9
$LIMMIN
 10
0.0
 20
0.0
  9
$LIMMAX
 10
12.0
 20
9.0
  9
$ORTHOMODE
 70
     0
  9
$REGENMODE
 70
     1
  9
$FILLMODE
 70
     1
  9
$QTEXTMODE
 70
     0
  9
$MIRRTEXT
 70
     1
  9
$DRAGMODE
 70
     2
  9
$LTSCALE
 40
1.0
  9
$OSMODE
 70
     0
  9
$ATTMODE
 70
     1
  9
$TEXTSIZE
 40
0.2
  9
$TRACEWID
 40
0.05
  9
$TEXTSTYLE
  7
STANDARD
  9
$CLAYER
  8
0
  9
$CELTYPE
  6
BYLAYER
  9
$CECOLOR
 62
   256
  9
$CELTSCALE
 40
1.0
  9
$DELOBJ
 70
     1
  9
$DISPSILH
 70
     0
  9
$DIMSCALE
 40
1.0
  9
$DIMASZ
 40
0.18
  9
$DIMEXO
 40
0.0625
  9
$DIMDLI
 40
0.38
  9
$DIMRND
 40
0.0
  9
$DIMDLE
 40
0.0
  9
$DIMEXE
 40
0.18
  9
$DIMTP
 40
0.0
  9
$DIMTM
 40
0.0
  9
$DIMTXT
 40
0.18
  9
$DIMCEN
 40
0.09
  9
$DIMTSZ
 40
0.0
  9
$DIMTOL
 70
     0
  9
$DIMLIM
 70
     0
  9
$DIMTIH
 70
     1
  9
$DIMTOH
 70
     1
  9
$DIMSE1
 70
     0
  9
$DIMSE2
 70
     0
  9
$DIMTAD
 70
     0
  9
$DIMZIN
 70
     0
  9
$DIMBLK
  1

  9
$DIMASO
 70
     1
  9
$DIMSHO
 70
     1
  9
$DIMPOST
  1

  9
$DIMAPOST
  1

  9
$DIMALT
 70
     0
  9
$DIMALTD
 70
     2
  9
$DIMALTF
 40
25.4
  9
$DIMLFAC
 40
1.0
  9
$DIMTOFL
 70
     0
  9
$DIMTVP
 40
0.0
  9
$DIMTIX
 70
     0
  9
$DIMSOXD
 70
     0
  9
$DIMSAH
 70
     0
  9
$DIMBLK1
  1

  9
$DIMBLK2
  1

  9
$DIMSTYLE
  2

  9
$DIMCLRD
 70
     0
  9
$DIMCLRE
 70
     0
  9
$DIMCLRT
 70
     0
  9
$DIMTFAC
 40
1.0
  9
$DIMGAP
 40
0.09
  9
$DIMJUST
 70
     0
  9
$DIMSD1
 70
     0
  9
$DIMSD2
 70
     0
  9
$DIMTOLJ
 70
     1
  9
$DIMTZIN
 70
     0
  9
$DIMALTZ
 70
     0
  9
$DIMALTTZ
 70
     0
  9
$DIMFIT
 70
     3
  9
$DIMUPT
 70
     0
  9
$DIMUNIT
 70
     2
  9
$DIMDEC
 70
     4
  9
$DIMTDEC
 70
     4
  9
$DIMALTU
 70
     2
  9
$DIMALTTD
 70
     2
  9
$DIMTXSTY
  7
STANDARD
  9
$DIMAUNIT
 70
     0
  9
$LUNITS
 70
     2
  9
$LUPREC
 70
     4
  9
$SKETCHINC
 40
0.1
  9
$FILLETRAD
 40
0.5
  9
$AUNITS
 70
     0
  9
$AUPREC
 70
     0
  9
$MENU
  1
.
  9
$ELEVATION
 40
0.0
  9
$PELEVATION
 40
0.0
  9
$THICKNESS
 40
0.0
  9
$LIMCHECK
 70
     0
  9
$BLIPMODE
 70
     1
  9
$CHAMFERA
 40
0.0
  9
$CHAMFERB
 40
0.0
  9
$CHAMFERC
 40
0.0
  9
$CHAMFERD
 40
0.0
  9
$SKPOLY
 70
     0
  9
$TDCREATE
 40
0.000000000
  9
$TDUPDATE
 40
0.000000000
  9
$TDINDWG
 40
0.0000000000
  9
$TDUSRTIMER
 40
0.0000000000
  9
$USRTIMER
 70
     1
  9
$ANGBASE
 50
0.0
  9
$ANGDIR
 70
     0
  9
$PDMODE
 70
     0
  9
$PDSIZE
 40
0.0
  9
$PLINEWID
 40
0.0
  9
$COORDS
 70
     0
  9
$SPLFRAME
 70
     0
  9
$SPLINETYPE
 70
     6
  9
$SPLINESEGS
 70
     8
  9
$ATTDIA
 70
     0
  9
$ATTREQ
 70
     1
  9
$HANDLING
 70
     1
  9
$HANDSEED
  5
13C
  9
$SURFTAB1
 70
     6
  9
$SURFTAB2
 70
     6
  9
$SURFTYPE
 70
     6
  9
$SURFU
 70
     6
  9
$SURFV
 70
     6
  9
$UCSNAME
  2

  9
$UCSORG
 10
0.0
 20
0.0
 30
0.0
  9
$UCSXDIR
 10
1.0
 20
0.0
 30
0.0
  9
$UCSYDIR
 10
0.0
 20
1.0
 30
0.0
  9
$PUCSNAME
  2

  9
$PUCSORG
 10
0.0
 20
0.0
 30
0.0
  9
$PUCSXDIR
 10
1.0
 20
0.0
 30
0.0
  9
$PUCSYDIR
 10
0.0
 20
1.0
 30
0.0
  9
$USERI1
 70
     0
  9
$USERI2
 70
     0
  9
$USERI3
 70
     0
  9
$USERI4
 70
     0
  9
$USERI5
 70
     0
  9
$USERR1
 40
0.0
  9
$USERR2
 40
0.0
  9
$USERR3
 40
0.0
  9
$USERR4
 40
0.0
  9
$USERR5
 40
0.0
  9
$WORLDVIEW
 70
     1
  9
$SHADEDGE
 70
     3
  9
$SHADEDIF
 70
    70
  9
$TILEMODE
 70
     1
  9
$MAXACTVP
 70
    48
  9
$PINSBASE
 10
0.0
 20
0.0
 30
0.0
  9
$PLIMCHECK
 70
     0
  9
$PEXTMIN
 10
0.0
 20
0.0
 30
0.0
  9
$PEXTMAX
 10
124.000496
 20
174.430527
 30
2.0
  9
$PLIMMIN
 10
0.0
 20
0.0
  9
$PLIMMAX
 10
12.0
 20
9.0
  9
$UNITMODE
 70
     0
  9
$VISRETAIN
 70
     0
  9
$PLINEGEN
 70
     0
  9
$PSLTSCALE
 70
     1
  9
$TREEDEPTH
 70
  3020
  9
$PICKSTYLE
 70
     1
  9
$CMLSTYLE
  2
STANDARD
  9
$CMLJUST
 70
     0
  9
$CMLSCALE
 40
1.0
  9
$PROXYGRAPHICS
 70
     1
  9
$MEASUREMENT
 70
     0
  0
ENDSEC
  0
SECTION
  2
CLASSES
  0
CLASS
  1
LWPOLYLINE
  2
AcDbPolyline
  3
"AutoCAD"
 90
        0
280
     0
281
     1
  0
CLASS
  1
IMAGE
  2
AcDbRasterImage
  3
ISM
 90
      127
280
     0
281
     1
  0
CLASS
  1
OLE2FRAME
  2
AcDbOle2Frame
  3
""
 90
        0
280
     0
281
     1
  0
CLASS
  1
HATCH
  2
AcDbHatch
  3
"ACAD_SEDONA"
 90
        0
280
     0
281
     1
  0
CLASS
  1
DICTIONARYVAR
  2
AcDbDictionaryVar
  3
"AutoCAD"
 90
        0
280
     0
281
     0
  0
CLASS
  1
RASTERVARIABLES
  2
AcDbRasterVariables
  3
ISM
 90
        0
280
     0
281
     0
  0
CLASS
  1
IMAGEDEF
  2
AcDbRasterImageDef
  3
ISM
 90
        0
280
     0
281
     0
  0
CLASS
  1
IMAGEDEF_REACTOR
  2
AcDbRasterImageDefReactor
  3
ISM
 90
        1
280
     0
281
     0
  0
CLASS
  1
IDBUFFER
  2
AcDbIdBuffer
  3
"Acad"
 90
        0
280
     0
281
     0
  0
CLASS
  1
SPATIAL_FILTER
  2
AcDbSpatialFilter
  3
"Acad"
 90
        0
280
     0
281
     0
  0
CLASS
  1
XRECORD
  2
AcDbXrecord
  3
"<Built In>"
 90
        0
280
     0
281
     0
  0
CLASS
  1
SORTENTSTABLE
  2
AcDbSortentsTable
  3
"AutoCAD"
 90
        0
280
     0
281
     0
  0
CLASS
  1
LAYER_INDEX
  2
AcDbLayerIndex
  3
"Acad"
 90
        0
280
     0
281
     0
  0
CLASS
  1
SPATIAL_INDEX
  2
AcDbSpatialIndex
  3
"Acad"
 90
        0
280
     0
281
     0
  0
CLASS
  1
OBJECT_PTR
  2
CAseDLPNTableRecord
  3
"ASE-LPNTableRecord"
 90
        1
280
     0
281
     0
  0
CLASS
  1
LAYOUT
  2
AcDbLayout
  3
"AutoCAD 2000"
 90
        0
280
     0
281
     0
  0
CLASS
  1
PLOTSETTINGS
  2
AcDbPlotSettings
  3
"AutoCAD 2000"
 90
        0
280
     0
281
     0
  0
CLASS
  1
ACDBDICTIONARYWDFLT
  2
AcDbDictionaryWithDefault
  3
"AutoCAD 2000"
 90
        0
280
     0
281
     0
  0
CLASS
  1
ACDBPLACEHOLDER
  2
AcDbPlaceHolder
  3
"AutoCAD 2000"
 90
        0
280
     0
281
     0
  0
CLASS
  1
VBA_PROJECT
  2
AcDbVbaProject
  3
"acadvba"
 90
        0
280
     0
281
     0
  0
CLASS
  1
WIPEOUT
  2
AcDbWipeout
  3
WipeOut|AutoCAD Express Tool|expresstools@autodesk.com
 90
      127
280
     0
281
     1
  0
CLASS
  1
WIPEOUTVARIABLES
  2
AcDbWipeoutVariables
  3
WipeOut|AutoCAD Express Tool|expresstools@autodesk.com
 90
        0
280
     0
281
     0
  0
CLASS
  1
RTEXT
  2
RText
  3
RText|AutoCAD Express Tool|expresstools@autodesk.com
 90
        0
280
     0
281
     1
  0
CLASS
  1
ARCALIGNEDTEXT
  2
AcDbArcAlignedText
  3
ATEXT|AutoCAD Express Tool|expresstools@autodesk.com
 90
        0
280
     0
281
     1
  0
ENDSEC
  0
SECTION
  2
TABLES
  0
TABLE
  2
VPORT
  5
7
100
AcDbSymbolTable
 70
     1
  0
VPORT
  5
15
100
AcDbSymbolTableRecord
100
AcDbViewportTableRecord
  2
*ACTIVE
 70
     0
 10
0.0
 20
0.0
 11
1.0
 21
1.0
 12
6.591288
 22
4.579184
 13
0.0
 23
0.0
 14
1.0
 24
1.0
 15
0.0
 25
0.0
 16
0.0
 26
0.0
 36
1.0
 17
0.0
 27
0.0
 37
0.0
 40
9.158369
 41
0.688564
 42
50.0
 43
0.0
 44
0.0
 50
0.0
 51
0.0
 71
     0
 72
   100
 73
     1
 74
     1
 75
     0
 76
     0
 77
     0
 78
     0
  0
ENDTAB
  0
TABLE
  2
LTYPE
  5
4
100
AcDbSymbolTable
 70
    10
  0
LTYPE
  5
11
100
AcDbSymbolTableRecord
100
AcDbLinetypeTableRecord
  2
BYBLOCK
 70
    64
  3

 72
    65
 73
     0
 40
0.0
  0
LTYPE
  5
12
100
AcDbSymbolTableRecord
100
AcDbLinetypeTableRecord
  2
BYLAYER
 70
    64
  3

 72
    65
 73
     0
 40
0.0
  0
LTYPE
  5
13
100
AcDbSymbolTableRecord
100
AcDbLinetypeTableRecord
  2
CONTINUOUS
 70
    64
  3
Solid line
 72
    65
 73
     0
 40
0.0
  0
LTYPE
  5
1D
100
AcDbSymbolTableRecord
100
AcDbLinetypeTableRecord
  2
DASHED
 70
     0
  3
__ __ __ __ __ __ __ __ __ __ __ __ __ __ __ __
 72
    65
 73
     2
 40
15.0
 49
12.0
 74
     0
 49
-3.0
 74
     0
  0
LTYPE
  5
1E
100
AcDbSymbolTableRecord
100
AcDbLinetypeTableRecord
  2
DASHDOT
 70
     0
  3
 __ . __ . __ . __ . __ . __ . __ . 
 72
    65
 73
     4
 40
18.5
 49
12.0
 74
     0
 49
-3.0
 74
     0
 49
0.5
 74
     0
 49
-3.0
 74
     0
  0
LTYPE
  5
1F
100
AcDbSymbolTableRecord
100
AcDbLinetypeTableRecord
  2
DOT
 70
     0
  3
 . . . . . . . . . . . . . . . .
 72
    65
 73
     2
 40
3.5
 49
0.5
 74
     0
 49
-3.0
 74
     0
  0
LTYPE
  5
20
100
AcDbSymbolTableRecord
100
AcDbLinetypeTableRecord
  2
DASHSPACE
 70
     0
  3
__    __    __    __    __   
 72
    65
 73
     2
 40
30.0
 49
12.0
 74
     0
 49
-18.0
 74
     0
  0
LTYPE
  5
21
100
AcDbSymbolTableRecord
100
AcDbLinetypeTableRecord
  2
DASHDOT2
 70
     0
  3
__ . . __ . . __ . . __ 
 72
    65
 73
     6
 40
22.0
 49
12.0
 74
     0
 49
-3.0
 74
     0
 49
0.5
 74
     0
 49
-3.0
 74
     0
 49
0.5
 74
     0
 49
-3.0
 74
     0
  0
LTYPE
  5
22
100
AcDbSymbolTableRecord
100
AcDbLinetypeTableRecord
  2
PHANTOM
 70
     0
  3
____________    ____    ____   _
 72
    65
 73
     6
 40
20.0
 49
10.0
 74
     0
 49
-2.0
 74
     0
 49
2.0
 74
     0
 49
-2.0
 74
     0
 49
2.0
 74
     0
 49
-2.0
 74
     0
  0
LTYPE
  5
23
100
AcDbSymbolTableRecord
100
AcDbLinetypeTableRecord
  2
AXES
 70
     0
  3
________  __  ________  __  _____
 72
    65
 73
     4
 40
24.0
 49
15.0
 74
     0
 49
-3.0
 74
     0
 49
3.0
 74
     0
 49
-3.0
 74
     0
  0
ENDTAB
  0
TABLE
  2
LAYER
  5
2
100
AcDbSymbolTable
 70
     1
  0
LAYER
  5
14
100
AcDbSymbolTableRecord
100
AcDbLayerTableRecord
  2
0
 70
     0
 62
     7
  6
CONTINUOUS
  0
ENDTAB
  0
TABLE
  2
STYLE
  5
3
100
AcDbSymbolTable
 70
     1
  0
STYLE
  5
17
100
AcDbSymbolTableRecord
100
AcDbTextStyleTableRecord
  2
STANDARD
 70
     0
 40
0.0
 41
1.0
 50
0.0
 71
     0
 42
0.0
  3
txt
  4

  0
ENDTAB
  0
TABLE
  2
VIEW
  5
5
100
AcDbSymbolTable
 70
     0
  0
ENDTAB
  0
TABLE
  2
UCS
  5
6
100
AcDbSymbolTable
 70
     0
  0
ENDTAB
  0
TABLE
  2
APPID
  5
8
100
AcDbSymbolTable
 70
     1
  0
APPID
  5
16
100
AcDbSymbolTableRecord
100
AcDbRegAppTableRecord
  2
ACAD
 70
     0
  0
ENDTAB
  0
TABLE
  2
DIMSTYLE
  5
9
100
AcDbSymbolTable
 70
     1
  0
DIMSTYLE
105
18
100
AcDbSymbolTableRecord
100
AcDbDimStyleTableRecord
  2
STANDARD
 70
     0
  3

  4

  5

  6

  7

 40
1.0
 41
0.18
 42
0.0625
 43
0.38
 44
0.18
 45
0.0
 46
0.0
 47
0.0
 48
0.0
 71
     0
 72
     0
 73
     1
 74
     1
 75
     0
 76
     0
 77
     0
 78
     0
140
0.18
141
0.09
142
0.0
143
25.4
144
1.0
145
0.0
146
1.0
147
0.09
170
     0
171
     2
172
     0
173
     0
174
     0
175
     0
176
     0
177
     0
178
     0
270
     2
271
     4
272
     4
273
     2
274
     2
275
     0
280
     0
281
     0
282
     0
283
     1
284
     0
285
     0
286
     0
287
     3
288
     0
340
17
  0
ENDTAB
  0
TABLE
  2
BLOCK_RECORD
  5
1
100
AcDbSymbolTable
 70
     0
  0
BLOCK_RECORD
  5
A
100
AcDbSymbolTableRecord
100
AcDbBlockTableRecord
  2
*MODEL_SPACE
  0
BLOCK_RECORD
  5
B
100
AcDbSymbolTableRecord
100
AcDbBlockTableRecord
  2
*PAPER_SPACE
  0
ENDTAB
  0
ENDSEC
  0
SECTION
  2
BLOCKS
  0
BLOCK
  5
D
100
AcDbEntity
  8
0
100
AcDbBlockBegin
  2
*MODEL_SPACE
 70
     0
 10
0.0
 20
0.0
 30
0.0
  3
*MODEL_SPACE
  1

  0
ENDBLK
  5
E
100
AcDbEntity
  8
0
100
AcDbBlockEnd
  0
BLOCK
  5
F
100
AcDbEntity
 67
     1
  8
0
100
AcDbBlockBegin
  2
*PAPER_SPACE
 70
     0
 10
0.0
 20
0.0
 30
0.0
  3
*PAPER_SPACE
  1

  0
ENDBLK
  5
10
100
AcDbEntity
 67
     1
  8
0
100
AcDbBlockEnd
  0
ENDSEC
  0
SECTION
  2
ENTITIES
  0
VIEWPORT
  5
13B
100
AcDbEntity
 67
     1
  8
0
 62
     0
 48
0.0
100
AcDbViewport
 10
0.0
 20
0.0
 30
0.0
 40
1000.0
 41
1000.0
 68
     1
 69
     1
1001
ACAD
1000
MVIEW
1002
{
1070
    16
1010
0.0
1020
0.0
1030
0.0
1010
0.0
1020
0.0
1030
1.0
1040
0.0
1040
1000.0
1040
0.0
1040
0.0
1040
50.0
1040
0.0
1040
0.0
1070
     0
1070
   100
1070
     1
1070
     1
1070
     0
1070
     0
1070
     0
1070
     0
1040
0.0
1040
0.0
1040
0.0
1040
1.0
1040
1.0
1040
1.0
1040
1.0
1070
     0
1002
{
1002
}
1002
}
  0
LINE
  5
24
100
AcDbEntity
  8
0
 62
     7
100
AcDbLine
 10
0.0
 20
0.0
 30
0.0
 11
124.000492
 21
0.0
 31
0.0
210
0.0
220
0.0
230
1.0
  0
LINE
  5
25
100
AcDbEntity
  8
0
 62
     7
100
AcDbLine
 10
124.000492
 20
0.0
 30
0.0
 11
124.000492
 21
174.430531
 31
0.0
210
0.0
220
0.0
230
1.0
  0
LINE
  5
26
100
AcDbEntity
  8
0
 62
     7
100
AcDbLine
 10
0.0
 20
174.430531
 30
0.0
 11
124.000492
 21
174.430531
 31
0.0
210
0.0
220
0.0
230
1.0
  0
LINE
  5
27
100
AcDbEntity
  8
0
 62
     7
100
AcDbLine
 10
0.0
 20
174.430531
 30
0.0
 11
0.0
 21
0.0
 31
0.0
210
0.0
220
0.0
230
1.0
  0
LINE
  5
28
100
AcDbEntity
  8
0
 62
     7
 48
0.497985
100
AcDbLine
 10
60.277403
 20
89.581554
 30
0.0
 11
64.536395
 21
70.12279
 31
0.0
210
0.0
220
0.0
230
1.0
  0
LINE
  5
29
100
AcDbEntity
  8
0
 62
     7
 48
0.102839
100
AcDbLine
 10
60.277403
 20
89.581554
 30
0.0
 11
64.390973
 21
89.581554
 31
0.0
210
0.0
220
0.0
230
1.0
  0
LINE
  5
2A
100
AcDbEntity
  8
0
 62
     7
 48
0.49767
100
AcDbLine
 10
64.390973
 20
89.581554
 30
0.0
 11
68.590697
 21
70.12279
 31
0.0
210
0.0
220
0.0
230
1.0
  0
LINE
  5
2B
100
AcDbEntity
  8
0
 62
     7
 48
0.101358
100
AcDbLine
 10
64.536395
 20
70.12279
 30
0.0
 11
68.590697
 21
70.12279
 31
0.0
210
0.0
220
0.0
230
1.0
  0
LINE
  5
2C
100
AcDbEntity
  8
0
 62
     7
 48
0.135121
100
AcDbLine
 10
83.59771
 20
82.330025
 30
0.0
 11
84.381689
 21
76.982359
 31
0.0
210
0.0
220
0.0
230
1.0
  0
LINE
  5
2D
100
AcDbEntity
  8
0
 62
     7
 48
0.079789
100
AcDbLine
 10
83.961687
 20
73.818558
 30
0.0
 11
84.381689
 21
76.982359
 31
0.0
210
0.0
220
0.0
230
1.0
  0
LINE
  5
2E
100
AcDbEntity
  8
0
 62
     7
 48
0.065811
100
AcDbLine
 10
82.673791
 20
71.52269
 30
0.0
 11
83.961687
 21
73.818558
 31
0.0
210
0.0
220
0.0
230
1.0
  0
LINE
  5
2F
100
AcDbEntity
  8
0
 62
     7
 48
0.062331
100
AcDbLine
 10
80.629904
 20
70.0948
 30
0.0
 11
82.673791
 21
71.52269
 31
0.0
210
0.0
220
0.0
230
1.0
  0
LINE
  5
30
100
AcDbEntity
  8
0
 62
     7
 48
0.022473
100
AcDbLine
 10
79.745489
 20
69.934
 30
0.0
 11
80.629904
 21
70.0948
 31
0.0
210
0.0
220
0.0
230
1.0
  0
LINE
  5
31
100
AcDbEntity
  8
0
 62
     7
 48
0.094494
100
AcDbLine
 10
78.944952
 20
73.62803
 30
0.0
 11
79.745489
 21
69.934
 31
0.0
210
0.0
220
0.0
230
1.0
  0
LINE
  5
32
100
AcDbEntity
  8
0
 62
     7
 48
0.020814
100
AcDbLine
 10
78.944952
 20
73.62803
 30
0.0
 11
79.565984
 21
74.182543
 31
0.0
210
0.0
220
0.0
230
1.0
  0
LINE
  5
33
100
AcDbEntity
  8
0
 62
     7
 48
0.031067
100
AcDbLine
 10
79.565984
 20
74.182543
 30
0.0
 11
80.041965
 21
75.330462
 31
0.0
210
0.0
220
0.0
230
1.0
  0
LINE
  5
34
100
AcDbEntity
  8
0
 62
     7
 48
0.040118
100
AcDbLine
 10
80.041965
 20
75.330462
 30
0.0
 11
80.209955
 21
76.92635
 31
0.0
210
0.0
220
0.0
230
1.0
  0
LINE
  5
35
100
AcDbEntity
  8
0
 62
     7
 48
0.087427
100
AcDbLine
 10
79.789953
 20
80.398127
 30
0.0
 11
80.209955
 21
76.92635
 31
0.0
210
0.0
220
0.0
230
1.0
  0
LINE
  5
36
100
AcDbEntity
  8
0
 62
     7
 48
0.088773
100
AcDbLine
 10
78.726025
 20
83.785919
 30
0.0
 11
79.789953
 21
80.398127
 31
0.0
210
0.0
220
0.0
230
1.0
  0
LINE
  5
37
100
AcDbEntity
  8
0
 62
     7
 48
0.060961
100
AcDbLine
 10
77.354107
 20
85.801801
 30
0.0
 11
78.726025
 21
83.785919
 31
0.0
210
0.0
220
0.0
230
1.0
  0
LINE
  5
38
100
AcDbEntity
  8
0
 62
     7
 48
0.030154
100
AcDbLine
 10
76.218618
 20
86.208565
 30
0.0
 11
77.354107
 21
85.801801
 31
0.0
210
0.0
220
0.0
230
1.0
  0
LINE
  5
39
100
AcDbEntity
  8
0
 62
     7
 48
0.09872
100
AcDbLine
 10
75.382281
 20
90.067794
 30
0.0
 11
76.218618
 21
86.208565
 31
0.0
210
0.0
220
0.0
230
1.0
  0
LINE
  5
3A
100
AcDbEntity
  8
0
 62
     7
 48
0.0427
100
AcDbLine
 10
75.382281
 20
90.067794
 30
0.0
 11
77.074159
 21
89.833535
 31
0.0
210
0.0
220
0.0
230
1.0
  0
LINE
  5
3B
100
AcDbEntity
  8
0
 62
     7
 48
0.044976
100
AcDbLine
 10
77.074159
 20
89.833535
 30
0.0
 11
78.754015
 21
89.189579
 31
0.0
210
0.0
220
0.0
230
1.0
  0
LINE
  5
3C
100
AcDbEntity
  8
0
 62
     7
 48
0.047194
100
AcDbLine
 10
78.754015
 20
89.189579
 30
0.0
 11
80.293924
 21
88.097639
 31
0.0
210
0.0
220
0.0
230
1.0
  0
LINE
  5
3D
100
AcDbEntity
  8
0
 62
     7
 48
0.049584
100
AcDbLine
 10
80.293924
 20
88.097639
 30
0.0
 11
81.60987
 21
86.61374
 31
0.0
210
0.0
220
0.0
230
1.0
  0
LINE
  5
3E
100
AcDbEntity
  8
0
 62
     7
 48
0.054869
100
AcDbLine
 10
81.60987
 20
86.61374
 30
0.0
 11
82.70178
 21
84.709862
 31
0.0
210
0.0
220
0.0
230
1.0
  0
LINE
  5
3F
100
AcDbEntity
  8
0
 62
     7
 48
0.063572
100
AcDbLine
 10
82.70178
 20
84.709862
 30
0.0
 11
83.59771
 21
82.330025
 31
0.0
210
0.0
220
0.0
230
1.0
  0
LINE
  5
40
100
AcDbEntity
  8
0
 62
     7
 48
0.33528
100
AcDbLine
 10
17.717878
 20
89.553549
 30
0.0
 11
31.129072
 21
89.553549
 31
0.0
210
0.0
220
0.0
230
1.0
  0
LINE
  5
41
100
AcDbEntity
  8
0
 62
     7
 48
0.090196
100
AcDbLine
 10
31.129072
 20
89.553549
 30
0.0
 11
31.885001
 21
86.025778
 31
0.0
210
0.0
220
0.0
230
1.0
  0
LINE
  5
42
100
AcDbEntity
  8
0
 62
     7
 48
0.121792
100
AcDbLine
 10
27.013317
 20
86.025778
 30
0.0
 11
31.885001
 21
86.025778
 31
0.0
210
0.0
220
0.0
230
1.0
  0
LINE
  5
43
100
AcDbEntity
  8
0
 62
     7
 48
0.406938
100
AcDbLine
 10
27.013317
 20
86.025778
 30
0.0
 11
30.485093
 21
70.12279
 31
0.0
210
0.0
220
0.0
230
1.0
  0
LINE
  5
44
100
AcDbEntity
  8
0
 62
     7
 48
0.106393
100
AcDbLine
 10
26.22939
 20
70.12279
 30
0.0
 11
30.485093
 21
70.12279
 31
0.0
210
0.0
220
0.0
230
1.0
  0
LINE
  5
45
100
AcDbEntity
  8
0
 62
     7
 48
0.406938
100
AcDbLine
 10
22.757614
 20
86.025778
 30
0.0
 11
26.22939
 21
70.12279
 31
0.0
210
0.0
220
0.0
230
1.0
  0
LINE
  5
46
100
AcDbEntity
  8
0
 62
     7
 48
0.107094
100
AcDbLine
 10
18.473868
 20
86.025778
 30
0.0
 11
22.757614
 21
86.025778
 31
0.0
210
0.0
220
0.0
230
1.0
  0
LINE
  5
47
100
AcDbEntity
  8
0
 62
     7
 48
0.090197
100
AcDbLine
 10
17.717878
 20
89.553549
 30
0.0
 11
18.473868
 21
86.025778
 31
0.0
210
0.0
220
0.0
230
1.0
  0
LINE
  5
48
100
AcDbEntity
  8
0
 62
     7
 48
0.079191
100
AcDbLine
 10
35.216777
 20
82.637985
 30
0.0
 11
35.664768
 21
85.773797
 31
0.0
210
0.0
220
0.0
230
1.0
  0
LINE
  5
49
100
AcDbEntity
  8
0
 62
     7
 48
0.066702
100
AcDbLine
 10
35.664768
 20
85.773797
 30
0.0
 11
36.924676
 21
88.125644
 31
0.0
210
0.0
220
0.0
230
1.0
  0
LINE
  5
4A
100
AcDbEntity
  8
0
 62
     7
 48
0.061601
100
AcDbLine
 10
36.924676
 20
88.125644
 30
0.0
 11
38.912583
 21
89.581554
 31
0.0
210
0.0
220
0.0
230
1.0
  0
LINE
  5
4B
100
AcDbEntity
  8
0
 62
     7
 48
0.021886
100
AcDbLine
 10
38.912583
 20
89.581554
 30
0.0
 11
39.772419
 21
89.746194
 31
0.0
210
0.0
220
0.0
230
1.0
  0
LINE
  5
4C
100
AcDbEntity
  8
0
 62
     7
 48
0.095499
100
AcDbLine
 10
39.772419
 20
89.746194
 30
0.0
 11
40.581465
 21
86.012895
 31
0.0
210
0.0
220
0.0
230
1.0
  0
LINE
  5
4D
100
AcDbEntity
  8
0
 62
     7
 48
0.017426
100
AcDbLine
 10
40.060472
 20
85.54982
 30
0.0
 11
40.581465
 21
86.012895
 31
0.0
210
0.0
220
0.0
230
1.0
  0
LINE
  5
4E
100
AcDbEntity
  8
0
 62
     7
 48
0.029432
100
AcDbLine
 10
39.556498
 20
84.485885
 30
0.0
 11
40.060472
 21
85.54982
 31
0.0
210
0.0
220
0.0
230
1.0
  0
LINE
  5
4F
100
AcDbEntity
  8
0
 62
     7
 48
0.036726
100
AcDbLine
 10
39.360518
 20
83.029975
 30
0.0
 11
39.556498
 21
84.485885
 31
0.0
210
0.0
220
0.0
230
1.0
  0
LINE
  5
50
100
AcDbEntity
  8
0
 62
     7
 48
0.077452
100
AcDbLine
 10
39.360518
 20
83.029975
 30
0.0
 11
39.696502
 21
79.950158
 31
0.0
210
0.0
220
0.0
230
1.0
  0
LINE
  5
51
100
AcDbEntity
  8
0
 62
     7
 48
0.089998
100
AcDbLine
 10
39.696502
 20
79.950158
 30
0.0
 11
40.648472
 21
76.478381
 31
0.0
210
0.0
220
0.0
230
1.0
  0
LINE
  5
52
100
AcDbEntity
  8
0
 62
     7
 48
0.039756
100
AcDbLine
 10
40.648472
 20
76.478381
 30
0.0
 11
41.348426
 21
75.050491
 31
0.0
210
0.0
220
0.0
230
1.0
  0
LINE
  5
53
100
AcDbEntity
  8
0
 62
     7
 48
0.031373
100
AcDbLine
 10
41.348426
 20
75.050491
 30
0.0
 11
42.132344
 21
74.070555
 31
0.0
210
0.0
220
0.0
230
1.0
  0
LINE
  5
54
100
AcDbEntity
  8
0
 62
     7
 48
0.027182
100
AcDbLine
 10
42.132344
 20
74.070555
 30
0.0
 11
43.028278
 21
73.454558
 31
0.0
210
0.0
220
0.0
230
1.0
  0
LINE
  5
55
100
AcDbEntity
  8
0
 62
     7
 48
0.007321
100
AcDbLine
 10
43.028278
 20
73.454558
 30
0.0
 11
43.315432
 21
73.397143
 31
0.0
210
0.0
220
0.0
230
1.0
  0
LINE
  5
56
100
AcDbEntity
  8
0
 62
     7
 48
0.09734
100
AcDbLine
 10
43.315432
 20
73.397143
 30
0.0
 11
44.140072
 21
69.591881
 31
0.0
210
0.0
220
0.0
230
1.0
  0
LINE
  5
57
100
AcDbEntity
  8
0
 62
     7
 48
0.043551
100
AcDbLine
 10
42.412349
 20
69.814799
 30
0.0
 11
44.140072
 21
69.591881
 31
0.0
210
0.0
220
0.0
230
1.0
  0
LINE
  5
58
100
AcDbEntity
  8
0
 62
     7
 48
0.043419
100
AcDbLine
 10
40.788476
 20
70.430781
 30
0.0
 11
42.412349
 21
69.814799
 31
0.0
210
0.0
220
0.0
230
1.0
  0
LINE
  5
59
100
AcDbEntity
  8
0
 62
     7
 48
0.044671
100
AcDbLine
 10
39.332532
 20
71.466681
 30
0.0
 11
40.788476
 21
70.430781
 31
0.0
210
0.0
220
0.0
230
1.0
  0
LINE
  5
5A
100
AcDbEntity
  8
0
 62
     7
 48
0.049122
100
AcDbLine
 10
38.044635
 20
72.950626
 30
0.0
 11
39.332532
 21
71.466681
 31
0.0
210
0.0
220
0.0
230
1.0
  0
LINE
  5
5B
100
AcDbEntity
  8
0
 62
     7
 48
0.056783
100
AcDbLine
 10
36.896686
 20
74.910483
 30
0.0
 11
38.044635
 21
72.950626
 31
0.0
210
0.0
220
0.0
230
1.0
  0
LINE
  5
5C
100
AcDbEntity
  8
0
 62
     7
 48
0.063573
100
AcDbLine
 10
36.000756
 20
77.29035
 30
0.0
 11
36.896686
 21
74.910483
 31
0.0
210
0.0
220
0.0
230
1.0
  0
LINE
  5
5D
100
AcDbEntity
  8
0
 62
     7
 48
0.13512
100
AcDbLine
 10
35.216777
 20
82.637985
 30
0.0
 11
36.000756
 21
77.29035
 31
0.0
210
0.0
220
0.0
230
1.0
  0
LINE
  5
5E
100
AcDbEntity
  8
0
 62
     7
 48
0.078745
100
AcDbLine
 10
83.704141
 20
94.517753
 30
0.0
 11
85.594085
 21
97.037568
 31
0.0
210
0.0
220
0.0
230
1.0
  0
LINE
  5
5F
100
AcDbEntity
  8
0
 62
     7
 48
0.088275
100
AcDbLine
 10
85.594085
 20
97.037568
 30
0.0
 11
88.743876
 21
98.633456
 31
0.0
210
0.0
220
0.0
230
1.0
  0
LINE
  5
60
100
AcDbEntity
  8
0
 62
     7
 48
0.108096
100
AcDbLine
 10
88.743876
 20
98.633456
 30
0.0
 11
93.027561
 21
99.221448
 31
0.0
210
0.0
220
0.0
230
1.0
  0
LINE
  5
61
100
AcDbEntity
  8
0
 62
     7
 48
0.000751
100
AcDbLine
 10
93.027561
 20
99.221448
 30
0.0
 11
93.057592
 21
99.221448
 31
0.0
210
0.0
220
0.0
230
1.0
  0
LINE
  5
62
100
AcDbEntity
  8
0
 62
     7
 48
0.129991
100
AcDbLine
 10
93.057592
 20
99.221448
 30
0.0
 11
94.158847
 21
94.139766
 31
0.0
210
0.0
220
0.0
230
1.0
  0
LINE
  5
63
100
AcDbEntity
  8
0
 62
     7
 48
0.013583
100
AcDbLine
 10
93.615508
 20
94.139766
 30
0.0
 11
94.158847
 21
94.139766
 31
0.0
210
0.0
220
0.0
230
1.0
  0
LINE
  5
64
100
AcDbEntity
  8
0
 62
     7
 48
0.047537
100
AcDbLine
 10
91.725647
 20
93.929761
 30
0.0
 11
93.615508
 21
94.139766
 31
0.0
210
0.0
220
0.0
230
1.0
  0
LINE
  5
65
100
AcDbEntity
  8
0
 62
     7
 48
0.037106
100
AcDbLine
 10
90.381748
 20
93.299792
 30
0.0
 11
91.725647
 21
93.929761
 31
0.0
210
0.0
220
0.0
230
1.0
  0
LINE
  5
66
100
AcDbEntity
  8
0
 62
     7
 48
0.032968
100
AcDbLine
 10
89.583805
 20
92.24986
 30
0.0
 11
90.381748
 21
93.299792
 31
0.0
210
0.0
220
0.0
230
1.0
  0
LINE
  5
67
100
AcDbEntity
  8
0
 62
     7
 48
0.036446
100
AcDbLine
 10
89.289831
 20
90.821954
 30
0.0
 11
89.583805
 21
92.24986
 31
0.0
210
0.0
220
0.0
230
1.0
  0
LINE
  5
68
100
AcDbEntity
  8
0
 62
     7
 48
0.052306
100
AcDbLine
 10
89.289831
 20
90.821954
 30
0.0
 11
89.667766
 21
88.764126
 31
0.0
210
0.0
220
0.0
230
1.0
  0
LINE
  5
69
100
AcDbEntity
  8
0
 62
     7
 48
0.045778
100
AcDbLine
 10
89.667766
 20
88.764126
 30
0.0
 11
90.759683
 21
87.294184
 31
0.0
210
0.0
220
0.0
230
1.0
  0
LINE
  5
6A
100
AcDbEntity
  8
0
 62
     7
 48
0.050243
100
AcDbLine
 10
90.759683
 20
87.294184
 30
0.0
 11
92.565575
 21
86.412279
 31
0.0
210
0.0
220
0.0
230
1.0
  0
LINE
  5
6B
100
AcDbEntity
  8
0
 62
     7
 48
0.063311
100
AcDbLine
 10
92.565575
 20
86.412279
 30
0.0
 11
95.085443
 21
86.160297
 31
0.0
210
0.0
220
0.0
230
1.0
  0
LINE
  5
6C
100
AcDbEntity
  8
0
 62
     7
 48
0.020066
100
AcDbLine
 10
95.085443
 20
86.160297
 30
0.0
 11
95.888082
 21
86.160297
 31
0.0
210
0.0
220
0.0
230
1.0
  0
LINE
  5
6D
100
AcDbEntity
  8
0
 62
     7
 48
0.126181
100
AcDbLine
 10
95.888082
 20
86.160297
 30
0.0
 11
96.957052
 21
81.227576
 31
0.0
210
0.0
220
0.0
230
1.0
  0
LINE
  5
6E
100
AcDbEntity
  8
0
 62
     7
 48
0.044846
100
AcDbLine
 10
95.169404
 20
81.078616
 30
0.0
 11
96.957052
 21
81.227576
 31
0.0
210
0.0
220
0.0
230
1.0
  0
LINE
  5
6F
100
AcDbEntity
  8
0
 62
     7
 48
0.037239
100
AcDbLine
 10
93.783521
 20
80.532616
 30
0.0
 11
95.169404
 21
81.078616
 31
0.0
210
0.0
220
0.0
230
1.0
  0
LINE
  5
70
100
AcDbEntity
  8
0
 62
     7
 48
0.032138
100
AcDbLine
 10
92.985585
 20
79.524705
 30
0.0
 11
93.783521
 21
80.532616
 31
0.0
210
0.0
220
0.0
230
1.0
  0
LINE
  5
71
100
AcDbEntity
  8
0
 62
     7
 48
0.038506
100
AcDbLine
 10
92.691611
 20
78.012786
 30
0.0
 11
92.985585
 21
79.524705
 31
0.0
210
0.0
220
0.0
230
1.0
  0
LINE
  5
72
100
AcDbEntity
  8
0
 62
     7
 48
0.016831
100
AcDbLine
 10
92.691611
 20
78.012786
 30
0.0
 11
92.733596
 21
77.34084
 31
0.0
210
0.0
220
0.0
230
1.0
  0
LINE
  5
73
100
AcDbEntity
  8
0
 62
     7
 48
0.086325
100
AcDbLine
 10
92.733596
 20
77.34084
 30
0.0
 11
92.985585
 21
73.897038
 31
0.0
210
0.0
220
0.0
230
1.0
  0
LINE
  5
74
100
AcDbEntity
  8
0
 62
     7
 48
0.055805
100
AcDbLine
 10
92.985585
 20
73.897038
 30
0.0
 11
93.153597
 21
71.671182
 31
0.0
210
0.0
220
0.0
230
1.0
  0
LINE
  5
75
100
AcDbEntity
  8
0
 62
     7
 48
0.040772
100
AcDbLine
 10
92.817557
 20
70.075294
 30
0.0
 11
93.153597
 21
71.671182
 31
0.0
210
0.0
220
0.0
230
1.0
  0
LINE
  5
76
100
AcDbEntity
  8
0
 62
     7
 48
0.177438
100
AcDbLine
 10
85.720038
 20
70.075294
 30
0.0
 11
92.817557
 21
70.075294
 31
0.0
210
0.0
220
0.0
230
1.0
  0
LINE
  5
77
100
AcDbEntity
  8
0
 62
     7
 48
0.015749
100
AcDbLine
 10
85.720038
 20
70.705263
 30
0.0
 11
85.720038
 21
70.075294
 31
0.0
210
0.0
220
0.0
230
1.0
  0
LINE
  5
78
100
AcDbEntity
  8
0
 62
     7
 48
0.032801
100
AcDbLine
 10
85.720038
 20
70.705263
 30
0.0
 11
86.727979
 21
71.545191
 31
0.0
210
0.0
220
0.0
230
1.0
  0
LINE
  5
79
100
AcDbEntity
  8
0
 62
     7
 48
0.032122
100
AcDbLine
 10
86.727979
 20
71.545191
 30
0.0
 11
86.979968
 21
72.805128
 31
0.0
210
0.0
220
0.0
230
1.0
  0
LINE
  5
7A
100
AcDbEntity
  8
0
 62
     7
 48
0.035759
100
AcDbLine
 10
86.896007
 20
74.233034
 30
0.0
 11
86.979968
 21
72.805128
 31
0.0
210
0.0
220
0.0
230
1.0
  0
LINE
  5
7B
100
AcDbEntity
  8
0
 62
     7
 48
0.086324
100
AcDbLine
 10
86.644018
 20
77.67679
 30
0.0
 11
86.896007
 21
74.233034
 31
0.0
210
0.0
220
0.0
230
1.0
  0
LINE
  5
7C
100
AcDbEntity
  8
0
 62
     7
 48
0.034664
100
AcDbLine
 10
86.601943
 20
79.062719
 30
0.0
 11
86.644018
 21
77.67679
 31
0.0
210
0.0
220
0.0
230
1.0
  0
LINE
  5
7D
100
AcDbEntity
  8
0
 62
     7
 48
0.064045
100
AcDbLine
 10
86.601943
 20
79.062719
 30
0.0
 11
87.063937
 21
81.582533
 31
0.0
210
0.0
220
0.0
230
1.0
  0
LINE
  5
7E
100
AcDbEntity
  8
0
 62
     7
 48
0.057287
100
AcDbLine
 10
87.063937
 20
81.582533
 30
0.0
 11
88.785861
 21
83.094452
 31
0.0
210
0.0
220
0.0
230
1.0
  0
LINE
  5
7F
100
AcDbEntity
  8
0
 62
     7
 48
0.066736
100
AcDbLine
 10
86.349954
 20
84.186377
 30
0.0
 11
88.785861
 21
83.094452
 31
0.0
210
0.0
220
0.0
230
1.0
  0
LINE
  5
80
100
AcDbEntity
  8
0
 62
     7
 48
0.063109
100
AcDbLine
 10
84.544153
 20
85.950293
 30
0.0
 11
86.349954
 21
84.186377
 31
0.0
210
0.0
220
0.0
230
1.0
  0
LINE
  5
81
100
AcDbEntity
  8
0
 62
     7
 48
0.065778
100
AcDbLine
 10
83.452152
 20
88.344117
 30
0.0
 11
84.544153
 21
85.950293
 31
0.0
210
0.0
220
0.0
230
1.0
  0
LINE
  5
82
100
AcDbEntity
  8
0
 62
     7
 48
0.075281
100
AcDbLine
 10
83.032234
 20
91.325917
 30
0.0
 11
83.452152
 21
88.344117
 31
0.0
210
0.0
220
0.0
230
1.0
  0
LINE
  5
83
100
AcDbEntity
  8
0
 62
     7
 48
0.081545
100
AcDbLine
 10
83.032234
 20
91.325917
 30
0.0
 11
83.704141
 21
94.517753
 31
0.0
210
0.0
220
0.0
230
1.0
  0
LINE
  5
84
100
AcDbEntity
  8
0
 62
     7
 48
0.087427
100
AcDbLine
 10
46.08011
 20
80.398127
 30
0.0
 11
46.500058
 21
76.92635
 31
0.0
210
0.0
220
0.0
230
1.0
  0
LINE
  5
85
100
AcDbEntity
  8
0
 62
     7
 48
0.088773
100
AcDbLine
 10
45.016186
 20
83.785919
 30
0.0
 11
46.08011
 21
80.398127
 31
0.0
210
0.0
220
0.0
230
1.0
  0
LINE
  5
86
100
AcDbEntity
  8
0
 62
     7
 48
0.060961
100
AcDbLine
 10
43.644267
 20
85.801801
 30
0.0
 11
45.016186
 21
83.785919
 31
0.0
210
0.0
220
0.0
230
1.0
  0
LINE
  5
87
100
AcDbEntity
  8
0
 62
     7
 48
0.031557
100
AcDbLine
 10
42.455937
 20
86.227466
 30
0.0
 11
43.644267
 21
85.801801
 31
0.0
210
0.0
220
0.0
230
1.0
  0
LINE
  5
88
100
AcDbEntity
  8
0
 62
     7
 48
0.098415
100
AcDbLine
 10
41.622193
 20
90.07475
 30
0.0
 11
42.455937
 21
86.227466
 31
0.0
210
0.0
220
0.0
230
1.0
  0
LINE
  5
89
100
AcDbEntity
  8
0
 62
     7
 48
0.043967
100
AcDbLine
 10
41.622193
 20
90.07475
 30
0.0
 11
43.364262
 21
89.833535
 31
0.0
210
0.0
220
0.0
230
1.0
  0
LINE
  5
8A
100
AcDbEntity
  8
0
 62
     7
 48
0.044978
100
AcDbLine
 10
43.364262
 20
89.833535
 30
0.0
 11
45.044171
 21
89.189579
 31
0.0
210
0.0
220
0.0
230
1.0
  0
LINE
  5
8B
100
AcDbEntity
  8
0
 62
     7
 48
0.047194
100
AcDbLine
 10
45.044171
 20
89.189579
 30
0.0
 11
46.584084
 21
88.097639
 31
0.0
210
0.0
220
0.0
230
1.0
  0
LINE
  5
8C
100
AcDbEntity
  8
0
 62
     7
 48
0.049583
100
AcDbLine
 10
46.584084
 20
88.097639
 30
0.0
 11
47.899963
 21
86.61374
 31
0.0
210
0.0
220
0.0
230
1.0
  0
LINE
  5
8D
100
AcDbEntity
  8
0
 62
     7
 48
0.05487
100
AcDbLine
 10
47.899963
 20
86.61374
 30
0.0
 11
48.991937
 21
84.709862
 31
0.0
210
0.0
220
0.0
230
1.0
  0
LINE
  5
8E
100
AcDbEntity
  8
0
 62
     7
 48
0.063572
100
AcDbLine
 10
48.991937
 20
84.709862
 30
0.0
 11
49.88787
 21
82.330025
 31
0.0
210
0.0
220
0.0
230
1.0
  0
LINE
  5
8F
100
AcDbEntity
  8
0
 62
     7
 48
0.13512
100
AcDbLine
 10
49.88787
 20
82.330025
 30
0.0
 11
50.671789
 21
76.982359
 31
0.0
210
0.0
220
0.0
230
1.0
  0
LINE
  5
90
100
AcDbEntity
  8
0
 62
     7
 48
0.079789
100
AcDbLine
 10
50.25184
 20
73.818558
 30
0.0
 11
50.671789
 21
76.982359
 31
0.0
210
0.0
220
0.0
230
1.0
  0
LINE
  5
91
100
AcDbEntity
  8
0
 62
     7
 48
0.065811
100
AcDbLine
 10
48.963947
 20
71.52269
 30
0.0
 11
50.25184
 21
73.818558
 31
0.0
210
0.0
220
0.0
230
1.0
  0
LINE
  5
92
100
AcDbEntity
  8
0
 62
     7
 48
0.062331
100
AcDbLine
 10
46.920064
 20
70.0948
 30
0.0
 11
48.963947
 21
71.52269
 31
0.0
210
0.0
220
0.0
230
1.0
  0
LINE
  5
93
100
AcDbEntity
  8
0
 62
     7
 48
0.023664
100
AcDbLine
 10
45.988754
 20
69.925472
 30
0.0
 11
46.920064
 21
70.0948
 31
0.0
210
0.0
220
0.0
230
1.0
  0
LINE
  5
94
100
AcDbEntity
  8
0
 62
     7
 48
0.093781
100
AcDbLine
 10
45.194266
 20
73.591603
 30
0.0
 11
45.988754
 21
69.925472
 31
0.0
210
0.0
220
0.0
230
1.0
  0
LINE
  5
95
100
AcDbEntity
  8
0
 62
     7
 48
0.022182
100
AcDbLine
 10
45.194266
 20
73.591603
 30
0.0
 11
45.85614
 21
74.182543
 31
0.0
210
0.0
220
0.0
230
1.0
  0
LINE
  5
96
100
AcDbEntity
  8
0
 62
     7
 48
0.031067
100
AcDbLine
 10
45.85614
 20
74.182543
 30
0.0
 11
46.332068
 21
75.330462
 31
0.0
210
0.0
220
0.0
230
1.0
  0
LINE
  5
97
100
AcDbEntity
  8
0
 62
     7
 48
0.040118
100
AcDbLine
 10
46.332068
 20
75.330462
 30
0.0
 11
46.500058
 21
76.92635
 31
0.0
210
0.0
220
0.0
230
1.0
  0
LINE
  5
98
100
AcDbEntity
  8
0
 62
     7
 48
0.048741
100
AcDbLine
 10
52.295723
 20
86.697739
 30
0.0
 11
53.415626
 21
88.293627
 31
0.0
210
0.0
220
0.0
230
1.0
  0
LINE
  5
99
100
AcDbEntity
  8
0
 62
     7
 48
0.051967
100
AcDbLine
 10
53.415626
 20
88.293627
 30
0.0
 11
55.263529
 21
89.245558
 31
0.0
210
0.0
220
0.0
230
1.0
  0
LINE
  5
9A
100
AcDbEntity
  8
0
 62
     7
 48
0.064942
100
AcDbLine
 10
55.263529
 20
89.245558
 30
0.0
 11
57.839376
 21
89.581554
 31
0.0
210
0.0
220
0.0
230
1.0
  0
LINE
  5
9B
100
AcDbEntity
  8
0
 62
     7
 48
0.012905
100
AcDbLine
 10
57.839376
 20
89.581554
 30
0.0
 11
58.355568
 21
89.581554
 31
0.0
210
0.0
220
0.0
230
1.0
  0
LINE
  5
9C
100
AcDbEntity
  8
0
 62
     7
 48
0.088132
100
AcDbLine
 10
58.355568
 20
89.581554
 30
0.0
 11
59.109312
 21
86.137797
 31
0.0
210
0.0
220
0.0
230
1.0
  0
LINE
  5
9D
100
AcDbEntity
  8
0
 62
     7
 48
0.018449
100
AcDbLine
 10
58.371336
 20
86.137797
 30
0.0
 11
59.109312
 21
86.137797
 31
0.0
210
0.0
220
0.0
230
1.0
  0
LINE
  5
9E
100
AcDbEntity
  8
0
 62
     7
 48
0.044999
100
AcDbLine
 10
56.635447
 20
85.661808
 30
0.0
 11
58.371336
 21
86.137797
 31
0.0
210
0.0
220
0.0
230
1.0
  0
LINE
  5
9F
100
AcDbEntity
  8
0
 62
     7
 48
0.017499
100
AcDbLine
 10
56.215442
 20
85.101851
 30
0.0
 11
56.635447
 21
85.661808
 31
0.0
210
0.0
220
0.0
230
1.0
  0
LINE
  5
A0
100
AcDbEntity
  8
0
 62
     7
 48
0.020729
100
AcDbLine
 10
56.047508
 20
84.289882
 30
0.0
 11
56.215442
 21
85.101851
 31
0.0
210
0.0
220
0.0
230
1.0
  0
LINE
  5
A1
100
AcDbEntity
  8
0
 62
     7
 48
0.027046
100
AcDbLine
 10
56.047508
 20
84.289882
 30
0.0
 11
56.243488
 21
83.225947
 31
0.0
210
0.0
220
0.0
230
1.0
  0
LINE
  5
A2
100
AcDbEntity
  8
0
 62
     7
 48
0.02296
100
AcDbLine
 10
56.243488
 20
83.225947
 30
0.0
 11
56.803441
 21
82.498007
 31
0.0
210
0.0
220
0.0
230
1.0
  0
LINE
  5
A3
100
AcDbEntity
  8
0
 62
     7
 48
0.025042
100
AcDbLine
 10
56.803441
 20
82.498007
 30
0.0
 11
57.699371
 21
82.050024
 31
0.0
210
0.0
220
0.0
230
1.0
  0
LINE
  5
A4
100
AcDbEntity
  8
0
 62
     7
 48
0.031622
100
AcDbLine
 10
57.699371
 20
82.050024
 30
0.0
 11
58.959279
 21
81.938035
 31
0.0
210
0.0
220
0.0
230
1.0
  0
LINE
  5
A5
100
AcDbEntity
  8
0
 62
     7
 48
0.026731
100
AcDbLine
 10
58.959279
 20
81.938035
 30
0.0
 11
60.028521
 21
81.938035
 31
0.0
210
0.0
220
0.0
230
1.0
  0
LINE
  5
A6
100
AcDbEntity
  8
0
 62
     7
 48
0.0824
100
AcDbLine
 10
60.028521
 20
81.938035
 30
0.0
 11
60.733246
 21
78.71824
 31
0.0
210
0.0
220
0.0
230
1.0
  0
LINE
  5
A7
100
AcDbEntity
  8
0
 62
     7
 48
0.02755
100
AcDbLine
 10
59.631243
 20
78.71824
 30
0.0
 11
60.733246
 21
78.71824
 31
0.0
210
0.0
220
0.0
230
1.0
  0
LINE
  5
A8
100
AcDbEntity
  8
0
 62
     7
 48
0.029003
100
AcDbLine
 10
58.483351
 20
78.550257
 30
0.0
 11
59.631243
 21
78.71824
 31
0.0
210
0.0
220
0.0
230
1.0
  0
LINE
  5
A9
100
AcDbEntity
  8
0
 62
     7
 48
0.023799
100
AcDbLine
 10
57.643396
 20
78.102289
 30
0.0
 11
58.483351
 21
78.550257
 31
0.0
210
0.0
220
0.0
230
1.0
  0
LINE
  5
AA
100
AcDbEntity
  8
0
 62
     7
 48
0.021563
100
AcDbLine
 10
57.139422
 20
77.402339
 30
0.0
 11
57.643396
 21
78.102289
 31
0.0
210
0.0
220
0.0
230
1.0
  0
LINE
  5
AB
100
AcDbEntity
  8
0
 62
     7
 48
0.023613
100
AcDbLine
 10
56.943442
 20
76.478381
 30
0.0
 11
57.139422
 21
77.402339
 31
0.0
210
0.0
220
0.0
230
1.0
  0
LINE
  5
AC
100
AcDbEntity
  8
0
 62
     7
 48
0.032681
100
AcDbLine
 10
56.943442
 20
76.478381
 30
0.0
 11
57.167411
 21
75.190454
 31
0.0
210
0.0
220
0.0
230
1.0
  0
LINE
  5
AD
100
AcDbEntity
  8
0
 62
     7
 48
0.027182
100
AcDbLine
 10
57.167411
 20
75.190454
 30
0.0
 11
57.783397
 21
74.294517
 31
0.0
210
0.0
220
0.0
230
1.0
  0
LINE
  5
AE
100
AcDbEntity
  8
0
 62
     7
 48
0.029431
100
AcDbLine
 10
57.783397
 20
74.294517
 30
0.0
 11
58.847324
 21
73.790554
 31
0.0
210
0.0
220
0.0
230
1.0
  0
LINE
  5
AF
100
AcDbEntity
  8
0
 62
     7
 48
0.036639
100
AcDbLine
 10
58.847324
 20
73.790554
 30
0.0
 11
60.303207
 21
73.622556
 31
0.0
210
0.0
220
0.0
230
1.0
  0
LINE
  5
B0
100
AcDbEntity
  8
0
 62
     7
 48
0.038634
100
AcDbLine
 10
60.303207
 20
73.622556
 30
0.0
 11
61.848552
 21
73.622556
 31
0.0
210
0.0
220
0.0
230
1.0
  0
LINE
  5
B1
100
AcDbEntity
  8
0
 62
     7
 48
0.089565
100
AcDbLine
 10
61.848552
 20
73.622556
 30
0.0
 11
62.61456
 21
70.12279
 31
0.0
210
0.0
220
0.0
230
1.0
  0
LINE
  5
B2
100
AcDbEntity
  8
0
 62
     7
 48
0.078783
100
AcDbLine
 10
59.463253
 20
70.12279
 30
0.0
 11
62.61456
 21
70.12279
 31
0.0
210
0.0
220
0.0
230
1.0
  0
LINE
  5
B3
100
AcDbEntity
  8
0
 62
     7
 48
0.074146
100
AcDbLine
 10
56.523436
 20
70.51478
 30
0.0
 11
59.463253
 21
70.12279
 31
0.0
210
0.0
220
0.0
230
1.0
  0
LINE
  5
B4
100
AcDbEntity
  8
0
 62
     7
 48
0.060779
100
AcDbLine
 10
54.395585
 20
71.690688
 30
0.0
 11
56.523436
 21
70.51478
 31
0.0
210
0.0
220
0.0
230
1.0
  0
LINE
  5
B5
100
AcDbEntity
  8
0
 62
     7
 48
0.057075
100
AcDbLine
 10
53.135681
 20
73.594582
 30
0.0
 11
54.395585
 21
71.690688
 31
0.0
210
0.0
220
0.0
230
1.0
  0
LINE
  5
B6
100
AcDbEntity
  8
0
 62
     7
 48
0.066742
100
AcDbLine
 10
52.687686
 20
76.226385
 30
0.0
 11
53.135681
 21
73.594582
 31
0.0
210
0.0
220
0.0
230
1.0
  0
LINE
  5
B7
100
AcDbEntity
  8
0
 62
     7
 48
0.058236
100
AcDbLine
 10
52.687686
 20
76.226385
 30
0.0
 11
53.219646
 21
78.494278
 31
0.0
210
0.0
220
0.0
230
1.0
  0
LINE
  5
B8
100
AcDbEntity
  8
0
 62
     7
 48
0.053463
100
AcDbLine
 10
53.219646
 20
78.494278
 30
0.0
 11
54.759555
 21
79.978178
 31
0.0
210
0.0
220
0.0
230
1.0
  0
LINE
  5
B9
100
AcDbEntity
  8
0
 62
     7
 48
0.035773
100
AcDbLine
 10
53.527641
 20
80.706117
 30
0.0
 11
54.759555
 21
79.978178
 31
0.0
210
0.0
220
0.0
230
1.0
  0
LINE
  5
BA
100
AcDbEntity
  8
0
 62
     7
 48
0.033714
100
AcDbLine
 10
52.631707
 20
81.714058
 30
0.0
 11
53.527641
 21
80.706117
 31
0.0
210
0.0
220
0.0
230
1.0
  0
LINE
  5
BB
100
AcDbEntity
  8
0
 62
     7
 48
0.034836
100
AcDbLine
 10
52.099743
 20
83.00197
 30
0.0
 11
52.631707
 21
81.714058
 31
0.0
210
0.0
220
0.0
230
1.0
  0
LINE
  5
BC
100
AcDbEntity
  8
0
 62
     7
 48
0.039503
100
AcDbLine
 10
51.903763
 20
84.569899
 30
0.0
 11
52.099743
 21
83.00197
 31
0.0
210
0.0
220
0.0
230
1.0
  0
LINE
  5
BD
100
AcDbEntity
  8
0
 62
     7
 48
0.054091
100
AcDbLine
 10
51.903763
 20
84.569899
 30
0.0
 11
52.295723
 21
86.697739
 31
0.0
210
0.0
220
0.0
230
1.0
  0
LINE
  5
BE
100
AcDbEntity
  8
0
 62
     7
 48
0.079191
100
AcDbLine
 10
68.926677
 20
82.637985
 30
0.0
 11
69.374616
 21
85.773797
 31
0.0
210
0.0
220
0.0
230
1.0
  0
LINE
  5
BF
100
AcDbEntity
  8
0
 62
     7
 48
0.066702
100
AcDbLine
 10
69.374616
 20
85.773797
 30
0.0
 11
70.634576
 21
88.125644
 31
0.0
210
0.0
220
0.0
230
1.0
  0
LINE
  5
C0
100
AcDbEntity
  8
0
 62
     7
 48
0.0616
100
AcDbLine
 10
70.634576
 20
88.125644
 30
0.0
 11
72.622423
 21
89.581554
 31
0.0
210
0.0
220
0.0
230
1.0
  0
LINE
  5
C1
100
AcDbEntity
  8
0
 62
     7
 48
0.023078
100
AcDbLine
 10
72.622423
 20
89.581554
 30
0.0
 11
73.529059
 21
89.755161
 31
0.0
210
0.0
220
0.0
230
1.0
  0
LINE
  5
C2
100
AcDbEntity
  8
0
 62
     7
 48
0.094799
100
AcDbLine
 10
73.529059
 20
89.755161
 30
0.0
 11
74.332174
 21
86.049216
 31
0.0
210
0.0
220
0.0
230
1.0
  0
LINE
  5
C3
100
AcDbEntity
  8
0
 62
     7
 48
0.018792
100
AcDbLine
 10
73.770372
 20
85.54982
 30
0.0
 11
74.332174
 21
86.049216
 31
0.0
210
0.0
220
0.0
230
1.0
  0
LINE
  5
C4
100
AcDbEntity
  8
0
 62
     7
 48
0.029432
100
AcDbLine
 10
73.266402
 20
84.485885
 30
0.0
 11
73.770372
 21
85.54982
 31
0.0
210
0.0
220
0.0
230
1.0
  0
LINE
  5
C5
100
AcDbEntity
  8
0
 62
     7
 48
0.036726
100
AcDbLine
 10
73.070422
 20
83.029975
 30
0.0
 11
73.266402
 21
84.485885
 31
0.0
210
0.0
220
0.0
230
1.0
  0
LINE
  5
C6
100
AcDbEntity
  8
0
 62
     7
 48
0.077452
100
AcDbLine
 10
73.070422
 20
83.029975
 30
0.0
 11
73.406402
 21
79.950158
 31
0.0
210
0.0
220
0.0
230
1.0
  0
LINE
  5
C7
100
AcDbEntity
  8
0
 62
     7
 48
0.089998
100
AcDbLine
 10
73.406402
 20
79.950158
 30
0.0
 11
74.358311
 21
76.478381
 31
0.0
210
0.0
220
0.0
230
1.0
  0
LINE
  5
C8
100
AcDbEntity
  8
0
 62
     7
 48
0.039756
100
AcDbLine
 10
74.358311
 20
76.478381
 30
0.0
 11
75.058269
 21
75.050491
 31
0.0
210
0.0
220
0.0
230
1.0
  0
LINE
  5
C9
100
AcDbEntity
  8
0
 62
     7
 48
0.031374
100
AcDbLine
 10
75.058269
 20
75.050491
 30
0.0
 11
75.842248
 21
74.070555
 31
0.0
210
0.0
220
0.0
230
1.0
  0
LINE
  5
CA
100
AcDbEntity
  8
0
 62
     7
 48
0.027182
100
AcDbLine
 10
75.842248
 20
74.070555
 30
0.0
 11
76.738178
 21
73.454558
 31
0.0
210
0.0
220
0.0
230
1.0
  0
LINE
  5
CB
100
AcDbEntity
  8
0
 62
     7
 48
0.008618
100
AcDbLine
 10
76.738178
 20
73.454558
 30
0.0
 11
77.076215
 21
73.386966
 31
0.0
210
0.0
220
0.0
230
1.0
  0
LINE
  5
CC
100
AcDbEntity
  8
0
 62
     7
 48
0.096924
100
AcDbLine
 10
77.076215
 20
73.386966
 30
0.0
 11
77.897332
 21
69.59796
 31
0.0
210
0.0
220
0.0
230
1.0
  0
LINE
  5
CD
100
AcDbEntity
  8
0
 62
     7
 48
0.000997
100
AcDbLine
 10
77.858078
 20
69.590822
 30
0.0
 11
77.897332
 21
69.59796
 31
0.0
210
0.0
220
0.0
230
1.0
  0
LINE
  5
CE
100
AcDbEntity
  8
0
 62
     7
 48
0.043757
100
AcDbLine
 10
76.122189
 20
69.814799
 30
0.0
 11
77.858078
 21
69.590822
 31
0.0
210
0.0
220
0.0
230
1.0
  0
LINE
  5
CF
100
AcDbEntity
  8
0
 62
     7
 48
0.043419
100
AcDbLine
 10
74.49832
 20
70.430781
 30
0.0
 11
76.122189
 21
69.814799
 31
0.0
210
0.0
220
0.0
230
1.0
  0
LINE
  5
D0
100
AcDbEntity
  8
0
 62
     7
 48
0.044672
100
AcDbLine
 10
73.042372
 20
71.466681
 30
0.0
 11
74.49832
 21
70.430781
 31
0.0
210
0.0
220
0.0
230
1.0
  0
LINE
  5
D1
100
AcDbEntity
  8
0
 62
     7
 48
0.049122
100
AcDbLine
 10
71.754483
 20
72.950626
 30
0.0
 11
73.042372
 21
71.466681
 31
0.0
210
0.0
220
0.0
230
1.0
  0
LINE
  5
D2
100
AcDbEntity
  8
0
 62
     7
 48
0.056783
100
AcDbLine
 10
70.606534
 20
74.910483
 30
0.0
 11
71.754483
 21
72.950626
 31
0.0
210
0.0
220
0.0
230
1.0
  0
LINE
  5
D3
100
AcDbEntity
  8
0
 62
     7
 48
0.063573
100
AcDbLine
 10
69.710596
 20
77.29035
 30
0.0
 11
70.606534
 21
74.910483
 31
0.0
210
0.0
220
0.0
230
1.0
  0
LINE
  5
D4
100
AcDbEntity
  8
0
 62
     7
 48
0.13512
100
AcDbLine
 10
68.926677
 20
82.637985
 30
0.0
 11
69.710596
 21
77.29035
 31
0.0
210
0.0
220
0.0
230
1.0
  0
LINE
  5
D5
100
AcDbEntity
  8
0
 62
     7
100
AcDbLine
 10
52.6907
 20
128.821781
 30
0.0
 11
57.176017
 21
108.124526
 31
0.0
210
0.0
220
0.0
230
1.0
  0
LINE
  5
D6
100
AcDbEntity
  8
0
 62
     7
 48
0.112133
100
AcDbLine
 10
52.6907
 20
128.821781
 30
0.0
 11
57.176017
 21
128.821781
 31
0.0
210
0.0
220
0.0
230
1.0
  0
LINE
  5
D7
100
AcDbEntity
  8
0
 62
     7
100
AcDbLine
 10
57.176017
 20
128.821781
 30
0.0
 11
61.530195
 21
108.124526
 31
0.0
210
0.0
220
0.0
230
1.0
  0
LINE
  5
D8
100
AcDbEntity
  8
0
 62
     7
 48
0.108854
100
AcDbLine
 10
57.176017
 20
108.124526
 30
0.0
 11
61.530195
 21
108.124526
 31
0.0
210
0.0
220
0.0
230
1.0
  0
LINE
  5
D9
100
AcDbEntity
  8
0
 62
     7
 48
0.08425
100
AcDbLine
 10
73.608593
 20
111.703302
 30
0.0
 11
76.978585
 21
111.703302
 31
0.0
210
0.0
220
0.0
230
1.0
  0
LINE
  5
DA
100
AcDbEntity
  8
0
 62
     7
 48
0.091873
100
AcDbLine
 10
76.978585
 20
111.703302
 30
0.0
 11
77.81367
 21
108.124526
 31
0.0
210
0.0
220
0.0
230
1.0
  0
LINE
  5
DB
100
AcDbEntity
  8
0
 62
     7
 48
0.287049
100
AcDbLine
 10
66.331724
 20
108.124526
 30
0.0
 11
77.81367
 21
108.124526
 31
0.0
210
0.0
220
0.0
230
1.0
  0
LINE
  5
DC
100
AcDbEntity
  8
0
 62
     7
 48
0.091545
100
AcDbLine
 10
65.556338
 20
111.703302
 30
0.0
 11
66.331724
 21
108.124526
 31
0.0
210
0.0
220
0.0
230
1.0
  0
LINE
  5
DD
100
AcDbEntity
  8
0
 62
     7
 48
0.091706
100
AcDbLine
 10
65.556338
 20
111.703302
 30
0.0
 11
69.224598
 21
111.703302
 31
0.0
210
0.0
220
0.0
230
1.0
  0
LINE
  5
DE
100
AcDbEntity
  8
0
 62
     7
 48
0.345522
100
AcDbLine
 10
66.451008
 20
125.243005
 30
0.0
 11
69.224598
 21
111.703302
 31
0.0
210
0.0
220
0.0
230
1.0
  0
LINE
  5
DF
100
AcDbEntity
  8
0
 62
     7
 48
0.08425
100
AcDbLine
 10
63.081015
 20
125.243005
 30
0.0
 11
66.451008
 21
125.243005
 31
0.0
210
0.0
220
0.0
230
1.0
  0
LINE
  5
E0
100
AcDbEntity
  8
0
 62
     7
 48
0.091873
100
AcDbLine
 10
62.245963
 20
128.821781
 30
0.0
 11
63.081015
 21
125.243005
 31
0.0
210
0.0
220
0.0
230
1.0
  0
LINE
  5
E1
100
AcDbEntity
  8
0
 62
     7
 48
0.287047
100
AcDbLine
 10
62.245963
 20
128.821781
 30
0.0
 11
73.72786
 21
128.821781
 31
0.0
210
0.0
220
0.0
230
1.0
  0
LINE
  5
E2
100
AcDbEntity
  8
0
 62
     7
 48
0.091706
100
AcDbLine
 10
73.72786
 20
128.821781
 30
0.0
 11
74.533095
 21
125.243005
 31
0.0
210
0.0
220
0.0
230
1.0
  0
LINE
  5
E3
100
AcDbEntity
  8
0
 62
     7
 48
0.092451
100
AcDbLine
 10
70.835035
 20
125.243005
 30
0.0
 11
74.533095
 21
125.243005
 31
0.0
210
0.0
220
0.0
230
1.0
  0
LINE
  5
E4
100
AcDbEntity
  8
0
 62
     7
 48
0.345521
100
AcDbLine
 10
70.835035
 20
125.243005
 30
0.0
 11
73.608593
 21
111.703302
 31
0.0
210
0.0
220
0.0
230
1.0
  0
LINE
  5
E5
100
AcDbEntity
  8
0
 62
     7
100
AcDbLine
 10
72.286586
 20
141.129334
 30
0.0
 11
88.224081
 21
108.013694
 31
0.0
210
0.0
220
0.0
230
1.0
  0
LINE
  5
E6
100
AcDbEntity
  8
0
 62
     7
 48
0.178938
100
AcDbLine
 10
72.286586
 20
141.129334
 30
0.0
 11
79.444122
 21
141.129334
 31
0.0
210
0.0
220
0.0
230
1.0
  0
LINE
  5
E7
100
AcDbEntity
  8
0
 62
     7
100
AcDbLine
 10
79.444122
 20
141.129334
 30
0.0
 11
89.464698
 21
118.702309
 31
0.0
210
0.0
220
0.0
230
1.0
  0
LINE
  5
E8
100
AcDbEntity
  8
0
 62
     7
100
AcDbLine
 10
89.464698
 20
118.702309
 30
0.0
 11
91.325689
 21
141.129334
 31
0.0
210
0.0
220
0.0
230
1.0
  0
LINE
  5
E9
100
AcDbEntity
  8
0
 62
     7
 48
0.170588
100
AcDbLine
 10
91.325689
 20
141.129334
 30
0.0
 11
98.149214
 21
141.129334
 31
0.0
210
0.0
220
0.0
230
1.0
  0
LINE
  5
EA
100
AcDbEntity
  8
0
 62
     7
100
AcDbLine
 10
95.095319
 20
108.013694
 30
0.0
 11
98.149214
 21
141.129334
 31
0.0
210
0.0
220
0.0
230
1.0
  0
LINE
  5
EB
100
AcDbEntity
  8
0
 62
     7
 48
0.171781
100
AcDbLine
 10
88.224081
 20
108.013694
 30
0.0
 11
95.095319
 21
108.013694
 31
0.0
210
0.0
220
0.0
230
1.0
  0
LINE
  5
EC
100
AcDbEntity
  8
0
 62
     7
 48
0.280834
100
AcDbLine
 10
32.905425
 20
128.74399
 30
0.0
 11
37.992275
 21
118.728364
 31
0.0
210
0.0
220
0.0
230
1.0
  0
LINE
  5
ED
100
AcDbEntity
  8
0
 62
     7
 48
0.104751
100
AcDbLine
 10
33.802244
 20
118.728364
 30
0.0
 11
37.992275
 21
118.728364
 31
0.0
210
0.0
220
0.0
230
1.0
  0
LINE
  5
EE
100
AcDbEntity
  8
0
 62
     7
 48
0.152694
100
AcDbLine
 10
31.235337
 20
124.270528
 30
0.0
 11
33.802244
 21
118.728364
 31
0.0
210
0.0
220
0.0
230
1.0
  0
LINE
  5
EF
100
AcDbEntity
  8
0
 62
     7
 48
0.13932
100
AcDbLine
 10
30.651945
 20
118.728364
 30
0.0
 11
31.235337
 21
124.270528
 31
0.0
210
0.0
220
0.0
230
1.0
  0
LINE
  5
F0
100
AcDbEntity
  8
0
 62
     7
 48
0.10363
100
AcDbLine
 10
26.50673
 20
118.728364
 30
0.0
 11
30.651945
 21
118.728364
 31
0.0
210
0.0
220
0.0
230
1.0
  0
LINE
  5
F1
100
AcDbEntity
  8
0
 62
     7
 48
0.253324
100
AcDbLine
 10
26.50673
 20
118.728364
 30
0.0
 11
28.044278
 21
128.74399
 31
0.0
210
0.0
220
0.0
230
1.0
  0
LINE
  5
F2
100
AcDbEntity
  8
0
 62
     7
 48
0.121529
100
AcDbLine
 10
28.044278
 20
128.74399
 30
0.0
 11
32.905425
 21
128.74399
 31
0.0
210
0.0
220
0.0
230
1.0
  0
LINE
  5
F3
100
AcDbEntity
  8
0
 62
     7
 48
0.225681
100
AcDbLine
 10
24.853211
 20
107.957252
 30
0.0
 11
26.222981
 21
116.879977
 31
0.0
210
0.0
220
0.0
230
1.0
  0
LINE
  5
F4
100
AcDbEntity
  8
0
 62
     7
 48
0.10586
100
AcDbLine
 10
26.222981
 20
116.879977
 30
0.0
 11
30.45737
 21
116.879977
 31
0.0
210
0.0
220
0.0
230
1.0
  0
LINE
  5
F5
100
AcDbEntity
  8
0
 62
     7
 48
0.027879
100
AcDbLine
 10
30.340635
 20
115.770938
 30
0.0
 11
30.45737
 21
116.879977
 31
0.0
210
0.0
220
0.0
230
1.0
  0
LINE
  5
F6
100
AcDbEntity
  8
0
 62
     7
 48
0.120784
100
AcDbLine
 10
30.340635
 20
115.770938
 30
0.0
 11
35.172006
 21
115.770938
 31
0.0
210
0.0
220
0.0
230
1.0
  0
LINE
  5
F7
100
AcDbEntity
  8
0
 62
     7
 48
0.030555
100
AcDbLine
 10
34.658344
 20
116.879977
 30
0.0
 11
35.172006
 21
115.770938
 31
0.0
210
0.0
220
0.0
230
1.0
  0
LINE
  5
F8
100
AcDbEntity
  8
0
 62
     7
 48
0.106818
100
AcDbLine
 10
34.658344
 20
116.879977
 30
0.0
 11
38.931059
 21
116.879977
 31
0.0
210
0.0
220
0.0
230
1.0
  0
LINE
  5
F9
100
AcDbEntity
  8
0
 62
     7
 48
0.25019
100
AcDbLine
 10
38.931059
 20
116.879977
 30
0.0
 11
43.462819
 21
107.957252
 31
0.0
210
0.0
220
0.0
230
1.0
  0
LINE
  5
FA
100
AcDbEntity
  8
0
 62
     7
 48
0.119292
100
AcDbLine
 10
38.69114
 20
107.957252
 30
0.0
 11
43.462819
 21
107.957252
 31
0.0
210
0.0
220
0.0
230
1.0
  0
LINE
  5
FB
100
AcDbEntity
  8
0
 62
     7
 48
0.113036
100
AcDbLine
 10
36.692968
 20
112.013196
 30
0.0
 11
38.69114
 21
107.957252
 31
0.0
210
0.0
220
0.0
230
1.0
  0
LINE
  5
FC
100
AcDbEntity
  8
0
 62
     7
 48
0.169246
100
AcDbLine
 10
29.923125
 20
112.013196
 30
0.0
 11
36.692968
 21
112.013196
 31
0.0
210
0.0
220
0.0
230
1.0
  0
LINE
  5
FD
100
AcDbEntity
  8
0
 62
     7
 48
0.102013
100
AcDbLine
 10
29.475799
 20
107.957252
 30
0.0
 11
29.923125
 21
112.013196
 31
0.0
210
0.0
220
0.0
230
1.0
  0
LINE
  5
FE
100
AcDbEntity
  8
0
 62
     7
 48
0.115565
100
AcDbLine
 10
24.853211
 20
107.957252
 30
0.0
 11
29.475799
 21
107.957252
 31
0.0
210
0.0
220
0.0
230
1.0
  0
LINE
  5
FF
100
AcDbEntity
  8
0
 62
     7
 48
0.053459
100
AcDbLine
 10
43.934548
 20
123.215032
 30
0.0
 11
44.232782
 21
121.097577
 31
0.0
210
0.0
220
0.0
230
1.0
  0
LINE
  5
100
100
AcDbEntity
  8
0
 62
     7
 48
0.057906
100
AcDbLine
 10
43.934548
 20
123.215032
 30
0.0
 11
44.411716
 21
125.481605
 31
0.0
210
0.0
220
0.0
230
1.0
  0
LINE
  5
101
100
AcDbEntity
  8
0
 62
     7
 48
0.055918
100
AcDbLine
 10
44.411716
 20
125.481605
 30
0.0
 11
45.753737
 21
127.270977
 31
0.0
210
0.0
220
0.0
230
1.0
  0
LINE
  5
102
100
AcDbEntity
  8
0
 62
     7
 48
0.062687
100
AcDbLine
 10
45.753737
 20
127.270977
 30
0.0
 11
47.990492
 21
128.404246
 31
0.0
210
0.0
220
0.0
230
1.0
  0
LINE
  5
103
100
AcDbEntity
  8
0
 62
     7
 48
0.071051
100
AcDbLine
 10
47.990492
 20
128.404246
 30
0.0
 11
50.806145
 21
128.79071
 31
0.0
210
0.0
220
0.0
230
1.0
  0
LINE
  5
104
100
AcDbEntity
  8
0
 62
     7
 48
0.091514
100
AcDbLine
 10
50.806145
 20
128.79071
 30
0.0
 11
51.581433
 21
125.213188
 31
0.0
210
0.0
220
0.0
230
1.0
  0
LINE
  5
105
100
AcDbEntity
  8
0
 62
     7
 48
0.003287
100
AcDbLine
 10
51.449968
 20
125.213188
 30
0.0
 11
51.581433
 21
125.213188
 31
0.0
210
0.0
220
0.0
230
1.0
  0
LINE
  5
106
100
AcDbEntity
  8
0
 62
     7
 48
0.033757
100
AcDbLine
 10
50.107948
 20
125.064071
 30
0.0
 11
51.449968
 21
125.213188
 31
0.0
210
0.0
220
0.0
230
1.0
  0
LINE
  5
107
100
AcDbEntity
  8
0
 62
     7
 48
0.02635
100
AcDbLine
 10
49.153596
 20
124.616703
 30
0.0
 11
50.107948
 21
125.064071
 31
0.0
210
0.0
220
0.0
230
1.0
  0
LINE
  5
108
100
AcDbEntity
  8
0
 62
     7
 48
0.023411
100
AcDbLine
 10
48.586961
 20
123.871134
 30
0.0
 11
49.153596
 21
124.616703
 31
0.0
210
0.0
220
0.0
230
1.0
  0
LINE
  5
109
100
AcDbEntity
  8
0
 62
     7
 48
0.025882
100
AcDbLine
 10
48.378193
 20
122.857132
 30
0.0
 11
48.586961
 21
123.871134
 31
0.0
210
0.0
220
0.0
230
1.0
  0
LINE
  5
10A
100
AcDbEntity
  8
0
 62
     7
 48
0.037144
100
AcDbLine
 10
48.378193
 20
122.857132
 30
0.0
 11
48.646611
 21
121.395828
 31
0.0
210
0.0
220
0.0
230
1.0
  0
LINE
  5
10B
100
AcDbEntity
  8
0
 62
     7
 48
0.032508
100
AcDbLine
 10
48.646611
 20
121.395828
 30
0.0
 11
49.421996
 21
120.351992
 31
0.0
210
0.0
220
0.0
230
1.0
  0
LINE
  5
10C
100
AcDbEntity
  8
0
 62
     7
 48
0.035679
100
AcDbLine
 10
49.421996
 20
120.351992
 30
0.0
 11
50.7044
 21
119.72574
 31
0.0
210
0.0
220
0.0
230
1.0
  0
LINE
  5
10D
100
AcDbEntity
  8
0
 62
     7
 48
0.044958
100
AcDbLine
 10
50.7044
 20
119.72574
 30
0.0
 11
52.493804
 21
119.546789
 31
0.0
210
0.0
220
0.0
230
1.0
  0
LINE
  5
10E
100
AcDbEntity
  8
0
 62
     7
 48
0.00789
100
AcDbLine
 10
52.493804
 20
119.546789
 30
0.0
 11
52.809397
 21
119.546789
 31
0.0
210
0.0
220
0.0
230
1.0
  0
LINE
  5
10F
100
AcDbEntity
  8
0
 62
     7
 48
0.090136
100
AcDbLine
 10
52.809397
 20
119.546789
 30
0.0
 11
53.573009
 21
116.023153
 31
0.0
210
0.0
220
0.0
230
1.0
  0
LINE
  5
110
100
AcDbEntity
  8
0
 62
     7
 48
0.025578
100
AcDbLine
 10
52.553438
 20
115.938196
 30
0.0
 11
53.573009
 21
116.023153
 31
0.0
210
0.0
220
0.0
230
1.0
  0
LINE
  5
111
100
AcDbEntity
  8
0
 62
     7
 48
0.026444
100
AcDbLine
 10
51.569285
 20
115.550479
 30
0.0
 11
52.553438
 21
115.938196
 31
0.0
210
0.0
220
0.0
230
1.0
  0
LINE
  5
112
100
AcDbEntity
  8
0
 62
     7
 48
0.022823
100
AcDbLine
 10
51.002617
 20
114.834743
 30
0.0
 11
51.569285
 21
115.550479
 31
0.0
210
0.0
220
0.0
230
1.0
  0
LINE
  5
113
100
AcDbEntity
  8
0
 62
     7
 48
0.027344
100
AcDbLine
 10
50.793867
 20
113.761091
 30
0.0
 11
51.002617
 21
114.834743
 31
0.0
210
0.0
220
0.0
230
1.0
  0
LINE
  5
114
100
AcDbEntity
  8
0
 62
     7
 48
0.011952
100
AcDbLine
 10
50.793867
 20
113.761091
 30
0.0
 11
50.823683
 21
113.283939
 31
0.0
210
0.0
220
0.0
230
1.0
  0
LINE
  5
115
100
AcDbEntity
  8
0
 62
     7
 48
0.061302
100
AcDbLine
 10
50.823683
 20
113.283939
 30
0.0
 11
51.002617
 21
110.838401
 31
0.0
210
0.0
220
0.0
230
1.0
  0
LINE
  5
116
100
AcDbEntity
  8
0
 62
     7
 48
0.039628
100
AcDbLine
 10
51.002617
 20
110.838401
 30
0.0
 11
51.121934
 21
109.257796
 31
0.0
210
0.0
220
0.0
230
1.0
  0
LINE
  5
117
100
AcDbEntity
  8
0
 62
     7
 48
0.028953
100
AcDbLine
 10
50.883333
 20
108.124526
 30
0.0
 11
51.121934
 21
109.257796
 31
0.0
210
0.0
220
0.0
230
1.0
  0
LINE
  5
118
100
AcDbEntity
  8
0
 62
     7
 48
0.126002
100
AcDbLine
 10
45.843237
 20
108.124526
 30
0.0
 11
50.883333
 21
108.124526
 31
0.0
210
0.0
220
0.0
230
1.0
  0
LINE
  5
119
100
AcDbEntity
  8
0
 62
     7
 48
0.011183
100
AcDbLine
 10
45.843237
 20
108.571861
 30
0.0
 11
45.843237
 21
108.124526
 31
0.0
210
0.0
220
0.0
230
1.0
  0
LINE
  5
11A
100
AcDbEntity
  8
0
 62
     7
 48
0.023292
100
AcDbLine
 10
45.843237
 20
108.571861
 30
0.0
 11
46.558972
 21
109.168329
 31
0.0
210
0.0
220
0.0
230
1.0
  0
LINE
  5
11B
100
AcDbEntity
  8
0
 62
     7
 48
0.022811
100
AcDbLine
 10
46.558972
 20
109.168329
 30
0.0
 11
46.737922
 21
110.063031
 31
0.0
210
0.0
220
0.0
230
1.0
  0
LINE
  5
11C
100
AcDbEntity
  8
0
 62
     7
 48
0.025393
100
AcDbLine
 10
46.678256
 20
111.077001
 30
0.0
 11
46.737922
 21
110.063031
 31
0.0
210
0.0
220
0.0
230
1.0
  0
LINE
  5
11D
100
AcDbEntity
  8
0
 62
     7
 48
0.061301
100
AcDbLine
 10
46.499355
 20
113.522507
 30
0.0
 11
46.678256
 21
111.077001
 31
0.0
210
0.0
220
0.0
230
1.0
  0
LINE
  5
11E
100
AcDbEntity
  8
0
 62
     7
 48
0.024616
100
AcDbLine
 10
46.469505
 20
114.506676
 30
0.0
 11
46.499355
 21
113.522507
 31
0.0
210
0.0
220
0.0
230
1.0
  0
LINE
  5
11F
100
AcDbEntity
  8
0
 62
     7
 48
0.04548
100
AcDbLine
 10
46.469505
 20
114.506676
 30
0.0
 11
46.797573
 21
116.296048
 31
0.0
210
0.0
220
0.0
230
1.0
  0
LINE
  5
120
100
AcDbEntity
  8
0
 62
     7
 48
0.04068
100
AcDbLine
 10
46.797573
 20
116.296048
 30
0.0
 11
48.020309
 21
117.369684
 31
0.0
210
0.0
220
0.0
230
1.0
  0
LINE
  5
121
100
AcDbEntity
  8
0
 62
     7
 48
0.04739
100
AcDbLine
 10
46.290555
 20
118.145086
 30
0.0
 11
48.020309
 21
117.369684
 31
0.0
210
0.0
220
0.0
230
1.0
  0
LINE
  5
122
100
AcDbEntity
  8
0
 62
     7
 48
0.044816
100
AcDbLine
 10
45.008168
 20
119.397672
 30
0.0
 11
46.290555
 21
118.145086
 31
0.0
210
0.0
220
0.0
230
1.0
  0
LINE
  5
123
100
AcDbEntity
  8
0
 62
     7
 48
0.04671
100
AcDbLine
 10
44.232782
 20
121.097577
 30
0.0
 11
45.008168
 21
119.397672
 31
0.0
210
0.0
220
0.0
230
1.0
  0
LINE
  5
124
100
AcDbEntity
  8
0
 62
     7
 48
0.157906
100
AcDbLine
 10
95.36276
 20
99.221448
 30
0.0
 11
101.678991
 21
99.221448
 31
0.0
210
0.0
220
0.0
230
1.0
  0
LINE
  5
125
100
AcDbEntity
  8
0
 62
     7
100
AcDbLine
 10
101.678991
 20
99.221448
 30
0.0
 11
107.810643
 21
70.075294
 31
0.0
210
0.0
220
0.0
230
1.0
  0
LINE
  5
126
100
AcDbEntity
  8
0
 62
     7
 48
0.15329
100
AcDbLine
 10
101.679025
 20
70.075294
 30
0.0
 11
107.810643
 21
70.075294
 31
0.0
210
0.0
220
0.0
230
1.0
  0
LINE
  5
127
100
AcDbEntity
  8
0
 62
     7
100
AcDbLine
 10
95.36276
 20
99.221448
 30
0.0
 11
101.679037
 21
70.075304
 31
0.0
210
0.0
220
0.0
230
1.0
  0
LINE
  5
128
100
AcDbEntity
  8
0
 62
     7
 48
0.1625
100
AcDbLine
 10
105.250123
 20
160.634914
 30
0.0
 11
105.250123
 21
167.134914
 31
0.0
210
0.0
220
0.0
230
1.0
  0
ARC
  5
129
100
AcDbEntity
  8
0
 62
     7
100
AcDbCircle
 10
102.000123
 20
160.634914
 30
0.0
 40
3.25
210
0.0
220
0.0
230
1.0
100
AcDbArc
 50
180.0
 51
360.0
  0
LINE
  5
12A
100
AcDbEntity
  8
0
 62
     7
 48
0.1625
100
AcDbLine
 10
98.750123
 20
160.634914
 30
0.0
 11
98.750123
 21
167.134914
 31
0.0
210
0.0
220
0.0
230
1.0
  0
ARC
  5
12B
100
AcDbEntity
  8
0
 62
     7
100
AcDbCircle
 10
102.000123
 20
167.134914
 30
0.0
 40
3.25
210
0.0
220
0.0
230
1.0
100
AcDbArc
 50
360.0
 51
180.0
  0
ARC
  5
12C
100
AcDbEntity
  8
0
 62
     7
100
AcDbCircle
 10
22.000123
 20
160.634914
 30
0.0
 40
3.25
210
0.0
220
0.0
230
1.0
100
AcDbArc
 50
180.0
 51
360.0
  0
LINE
  5
12D
100
AcDbEntity
  8
0
 62
     7
 48
0.1625
100
AcDbLine
 10
18.750123
 20
160.634914
 30
0.0
 11
18.750123
 21
167.134914
 31
0.0
210
0.0
220
0.0
230
1.0
  0
ARC
  5
12E
100
AcDbEntity
  8
0
 62
     7
100
AcDbCircle
 10
22.000123
 20
167.134914
 30
0.0
 40
3.25
210
0.0
220
0.0
230
1.0
100
AcDbArc
 50
360.0
 51
180.0
  0
LINE
  5
12F
100
AcDbEntity
  8
0
 62
     7
 48
0.1625
100
AcDbLine
 10
25.250123
 20
160.634914
 30
0.0
 11
25.250123
 21
167.134914
 31
0.0
210
0.0
220
0.0
230
1.0
  0
LINE
  5
130
100
AcDbEntity
  8
0
 62
     7
 48
0.15
100
AcDbLine
 10
24.000246
 20
11.212291
 30
0.0
 11
24.000246
 21
5.212291
 31
0.0
210
0.0
220
0.0
230
1.0
  0
ARC
  5
131
100
AcDbEntity
  8
0
 62
     7
100
AcDbCircle
 10
22.000246
 20
5.212291
 30
0.0
 40
2.0
210
0.0
220
0.0
230
1.0
100
AcDbArc
 50
180.0
 51
360.0
  0
LINE
  5
132
100
AcDbEntity
  8
0
 62
     7
 48
0.15
100
AcDbLine
 10
20.000246
 20
11.212291
 30
0.0
 11
20.000246
 21
5.212291
 31
0.0
210
0.0
220
0.0
230
1.0
  0
ARC
  5
133
100
AcDbEntity
  8
0
 62
     7
100
AcDbCircle
 10
22.000246
 20
11.212291
 30
0.0
 40
2.0
210
0.0
220
0.0
230
1.0
100
AcDbArc
 50
360.0
 51
180.0
  0
LINE
  5
134
100
AcDbEntity
  8
0
 62
     7
 48
0.15
100
AcDbLine
 10
104.0
 20
11.212291
 30
0.0
 11
104.0
 21
5.212291
 31
0.0
210
0.0
220
0.0
230
1.0
  0
ARC
  5
135
100
AcDbEntity
  8
0
 62
     7
100
AcDbCircle
 10
102.0
 20
5.212291
 30
0.0
 40
2.0
210
0.0
220
0.0
230
1.0
100
AcDbArc
 50
180.0
 51
360.0
  0
LINE
  5
136
100
AcDbEntity
  8
0
 62
     7
 48
0.15
100
AcDbLine
 10
100.0
 20
11.212291
 30
0.0
 11
100.0
 21
5.212291
 31
0.0
210
0.0
220
0.0
230
1.0
  0
ARC
  5
137
100
AcDbEntity
  8
0
 62
     7
100
AcDbCircle
 10
102.0
 20
11.212291
 30
0.0
 40
2.0
210
0.0
220
0.0
230
1.0
100
AcDbArc
 50
360.0
 51
180.0
  0
LINE
  5
138
100
AcDbEntity
  8
0
  6
AXES
 62
     1
100
AcDbLine
 10
0.0
 20
51.377152
 30
0.0
 11
124.000492
 21
51.377152
 31
0.0
210
0.0
220
0.0
230
1.0
  0
LINE
  5
139
100
AcDbEntity
  8
0
  6
AXES
 62
     1
100
AcDbLine
 10
0.0
 20
19.040855
 30
0.0
 11
124.000492
 21
19.040855
 31
0.0
210
0.0
220
0.0
230
1.0
  0
LINE
  5
13A
100
AcDbEntity
  8
0
  6
AXES
 62
     1
100
AcDbLine
 10
124.000492
 20
152.633828
 30
0.0
 11
0.0
 21
152.633828
 31
0.0
210
0.0
220
0.0
230
1.0
  0
ENDSEC
  0
SECTION
  2
OBJECTS
  0
DICTIONARY
  5
19
100
AcDbDictionary
  3
ACAD_GROUP
350
1A
  3
ACAD_MLINESTYLE
350
1B
  0
DICTIONARY
  5
1A
102
{ACAD_REACTORS
330
19
102
}
100
AcDbDictionary
  0
DICTIONARY
  5
1B
102
{ACAD_REACTORS
330
19
102
}
100
AcDbDictionary
  3
STANDARD
350
1C
  0
MLINESTYLE
  5
1C
102
{ACAD_REACTORS
330
1B
102
}
100
AcDbMlineStyle
  2
STANDARD
 70
     0
  3

 62
     0
 51
90.0
 52
90.0
 71
     2
 49
0.5
 62
   256
  6
BYLAYER
 49
-0.5
 62
   256
  6
BYLAYER
  0
ENDSEC
  0
EOF
