  0
SECTION
  2
HEADER
  9
$ACADVER
  1
AC1014
  9
$ACADMAINTVER
 70
     0
  9
$DWGCODEPAGE
  3
ANSI_1252
  9
$INSBASE
 10
0.0
 20
0.0
 30
0.0
  9
$EXTMIN
 10
-239.452728
 20
0.0
 30
0.0
  9
$EXTMAX
 10
0.0
 20
200.0
 30
2.0
  9
$LIMMIN
 10
0.0
 20
0.0
  9
$LIMMAX
 10
12.0
 20
9.0
  9
$ORTHOMODE
 70
     0
  9
$REGENMODE
 70
     1
  9
$FILLMODE
 70
     1
  9
$QTEXTMODE
 70
     0
  9
$MIRRTEXT
 70
     1
  9
$DRAGMODE
 70
     2
  9
$LTSCALE
 40
1.0
  9
$OSMODE
 70
     0
  9
$ATTMODE
 70
     1
  9
$TEXTSIZE
 40
0.2
  9
$TRACEWID
 40
0.05
  9
$TEXTSTYLE
  7
STANDARD
  9
$CLAYER
  8
0
  9
$CELTYPE
  6
BYLAYER
  9
$CECOLOR
 62
   256
  9
$CELTSCALE
 40
1.0
  9
$DELOBJ
 70
     1
  9
$DISPSILH
 70
     0
  9
$DIMSCALE
 40
1.0
  9
$DIMASZ
 40
0.18
  9
$DIMEXO
 40
0.0625
  9
$DIMDLI
 40
0.38
  9
$DIMRND
 40
0.0
  9
$DIMDLE
 40
0.0
  9
$DIMEXE
 40
0.18
  9
$DIMTP
 40
0.0
  9
$DIMTM
 40
0.0
  9
$DIMTXT
 40
0.18
  9
$DIMCEN
 40
0.09
  9
$DIMTSZ
 40
0.0
  9
$DIMTOL
 70
     0
  9
$DIMLIM
 70
     0
  9
$DIMTIH
 70
     1
  9
$DIMTOH
 70
     1
  9
$DIMSE1
 70
     0
  9
$DIMSE2
 70
     0
  9
$DIMTAD
 70
     0
  9
$DIMZIN
 70
     0
  9
$DIMBLK
  1

  9
$DIMASO
 70
     1
  9
$DIMSHO
 70
     1
  9
$DIMPOST
  1

  9
$DIMAPOST
  1

  9
$DIMALT
 70
     0
  9
$DIMALTD
 70
     2
  9
$DIMALTF
 40
25.4
  9
$DIMLFAC
 40
1.0
  9
$DIMTOFL
 70
     0
  9
$DIMTVP
 40
0.0
  9
$DIMTIX
 70
     0
  9
$DIMSOXD
 70
     0
  9
$DIMSAH
 70
     0
  9
$DIMBLK1
  1

  9
$DIMBLK2
  1

  9
$DIMSTYLE
  2

  9
$DIMCLRD
 70
     0
  9
$DIMCLRE
 70
     0
  9
$DIMCLRT
 70
     0
  9
$DIMTFAC
 40
1.0
  9
$DIMGAP
 40
0.09
  9
$DIMJUST
 70
     0
  9
$DIMSD1
 70
     0
  9
$DIMSD2
 70
     0
  9
$DIMTOLJ
 70
     1
  9
$DIMTZIN
 70
     0
  9
$DIMALTZ
 70
     0
  9
$DIMALTTZ
 70
     0
  9
$DIMFIT
 70
     3
  9
$DIMUPT
 70
     0
  9
$DIMUNIT
 70
     2
  9
$DIMDEC
 70
     4
  9
$DIMTDEC
 70
     4
  9
$DIMALTU
 70
     2
  9
$DIMALTTD
 70
     2
  9
$DIMTXSTY
  7
STANDARD
  9
$DIMAUNIT
 70
     0
  9
$LUNITS
 70
     2
  9
$LUPREC
 70
     4
  9
$SKETCHINC
 40
0.1
  9
$FILLETRAD
 40
0.5
  9
$AUNITS
 70
     0
  9
$AUPREC
 70
     0
  9
$MENU
  1
.
  9
$ELEVATION
 40
0.0
  9
$PELEVATION
 40
0.0
  9
$THICKNESS
 40
0.0
  9
$LIMCHECK
 70
     0
  9
$BLIPMODE
 70
     1
  9
$CHAMFERA
 40
0.0
  9
$CHAMFERB
 40
0.0
  9
$CHAMFERC
 40
0.0
  9
$CHAMFERD
 40
0.0
  9
$SKPOLY
 70
     0
  9
$TDCREATE
 40
0.000000000
  9
$TDUPDATE
 40
0.000000000
  9
$TDINDWG
 40
0.0000000000
  9
$TDUSRTIMER
 40
0.0000000000
  9
$USRTIMER
 70
     1
  9
$ANGBASE
 50
0.0
  9
$ANGDIR
 70
     0
  9
$PDMODE
 70
     0
  9
$PDSIZE
 40
0.0
  9
$PLINEWID
 40
0.0
  9
$COORDS
 70
     0
  9
$SPLFRAME
 70
     0
  9
$SPLINETYPE
 70
     6
  9
$SPLINESEGS
 70
     8
  9
$ATTDIA
 70
     0
  9
$ATTREQ
 70
     1
  9
$HANDLING
 70
     1
  9
$HANDSEED
  5
D6
  9
$SURFTAB1
 70
     6
  9
$SURFTAB2
 70
     6
  9
$SURFTYPE
 70
     6
  9
$SURFU
 70
     6
  9
$SURFV
 70
     6
  9
$UCSNAME
  2

  9
$UCSORG
 10
0.0
 20
0.0
 30
0.0
  9
$UCSXDIR
 10
1.0
 20
0.0
 30
0.0
  9
$UCSYDIR
 10
0.0
 20
1.0
 30
0.0
  9
$PUCSNAME
  2

  9
$PUCSORG
 10
0.0
 20
0.0
 30
0.0
  9
$PUCSXDIR
 10
1.0
 20
0.0
 30
0.0
  9
$PUCSYDIR
 10
0.0
 20
1.0
 30
0.0
  9
$USERI1
 70
     0
  9
$USERI2
 70
     0
  9
$USERI3
 70
     0
  9
$USERI4
 70
     0
  9
$USERI5
 70
     0
  9
$USERR1
 40
0.0
  9
$USERR2
 40
0.0
  9
$USERR3
 40
0.0
  9
$USERR4
 40
0.0
  9
$USERR5
 40
0.0
  9
$WORLDVIEW
 70
     1
  9
$SHADEDGE
 70
     3
  9
$SHADEDIF
 70
    70
  9
$TILEMODE
 70
     1
  9
$MAXACTVP
 70
    48
  9
$PINSBASE
 10
0.0
 20
0.0
 30
0.0
  9
$PLIMCHECK
 70
     0
  9
$PEXTMIN
 10
-239.452728
 20
0.0
 30
0.0
  9
$PEXTMAX
 10
0.0
 20
200.0
 30
2.0
  9
$PLIMMIN
 10
0.0
 20
0.0
  9
$PLIMMAX
 10
12.0
 20
9.0
  9
$UNITMODE
 70
     0
  9
$VISRETAIN
 70
     0
  9
$PLINEGEN
 70
     0
  9
$PSLTSCALE
 70
     1
  9
$TREEDEPTH
 70
  3020
  9
$PICKSTYLE
 70
     1
  9
$CMLSTYLE
  2
STANDARD
  9
$CMLJUST
 70
     0
  9
$CMLSCALE
 40
1.0
  9
$PROXYGRAPHICS
 70
     1
  9
$MEASUREMENT
 70
     0
  0
ENDSEC
  0
SECTION
  2
CLASSES
  0
CLASS
  1
LWPOLYLINE
  2
AcDbPolyline
  3
"AutoCAD"
 90
        0
280
     0
281
     1
  0
CLASS
  1
IMAGE
  2
AcDbRasterImage
  3
ISM
 90
      127
280
     0
281
     1
  0
CLASS
  1
OLE2FRAME
  2
AcDbOle2Frame
  3
""
 90
        0
280
     0
281
     1
  0
CLASS
  1
HATCH
  2
AcDbHatch
  3
"ACAD_SEDONA"
 90
        0
280
     0
281
     1
  0
CLASS
  1
DICTIONARYVAR
  2
AcDbDictionaryVar
  3
"AutoCAD"
 90
        0
280
     0
281
     0
  0
CLASS
  1
RASTERVARIABLES
  2
AcDbRasterVariables
  3
ISM
 90
        0
280
     0
281
     0
  0
CLASS
  1
IMAGEDEF
  2
AcDbRasterImageDef
  3
ISM
 90
        0
280
     0
281
     0
  0
CLASS
  1
IMAGEDEF_REACTOR
  2
AcDbRasterImageDefReactor
  3
ISM
 90
        1
280
     0
281
     0
  0
CLASS
  1
IDBUFFER
  2
AcDbIdBuffer
  3
"Acad"
 90
        0
280
     0
281
     0
  0
CLASS
  1
SPATIAL_FILTER
  2
AcDbSpatialFilter
  3
"Acad"
 90
        0
280
     0
281
     0
  0
CLASS
  1
XRECORD
  2
AcDbXrecord
  3
"<Built In>"
 90
        0
280
     0
281
     0
  0
CLASS
  1
SORTENTSTABLE
  2
AcDbSortentsTable
  3
"AutoCAD"
 90
        0
280
     0
281
     0
  0
CLASS
  1
LAYER_INDEX
  2
AcDbLayerIndex
  3
"Acad"
 90
        0
280
     0
281
     0
  0
CLASS
  1
SPATIAL_INDEX
  2
AcDbSpatialIndex
  3
"Acad"
 90
        0
280
     0
281
     0
  0
CLASS
  1
OBJECT_PTR
  2
CAseDLPNTableRecord
  3
"ASE-LPNTableRecord"
 90
        1
280
     0
281
     0
  0
CLASS
  1
LAYOUT
  2
AcDbLayout
  3
"AutoCAD 2000"
 90
        0
280
     0
281
     0
  0
CLASS
  1
PLOTSETTINGS
  2
AcDbPlotSettings
  3
"AutoCAD 2000"
 90
        0
280
     0
281
     0
  0
CLASS
  1
ACDBDICTIONARYWDFLT
  2
AcDbDictionaryWithDefault
  3
"AutoCAD 2000"
 90
        0
280
     0
281
     0
  0
CLASS
  1
ACDBPLACEHOLDER
  2
AcDbPlaceHolder
  3
"AutoCAD 2000"
 90
        0
280
     0
281
     0
  0
CLASS
  1
VBA_PROJECT
  2
AcDbVbaProject
  3
"acadvba"
 90
        0
280
     0
281
     0
  0
CLASS
  1
WIPEOUT
  2
AcDbWipeout
  3
WipeOut|AutoCAD Express Tool|expresstools@autodesk.com
 90
      127
280
     0
281
     1
  0
CLASS
  1
WIPEOUTVARIABLES
  2
AcDbWipeoutVariables
  3
WipeOut|AutoCAD Express Tool|expresstools@autodesk.com
 90
        0
280
     0
281
     0
  0
CLASS
  1
RTEXT
  2
RText
  3
RText|AutoCAD Express Tool|expresstools@autodesk.com
 90
        0
280
     0
281
     1
  0
CLASS
  1
ARCALIGNEDTEXT
  2
AcDbArcAlignedText
  3
ATEXT|AutoCAD Express Tool|expresstools@autodesk.com
 90
        0
280
     0
281
     1
  0
ENDSEC
  0
SECTION
  2
TABLES
  0
TABLE
  2
VPORT
  5
7
100
AcDbSymbolTable
 70
     1
  0
VPORT
  5
15
100
AcDbSymbolTableRecord
100
AcDbViewportTableRecord
  2
*ACTIVE
 70
     0
 10
0.0
 20
0.0
 11
1.0
 21
1.0
 12
6.591288
 22
4.579184
 13
0.0
 23
0.0
 14
1.0
 24
1.0
 15
0.0
 25
0.0
 16
0.0
 26
0.0
 36
1.0
 17
0.0
 27
0.0
 37
0.0
 40
9.158369
 41
0.688564
 42
50.0
 43
0.0
 44
0.0
 50
0.0
 51
0.0
 71
     0
 72
   100
 73
     1
 74
     1
 75
     0
 76
     0
 77
     0
 78
     0
  0
ENDTAB
  0
TABLE
  2
LTYPE
  5
4
100
AcDbSymbolTable
 70
    10
  0
LTYPE
  5
11
100
AcDbSymbolTableRecord
100
AcDbLinetypeTableRecord
  2
BYBLOCK
 70
    64
  3

 72
    65
 73
     0
 40
0.0
  0
LTYPE
  5
12
100
AcDbSymbolTableRecord
100
AcDbLinetypeTableRecord
  2
BYLAYER
 70
    64
  3

 72
    65
 73
     0
 40
0.0
  0
LTYPE
  5
13
100
AcDbSymbolTableRecord
100
AcDbLinetypeTableRecord
  2
CONTINUOUS
 70
    64
  3
Solid line
 72
    65
 73
     0
 40
0.0
  0
LTYPE
  5
1D
100
AcDbSymbolTableRecord
100
AcDbLinetypeTableRecord
  2
DASHED
 70
     0
  3
__ __ __ __ __ __ __ __ __ __ __ __ __ __ __ __
 72
    65
 73
     2
 40
15.0
 49
12.0
 74
     0
 49
-3.0
 74
     0
  0
LTYPE
  5
1E
100
AcDbSymbolTableRecord
100
AcDbLinetypeTableRecord
  2
DASHDOT
 70
     0
  3
 __ . __ . __ . __ . __ . __ . __ . 
 72
    65
 73
     4
 40
18.5
 49
12.0
 74
     0
 49
-3.0
 74
     0
 49
0.5
 74
     0
 49
-3.0
 74
     0
  0
LTYPE
  5
1F
100
AcDbSymbolTableRecord
100
AcDbLinetypeTableRecord
  2
DOT
 70
     0
  3
 . . . . . . . . . . . . . . . .
 72
    65
 73
     2
 40
3.5
 49
0.5
 74
     0
 49
-3.0
 74
     0
  0
LTYPE
  5
20
100
AcDbSymbolTableRecord
100
AcDbLinetypeTableRecord
  2
DASHSPACE
 70
     0
  3
__    __    __    __    __   
 72
    65
 73
     2
 40
30.0
 49
12.0
 74
     0
 49
-18.0
 74
     0
  0
LTYPE
  5
21
100
AcDbSymbolTableRecord
100
AcDbLinetypeTableRecord
  2
DASHDOT2
 70
     0
  3
__ . . __ . . __ . . __ 
 72
    65
 73
     6
 40
22.0
 49
12.0
 74
     0
 49
-3.0
 74
     0
 49
0.5
 74
     0
 49
-3.0
 74
     0
 49
0.5
 74
     0
 49
-3.0
 74
     0
  0
LTYPE
  5
22
100
AcDbSymbolTableRecord
100
AcDbLinetypeTableRecord
  2
PHANTOM
 70
     0
  3
____________    ____    ____   _
 72
    65
 73
     6
 40
20.0
 49
10.0
 74
     0
 49
-2.0
 74
     0
 49
2.0
 74
     0
 49
-2.0
 74
     0
 49
2.0
 74
     0
 49
-2.0
 74
     0
  0
LTYPE
  5
23
100
AcDbSymbolTableRecord
100
AcDbLinetypeTableRecord
  2
AXES
 70
     0
  3
________  __  ________  __  _____
 72
    65
 73
     4
 40
24.0
 49
15.0
 74
     0
 49
-3.0
 74
     0
 49
3.0
 74
     0
 49
-3.0
 74
     0
  0
ENDTAB
  0
TABLE
  2
LAYER
  5
2
100
AcDbSymbolTable
 70
     1
  0
LAYER
  5
14
100
AcDbSymbolTableRecord
100
AcDbLayerTableRecord
  2
0
 70
     0
 62
     7
  6
CONTINUOUS
  0
ENDTAB
  0
TABLE
  2
STYLE
  5
3
100
AcDbSymbolTable
 70
     1
  0
STYLE
  5
17
100
AcDbSymbolTableRecord
100
AcDbTextStyleTableRecord
  2
STANDARD
 70
     0
 40
0.0
 41
1.0
 50
0.0
 71
     0
 42
0.0
  3
txt
  4

  0
ENDTAB
  0
TABLE
  2
VIEW
  5
5
100
AcDbSymbolTable
 70
     0
  0
ENDTAB
  0
TABLE
  2
UCS
  5
6
100
AcDbSymbolTable
 70
     0
  0
ENDTAB
  0
TABLE
  2
APPID
  5
8
100
AcDbSymbolTable
 70
     1
  0
APPID
  5
16
100
AcDbSymbolTableRecord
100
AcDbRegAppTableRecord
  2
ACAD
 70
     0
  0
ENDTAB
  0
TABLE
  2
DIMSTYLE
  5
9
100
AcDbSymbolTable
 70
     1
  0
DIMSTYLE
105
18
100
AcDbSymbolTableRecord
100
AcDbDimStyleTableRecord
  2
STANDARD
 70
     0
  3

  4

  5

  6

  7

 40
1.0
 41
0.18
 42
0.0625
 43
0.38
 44
0.18
 45
0.0
 46
0.0
 47
0.0
 48
0.0
 71
     0
 72
     0
 73
     1
 74
     1
 75
     0
 76
     0
 77
     0
 78
     0
140
0.18
141
0.09
142
0.0
143
25.4
144
1.0
145
0.0
146
1.0
147
0.09
170
     0
171
     2
172
     0
173
     0
174
     0
175
     0
176
     0
177
     0
178
     0
270
     2
271
     4
272
     4
273
     2
274
     2
275
     0
280
     0
281
     0
282
     0
283
     1
284
     0
285
     0
286
     0
287
     3
288
     0
340
17
  0
ENDTAB
  0
TABLE
  2
BLOCK_RECORD
  5
1
100
AcDbSymbolTable
 70
     0
  0
BLOCK_RECORD
  5
A
100
AcDbSymbolTableRecord
100
AcDbBlockTableRecord
  2
*MODEL_SPACE
  0
BLOCK_RECORD
  5
B
100
AcDbSymbolTableRecord
100
AcDbBlockTableRecord
  2
*PAPER_SPACE
  0
ENDTAB
  0
ENDSEC
  0
SECTION
  2
BLOCKS
  0
BLOCK
  5
D
100
AcDbEntity
  8
0
100
AcDbBlockBegin
  2
*MODEL_SPACE
 70
     0
 10
0.0
 20
0.0
 30
0.0
  3
*MODEL_SPACE
  1

  0
ENDBLK
  5
E
100
AcDbEntity
  8
0
100
AcDbBlockEnd
  0
BLOCK
  5
F
100
AcDbEntity
 67
     1
  8
0
100
AcDbBlockBegin
  2
*PAPER_SPACE
 70
     0
 10
0.0
 20
0.0
 30
0.0
  3
*PAPER_SPACE
  1

  0
ENDBLK
  5
10
100
AcDbEntity
 67
     1
  8
0
100
AcDbBlockEnd
  0
ENDSEC
  0
SECTION
  2
ENTITIES
  0
VIEWPORT
  5
D5
100
AcDbEntity
 67
     1
  8
0
 62
     0
 48
0.0
100
AcDbViewport
 10
0.0
 20
0.0
 30
0.0
 40
1000.0
 41
1000.0
 68
     1
 69
     1
1001
ACAD
1000
MVIEW
1002
{
1070
    16
1010
0.0
1020
0.0
1030
0.0
1010
0.0
1020
0.0
1030
1.0
1040
0.0
1040
1000.0
1040
0.0
1040
0.0
1040
50.0
1040
0.0
1040
0.0
1070
     0
1070
   100
1070
     1
1070
     1
1070
     0
1070
     0
1070
     0
1070
     0
1040
0.0
1040
0.0
1040
0.0
1040
1.0
1040
1.0
1040
1.0
1040
1.0
1070
     0
1002
{
1002
}
1002
}
  0
LINE
  5
24
100
AcDbEntity
  8
0
 62
     7
100
AcDbLine
 10
0.0
 20
0.0
 30
0.0
 11
0.0
 21
200.0
 31
0.0
210
0.0
220
0.0
230
1.0
  0
LINE
  5
25
100
AcDbEntity
  8
0
 62
     7
100
AcDbLine
 10
0.0
 20
200.0
 30
0.0
 11
-239.452725
 21
200.0
 31
0.0
210
0.0
220
0.0
230
1.0
  0
LINE
  5
26
100
AcDbEntity
  8
0
 62
     7
100
AcDbLine
 10
-239.452725
 20
166.0
 30
0.0
 11
-239.452725
 21
200.0
 31
0.0
210
0.0
220
0.0
230
1.0
  0
ARC
  5
27
100
AcDbEntity
  8
0
 62
     7
100
AcDbCircle
 10
-234.452725
 20
166.0
 30
0.0
 40
5.0
210
0.0
220
0.0
230
1.0
100
AcDbArc
 50
180.0
 51
270.0
  0
LINE
  5
28
100
AcDbEntity
  8
0
 62
     7
 48
0.45
100
AcDbLine
 10
-234.452725
 20
161.0
 30
0.0
 11
-216.452725
 21
161.0
 31
0.0
210
0.0
220
0.0
230
1.0
  0
ARC
  5
29
100
AcDbEntity
  8
0
 62
     7
100
AcDbCircle
 10
-216.452725
 20
159.0
 30
0.0
 40
2.0
210
0.0
220
0.0
230
1.0
100
AcDbArc
 50
360.0
 51
90.0
  0
LINE
  5
2A
100
AcDbEntity
  8
0
 62
     7
100
AcDbLine
 10
-214.452725
 20
159.0
 30
0.0
 11
-214.452725
 21
87.0
 31
0.0
210
0.0
220
0.0
230
1.0
  0
ARC
  5
2B
100
AcDbEntity
  8
0
 62
     7
100
AcDbCircle
 10
-216.452725
 20
87.0
 30
0.0
 40
2.0
210
0.0
220
0.0
230
1.0
100
AcDbArc
 50
270.0
 51
0.0
  0
LINE
  5
2C
100
AcDbEntity
  8
0
 62
     7
 48
0.45
100
AcDbLine
 10
-234.452725
 20
85.0
 30
0.0
 11
-216.452725
 21
85.0
 31
0.0
210
0.0
220
0.0
230
1.0
  0
ARC
  5
2D
100
AcDbEntity
  8
0
 62
     7
100
AcDbCircle
 10
-234.452725
 20
80.0
 30
0.0
 40
5.0
210
0.0
220
0.0
230
1.0
100
AcDbArc
 50
90.0
 51
180.0
  0
LINE
  5
2E
100
AcDbEntity
  8
0
 62
     7
100
AcDbLine
 10
-239.452725
 20
0.0
 30
0.0
 11
-239.452725
 21
80.0
 31
0.0
210
0.0
220
0.0
230
1.0
  0
LINE
  5
2F
100
AcDbEntity
  8
0
 62
     7
100
AcDbLine
 10
-239.452725
 20
0.0
 30
0.0
 11
0.0
 21
0.0
 31
0.0
210
0.0
220
0.0
230
1.0
  0
LINE
  5
30
100
AcDbEntity
  8
0
 62
     7
 48
0.103004
100
AcDbLine
 10
-136.654357
 20
30.142821
 30
0.0
 11
-133.840675
 21
27.132998
 31
0.0
210
0.0
220
0.0
230
1.0
  0
LINE
  5
31
100
AcDbEntity
  8
0
 62
     7
 48
0.128501
100
AcDbLine
 10
-133.840675
 20
27.132998
 30
0.0
 11
-128.80582
 21
26.098471
 31
0.0
210
0.0
220
0.0
230
1.0
  0
LINE
  5
32
100
AcDbEntity
  8
0
 62
     7
 48
0.166088
100
AcDbLine
 10
-128.80582
 20
26.098471
 30
0.0
 11
-122.253046
 21
27.192724
 31
0.0
210
0.0
220
0.0
230
1.0
  0
LINE
  5
33
100
AcDbEntity
  8
0
 62
     7
 48
0.143883
100
AcDbLine
 10
-122.253046
 20
27.192724
 30
0.0
 11
-117.260038
 21
30.055153
 31
0.0
210
0.0
220
0.0
230
1.0
  0
LINE
  5
34
100
AcDbEntity
  8
0
 62
     7
 48
0.093332
100
AcDbLine
 10
-117.260038
 20
30.055153
 30
0.0
 11
-115.11702
 21
33.11211
 31
0.0
210
0.0
220
0.0
230
1.0
  0
LINE
  5
35
100
AcDbEntity
  8
0
 62
     7
 48
0.062855
100
AcDbLine
 10
-115.11702
 20
33.11211
 30
0.0
 11
-115.052104
 21
35.625487
 31
0.0
210
0.0
220
0.0
230
1.0
  0
LINE
  5
36
100
AcDbEntity
  8
0
 62
     7
 48
0.110483
100
AcDbLine
 10
-115.052104
 20
35.625487
 30
0.0
 11
-119.241812
 21
34.219558
 31
0.0
210
0.0
220
0.0
230
1.0
  0
LINE
  5
37
100
AcDbEntity
  8
0
 62
     7
 48
0.015235
100
AcDbLine
 10
-119.241812
 20
34.219558
 30
0.0
 11
-119.648733
 21
33.765903
 31
0.0
210
0.0
220
0.0
230
1.0
  0
LINE
  5
38
100
AcDbEntity
  8
0
 62
     7
 48
0.1832
100
AcDbLine
 10
-119.648733
 20
33.765903
 30
0.0
 11
-126.422117
 21
30.969359
 31
0.0
210
0.0
220
0.0
230
1.0
  0
LINE
  5
39
100
AcDbEntity
  8
0
 62
     7
 48
0.136815
100
AcDbLine
 10
-126.422117
 20
30.969359
 30
0.0
 11
-131.886219
 21
31.273994
 31
0.0
210
0.0
220
0.0
230
1.0
  0
LINE
  5
3A
100
AcDbEntity
  8
0
 62
     7
 48
0.110085
100
AcDbLine
 10
-131.886219
 20
31.273994
 30
0.0
 11
-136.289507
 21
31.306107
 31
0.0
210
0.0
220
0.0
230
1.0
  0
LINE
  5
3B
100
AcDbEntity
  8
0
 62
     7
 48
0.030479
100
AcDbLine
 10
-136.289507
 20
31.306107
 30
0.0
 11
-136.654357
 21
30.142821
 31
0.0
210
0.0
220
0.0
230
1.0
  0
LINE
  5
3C
100
AcDbEntity
  8
0
 62
     7
 48
0.006668
100
AcDbLine
 10
-136.531762
 20
67.323904
 30
0.0
 11
-136.654371
 21
67.560776
 31
0.0
210
0.0
220
0.0
230
1.0
  0
LINE
  5
3D
100
AcDbEntity
  8
0
 62
     7
 48
0.123965
100
AcDbLine
 10
-132.769579
 20
64.093775
 30
0.0
 11
-136.531762
 21
67.323904
 31
0.0
210
0.0
220
0.0
230
1.0
  0
LINE
  5
3E
100
AcDbEntity
  8
0
 62
     7
 48
0.174527
100
AcDbLine
 10
-125.792476
 20
63.85828
 30
0.0
 11
-132.769579
 21
64.093775
 31
0.0
210
0.0
220
0.0
230
1.0
  0
LINE
  5
3F
100
AcDbEntity
  8
0
 62
     7
 48
0.162397
100
AcDbLine
 10
-119.595471
 20
65.806022
 30
0.0
 11
-125.792476
 21
63.85828
 31
0.0
210
0.0
220
0.0
230
1.0
  0
LINE
  5
40
100
AcDbEntity
  8
0
 62
     7
 48
0.118356
100
AcDbLine
 10
-116.013582
 20
68.901649
 30
0.0
 11
-119.595471
 21
65.806022
 31
0.0
210
0.0
220
0.0
230
1.0
  0
LINE
  5
41
100
AcDbEntity
  8
0
 62
     7
 48
0.11021
100
AcDbLine
 10
-115.03487
 20
73.200031
 30
0.0
 11
-116.013582
 21
68.901649
 31
0.0
210
0.0
220
0.0
230
1.0
  0
LINE
  5
42
100
AcDbEntity
  8
0
 62
     7
 48
0.100504
100
AcDbLine
 10
-118.892411
 20
72.068237
 30
0.0
 11
-115.03487
 21
73.200031
 31
0.0
210
0.0
220
0.0
230
1.0
  0
LINE
  5
43
100
AcDbEntity
  8
0
 62
     7
 48
0.071527
100
AcDbLine
 10
-120.955278
 20
70.085725
 30
0.0
 11
-118.892411
 21
72.068237
 31
0.0
210
0.0
220
0.0
230
1.0
  0
LINE
  5
44
100
AcDbEntity
  8
0
 62
     7
 48
0.18261
100
AcDbLine
 10
-128.000509
 20
68.157236
 30
0.0
 11
-120.955278
 21
70.085725
 31
0.0
210
0.0
220
0.0
230
1.0
  0
LINE
  5
45
100
AcDbEntity
  8
0
 62
     7
 48
0.094201
100
AcDbLine
 10
-131.743487
 20
68.591036
 30
0.0
 11
-128.000509
 21
68.157236
 31
0.0
210
0.0
220
0.0
230
1.0
  0
LINE
  5
46
100
AcDbEntity
  8
0
 62
     7
 48
0.094879
100
AcDbLine
 10
-135.527836
 20
68.877081
 30
0.0
 11
-131.743487
 21
68.591036
 31
0.0
210
0.0
220
0.0
230
1.0
  0
LINE
  5
47
100
AcDbEntity
  8
0
 62
     7
 48
0.043314
100
AcDbLine
 10
-136.654371
 20
67.560776
 30
0.0
 11
-135.527836
 21
68.877081
 31
0.0
210
0.0
220
0.0
230
1.0
  0
LINE
  5
48
100
AcDbEntity
  8
0
 62
     7
 48
0.14158
100
AcDbLine
 10
-124.827104
 20
75.697678
 30
0.0
 11
-130.28139
 21
74.173608
 31
0.0
210
0.0
220
0.0
230
1.0
  0
LINE
  5
49
100
AcDbEntity
  8
0
 62
     7
 48
0.107285
100
AcDbLine
 10
-120.540962
 20
75.485374
 30
0.0
 11
-124.827104
 21
75.697678
 31
0.0
210
0.0
220
0.0
230
1.0
  0
LINE
  5
4A
100
AcDbEntity
  8
0
 62
     7
 48
0.108475
100
AcDbLine
 10
-116.22247
 20
75.064131
 30
0.0
 11
-120.540962
 21
75.485374
 31
0.0
210
0.0
220
0.0
230
1.0
  0
LINE
  5
4B
100
AcDbEntity
  8
0
 62
     7
 48
0.046043
100
AcDbLine
 10
-115.323839
 20
76.67175
 30
0.0
 11
-116.22247
 21
75.064131
 31
0.0
210
0.0
220
0.0
230
1.0
  0
LINE
  5
4C
100
AcDbEntity
  8
0
 62
     7
 48
0.060616
100
AcDbLine
 10
-116.82041
 20
78.579396
 30
0.0
 11
-115.323839
 21
76.67175
 31
0.0
210
0.0
220
0.0
230
1.0
  0
LINE
  5
4D
100
AcDbEntity
  8
0
 62
     7
 48
0.09482
100
AcDbLine
 10
-120.234791
 20
80.230896
 30
0.0
 11
-116.82041
 21
78.579396
 31
0.0
210
0.0
220
0.0
230
1.0
  0
LINE
  5
4E
100
AcDbEntity
  8
0
 62
     7
 48
0.194695
100
AcDbLine
 10
-128.009701
 20
79.782871
 30
0.0
 11
-120.234791
 21
80.230896
 31
0.0
210
0.0
220
0.0
230
1.0
  0
LINE
  5
4F
100
AcDbEntity
  8
0
 62
     7
 48
0.151224
100
AcDbLine
 10
-133.544295
 20
77.341903
 30
0.0
 11
-128.009701
 21
79.782871
 31
0.0
210
0.0
220
0.0
230
1.0
  0
LINE
  5
50
100
AcDbEntity
  8
0
 62
     7
 48
0.13627
100
AcDbLine
 10
-136.853691
 20
73.010718
 30
0.0
 11
-133.544295
 21
77.341903
 31
0.0
210
0.0
220
0.0
230
1.0
  0
LINE
  5
51
100
AcDbEntity
  8
0
 62
     7
 48
0.056786
100
AcDbLine
 10
-136.503337
 20
70.766454
 30
0.0
 11
-136.853691
 21
73.010718
 31
0.0
210
0.0
220
0.0
230
1.0
  0
LINE
  5
52
100
AcDbEntity
  8
0
 62
     7
 48
0.078168
100
AcDbLine
 10
-133.480911
 20
71.567271
 30
0.0
 11
-136.503337
 21
70.766454
 31
0.0
210
0.0
220
0.0
230
1.0
  0
LINE
  5
53
100
AcDbEntity
  8
0
 62
     7
 48
0.103168
100
AcDbLine
 10
-130.28139
 20
74.173608
 30
0.0
 11
-133.480911
 21
71.567271
 31
0.0
210
0.0
220
0.0
230
1.0
  0
LINE
  5
54
100
AcDbEntity
  8
0
 62
     7
 48
0.095245
100
AcDbLine
 10
-115.182455
 20
89.394021
 30
0.0
 11
-118.915402
 21
90.155305
 31
0.0
210
0.0
220
0.0
230
1.0
  0
LINE
  5
55
100
AcDbEntity
  8
0
 62
     7
 48
0.153495
100
AcDbLine
 10
-118.915402
 20
90.155305
 30
0.0
 11
-125.053054
 21
89.993004
 31
0.0
210
0.0
220
0.0
230
1.0
  0
LINE
  5
56
100
AcDbEntity
  8
0
 62
     7
 48
0.082753
100
AcDbLine
 10
-125.053054
 20
89.993004
 30
0.0
 11
-127.231344
 21
92.485359
 31
0.0
210
0.0
220
0.0
230
1.0
  0
LINE
  5
57
100
AcDbEntity
  8
0
 62
     7
 48
0.052786
100
AcDbLine
 10
-127.231344
 20
92.485359
 30
0.0
 11
-128.20283
 21
94.360012
 31
0.0
210
0.0
220
0.0
230
1.0
  0
LINE
  5
58
100
AcDbEntity
  8
0
 62
     7
 48
0.116781
100
AcDbLine
 10
-128.20283
 20
94.360012
 30
0.0
 11
-132.724724
 21
93.188331
 31
0.0
210
0.0
220
0.0
230
1.0
  0
LINE
  5
59
100
AcDbEntity
  8
0
 62
     7
 48
0.136832
100
AcDbLine
 10
-132.724724
 20
93.188331
 30
0.0
 11
-134.156032
 21
87.905518
 31
0.0
210
0.0
220
0.0
230
1.0
  0
LINE
  5
5A
100
AcDbEntity
  8
0
 62
     7
 48
0.087662
100
AcDbLine
 10
-134.156032
 20
87.905518
 30
0.0
 11
-137.192885
 21
86.15257
 31
0.0
210
0.0
220
0.0
230
1.0
  0
LINE
  5
5B
100
AcDbEntity
  8
0
 62
     7
 48
0.094323
100
AcDbLine
 10
-137.192885
 20
86.15257
 30
0.0
 11
-140.803284
 21
87.247955
 31
0.0
210
0.0
220
0.0
230
1.0
  0
LINE
  5
5C
100
AcDbEntity
  8
0
 62
     7
 48
0.097329
100
AcDbLine
 10
-140.803284
 20
87.247955
 30
0.0
 11
-141.905787
 21
90.981726
 31
0.0
210
0.0
220
0.0
230
1.0
  0
LINE
  5
5D
100
AcDbEntity
  8
0
 62
     7
 48
0.133883
100
AcDbLine
 10
-141.905787
 20
90.981726
 30
0.0
 11
-147.243147
 21
90.543307
 31
0.0
210
0.0
220
0.0
230
1.0
  0
LINE
  5
5E
100
AcDbEntity
  8
0
 62
     7
 48
0.011081
100
AcDbLine
 10
-147.243147
 20
90.543307
 30
0.0
 11
-147.467027
 21
90.160773
 31
0.0
210
0.0
220
0.0
230
1.0
  0
LINE
  5
5F
100
AcDbEntity
  8
0
 62
     7
 48
0.156304
100
AcDbLine
 10
-147.467027
 20
90.160773
 30
0.0
 11
-146.135237
 21
84.052101
 31
0.0
210
0.0
220
0.0
230
1.0
  0
LINE
  5
60
100
AcDbEntity
  8
0
 62
     7
 48
0.101689
100
AcDbLine
 10
-146.135237
 20
84.052101
 30
0.0
 11
-143.644487
 21
80.836339
 31
0.0
210
0.0
220
0.0
230
1.0
  0
LINE
  5
61
100
AcDbEntity
  8
0
 62
     7
 48
0.130784
100
AcDbLine
 10
-143.644487
 20
80.836339
 30
0.0
 11
-138.681853
 21
79.181252
 31
0.0
210
0.0
220
0.0
230
1.0
  0
LINE
  5
62
100
AcDbEntity
  8
0
 62
     7
 48
0.147399
100
AcDbLine
 10
-138.681853
 20
79.181252
 30
0.0
 11
-132.985114
 21
80.700955
 31
0.0
210
0.0
220
0.0
230
1.0
  0
LINE
  5
63
100
AcDbEntity
  8
0
 62
     7
 48
0.142911
100
AcDbLine
 10
-132.985114
 20
80.700955
 30
0.0
 11
-128.972668
 21
84.772535
 31
0.0
210
0.0
220
0.0
230
1.0
  0
LINE
  5
64
100
AcDbEntity
  8
0
 62
     7
 48
0.104623
100
AcDbLine
 10
-128.972668
 20
84.772535
 30
0.0
 11
-125.137878
 21
83.096834
 31
0.0
210
0.0
220
0.0
230
1.0
  0
LINE
  5
65
100
AcDbEntity
  8
0
 62
     7
 48
0.207279
100
AcDbLine
 10
-125.137878
 20
83.096834
 30
0.0
 11
-116.847183
 21
83.010491
 31
0.0
210
0.0
220
0.0
230
1.0
  0
LINE
  5
66
100
AcDbEntity
  8
0
 62
     7
 48
0.043095
100
AcDbLine
 10
-116.847183
 20
83.010491
 30
0.0
 11
-115.173232
 21
82.598988
 31
0.0
210
0.0
220
0.0
230
1.0
  0
LINE
  5
67
100
AcDbEntity
  8
0
 62
     7
 48
0.169876
100
AcDbLine
 10
-115.173232
 20
82.598988
 30
0.0
 11
-115.182455
 21
89.394021
 31
0.0
210
0.0
220
0.0
230
1.0
  0
LINE
  5
68
100
AcDbEntity
  8
0
 62
     7
 48
0.069003
100
AcDbLine
 10
-121.587234
 20
144.16115
 30
0.0
 11
-124.027686
 21
145.450476
 31
0.0
210
0.0
220
0.0
230
1.0
  0
LINE
  5
69
100
AcDbEntity
  8
0
 62
     7
 48
0.051263
100
AcDbLine
 10
-124.027686
 20
145.450476
 30
0.0
 11
-125.548046
 21
146.826412
 31
0.0
210
0.0
220
0.0
230
1.0
  0
LINE
  5
6A
100
AcDbEntity
  8
0
 62
     7
 48
0.059576
100
AcDbLine
 10
-125.548046
 20
146.826412
 30
0.0
 11
-127.80689
 21
146.067108
 31
0.0
210
0.0
220
0.0
230
1.0
  0
LINE
  5
6B
100
AcDbEntity
  8
0
 62
     7
 48
0.104919
100
AcDbLine
 10
-127.80689
 20
146.067108
 30
0.0
 11
-129.54663
 21
142.247931
 31
0.0
210
0.0
220
0.0
230
1.0
  0
LINE
  5
6C
100
AcDbEntity
  8
0
 62
     7
 48
0.060806
100
AcDbLine
 10
-129.54663
 20
142.247931
 30
0.0
 11
-131.933559
 21
141.780647
 31
0.0
210
0.0
220
0.0
230
1.0
  0
LINE
  5
6D
100
AcDbEntity
  8
0
 62
     7
 48
0.084899
100
AcDbLine
 10
-131.933559
 20
141.780647
 30
0.0
 11
-133.924229
 21
144.531991
 31
0.0
210
0.0
220
0.0
230
1.0
  0
LINE
  5
6E
100
AcDbEntity
  8
0
 62
     7
 48
0.081955
100
AcDbLine
 10
-133.924229
 20
144.531991
 30
0.0
 11
-137.172385
 21
144.089274
 31
0.0
210
0.0
220
0.0
230
1.0
  0
LINE
  5
6F
100
AcDbEntity
  8
0
 62
     7
 48
0.069829
100
AcDbLine
 10
-137.172385
 20
144.089274
 30
0.0
 11
-137.024395
 21
141.300038
 31
0.0
210
0.0
220
0.0
230
1.0
  0
LINE
  5
70
100
AcDbEntity
  8
0
 62
     7
 48
0.105116
100
AcDbLine
 10
-137.024395
 20
141.300038
 30
0.0
 11
-134.553475
 21
137.898027
 31
0.0
210
0.0
220
0.0
230
1.0
  0
LINE
  5
71
100
AcDbEntity
  8
0
 62
     7
 48
0.114367
100
AcDbLine
 10
-134.553475
 20
137.898027
 30
0.0
 11
-130.011138
 21
137.354935
 31
0.0
210
0.0
220
0.0
230
1.0
  0
LINE
  5
72
100
AcDbEntity
  8
0
 62
     7
 48
0.107704
100
AcDbLine
 10
-130.011138
 20
137.354935
 30
0.0
 11
-126.505208
 21
139.858681
 31
0.0
210
0.0
220
0.0
230
1.0
  0
LINE
  5
73
100
AcDbEntity
  8
0
 62
     7
 48
0.038726
100
AcDbLine
 10
-126.505208
 20
139.858681
 30
0.0
 11
-125.143799
 21
140.597653
 31
0.0
210
0.0
220
0.0
230
1.0
  0
LINE
  5
74
100
AcDbEntity
  8
0
 62
     7
 48
0.103222
100
AcDbLine
 10
-125.143799
 20
140.597653
 30
0.0
 11
-121.100594
 21
139.760979
 31
0.0
210
0.0
220
0.0
230
1.0
  0
LINE
  5
75
100
AcDbEntity
  8
0
 62
     7
 48
0.108677
100
AcDbLine
 10
-121.100594
 20
139.760979
 30
0.0
 11
-116.776263
 21
139.31694
 31
0.0
210
0.0
220
0.0
230
1.0
  0
LINE
  5
76
100
AcDbEntity
  8
0
 62
     7
 48
0.112781
100
AcDbLine
 10
-116.776263
 20
139.31694
 30
0.0
 11
-116.354004
 21
143.808383
 31
0.0
210
0.0
220
0.0
230
1.0
  0
LINE
  5
77
100
AcDbEntity
  8
0
 62
     7
 48
0.115678
100
AcDbLine
 10
-116.354004
 20
143.808383
 30
0.0
 11
-120.964049
 21
144.2055
 31
0.0
210
0.0
220
0.0
230
1.0
  0
LINE
  5
78
100
AcDbEntity
  8
0
 62
     7
 48
0.015619
100
AcDbLine
 10
-120.964049
 20
144.2055
 30
0.0
 11
-121.587234
 21
144.16115
 31
0.0
210
0.0
220
0.0
230
1.0
  0
LINE
  5
79
100
AcDbEntity
  8
0
 62
     7
 48
0.232613
100
AcDbLine
 10
-125.265396
 20
118.826694
 30
0.0
 11
-116.068605
 21
117.414852
 31
0.0
210
0.0
220
0.0
230
1.0
  0
LINE
  5
7A
100
AcDbEntity
  8
0
 62
     7
 48
0.109111
100
AcDbLine
 10
-125.265395
 20
123.191144
 30
0.0
 11
-125.265395
 21
118.826694
 31
0.0
210
0.0
220
0.0
230
1.0
  0
LINE
  5
7B
100
AcDbEntity
  8
0
 62
     7
 48
0.028735
100
AcDbLine
 10
-125.265396
 20
123.191144
 30
0.0
 11
-124.122292
 21
123.070823
 31
0.0
210
0.0
220
0.0
230
1.0
  0
LINE
  5
7C
100
AcDbEntity
  8
0
 62
     7
 48
0.124494
100
AcDbLine
 10
-124.122292
 20
128.050591
 30
0.0
 11
-124.122292
 21
123.070823
 31
0.0
210
0.0
220
0.0
230
1.0
  0
LINE
  5
7D
100
AcDbEntity
  8
0
 62
     7
 48
0.031494
100
AcDbLine
 10
-125.265396
 20
127.521152
 30
0.0
 11
-124.122292
 21
128.050591
 31
0.0
210
0.0
220
0.0
230
1.0
  0
LINE
  5
7E
100
AcDbEntity
  8
0
 62
     7
 48
0.110099
100
AcDbLine
 10
-125.265395
 20
131.925105
 30
0.0
 11
-125.265395
 21
127.521152
 31
0.0
210
0.0
220
0.0
230
1.0
  0
LINE
  5
7F
100
AcDbEntity
  8
0
 62
     7
 48
0.257874
100
AcDbLine
 10
-125.265396
 20
131.925105
 30
0.0
 11
-116.068605
 21
136.59606
 31
0.0
210
0.0
220
0.0
230
1.0
  0
LINE
  5
80
100
AcDbEntity
  8
0
 62
     7
 48
0.122956
100
AcDbLine
 10
-116.068606
 20
136.59606
 30
0.0
 11
-116.068606
 21
131.677817
 31
0.0
210
0.0
220
0.0
230
1.0
  0
LINE
  5
81
100
AcDbEntity
  8
0
 62
     7
 48
0.116508
100
AcDbLine
 10
-120.24913
 20
129.61827
 30
0.0
 11
-116.068605
 21
131.677817
 31
0.0
210
0.0
220
0.0
230
1.0
  0
LINE
  5
82
100
AcDbEntity
  8
0
 62
     7
 48
0.174445
100
AcDbLine
 10
-120.24913
 20
129.61827
 30
0.0
 11
-120.24913
 21
122.64049
 31
0.0
210
0.0
220
0.0
230
1.0
  0
LINE
  5
83
100
AcDbEntity
  8
0
 62
     7
 48
0.105147
100
AcDbLine
 10
-120.24913
 20
122.64049
 30
0.0
 11
-116.068605
 21
122.179423
 31
0.0
210
0.0
220
0.0
230
1.0
  0
LINE
  5
84
100
AcDbEntity
  8
0
 62
     7
 48
0.119114
100
AcDbLine
 10
-116.068606
 20
122.179423
 30
0.0
 11
-116.068606
 21
117.414852
 31
0.0
210
0.0
220
0.0
230
1.0
  0
LINE
  5
85
100
AcDbEntity
  8
0
 62
     7
 48
0.28946
100
AcDbLine
 10
-137.493815
 20
125.714391
 30
0.0
 11
-127.170555
 21
130.957486
 31
0.0
210
0.0
220
0.0
230
1.0
  0
LINE
  5
86
100
AcDbEntity
  8
0
 62
     7
 48
0.107968
100
AcDbLine
 10
-127.170556
 20
130.957486
 30
0.0
 11
-127.170556
 21
126.638757
 31
0.0
210
0.0
220
0.0
230
1.0
  0
LINE
  5
87
100
AcDbEntity
  8
0
 62
     7
 48
0.157384
100
AcDbLine
 10
-132.88295
 20
123.993006
 30
0.0
 11
-127.170555
 21
126.638757
 31
0.0
210
0.0
220
0.0
230
1.0
  0
LINE
  5
88
100
AcDbEntity
  8
0
 62
     7
 48
0.143599
100
AcDbLine
 10
-132.88295
 20
123.993007
 30
0.0
 11
-127.170555
 21
123.391696
 31
0.0
210
0.0
220
0.0
230
1.0
  0
LINE
  5
89
100
AcDbEntity
  8
0
 62
     7
 48
0.106813
100
AcDbLine
 10
-127.170556
 20
123.391696
 30
0.0
 11
-127.170556
 21
119.119158
 31
0.0
210
0.0
220
0.0
230
1.0
  0
LINE
  5
8A
100
AcDbEntity
  8
0
 62
     7
 48
0.261105
100
AcDbLine
 10
-137.493816
 20
120.703933
 30
0.0
 11
-127.170555
 21
119.119158
 31
0.0
210
0.0
220
0.0
230
1.0
  0
LINE
  5
8B
100
AcDbEntity
  8
0
 62
     7
 48
0.125261
100
AcDbLine
 10
-137.493815
 20
125.714392
 30
0.0
 11
-137.493815
 21
120.703933
 31
0.0
210
0.0
220
0.0
230
1.0
  0
LINE
  5
8C
100
AcDbEntity
  8
0
 62
     7
 48
0.175828
100
AcDbLine
 10
-150.259579
 20
192.962164
 30
0.0
 11
-150.259579
 21
185.929052
 31
0.0
210
0.0
220
0.0
230
1.0
  0
LINE
  5
8D
100
AcDbEntity
  8
0
 62
     7
100
AcDbLine
 10
-150.259579
 20
192.962164
 30
0.0
 11
-116.126781
 21
189.814468
 31
0.0
210
0.0
220
0.0
230
1.0
  0
LINE
  5
8E
100
AcDbEntity
  8
0
 62
     7
 48
0.177057
100
AcDbLine
 10
-116.126782
 20
189.814468
 30
0.0
 11
-116.126782
 21
182.732177
 31
0.0
210
0.0
220
0.0
230
1.0
  0
LINE
  5
8F
100
AcDbEntity
  8
0
 62
     7
100
AcDbLine
 10
-150.259579
 20
166.305157
 30
0.0
 11
-116.126781
 21
182.732178
 31
0.0
210
0.0
220
0.0
230
1.0
  0
LINE
  5
90
100
AcDbEntity
  8
0
 62
     7
 48
0.184435
100
AcDbLine
 10
-150.259579
 20
173.682539
 30
0.0
 11
-150.259579
 21
166.305157
 31
0.0
210
0.0
220
0.0
230
1.0
  0
LINE
  5
91
100
AcDbEntity
  8
0
 62
     7
100
AcDbLine
 10
-150.259579
 20
173.682539
 30
0.0
 11
-127.143699
 21
184.010901
 31
0.0
210
0.0
220
0.0
230
1.0
  0
LINE
  5
92
100
AcDbEntity
  8
0
 62
     7
100
AcDbLine
 10
-150.259579
 20
185.929052
 30
0.0
 11
-127.143699
 21
184.0109
 31
0.0
210
0.0
220
0.0
230
1.0
  0
LINE
  5
93
100
AcDbEntity
  8
0
 62
     7
 48
0.295865
100
AcDbLine
 10
-116.241018
 20
172.002008
 30
0.0
 11
-116.241018
 21
160.16739
 31
0.0
210
0.0
220
0.0
230
1.0
  0
LINE
  5
94
100
AcDbEntity
  8
0
 62
     7
 48
0.094357
100
AcDbLine
 10
-119.929718
 20
159.368188
 30
0.0
 11
-116.241017
 21
160.16739
 31
0.0
210
0.0
220
0.0
230
1.0
  0
LINE
  5
95
100
AcDbEntity
  8
0
 62
     7
 48
0.094523
100
AcDbLine
 10
-119.929717
 20
163.149119
 30
0.0
 11
-119.929717
 21
159.368188
 31
0.0
210
0.0
220
0.0
230
1.0
  0
LINE
  5
96
100
AcDbEntity
  8
0
 62
     7
 48
0.356134
100
AcDbLine
 10
-133.885297
 20
160.290338
 30
0.0
 11
-119.929717
 21
163.149119
 31
0.0
210
0.0
220
0.0
230
1.0
  0
LINE
  5
97
100
AcDbEntity
  8
0
 62
     7
 48
0.086838
100
AcDbLine
 10
-133.885296
 20
160.290338
 30
0.0
 11
-133.885296
 21
156.816835
 31
0.0
210
0.0
220
0.0
230
1.0
  0
LINE
  5
98
100
AcDbEntity
  8
0
 62
     7
 48
0.094695
100
AcDbLine
 10
-137.573996
 20
155.956134
 30
0.0
 11
-133.885295
 21
156.816835
 31
0.0
210
0.0
220
0.0
230
1.0
  0
LINE
  5
99
100
AcDbEntity
  8
0
 62
     7
 48
0.295864
100
AcDbLine
 10
-137.573995
 20
167.790701
 30
0.0
 11
-137.573995
 21
155.956133
 31
0.0
210
0.0
220
0.0
230
1.0
  0
LINE
  5
9A
100
AcDbEntity
  8
0
 62
     7
 48
0.094523
100
AcDbLine
 10
-137.573996
 20
167.790701
 30
0.0
 11
-133.885295
 21
168.620669
 31
0.0
210
0.0
220
0.0
230
1.0
  0
LINE
  5
9B
100
AcDbEntity
  8
0
 62
     7
 48
0.095291
100
AcDbLine
 10
-133.885296
 20
168.620669
 30
0.0
 11
-133.885296
 21
164.809022
 31
0.0
210
0.0
220
0.0
230
1.0
  0
LINE
  5
9C
100
AcDbEntity
  8
0
 62
     7
 48
0.356134
100
AcDbLine
 10
-133.885297
 20
164.809022
 30
0.0
 11
-119.929717
 21
167.66777
 31
0.0
210
0.0
220
0.0
230
1.0
  0
LINE
  5
9D
100
AcDbEntity
  8
0
 62
     7
 48
0.086838
100
AcDbLine
 10
-119.929717
 20
171.141273
 30
0.0
 11
-119.929717
 21
167.66777
 31
0.0
210
0.0
220
0.0
230
1.0
  0
LINE
  5
9E
100
AcDbEntity
  8
0
 62
     7
 48
0.094695
100
AcDbLine
 10
-119.929718
 20
171.141273
 30
0.0
 11
-116.241017
 21
172.002008
 31
0.0
210
0.0
220
0.0
230
1.0
  0
LINE
  5
9F
100
AcDbEntity
  8
0
 62
     7
100
AcDbLine
 10
-137.573996
 20
146.107377
 30
0.0
 11
-116.241017
 21
150.730462
 31
0.0
210
0.0
220
0.0
230
1.0
  0
LINE
  5
A0
100
AcDbEntity
  8
0
 62
     7
 48
0.115577
100
AcDbLine
 10
-137.573995
 20
150.730462
 30
0.0
 11
-137.573995
 21
146.107377
 31
0.0
210
0.0
220
0.0
230
1.0
  0
LINE
  5
A1
100
AcDbEntity
  8
0
 62
     7
100
AcDbLine
 10
-137.573996
 20
150.730462
 30
0.0
 11
-116.241017
 21
155.21838
 31
0.0
210
0.0
220
0.0
230
1.0
  0
LINE
  5
A2
100
AcDbEntity
  8
0
 62
     7
 48
0.112198
100
AcDbLine
 10
-116.241018
 20
155.218381
 30
0.0
 11
-116.241018
 21
150.730462
 31
0.0
210
0.0
220
0.0
230
1.0
  0
LINE
  5
A3
100
AcDbEntity
  8
0
 62
     7
 48
0.135189
100
AcDbLine
 10
-132.822008
 20
22.292314
 30
0.0
 11
-132.822008
 21
16.884738
 31
0.0
210
0.0
220
0.0
230
1.0
  0
LINE
  5
A4
100
AcDbEntity
  8
0
 62
     7
 48
0.451702
100
AcDbLine
 10
-132.822008
 20
16.884738
 30
0.0
 11
-115.169673
 21
20.738414
 31
0.0
210
0.0
220
0.0
230
1.0
  0
LINE
  5
A5
100
AcDbEntity
  8
0
 62
     7
 48
0.118096
100
AcDbLine
 10
-115.169673
 20
20.738414
 30
0.0
 11
-115.169673
 21
16.014579
 31
0.0
210
0.0
220
0.0
230
1.0
  0
LINE
  5
A6
100
AcDbEntity
  8
0
 62
     7
 48
0.451702
100
AcDbLine
 10
-132.822008
 20
12.160903
 30
0.0
 11
-115.169673
 21
16.014579
 31
0.0
210
0.0
220
0.0
230
1.0
  0
LINE
  5
A7
100
AcDbEntity
  8
0
 62
     7
 48
0.118874
100
AcDbLine
 10
-132.822008
 20
12.160903
 30
0.0
 11
-132.822008
 21
7.405941
 31
0.0
210
0.0
220
0.0
230
1.0
  0
LINE
  5
A8
100
AcDbEntity
  8
0
 62
     7
 48
0.100118
100
AcDbLine
 10
-136.737838
 20
6.566791
 30
0.0
 11
-132.822007
 21
7.405941
 31
0.0
210
0.0
220
0.0
230
1.0
  0
LINE
  5
A9
100
AcDbEntity
  8
0
 62
     7
 48
0.372161
100
AcDbLine
 10
-136.737837
 20
21.453231
 30
0.0
 11
-136.737837
 21
6.566791
 31
0.0
210
0.0
220
0.0
230
1.0
  0
LINE
  5
AA
100
AcDbEntity
  8
0
 62
     7
 48
0.100118
100
AcDbLine
 10
-136.737838
 20
21.453231
 30
0.0
 11
-132.822007
 21
22.292313
 31
0.0
210
0.0
220
0.0
230
1.0
  0
LINE
  5
AB
100
AcDbEntity
  8
0
 62
     7
100
AcDbLine
 10
-147.469216
 20
92.752696
 30
0.0
 11
-115.116963
 21
99.763771
 31
0.0
210
0.0
220
0.0
230
1.0
  0
LINE
  5
AC
100
AcDbEntity
  8
0
 62
     7
 48
0.175276
100
AcDbLine
 10
-147.469215
 20
99.763719
 30
0.0
 11
-147.469215
 21
92.752696
 31
0.0
210
0.0
220
0.0
230
1.0
  0
LINE
  5
AD
100
AcDbEntity
  8
0
 62
     7
100
AcDbLine
 10
-147.469216
 20
99.763719
 30
0.0
 11
-115.116952
 21
106.56986
 31
0.0
210
0.0
220
0.0
230
1.0
  0
LINE
  5
AE
100
AcDbEntity
  8
0
 62
     7
 48
0.170153
100
AcDbLine
 10
-115.116953
 20
106.56986
 30
0.0
 11
-115.116953
 21
99.763757
 31
0.0
210
0.0
220
0.0
230
1.0
  0
LINE
  5
AF
100
AcDbEntity
  8
0
 62
     7
100
AcDbLine
 10
-136.768923
 20
58.373978
 30
0.0
 11
-115.169673
 21
63.035677
 31
0.0
210
0.0
220
0.0
230
1.0
  0
LINE
  5
B0
100
AcDbEntity
  8
0
 62
     7
 48
0.112507
100
AcDbLine
 10
-115.169673
 20
63.035677
 30
0.0
 11
-115.169673
 21
58.535396
 31
0.0
210
0.0
220
0.0
230
1.0
  0
LINE
  5
B1
100
AcDbEntity
  8
0
 62
     7
100
AcDbLine
 10
-136.768923
 20
53.807911
 30
0.0
 11
-115.169673
 21
58.535397
 31
0.0
210
0.0
220
0.0
230
1.0
  0
LINE
  5
B2
100
AcDbEntity
  8
0
 62
     7
 48
0.114152
100
AcDbLine
 10
-136.768922
 20
58.373978
 30
0.0
 11
-136.768922
 21
53.807911
 31
0.0
210
0.0
220
0.0
230
1.0
  0
LINE
  5
B3
100
AcDbEntity
  8
0
 62
     7
 48
0.042393
100
AcDbLine
 10
-131.141799
 20
36.316844
 30
0.0
 11
-132.475008
 21
35.268974
 31
0.0
210
0.0
220
0.0
230
1.0
  0
LINE
  5
B4
100
AcDbEntity
  8
0
 62
     7
 48
0.198417
100
AcDbLine
 10
-123.491342
 20
38.429084
 30
0.0
 11
-131.141799
 21
36.316844
 31
0.0
210
0.0
220
0.0
230
1.0
  0
LINE
  5
B5
100
AcDbEntity
  8
0
 62
     7
 48
0.0946
100
AcDbLine
 10
-119.777669
 20
37.702954
 30
0.0
 11
-123.491342
 21
38.429084
 31
0.0
210
0.0
220
0.0
230
1.0
  0
LINE
  5
B6
100
AcDbEntity
  8
0
 62
     7
 48
0.0675
100
AcDbLine
 10
-117.097824
 20
37.373738
 30
0.0
 11
-119.777669
 21
37.702954
 31
0.0
210
0.0
220
0.0
230
1.0
  0
LINE
  5
B7
100
AcDbEntity
  8
0
 62
     7
 48
0.061056
100
AcDbLine
 10
-115.203385
 20
38.915036
 30
0.0
 11
-117.097824
 21
37.373738
 31
0.0
210
0.0
220
0.0
230
1.0
  0
LINE
  5
B8
100
AcDbEntity
  8
0
 62
     7
 48
0.016031
100
AcDbLine
 10
-115.447258
 20
39.508105
 30
0.0
 11
-115.203385
 21
38.915036
 31
0.0
210
0.0
220
0.0
230
1.0
  0
LINE
  5
B9
100
AcDbEntity
  8
0
 62
     7
 48
0.127007
100
AcDbLine
 10
-119.464044
 20
42.618496
 30
0.0
 11
-115.447258
 21
39.508105
 31
0.0
210
0.0
220
0.0
230
1.0
  0
LINE
  5
BA
100
AcDbEntity
  8
0
 62
     7
 48
0.117914
100
AcDbLine
 10
-124.168705
 20
42.953331
 30
0.0
 11
-119.464044
 21
42.618496
 31
0.0
210
0.0
220
0.0
230
1.0
  0
LINE
  5
BB
100
AcDbEntity
  8
0
 62
     7
 48
0.172508
100
AcDbLine
 10
-130.898533
 20
41.428886
 30
0.0
 11
-124.168705
 21
42.953331
 31
0.0
210
0.0
220
0.0
230
1.0
  0
LINE
  5
BC
100
AcDbEntity
  8
0
 62
     7
 48
0.137895
100
AcDbLine
 10
-135.378865
 20
38.211627
 30
0.0
 11
-130.898533
 21
41.428886
 31
0.0
210
0.0
220
0.0
230
1.0
  0
LINE
  5
BD
100
AcDbEntity
  8
0
 62
     7
 48
0.119743
100
AcDbLine
 10
-137.161396
 20
33.765948
 30
0.0
 11
-135.378865
 21
38.211627
 31
0.0
210
0.0
220
0.0
230
1.0
  0
LINE
  5
BE
100
AcDbEntity
  8
0
 62
     7
 48
0.038858
100
AcDbLine
 10
-135.660897
 20
33.360426
 30
0.0
 11
-137.161396
 21
33.765948
 31
0.0
210
0.0
220
0.0
230
1.0
  0
LINE
  5
BF
100
AcDbEntity
  8
0
 62
     7
 48
0.092845
100
AcDbLine
 10
-132.475008
 20
35.268974
 30
0.0
 11
-135.660897
 21
33.360426
 31
0.0
210
0.0
220
0.0
230
1.0
  0
LINE
  5
C0
100
AcDbEntity
  8
0
 62
     7
 48
0.108989
100
AcDbLine
 10
-136.740056
 20
51.103573
 30
0.0
 11
-135.701728
 21
46.869454
 31
0.0
210
0.0
220
0.0
230
1.0
  0
LINE
  5
C1
100
AcDbEntity
  8
0
 62
     7
 48
0.107849
100
AcDbLine
 10
-135.701728
 20
46.869454
 30
0.0
 11
-132.001355
 21
44.65188
 31
0.0
210
0.0
220
0.0
230
1.0
  0
LINE
  5
C2
100
AcDbEntity
  8
0
 62
     7
 48
0.108386
100
AcDbLine
 10
-132.001355
 20
44.65188
 30
0.0
 11
-127.776891
 21
45.626477
 31
0.0
210
0.0
220
0.0
230
1.0
  0
LINE
  5
C3
100
AcDbEntity
  8
0
 62
     7
 48
0.057096
100
AcDbLine
 10
-127.776891
 20
45.626477
 30
0.0
 11
-126.117979
 21
47.196145
 31
0.0
210
0.0
220
0.0
230
1.0
  0
LINE
  5
C4
100
AcDbEntity
  8
0
 62
     7
 48
0.124842
100
AcDbLine
 10
-126.117979
 20
47.196145
 30
0.0
 11
-121.425502
 21
45.488061
 31
0.0
210
0.0
220
0.0
230
1.0
  0
LINE
  5
C5
100
AcDbEntity
  8
0
 62
     7
 48
0.121923
100
AcDbLine
 10
-121.425502
 20
45.488061
 30
0.0
 11
-116.949613
 21
47.424749
 31
0.0
210
0.0
220
0.0
230
1.0
  0
LINE
  5
C6
100
AcDbEntity
  8
0
 62
     7
 48
0.122771
100
AcDbLine
 10
-116.949613
 20
47.424749
 30
0.0
 11
-115.29688
 21
52.049125
 31
0.0
210
0.0
220
0.0
230
1.0
  0
LINE
  5
C7
100
AcDbEntity
  8
0
 62
     7
 48
0.103113
100
AcDbLine
 10
-115.29688
 20
52.049125
 30
0.0
 11
-115.647195
 21
56.158738
 31
0.0
210
0.0
220
0.0
230
1.0
  0
LINE
  5
C8
100
AcDbEntity
  8
0
 62
     7
 48
0.087347
100
AcDbLine
 10
-115.647195
 20
56.158738
 30
0.0
 11
-118.955727
 21
55.035909
 31
0.0
210
0.0
220
0.0
230
1.0
  0
LINE
  5
C9
100
AcDbEntity
  8
0
 62
     7
 48
0.099521
100
AcDbLine
 10
-118.955727
 20
55.035909
 30
0.0
 11
-119.833953
 21
51.153141
 31
0.0
210
0.0
220
0.0
230
1.0
  0
LINE
  5
CA
100
AcDbEntity
  8
0
 62
     7
 48
0.066551
100
AcDbLine
 10
-119.833953
 20
51.153141
 30
0.0
 11
-122.306298
 21
50.16621
 31
0.0
210
0.0
220
0.0
230
1.0
  0
LINE
  5
CB
100
AcDbEntity
  8
0
 62
     7
 48
0.070693
100
AcDbLine
 10
-122.306298
 20
50.16621
 30
0.0
 11
-124.465284
 21
51.992356
 31
0.0
210
0.0
220
0.0
230
1.0
  0
LINE
  5
CC
100
AcDbEntity
  8
0
 62
     7
 48
0.06077
100
AcDbLine
 10
-124.465284
 20
51.992356
 30
0.0
 11
-125.588794
 21
54.147916
 31
0.0
210
0.0
220
0.0
230
1.0
  0
LINE
  5
CD
100
AcDbEntity
  8
0
 62
     7
 48
0.070091
100
AcDbLine
 10
-125.588794
 20
54.147916
 30
0.0
 11
-128.16828
 21
53.049461
 31
0.0
210
0.0
220
0.0
230
1.0
  0
LINE
  5
CE
100
AcDbEntity
  8
0
 62
     7
 48
0.086914
100
AcDbLine
 10
-128.16828
 20
53.049461
 30
0.0
 11
-129.218816
 21
49.735405
 31
0.0
210
0.0
220
0.0
230
1.0
  0
LINE
  5
CF
100
AcDbEntity
  8
0
 62
     7
 48
0.05641
100
AcDbLine
 10
-129.218816
 20
49.735405
 30
0.0
 11
-131.418104
 21
49.230942
 31
0.0
210
0.0
220
0.0
230
1.0
  0
LINE
  5
D0
100
AcDbEntity
  8
0
 62
     7
 48
0.074868
100
AcDbLine
 10
-131.418104
 20
49.230942
 30
0.0
 11
-132.929955
 21
51.816033
 31
0.0
210
0.0
220
0.0
230
1.0
  0
LINE
  5
D1
100
AcDbEntity
  8
0
 62
     7
 48
0.080754
100
AcDbLine
 10
-132.929955
 20
51.816033
 30
0.0
 11
-136.148701
 21
52.087301
 31
0.0
210
0.0
220
0.0
230
1.0
  0
LINE
  5
D2
100
AcDbEntity
  8
0
 62
     7
 48
0.028695
100
AcDbLine
 10
-136.148701
 20
52.087301
 30
0.0
 11
-136.740056
 21
51.103573
 31
0.0
210
0.0
220
0.0
230
1.0
  0
LINE
  5
D3
100
AcDbEntity
  8
0
  6
AXES
 62
     1
100
AcDbLine
 10
-82.466913
 20
200.0
 30
0.0
 11
-82.466913
 21
0.0
 31
0.0
210
0.0
220
0.0
230
1.0
  0
LINE
  5
D4
100
AcDbEntity
  8
0
  6
AXES
 62
     1
100
AcDbLine
 10
-181.782556
 20
200.0
 30
0.0
 11
-181.782556
 21
0.0
 31
0.0
210
0.0
220
0.0
230
1.0
  0
ENDSEC
  0
SECTION
  2
OBJECTS
  0
DICTIONARY
  5
19
100
AcDbDictionary
  3
ACAD_GROUP
350
1A
  3
ACAD_MLINESTYLE
350
1B
  0
DICTIONARY
  5
1A
102
{ACAD_REACTORS
330
19
102
}
100
AcDbDictionary
  0
DICTIONARY
  5
1B
102
{ACAD_REACTORS
330
19
102
}
100
AcDbDictionary
  3
STANDARD
350
1C
  0
MLINESTYLE
  5
1C
102
{ACAD_REACTORS
330
1B
102
}
100
AcDbMlineStyle
  2
STANDARD
 70
     0
  3

 62
     0
 51
90.0
 52
90.0
 71
     2
 49
0.5
 62
   256
  6
BYLAYER
 49
-0.5
 62
   256
  6
BYLAYER
  0
ENDSEC
  0
EOF
